<svg xmlns="http://www.w3.org/2000/svg" xmlns:xlink="http://www.w3.org/1999/xlink" viewBox="0 0 534.5 750.5"><defs><style>.cls-1{fill:#033;opacity:0.7;}.cls-2{fill:#605030;}.cls-3,.cls-6{fill:none;}.cls-3{stroke:#352913;}.cls-3,.cls-6,.cls-8{stroke-linecap:round;stroke-linejoin:round;}.cls-3,.cls-8{stroke-width:10px;}.cls-4{fill:#887040;}.cls-5{fill:#b28330;}.cls-6{stroke:#755014;stroke-width:13px;}.cls-7{fill:#352913;}.cls-8{fill:#285830;stroke:#030;}.cls-9{fill:#286941;}.cls-10{fill:#030;}.cls-11{fill:#3e8758;}.cls-12{fill:url(#linear-gradient);}</style><linearGradient id="linear-gradient" x1="266.02" y1="34.49" x2="266.02" y2="681.46" gradientUnits="userSpaceOnUse"><stop offset="0.1" stop-color="gray" stop-opacity="0"/><stop offset="1"/></linearGradient></defs><title>env</title><g id="tree"><ellipse class="cls-1" cx="274.42" cy="548.37" rx="219.3" ry="166.12"/><polygon class="cls-2" points="174.04 464.64 154.67 471.96 141.82 487.05 132.2 500.52 122.39 514.52 114.43 529.28 128.09 535.48 143 539.29 156.3 546.23 171.45 562.57 160.51 577.63 152.63 592.31 146.66 608.13 150.37 629.53 168.44 630 183.11 621.38 199.33 620.48 211.68 610.36 232.12 602.84 238.58 614.48 240.16 628.25 251.95 643.84 258.78 661.8 272.13 676.46 285.71 659.74 294.4 640.73 307.99 624.78 323.73 606.11 341.69 618.21 359.71 626.81 379.47 627.33 397.75 632.14 401.8 606.46 395.95 589.66 386.44 574.31 369.29 561.98 388.17 551.76 398.13 546.98 414.18 547.64 430.63 544.83 426.51 528.15 419.68 513.05 414.44 496.99 397.69 485.56 380.45 476.77 361.37 469.48 375.99 462.26 381.29 448.94 393.23 435.6 403.79 421.51 406.19 405.24 386.18 401.51 367.23 406.94 348.24 411.35 329.58 407.81 311.09 407.3 301.77 395.43 291.5 381.84 281.79 367.94 271.95 354.94 259.17 365.57 245.75 375.9 239.26 392.71 232.36 408.03 214.72 407.57 197.46 404.5 179.74 405.36 158.1 401.79 135.68 393.2 138.81 412.43 148.76 426.78 156.92 439.88 167.71 449.16 174.04 464.64"/><polygon class="cls-3" points="174.04 464.64 154.67 471.96 141.82 487.05 132.2 500.52 122.39 514.52 114.43 529.28 128.09 535.48 143 539.29 156.3 546.23 171.45 562.57 160.51 577.63 152.63 592.31 146.66 608.13 150.37 629.53 168.44 630 183.11 621.38 199.33 620.48 211.68 610.36 232.12 602.84 238.58 614.48 240.16 628.25 251.95 643.84 258.78 661.8 272.13 676.46 285.71 659.74 294.4 640.73 307.99 624.78 323.73 606.11 341.69 618.21 359.71 626.81 379.47 627.33 397.75 632.14 401.8 606.46 395.95 589.66 386.44 574.31 369.29 561.98 388.17 551.76 398.13 546.98 414.18 547.64 430.63 544.83 426.51 528.15 419.68 513.05 414.44 496.99 397.69 485.56 380.45 476.77 361.37 469.48 375.99 462.26 381.29 448.94 393.23 435.6 403.79 421.51 406.19 405.24 386.18 401.51 367.23 406.94 348.24 411.35 329.58 407.81 311.09 407.3 301.77 395.43 291.5 381.84 281.79 367.94 271.95 354.94 259.17 365.57 245.75 375.9 239.26 392.71 232.36 408.03 214.72 407.57 197.46 404.5 179.74 405.36 158.1 401.79 135.68 393.2 138.81 412.43 148.76 426.78 156.92 439.88 167.71 449.16 174.04 464.64"/><polygon class="cls-4" points="258.65 629.14 271.39 651.84 271.4 635.34 273.25 618.42 282.92 606.18 293.49 594.32 279.52 589.21 266.35 583.26 263.83 563.92 262.4 543.89 255.11 559.36 248.07 574.34 240.28 589.42 250.58 608.98 258.65 629.14"/><polygon class="cls-4" points="160.05 606.75 167.33 591.67 178.49 578.88 195.48 559.18 198.21 542.68 200.01 525.94 203.19 509.33 205.39 528.32 205.04 547.44 207.33 566.3 219.44 576.65 231.46 585.97 213.66 586.36 194.91 585.54 177.97 597.42 160.05 606.75"/><polygon class="cls-4" points="335.94 586.42 349.38 568.48 350.41 553.86 352.02 539.47 357.37 563.3 370.59 576.96 384.13 590.41 389.22 602.9 391.35 615.79 380.16 606.9 370.12 596.45 353.04 591.79 335.94 586.42"/><polygon class="cls-4" points="321.3 502.08 326.69 521.52 334 541.32 330.29 557.81 326.93 574.14 322.89 590.75 316.67 567.38 322.54 543.31 322.24 522.38 321.3 502.08"/><polygon class="cls-4" points="234.63 572.83 230.96 553.91 227.69 535.34 234.46 523.48 240.08 498.2 242.48 519.9 245.61 541.47 237.65 547.55 234.63 572.83"/><polygon class="cls-4" points="292.67 580.02 288.03 560.37 297.66 535.31 295.23 516.77 291.37 498.87 298.93 514.99 307.3 531.37 303.49 555.43 300.29 577.44 292.67 580.02"/><polygon class="cls-4" points="270.38 499.71 265.61 523.37 269.33 543.36 272.11 563.32 276.81 537.35 276.63 516.3 270.38 499.71"/><polygon class="cls-4" points="414.45 531.7 407.54 516.59 402.28 501.17 387.1 494.29 372.24 486.99 356.92 480.39 372.34 493.14 387.91 505.42 379.7 519.73 394.04 511.48 404.07 521.36 414.45 531.7"/><polygon class="cls-4" points="180.17 480.32 161.93 479.99 147.78 490.17 141.82 505.28 133.42 524.27 144.5 513.83 156.02 503.34 168.17 492.01 180.17 480.32"/><polygon class="cls-4" points="144.39 405.24 162.52 408.58 180.13 410.8 200.54 413.49 221.1 415.38 200.46 417.15 180.22 420.52 190.91 428.7 169.92 422.16 174.05 439.24 158.99 422.87 144.39 405.24"/><polygon class="cls-4" points="240.64 409.49 249.91 385.29 269.08 366.44 269.12 376.38 270.41 390.9 272.05 405.24 273.75 390.9 275.05 375.94 284.99 390.93 294.89 405.44 294.88 419.18 275.09 422.01 258.24 415.38 240.64 409.49"/><polygon class="cls-4" points="324.72 422.36 341.08 420.61 356.97 418.53 354.05 426.67 369.89 417.95 384.46 415.74 399.06 414.39 378.05 424.38 368.96 434.8 360.08 445.35 374.33 438.92 362.56 446.9 351.12 454.92 337.83 450.53 324.36 445.29 340.6 434.38 324.72 422.36"/><polygon class="cls-5" points="386.82 489.38 368.56 525.89 342.68 553.25 313.15 582.12 272.05 578.78 233.16 575.41 196.94 558.91 171.33 528.11 161.33 489.38 169.05 449.45 199.59 423.21 234.13 406.31 272.05 394.3 311.92 400.4 346.32 420.93 376 448.95 386.82 489.38"/><polygon class="cls-3" points="386.82 489.38 368.56 525.89 342.68 553.25 313.15 582.12 272.05 578.78 233.16 575.41 196.94 558.91 171.33 528.11 161.33 489.38 169.05 449.45 199.59 423.21 234.13 406.31 272.05 394.3 311.92 400.4 346.32 420.93 376 448.95 386.82 489.38"/><polygon class="cls-6" points="353.77 489.38 350.58 505.4 340.31 517.9 334.88 535.11 317.43 539.15 302.34 544.35 287.35 550.73 271.05 558.86 253.76 557 237.74 550.33 224.48 539.51 208.82 533.27 196.04 521.9 188.72 506.32 185.81 489.38 185.19 471.28 201.36 460.57 205.77 441.99 219.15 429.71 238.22 429.86 255.12 430.27 271.05 426.6 288.61 420.08 303.01 432.43 322.01 431.4 337.41 440.76 349.14 454.72 348.39 474.09 353.77 489.38"/><polygon class="cls-6" points="316.2 489.38 317.1 506.89 306.78 522.89 286.66 520.85 271.05 529.53 256.13 518.52 242.65 512.41 224.13 507.42 221.78 489.38 223.12 470.75 242.22 465.74 255.93 459.58 271.05 449.65 287.06 456.54 302.9 461.42 312.15 474.84 316.2 489.38"/><polygon class="cls-7" points="270.05 460.38 277.05 480.38 307.05 489.38 277.05 492.38 273.69 509.38 268.05 489.38 237.05 491.38 266.05 480.38 270.05 460.38"/><path class="cls-8" d="M498,471.5l-11,45s-19,25-37,36-22,22-22,22l-21,13s-72,0-83,7-73,0-73,0l-84,6s-51.94-13-56-15c-10-5-15-23-15-23s-54-25-56-46-7-68-7-68,3-39,17-46c7.41-3.71,12.3-6.57,15.26-8.44,2.63-1.67,3.74-2.56,3.74-2.56s49-17,61-22,95-11,95-11h94l82,14,54,12a264.54,264.54,0,0,1,32,29C504,431.5,498,471.5,498,471.5Z"/><path class="cls-9" d="M473,464.5q-7,20.49-14,41l-48,40-89,26-84-13-86,5-69-42q-11-35-22-70l19-4,42,66,82,18H351l105-67Z"/><path class="cls-10" d="M167,605.5a5,5,0,0,1-1.21-.15c-12.31-3.08-52.81-13.27-57-15.38-9.72-4.86-15.05-18.36-16.89-23.9A258.64,258.64,0,0,1,66,551.57C46.16,538.75,36,527.43,35,517c-2-20.73-6.94-67.47-7-67.94a5.66,5.66,0,0,1,0-.92c.33-4.28,3.69-42.05,19.75-50.08,13.16-6.58,18.08-10.41,18.13-10.45a5.56,5.56,0,0,1,1.47-.81c.49-.16,49-17,60.72-21.89,12.39-5.16,88-10.75,96.56-11.37H319a4.76,4.76,0,0,1,.84.07l82,14,.24.05,54,12a5,5,0,0,1,1.88.85,267,267,0,0,1,32.67,29.6c18.46,19.54,12.57,60.44,12.31,62.17,0,.15-.05.3-.08.45l-11,45a5,5,0,0,1-.88,1.83c-.8,1.05-19.78,25.88-38.37,37.24-16,9.78-19.89,19.41-19.93,19.5a4.83,4.83,0,0,1-2.05,2.49l-21,13a5,5,0,0,1-2.63.75c-29.29,0-73.58,1.93-80.32,6.22-3.53,2.24-11.88,5-43.56,3.4-15.21-.79-29.49-2.31-32.22-2.6l-83.54,6ZM113.2,581c3.08,1.35,30.05,8.4,54.24,14.44l83.2-5.94a5.66,5.66,0,0,1,.92,0c29.62,3.34,63.81,4.54,69.76.75,11.24-7.15,69.26-7.75,84.26-7.78L424.1,571c2-3.87,8-13.48,23.29-22.8s31.64-29.66,35-34l10.68-43.73c.41-3,4.82-38.23-9.71-53.62a270.63,270.63,0,0,0-30.51-27.79L400,377.41,318.58,363.5h-93.4c-33.05,2.39-85,7.18-93.26,10.61-11.34,4.73-54.17,19.64-60.55,21.86-1.92,1.39-7.64,5.25-19.13,11-7.82,3.91-13,26.43-14.22,41.46.53,4.95,5.08,47.92,7,67.59C46.24,529.24,78.23,548.76,98.1,558a5,5,0,0,1,2.72,3.2C102,565.27,106.72,577.73,113.2,581Zm0,0h0Z"/><polygon class="cls-11" points="123.89 501.58 108.72 532.41 80.9 533.96 98.97 507.21 123.89 501.58"/><polygon class="cls-11" points="135.71 520.98 133.02 549.79 111.6 559.36 117.79 532.89 135.71 520.98"/><polygon class="cls-11" points="442.92 537.48 417.54 527.61 414.41 505.75 436.77 518.19 442.92 537.48"/><path class="cls-8" d="M477.75,404.93l-9.59,39.24S451.6,466,435.9,475.55s-19.18,19.18-19.18,19.18l-18.3,11.33s-62.78,0-72.36,6.11-63.65,0-63.65,0l-73.23,5.23s-45.28-11.31-48.82-13.08c-8.72-4.36-13.08-20.05-13.08-20.05s-47.07-21.8-48.82-40.1-6.1-59.29-6.1-59.29,2.61-34,14.82-40.1c6.46-3.23,10.72-5.73,13.3-7.36a37.53,37.53,0,0,0,3.26-2.23s42.72-14.82,53.18-19.18,82.83-9.59,82.83-9.59H321.7l71.48,12.21,47.08,10.46a230.57,230.57,0,0,1,27.9,25.28C483,370.06,477.75,404.93,477.75,404.93Z"/><path class="cls-9" d="M456,398.83q-6.09,17.88-12.2,35.75L401.9,469.45l-77.59,22.67-73.23-11.34-75,4.36L116,448.53q-9.58-30.52-19.18-61L113.33,384,150,441.55l71.49,15.69H349.59l91.54-58.41Z"/><path class="cls-10" d="M189.18,521.76a4.8,4.8,0,0,1-1.06-.13c-10.73-2.68-46-11.57-49.71-13.41-8.47-4.24-13.13-16-14.73-20.84a227.8,227.8,0,0,1-22.52-12.63c-17.32-11.19-26.17-21.06-27-30.17-1.72-18.08-6.05-58.83-6.1-59.24a5.21,5.21,0,0,1,0-.79c.29-3.73,3.21-36.66,17.22-43.67,11.47-5.73,15.76-9.07,15.81-9.11a4.68,4.68,0,0,1,1.28-.7c.42-.15,42.71-14.83,52.93-19.08,10.8-4.51,76.7-9.38,84.18-9.92H321.7a4.49,4.49,0,0,1,.73.06l71.49,12.21.21,0,47.08,10.46a4.47,4.47,0,0,1,1.63.74,232.75,232.75,0,0,1,28.49,25.81c16.09,17,11,52.69,10.73,54.2,0,.13-.05.26-.08.39l-9.59,39.23a4.3,4.3,0,0,1-.76,1.6c-.7.92-17.25,22.57-33.45,32.47-13.94,8.52-17.35,16.91-17.38,17a4.22,4.22,0,0,1-1.78,2.17l-18.31,11.33a4.31,4.31,0,0,1-2.29.65c-25.54,0-64.15,1.69-70,5.43-3.08,1.95-10.37,4.39-38,3-13.26-.69-25.71-2-28.08-2.27l-72.84,5.21Zm-46.9-21.35c2.68,1.17,26.2,7.32,47.28,12.59l72.54-5.18a4.26,4.26,0,0,1,.8,0c25.82,2.91,55.63,4,60.81.65,9.81-6.24,60.39-6.75,73.46-6.78l16.15-10c1.72-3.37,7-11.76,20.31-19.88s27.58-25.86,30.52-29.6l9.31-38.12c.36-2.62,4.2-33.33-8.47-46.75a233.89,233.89,0,0,0-26.6-24.22L392.34,322.9l-71-12.12H239.9c-28.81,2.09-74.12,6.26-81.3,9.25-9.89,4.12-47.23,17.12-52.79,19.06-1.67,1.21-6.66,4.58-16.68,9.59-6.81,3.41-11.32,23-12.39,36.15.45,4.3,4.43,41.77,6.06,58.92,1.1,11.53,29,28.54,46.31,36.56a4.37,4.37,0,0,1,2.37,2.79C132.49,486.68,136.63,497.55,142.28,500.41Zm0,0h0Z"/><polygon class="cls-11" points="253.94 449.41 266.93 474.66 254.26 493.88 245.41 468.72 253.94 449.41"/><polygon class="cls-11" points="286.27 448.91 311 472.77 304 499.73 284.03 474.37 286.27 448.91"/><path class="cls-8" d="M451.06,336.81l-8.33,34.07s-14.38,18.92-28,27.25-16.65,16.65-16.65,16.65l-15.9,9.84s-54.5,0-62.82,5.3-55.26,0-55.26,0l-63.58,4.54s-39.31-9.82-42.39-11.36c-7.57-3.78-11.35-17.41-11.35-17.41s-40.88-18.92-42.39-34.81-5.3-51.47-5.3-51.47,2.27-29.52,12.87-34.82c5.61-2.81,9.31-5,11.55-6.39,2-1.27,2.83-1.94,2.83-1.94s37.09-12.87,46.17-16.65,71.91-8.33,71.91-8.33h71.15l62.07,10.6L418.51,271a200,200,0,0,1,24.22,22C455.6,306.54,451.06,336.81,451.06,336.81Z"/><path class="cls-9" d="M432.14,322.52l-10.6,31-36.33,30.28-67.37,19.68-63.58-9.84-65.09,3.78-52.23-31.79C134,356.17,121,330.5,121,330.5l6-25h19l18,47,56,12,114-6,57-30-1-26,14-16Z"/><path class="cls-10" d="M200.52,438.24a4.06,4.06,0,0,1-.92-.11c-9.31-2.33-40-10-43.16-11.64-7.36-3.68-11.4-13.9-12.79-18.09a197.69,197.69,0,0,1-19.55-11c-15-9.71-22.72-18.28-23.48-26.19-1.49-15.7-5.25-51.08-5.29-51.43a3.18,3.18,0,0,1,0-.69c.25-3.24,2.78-31.84,15-37.92,10-5,13.68-7.88,13.72-7.9a3.65,3.65,0,0,1,1.11-.61c.37-.13,37.08-12.88,46-16.57,9.38-3.91,66.59-8.14,73.09-8.61h71.42a4.48,4.48,0,0,1,.64.05l62.07,10.6.18,0,40.87,9.08a3.66,3.66,0,0,1,1.42.64,202.74,202.74,0,0,1,24.74,22.4c14,14.8,9.51,45.76,9.31,47.07,0,.11,0,.22-.06.33l-8.33,34.07a3.87,3.87,0,0,1-.66,1.39c-.61.79-15,19.59-29.05,28.19-12.1,7.39-15.05,14.68-15.08,14.75a3.7,3.7,0,0,1-1.55,1.89l-15.9,9.84a3.79,3.79,0,0,1-2,.56c-22.17,0-55.69,1.46-60.79,4.71-2.67,1.7-9,3.82-33,2.57-11.51-.59-22.32-1.74-24.38-2l-63.24,4.51ZM159.8,419.71c2.33,1,22.75,6.35,41,10.93l63-4.5a3.3,3.3,0,0,1,.7,0c22.41,2.53,48.29,3.43,52.79.56,8.51-5.41,52.43-5.86,63.78-5.89l14-8.67c1.49-2.93,6.1-10.21,17.64-17.26s23.94-22.46,26.49-25.71l8.09-33.09c.31-2.27,3.65-28.94-7.36-40.59a203.64,203.64,0,0,0-23.09-21l-40-8.89-61.66-10.52H244.56c-25,1.81-64.36,5.43-70.59,8-8.58,3.58-41,14.87-45.84,16.54A105.88,105.88,0,0,1,113.65,288c-5.91,3-9.82,20-10.76,31.39.4,3.74,3.85,36.27,5.27,51.16,1,10,25.17,24.78,40.21,31.74a3.75,3.75,0,0,1,2,2.42C151.3,407.79,154.89,417.22,159.8,419.71Zm0,0h0Z"/><polygon class="cls-11" points="181.5 353.81 166.32 384.64 138.5 386.19 156.57 359.44 181.5 353.81"/><polygon class="cls-11" points="378.13 342.82 412.13 347.82 422.13 373.82 391.13 364.82 378.13 342.82"/><polygon class="cls-11" points="191.03 366.73 201.92 389.64 190.07 406.45 182.87 383.74 191.03 366.73"/><path class="cls-8" d="M406.28,264l-6.52,26.69s-11.27,14.83-21.95,21.35-13.05,13.05-13.05,13.05l-12.45,7.71s-42.71,0-49.24,4.15-43.3,0-43.3,0L210,340.53s-30.81-7.69-33.22-8.89c-5.93-3-8.9-13.65-8.9-13.65s-32-14.83-33.21-27.28-4.16-40.34-4.16-40.34,1.78-23.13,10.09-27.28c4.39-2.2,7.29-3.9,9-5,1.56-1,2.22-1.52,2.22-1.52s29.06-10.08,36.18-13.05S244.35,197,244.35,197h55.76l48.64,8.3,32,7.12a158.14,158.14,0,0,1,19,17.2C409.84,240.29,406.28,264,406.28,264Z"/><path class="cls-9" d="M391.45,249.86q-4.14,12.17-8.3,24.32l-28.47,23.73-52.79,15.42-49.83-7.71-51,3-40.93-24.92-13.05-41.52,11.27-2.37,24.92,39.15,48.63,10.67h87.2l62.28-39.74Z"/><path class="cls-10" d="M210,343.5a2.9,2.9,0,0,1-.72-.09c-7.3-1.82-31.32-7.87-33.83-9.12-5.76-2.88-8.93-10.89-10-14.18a153.59,153.59,0,0,1-15.32-8.6c-11.79-7.61-17.81-14.32-18.4-20.52-1.17-12.3-4.12-40-4.14-40.3a2.44,2.44,0,0,1,0-.54c.19-2.54,2.18-25,11.71-29.72,7.81-3.9,10.73-6.17,10.75-6.19a3.27,3.27,0,0,1,.88-.48c.29-.1,29.06-10.09,36-13,7.35-3.07,52.19-6.38,57.28-6.75h56a4.38,4.38,0,0,1,.5,0l48.64,8.31.14,0,32,7.12a2.86,2.86,0,0,1,1.11.5,158.5,158.5,0,0,1,19.38,17.56c10.95,11.59,7.46,35.85,7.31,36.88l-.06.26-6.52,26.69a3.05,3.05,0,0,1-.52,1.09c-.48.63-11.74,15.35-22.76,22.09-9.49,5.8-11.8,11.51-11.82,11.57a2.88,2.88,0,0,1-1.22,1.47l-12.45,7.71a3,3,0,0,1-1.56.45c-17.38,0-43.65,1.14-47.64,3.69-2.1,1.33-7.06,3-25.85,2-9-.47-17.49-1.36-19.1-1.54l-49.56,3.54ZM178,329c1.82.8,17.82,5,32.17,8.57L259.56,334a2.54,2.54,0,0,1,.55,0c17.56,2,37.84,2.69,41.37.44,6.67-4.24,41.08-4.59,50-4.61l11-6.8c1.17-2.3,4.78-8,13.81-13.53S395,291.93,397,289.39l6.34-25.93c.24-1.79,2.85-22.68-5.77-31.81a160,160,0,0,0-18.09-16.48l-31.33-7L299.86,200h-55.4c-19.6,1.42-50.43,4.26-55.32,6.3-6.73,2.8-32.13,11.65-35.92,13a83.15,83.15,0,0,1-11.35,6.53c-4.63,2.32-7.7,15.68-8.43,24.59.31,2.94,3,28.43,4.13,40.1.75,7.84,19.72,19.41,31.51,24.87a3,3,0,0,1,1.61,1.9C171.37,319.64,174.19,327,178,329Zm0,0Z"/><path class="cls-8" d="M380,208.32l-5.11,20.9S366.06,240.84,357.7,246s-10.22,10.22-10.22,10.22l-9.76,6s-33.45,0-38.56,3.25-33.91,0-33.91,0l-39,2.79s-24.13-6-26-7c-4.65-2.33-7-10.69-7-10.69s-25.08-11.61-26-21.37S164,197.63,164,197.63s1.4-18.12,7.9-21.37c3.44-1.72,5.72-3,7.09-3.92a20.56,20.56,0,0,0,1.74-1.19s22.76-7.9,28.34-10.22,44.13-5.11,44.13-5.11h43.67l38.09,6.5L360,167.9a123,123,0,0,1,14.87,13.47C382.78,189.73,380,208.32,380,208.32Z"/><path class="cls-9" d="M355,189.72q-2.78,9.93-5.54,19.84l-19,19.36L295.26,241.5,262,235.21l-34,2.42L200.7,217.3,192,183.43l7.52-1.93,17.48,25,35,11,60-8,36.27-19.78Z"/><path class="cls-10" d="M226.23,270.57a2.22,2.22,0,0,1-.57-.07c-5.72-1.43-24.53-6.16-26.49-7.15-4.51-2.25-7-8.53-7.85-11.1a121.76,121.76,0,0,1-12-6.73c-9.23-6-13.94-11.22-14.41-16.08-.91-9.63-3.22-31.34-3.25-31.56a3.09,3.09,0,0,1,0-.43c.15-2,1.71-19.53,9.17-23.27a54.56,54.56,0,0,0,8.42-4.85,2.3,2.3,0,0,1,.69-.37c.22-.08,22.76-7.9,28.2-10.17,5.76-2.4,40.88-5,44.86-5.29h43.84a2.56,2.56,0,0,1,.39,0l38.1,6.51.11,0,25.08,5.57a2.24,2.24,0,0,1,.87.4,123.34,123.34,0,0,1,15.19,13.75c8.57,9.08,5.83,28.08,5.71,28.88a1.55,1.55,0,0,1,0,.21l-5.11,20.9a2.33,2.33,0,0,1-.4.86c-.37.49-9.19,12-17.83,17.3-7.43,4.54-9.24,9-9.26,9.06a2.24,2.24,0,0,1-.95,1.15l-9.76,6a2.28,2.28,0,0,1-1.22.35c-13.61,0-34.18.9-37.31,2.89-1.64,1-5.52,2.34-20.24,1.58-7.07-.37-13.7-1.07-15-1.21l-38.81,2.77Zm-25-11.38c1.43.63,14,3.9,25.2,6.71l38.65-2.76a2,2,0,0,1,.43,0c13.76,1.55,29.64,2.11,32.41.35,5.22-3.32,32.17-3.6,39.14-3.62l8.6-5.32c.92-1.8,3.75-6.27,10.83-10.6s14.69-13.78,16.26-15.77l5-20.31c.19-1.4,2.24-17.76-4.51-24.91A125.49,125.49,0,0,0,359,170.06l-24.54-5.45-37.85-6.47H253.25c-15.35,1.12-39.49,3.34-43.32,4.94-5.27,2.19-25.17,9.12-28.13,10.15a67,67,0,0,1-8.89,5.11c-3.63,1.81-6,12.28-6.6,19.26.24,2.3,2.36,22.26,3.23,31.4.58,6.14,15.45,15.21,24.68,19.48a2.32,2.32,0,0,1,1.26,1.49C196,251.88,198.22,257.67,201.23,259.19Zm0,0Z"/><polygon class="cls-11" points="241.64 201.54 244.76 235.77 221.84 251.59 223.31 219.35 241.64 201.54"/><path class="cls-8" d="M340.77,154.66l-3.24,13.39s-5.64,7.45-11,10.73-6.53,6.56-6.53,6.56l-6.24,3.88s-21.41,0-24.67,2.13-21.71.05-21.71.05l-25,1.84s-15.45-3.82-16.66-4.42c-3-1.48-4.48-6.83-4.48-6.83s-16.07-7.4-16.68-13.64-2.13-20.22-2.13-20.22.87-11.6,5-13.69c2.21-1.11,3.66-2,4.54-2.52s1.11-.76,1.11-.76,14.56-5.09,18.12-6.59,28.25-3.33,28.25-3.33l27.95-.07,24.4,4.11,16.06,3.53a79.37,79.37,0,0,1,9.54,8.61C342.53,142.76,340.77,154.66,340.77,154.66Z"/><path class="cls-9" d="M333.33,152.59l-4.14,12.21L315,176.72l-26.45,7.79-25-3.8-25.57,1.54-20.55-12.44L210.8,149l5.65-1.2L229,167.4l24.4,5.3,43.71-.1,31.18-20Z"/><path class="cls-10" d="M242.42,194.73a1.47,1.47,0,0,1-.36,0c-3.66-.91-15.71-3.91-17-4.54-2.9-1.44-4.49-5.45-5-7.1a74.08,74.08,0,0,1-7.7-4.29c-5.91-3.8-8.94-7.16-9.24-10.27-.6-6.16-2.11-20.06-2.13-20.2a1.22,1.22,0,0,1,0-.27c.09-1.27,1.06-12.51,5.84-14.91a35.44,35.44,0,0,0,5.38-3.12,1.7,1.7,0,0,1,.44-.24c.14-.05,14.55-5.09,18-6.55,3.68-1.54,26.16-3.26,28.71-3.45h.1l28-.06a1.06,1.06,0,0,1,.25,0l24.39,4.11h.08l16.06,3.53a1.66,1.66,0,0,1,.56.25,80.1,80.1,0,0,1,9.74,8.78c5.5,5.8,3.78,18,3.7,18.49l0,.13L339,168.4a1.23,1.23,0,0,1-.26.54c-.23.32-5.86,7.71-11.38,11.11-4.75,2.91-5.91,5.78-5.92,5.81a1.45,1.45,0,0,1-.6.74l-6.24,3.88a1.53,1.53,0,0,1-.78.22c-8.71,0-21.88.63-23.88,1.91-1.05.67-3.53,1.5-13,1-4.52-.23-8.77-.67-9.58-.75l-24.84,1.83Zm-16-7.25c.91.4,8.94,2.48,16.14,4.26l24.74-1.82h.27c8.81,1,19,1.31,20.75.18,3.33-2.13,20.59-2.35,25.05-2.37l5.5-3.42c.58-1.15,2.38-4,6.91-6.8s9.39-8.84,10.39-10.12l3.15-13c.12-.89,1.4-11.37-2.93-15.94a79.62,79.62,0,0,0-9.09-8.24l-15.72-3.46-24.23-4.08-27.78.06c-9.82.74-25.27,2.2-27.72,3.22-3.37,1.42-16.1,5.88-18,6.54a40.68,40.68,0,0,1-5.68,3.29c-2.32,1.17-3.84,7.87-4.2,12.34.16,1.47,1.55,14.24,2.12,20.09.38,3.93,9.91,9.72,15.82,12.44a1.45,1.45,0,0,1,.81,1C223.06,182.81,224.48,186.51,226.41,187.48Zm0,0Z"/><path class="cls-8" d="M287,162.5c-2.49-1.25-28.39.29-28-1-6.61-5.82-23.21-8.72-25-12,.6-8.53,8.71-40.91,11-47-.66-8,8-39,8-39s22.36-23.48,24-24c8.64-.7,25.49,70.13,30,70s7,40,7,40S294,164.45,287,162.5Z"/><polygon class="cls-9" points="276 150.5 262 147.5 247 139.5 253 124.5 276 124.5 276 65.5 296 122.5 304 129.5 300 143.5 276 150.5"/><path class="cls-12" d="M490.63,410.07c-2.57-2.74-5.1-5.3-7.54-7.7,1-9.52,2.34-37-11.3-51.43-5.65-6-11-11.08-15.56-15.13.8-7,2.77-33-9.86-46.33a203.1,203.1,0,0,0-24.9-22.55,5,5,0,0,0-1.87-.85l-8.3-1.84a80.35,80.35,0,0,0,.49-13.68c-.55-10.86-3.38-19.06-8.4-24.38a168.92,168.92,0,0,0-18.49-16.92c0-.06,0-.13,0-.2a62.88,62.88,0,0,0,.46-11.33c-.45-8.78-2.76-15.43-6.88-19.79A127.06,127.06,0,0,0,363,163.87a5,5,0,0,0-1.87-.85l-16.34-3.63.86-3.56c0-.14.06-.29.08-.44.22-1.47,1.93-14.51-4.63-21.41a81.87,81.87,0,0,0-10.21-9.2,5,5,0,0,0-1.87-.85l-12.88-2.83c-1.42-9.3-3.15-14.5-6.53-16.08-1.83-3.46-5.46-14.56-8.44-23.63-12.08-36.88-16.77-47.5-24.55-46.88a5.3,5.3,0,0,0-1.12.23c-1.41.45-2.86.91-26.1,25.31a5.13,5.13,0,0,0-1.2,2.1c-1.42,5.1-8.25,30-8.21,39.58-1.05,3.14-2.83,9.63-4.66,16.92a30.52,30.52,0,0,0-6,1.31c-2.81,1.18-13.83,5.07-17.84,6.48a4.33,4.33,0,0,0-1.43.78c-.08.06-.31.22-.71.48-.73.46-2,1.23-4.1,2.27-6,3-7.44,13.45-7.77,17.79a5.53,5.53,0,0,0,0,.91c0,.09.58,5.35,1.16,10.83-8.45,3.06-19.44,6.87-19.6,6.93a5.44,5.44,0,0,0-1.46.79,14.72,14.72,0,0,1-1.31.89c-1.2.76-3.32,2-6.65,3.68-8.39,4.19-10.27,20.55-10.65,25.46a4.61,4.61,0,0,0,0,.91c0,.1.48,4.51,1.08,10.22l-9.9,3.46a5.07,5.07,0,0,0-1.46.8s-.56.43-1.79,1.21c-1.56,1-4.32,2.61-8.62,4.76-10.31,5.16-12.5,27-12.83,31.38a5.53,5.53,0,0,0,0,.91c0,.16,1,9.45,2.07,19.64l-2.86,1a5.07,5.07,0,0,0-1.46.8s-.74.58-2.4,1.63c-2,1.27-5.57,3.37-11.12,6.15-12.49,6.24-15.2,33.5-15.61,38.9a4.6,4.6,0,0,0,0,.91c0,.15.67,6.31,1.54,14.58-2.44,1.45-5.94,3.41-10.72,5.8-14,7-17.09,38-17.57,44.19a5.53,5.53,0,0,0,0,.91s0,.5.14,1.31l-.17,0a5.89,5.89,0,0,0-.77.35l-.21.14a4.13,4.13,0,0,0-.49.32,81.5,81.5,0,0,1-9.63,6l-.19.1-1.42.78-.61.33-1.35.72-.8.42-1.51.79-.66.33-2,1c-16.06,8-19.42,45.8-19.75,50.08a5.66,5.66,0,0,0,0,.92c0,.47,5,47.21,7,67.94,1,10.46,11.14,21.78,31,34.6a258.64,258.64,0,0,0,25.83,14.5c1.84,5.54,7.17,19,16.89,23.9,2.7,1.35,20.16,6,35.65,10L142,606.37a5.09,5.09,0,0,0-.25,2.62l3.71,21.4a5,5,0,0,0,4.8,4.14l18.07.47a5,5,0,0,0,2.66-.69l13.62-8,15-.84a5,5,0,0,0,2.89-1.13l11.7-9.58L229.82,609l3.9,7,1.47,12.79a5,5,0,0,0,1,2.44l11.36,15,6.58,17.29a4.75,4.75,0,0,0,1,1.59l13.35,14.66a5,5,0,0,0,3.69,1.63h.15a5,5,0,0,0,3.73-1.85l13.58-16.72a5.14,5.14,0,0,0,.66-1.07l8.41-18.37L311.81,628l12.85-15.24,14.24,9.59a4.45,4.45,0,0,0,.64.37l18,8.6a5,5,0,0,0,2,.49l19.18.5L396.47,637a5,5,0,0,0,6.22-4.06l4.05-25.68a5,5,0,0,0-.22-2.43l-4.28-12.29c1.62,0,3.22,0,4.76,0a5,5,0,0,0,2.63-.75l21-13a4.83,4.83,0,0,0,2.05-2.49c0-.09,3.94-9.72,19.93-19.5,17.43-10.65,35.2-33.13,38-36.77l.36-.47a5,5,0,0,0,.88-1.83l11-45c0-.15.06-.3.08-.45C503.2,470.51,509.09,429.61,490.63,410.07Z"/></g></svg>