<?xml version="1.0" encoding="UTF-8"?><svg id="Angry_1" xmlns="http://www.w3.org/2000/svg" viewBox="0 0 512 512"><defs><style>.cls-1,.cls-2{fill:#960;}.cls-3{fill:#cccb2b;stroke:#660;}.cls-3,.cls-4,.cls-5,.cls-2,.cls-6,.cls-7{stroke-miterlimit:10;}.cls-3,.cls-4,.cls-5,.cls-2,.cls-7{stroke-width:6px;}.cls-8{opacity:.5;}.cls-9{fill:#663;}.cls-10{stroke:#663;}.cls-10,.cls-11{stroke-linecap:round;stroke-linejoin:round;stroke-width:8px;}.cls-10,.cls-12{fill:#993;}.cls-4{fill:#09c;stroke:#036;}.cls-5{fill:#ff0;stroke:#c60;}.cls-13{fill:#036;}.cls-14{fill:#c90;}.cls-15{fill:#069;}.cls-16{fill:#660;}.cls-17{fill:#630;}.cls-11{fill:#fc9;stroke:#960;}.cls-18{fill:#c96;}.cls-2{stroke:#300;}.cls-6{fill:#fc0;stroke:#630;stroke-width:10px;}.cls-19{fill:#300;}.cls-7{fill:#f90;stroke:#c00;}</style></defs><g><path class="cls-11" d="M388.52,287.463l.454-14.553c-2.473-22.066-17.253-15.243-36.27-12.627l-21.96,2.565c-23.024,.167-24.302-22.746-39.009-11.333h0c-10.949,13.622,10.339,38.31,33.848,42.01,0,0,60.284,8.64,62.937-6.062Z"/><g><path class="cls-3" d="M335.339,256.872l-18.819,39.085-27.006-17.139c-7.205-4.572-9.582-14.454-5.512-22.907h0c4.12-8.557,13.489-12.845,21.6-9.886l29.736,10.847Z"/><path class="cls-12" d="M295.893,267.482c-5.192-3.217-8.247-8.64-8.644-14.361-1.27,1.394-2.379,2.991-3.245,4.791h0c-4.07,8.454-1.693,18.335,5.512,22.907l27.005,17.139,6.562-13.628-27.189-16.847Z"/><path class="cls-16" d="M317.194,299.634l-29.854-18.946c-8.507-5.399-11.348-16.896-6.607-26.741,4.82-10.01,15.709-14.912,25.331-11.403l32.848,11.982-21.718,45.108Zm-17.524-52.219c-5.433,0-10.789,3.441-13.53,9.134-3.421,7.104-1.522,15.304,4.416,19.073l24.158,15.332,15.919-33.062-26.625-9.712c-1.419-.518-2.881-.765-4.338-.765Z"/></g><g><path class="cls-11" d="M248.343,416.792l-20.534-1.099c-28.814-3.631-19.01-19.519-15.602-38.437l4.418-24.523c3.992-22.738,13.151-41.997,25.751-41.13h0c12.6,.867,18.644,20.419,19.878,44.268l1.391,24.336c1.04,18.208,9.635,34.686-15.301,36.585Z"/><path class="cls-11" d="M291.031,417.051l17.346-.934c24.312-3.397,15.805-19.351,12.665-38.282l-4.071-24.54c-3.687-22.752-11.694-42.07-22.335-41.306h0c-10.641,.765-15.484,20.254-16.2,44.075l-.843,24.306c-.63,18.185-7.671,34.582,13.438,36.68Z"/></g><g><g><path class="cls-10" d="M212.42,378.074l-.213,1.181c-3.408,18.918-13.212,34.806,15.602,38.437l20.534,1.099c20.29-1.545,18.381-12.743,16.404-26.67-9.247-.726-18.876-2.325-28.747-5.122-8.704-2.466-16.562-5.565-23.58-8.926Z"/><path class="cls-10" d="M277.744,388.403c-1.435,15.928-2.709,28.686,13.96,30.648l16.97-1.082c21.058-3.485,16.949-18.378,13.598-36.97-12.408,4.089-27.614,7.406-44.527,7.403Z"/></g><g class="cls-8"><path class="cls-9" d="M254.343,407.792l-20.534-1.099c-22.603-2.848-21.442-13.24-18.246-26.719-1.409-.623-2.796-1.254-4.143-1.899l-.213,1.181c-3.408,18.918-13.212,34.806,15.602,38.437l20.534,1.099c13.221-1.007,17.014-6.114,17.507-13.402-2.563,1.229-5.979,2.057-10.507,2.402Z"/><path class="cls-9" d="M314.673,403.97l-16.97,1.082c-11.426-1.345-14.42-7.763-14.712-16.797-2.055,.098-4.138,.15-6.248,.149-1.435,15.928-2.709,28.686,13.96,30.648l16.97-1.082c12.711-2.103,16.246-8.368,16.319-17.09-2.344,1.393-5.394,2.44-9.319,3.09Z"/></g></g><g><g><path class="cls-4" d="M325.19,389.249l-56.411,1.808,2.597-46.91c.693-12.515,10.304-22.786,22.282-23.813h0c12.123-1.039,21.665,7.725,23.338,20.209l8.195,48.706Z"/><path class="cls-15" d="M285.454,344.408c.524-10.678,6.879-19.786,15.616-23.441-2.317-.623-4.804-.856-7.413-.633-11.978,1.026-21.589,11.298-22.281,23.813l-2.597,46.91,14.406-.462,2.269-46.187Z"/><path class="cls-13" d="M265.426,394.107l2.778-50.18c.777-14.029,11.534-25.479,25.021-26.636,13.432-1.142,24.616,8.411,26.561,22.749l8.757,52.043-63.117,2.023Zm30.004-70.91c-.558,0-1.121,.024-1.692,.073-10.528,.902-18.93,9.926-19.543,20.989l-2.415,43.641,49.707-1.594-7.641-45.418c-1.425-10.637-8.885-17.691-18.416-17.691Z"/></g><g><path class="cls-4" d="M275,392h-66.98s5.754-43.219,5.754-43.219c1.535-11.53,13.689-20.276,28.176-20.276h0c14.663,0,26.905,8.954,28.221,20.643l4.828,42.853Z"/><path class="cls-15" d="M252.454,330.117c-3.256-1.041-6.802-1.613-10.503-1.613h0c-14.487,0-26.641,8.746-28.176,20.276l-5.754,43.219h21l5.754-43.219c1.143-8.587,8.179-15.628,17.679-18.664Z"/><path class="cls-13" d="M278.391,395h-73.762l6.206-46.615c1.736-13.044,15.129-22.881,31.15-22.881,16.291,0,29.705,10.021,31.203,23.308l5.202,46.188Zm-66.91-6h60.197l-4.452-39.517c-1.136-10.082-12.223-17.979-25.24-17.979s-23.861,7.598-25.203,17.672l-5.302,39.824Z"/></g></g><path class="cls-11" d="M314.218,336.529h-104.936l12.451-52c5-29,16.023-52,45-52h0c28.977,0,30,25,37,54l10.485,50Z"/><polygon class="cls-3" points="317 339 214 339 227 250 299 250 317 339"/><g><polygon class="cls-4" points="239.679 312.792 235.712 245.937 254.954 250.335 259.316 306.087 239.679 312.792"/><polygon class="cls-4" points="284.679 312.792 280.712 245.937 299.954 250.335 304.316 306.087 284.679 312.792"/></g><g><path class="cls-11" d="M315.2,154.618s-3.643-42.905-51.001-43.715c-63.668-1.088-64.763,52.905-64.763,53.429,0,1.707,8.095,49.382,17.81,71.239,6.023,4.904,13.821,10.399,23.476,15.381,12.896,6.654,24.822,10.184,34,12.143,6.529-3.148,16.562-9.015,25.905-19.429,6.899-7.69,11.158-15.336,13.762-21.048,1.079-22.667,.81-45.334,.81-68.001Z"/><path class="cls-18" d="M209.844,199.737c1.043-.344,6.175,14.302,14.983,23.866,8.237,8.943,15.844,16.687,18.93,19.458,14.763,13.258,29.985,17.183,29.735,17.819-.32,.813-27.347-.263-46.485-19.501-17.75-17.844-18.617-41.162-17.163-41.641Z"/><path class="cls-1" d="M274.723,267.095c-.279,0-.559-.029-.835-.088-12.192-2.603-23.968-6.809-34.999-12.5-8.554-4.414-16.685-9.741-24.168-15.834-.487-.397-.875-.903-1.13-1.478-9.886-22.244-18.154-70.488-18.154-72.863,0-.228,.2-22.998,17.491-39.996,12.147-11.942,29.401-17.798,51.34-17.433,50.386,.861,54.879,46.911,54.918,47.376,.01,.112,.015,.226,.015,.338,0,3.773,.008,7.546,.015,11.319,.037,18.624,.075,37.882-.829,56.872-.023,.508-.145,1.006-.355,1.469-3.681,8.071-8.534,15.493-14.425,22.06-7.632,8.506-16.765,15.356-27.146,20.361-.545,.263-1.14,.396-1.737,.396Zm-54.202-34.021c6.849,5.493,14.258,10.309,22.036,14.323,9.994,5.157,20.636,9.02,31.654,11.491,8.931-4.489,16.811-10.504,23.439-17.893,5.181-5.774,9.479-12.279,12.781-19.345,.857-18.542,.819-37.427,.783-55.698-.007-3.714-.015-7.429-.015-11.143-.317-3.08-4.949-39.188-47.069-39.907-24.771-.421-42.438,7.613-52.581,23.882-7.387,11.848-8.057,24.047-8.109,25.454,.444,4.285,8.167,48.042,17.08,68.836Z"/><g><path class="cls-19" d="M242.985,195.496c-.895,10.851,4.927,20.188,13.004,20.855s15.352-7.59,16.247-18.441c.016-.191,.014-.377,.025-.566-11.592-1.14-20.881-5.304-27.492-9.411-.937,2.292-1.561,4.846-1.785,7.563Z"/><path class="cls-19" d="M296.562,211.189c6.535-1.132,10.519-9.637,8.897-18.996-.437-2.523-1.246-4.841-2.31-6.873-5.219,4.504-12.211,9.127-21.109,12.151,1.952,8.73,8.266,14.802,14.522,13.718Z"/></g></g><g><polygon class="cls-4" points="321 351 212 351 221 297 312 294 321 351"/><polygon class="cls-15" points="223 297 214 351 239 351 247.679 296.186 223 297"/><path class="cls-13" d="M324.526,354.043h-116.052l9.986-59.917,96.104-3.169,9.961,63.086Zm-108.97-6h101.948l-8.039-50.914-85.896,2.831-8.014,48.083Z"/></g><path class="cls-11" d="M198.733,344.529l-14-5c-19-9-7.247-22.204,.976-39.518l10.659-22.444c9.81-20.83,22.154-37.361,30.685-34.11h0c8.531,3.25,6.713,22.988,.209,45.881l-6.545,23.386c-4.897,17.496-3.984,34.806-21.984,31.806Z"/><g><path class="cls-3" d="M234.574,294.032l-47.689-15.857,14.12-28.782c3.767-7.679,14.449-10.901,24.764-7.472h0c10.44,3.472,17.079,12.615,15.306,21.079l-6.501,31.032Z"/><path class="cls-12" d="M226.769,241.921h0c-1.082-.36-2.167-.63-3.249-.846,4.969,4.616,7.463,11.082,6.087,17.332l-6.899,31.347,12.865,4.278,6.501-31.032c1.773-8.464-4.866-17.608-15.306-21.079Z"/><path class="cls-16" d="M237.421,297.485l-54.141-18.003,15.633-31.866c4.435-9.039,16.646-12.905,28.403-8.997,11.958,3.976,19.394,14.527,17.296,24.542l-7.191,34.325Zm-45.729-21.528l41.236,13.712,5.811-27.739c1.449-6.915-4.4-14.653-13.315-17.618-8.775-2.916-18.057-.307-21.124,5.946l-12.607,25.698Z"/></g></g><g><g><path class="cls-6" d="M372.1,127.824c-1.496,4.869-2.212,6.987-3.586,15.634-2.979,4.02-11.126,3.176-12.979,9.759-12.457-.566-27.622,6.577-38.376,14.761-10.628-2.2-16.024,2.584-26.098,10.033-4.481-.612-19.949,1.748-24.195,5.62-9.622-1.955-17.716,5.221-25.23,9.288-4.405-2.145-26.983,2.317-36.241,8.038-15.853-1.931-19.643-3.342-34.896,1.732-5.686-3.189-12.659-.473-17.383-3.104-4.121-4.965-4.258-5.956-8.919-10.89l3.019-6.953c.862-8.29,4.848-8.746,6.998-15.1,4.88-3.132,6.934-.958,14.994-5.98,5.261-.858,10.214-1.542,15.883-4.345,21.595-10.675,47.473-7.071,70.434-13.131,23.16-6.112,46.349-18.906,66.636-24.996,8.198,.886,18.11-1.542,21.793-3.012,10.58,.601,8.062-.105,17.075,.702,2.704,3.631,7.078,6.055,11.07,11.945h0Z"/><path class="cls-14" d="M361.502,121.183c-4.055-.281-5.811-.314-7.442-.299,.357,.42,.712,.855,1.065,1.325h0c-1.282,4.109-1.9,5.897-3.021,13.177-2.63,3.415-9.983,2.808-11.565,8.361-11.234-.319-24.803,5.873-34.385,12.883-9.607-1.714-14.405,2.372-23.384,8.756-4.046-.457-17.953,1.719-21.727,5.025-8.697-1.521-15.895,4.609-22.611,8.119-3.998-1.746-24.285,2.286-32.55,7.208-14.312-1.423-17.746-2.56-31.423,1.894-5.167-2.607-11.414-.238-15.706-2.388-3.78-4.119-3.917-4.949-8.184-9.035l.625-1.398c-2.154,3.734-5.026,5.196-5.646,11.696l-2.958,6.619c4.805,4.6,4.959,5.535,9.215,10.173,4.832,2.422,11.867-.246,17.685,2.689,15.4-5.015,19.266-3.735,35.382-2.133,9.307-5.542,32.149-10.082,36.651-8.116,7.563-3.953,15.667-10.855,25.46-9.142,4.25-3.722,19.909-6.173,24.464-5.658,10.11-7.189,15.513-11.79,26.33-9.86,10.788-7.893,26.067-14.865,38.716-14.506,1.781-6.252,10.06-5.569,13.022-9.414,1.263-8.197,1.958-10.211,3.402-14.837-4.14-5.514-8.614-7.745-11.413-11.141Z"/><path class="cls-17" d="M170.19,207.93l-1.927-1.081c-1.875-1.052-4.422-1.089-7.119-1.129-3.235-.048-6.903-.103-10.251-1.968l-.817-.455-.598-.72c-1.681-2.026-2.728-3.419-3.652-4.648-1.341-1.784-2.4-3.192-5.053-6l-2.266-2.399,4.04-9.306c.751-5.712,2.891-8.613,4.625-10.964,1.053-1.427,1.885-2.555,2.516-4.422l.561-1.659,1.474-.946c2.926-1.878,5.218-2.372,7.24-2.807,2.089-.45,4.062-.875,7.81-3.209l.851-.53,1.909-.311c4.768-.771,8.887-1.436,13.552-3.743,13.717-6.781,28.831-8.133,43.448-9.44,9.805-.877,19.067-1.705,27.925-4.043,12.373-3.265,24.901-8.553,37.017-13.666,10.311-4.351,20.05-8.461,29.457-11.285l.969-.291,1.006,.108c7.043,.759,16.115-1.372,19.401-2.684l1.029-.411,1.109,.063c4.766,.27,6.716,.267,8.441,.266,2.092-.003,3.742-.005,8.796,.447l2.228,.199,1.337,1.794c.85,1.141,2.073,2.265,3.489,3.567,2.255,2.071,5.059,4.649,7.709,8.559l1.345,1.983-.912,2.968c-1.309,4.251-1.966,6.385-3.219,14.273l-.192,1.208-.728,.983c-2.073,2.797-5.174,4.027-7.666,5.015-3.174,1.259-4.152,1.821-4.518,3.123l-1.076,3.819-3.965-.18c-9.755-.445-23.565,4.951-35.121,13.745l-1.812,1.379-2.229-.462c-7.687-1.592-11.556,1.296-20.043,7.62l-3.705,2.747-2.015-.275c-3.868-.533-17.452,1.901-20.149,4.36l-1.876,1.71-2.488-.506c-5.617-1.14-10.99,2.19-16.68,5.716-1.688,1.046-3.434,2.128-5.174,3.07l-2.259,1.223-2.161-1.052c-3.824-.955-23.406,2.677-31.573,7.723l-1.492,.922-1.741-.212c-1.845-.225-3.527-.443-5.084-.644-11.693-1.512-15.221-1.97-27.629,2.157l-2.097,.697Zm-13.75-12.633c1.209,.37,2.988,.397,4.853,.424,2.867,.042,6.314,.094,9.733,1.408,13.181-4.169,18.695-3.456,30.174-1.971,1.061,.137,2.18,.282,3.371,.431,9.305-4.964,27.773-9.336,36.484-8.169,.992-.583,2.016-1.218,3.077-1.875,5.92-3.669,13.177-8.164,21.703-7.349,6.19-3.664,17.896-5.487,23.889-5.466l.614-.456c8.343-6.217,15.044-11.215,25.768-9.782,9.742-7.013,23.627-13.885,36.488-14.468,2.371-3.524,6.115-5.008,8.797-6.072,.869-.345,1.965-.779,2.672-1.182,1.026-6.201,1.73-8.9,2.73-12.207-1.584-1.969-3.223-3.475-4.819-4.942-1.128-1.036-2.214-2.035-3.228-3.136-3.026-.237-4.25-.234-5.843-.234-1.639,.002-3.649,.004-7.971-.224-4.779,1.679-13.886,3.667-22.042,3.031-8.625,2.665-17.815,6.543-27.525,10.641-12.436,5.248-25.297,10.675-38.353,14.121-9.678,2.554-19.799,3.459-29.587,4.335-14.332,1.282-27.867,2.492-39.907,8.444-5.996,2.964-11.253,3.82-16.336,4.642-4.726,2.803-7.818,3.469-10.113,3.962-1.086,.234-1.85,.398-2.649,.744-1.015,2.286-2.204,3.899-3.2,5.249-1.477,2.003-2.453,3.326-2.82,6.862l-.08,.767-2.035,4.688c1.548,1.764,2.491,3.018,3.534,4.406,.746,.99,1.511,2.009,2.621,3.377Zm83.216,1.917c.006,.003,.012,.006,.017,.009l-.017-.009Z"/></g><path class="cls-6" d="M317.702,136.221c-8.663,4.31-13.881,9.346-25.659,12.379-5.596,2.585-20.834,9.946-34.703,11.863-14.585,4.035-30.434,6.226-38.222,8.312-9.911,2.655-19.078,.204-26.166,.588-.797-3.224-2.382-8.693-4.035-14.585-2.682-9.557-1.771-10.177-1.891-13.326-.404-10.585,2.816-12.912,3.361-19.482,.399-4.802,3.37-5.213,7.364-12.831,5.533-3.793,7.377-5.058,11.71-8.845,7.86-2.945,12.267-5.318,16.376-6.02,4.08-1.077,8.161-2.154,12.241-3.231,5.123-1.352,10.246-2.704,15.368-4.056,9.884-.037,15.691-1.849,19.698-2.33,4.012,.204,9.281,1.673,16.859,3.501,2.666,1.131,6.258,3.326,11.896,7.595,3.93,6.523,7.44,10.074,8.584,13.118,1.234,4.678,4.058,9.562,5.292,14.24,1.172,4.439,.755,8.672,1.926,13.111Z"/></g><g><path class="cls-2" d="M375.484,203.837c11.558,2.255,19.585,12.896,19.171,24.664-1.181,33.517-4.983,60.141-8.655,79.499-2.331,12.287-2,19-6,19s-6.436-29.868-15-77c-4.588-25.252-4.468-40.228,2-45,2.163-1.596,5.128-1.818,8.484-1.163Z"/><path class="cls-7" d="M336,171c1.564,12.882,4.854,22.101,7,28,4.233,11.636,6.349,17.454,12,23,2.411,2.366,12.387,11.495,25.401,10.973,20.711-.831,32.139-25.485,34.737-30.725,11.894-23.994,6.142-49.925,2.234-50.168-4.054-.252-9.613,26.911-11.562,26.593-1.696-.276,7.211-20.06,.388-40.066-9.166-26.876-42.361-41.379-44.017-39.908-1.074,.954,11.86,7.961,16.324,23.234,5.047,17.264-4.662,31.625-6.51,34.357-2.89,4.274-5.07,7.498-7.822,7.389-6.588-.262-15.058-19.575-9.96-36.559,2.296-7.648,5.299-12.249,4.032-13.212-1.919-1.457-13.208,6.358-19.245,18.091-6.259,12.164-4.767,24.448-3,39Z"/><path class="cls-5" d="M369,216c5.161,3.211,12.164,3.729,18,1,8.557-4.002,12.145-13.833,11-21-1.03-6.448-5.208-6.468-8-14-4.607-12.428,2.518-23.839,0-25-1.943-.896-8.102,5.016-11,13-4.603,12.679,1.369,24.103-1,25-1.716,.65-6.409-4.753-8-11-1.3-5.106,.011-8.659-1-9-1.453-.491-6.335,6.111-8,14-.323,1.533-3.866,19.617,8,27Z"/></g></svg>