<?xml version="1.0" encoding="UTF-8"?><svg id="Full" xmlns="http://www.w3.org/2000/svg" viewBox="0 0 512 512"><defs><style>.cls-1{fill:#369;}.cls-2{opacity:.5;}.cls-3{fill:#ffc;stroke:#996;}.cls-3,.cls-4{stroke-linecap:round;stroke-linejoin:round;stroke-width:8px;}.cls-5{fill:#663;}.cls-4{fill:#993;stroke:#663;}.cls-6{stroke:#336;}.cls-6,.cls-7{fill:#69c;stroke-miterlimit:10;stroke-width:6px;}.cls-8{fill:#c00;}.cls-9{fill:#996;}.cls-10{fill:#036;}.cls-11{fill:#cc9;}.cls-7{stroke:#036;}</style></defs><g><path class="cls-3" d="M248.343,416.792l-20.534-1.099c-28.814-3.631-19.01-19.519-15.602-38.437l4.418-24.523c3.992-22.738,13.151-41.997,25.751-41.13h0c12.6,.867,18.644,20.419,19.878,44.268l1.391,24.336c1.04,18.208,9.635,34.686-15.301,36.585Z"/><path class="cls-3" d="M291.031,417.051l17.346-.934c24.312-3.397,15.805-19.351,12.665-38.282l-4.071-24.54c-3.687-22.752-11.694-42.07-22.335-41.306h0c-10.641,.765-15.484,20.254-16.2,44.075l-.843,24.306c-.63,18.185-7.671,34.582,13.438,36.68Z"/></g><path class="cls-3" d="M321.459,339.529l14-5c19-9,7.247-22.204-.976-39.518l-10.659-22.444c-9.81-20.83-22.154-37.361-30.685-34.11h0c-8.531,3.25-6.713,22.988-.209,45.881l6.545,23.386c4.897,17.496,3.984,34.806,21.984,31.806Z"/><path class="cls-3" d="M314.218,336.529h-104.936l12.451-52c5-29,16.023-52,45-52h0c28.977,0,30,25,37,54l10.485,50Z"/><g><path class="cls-7" d="M210.563,378.659l12.933-8.602,11.729,9.928,8.9-13.404,17.027,12.253,5.728-10.554-4.725-30.987c-2.397-13.023-9.964-24.248-22.095-24.184h0c-12.132,.064-19.155,10.942-21.837,24.417l-7.659,41.134Z"/><path class="cls-1" d="M248.912,314.849c-2.356-1.129-4.974-1.756-7.853-1.74h0c-12.132,.064-19.155,10.942-21.837,24.417l-7.659,41.134,12.933-8.602,4.736,4.009,9.99-39.541c1.61-8.088,4.786-15.237,9.69-19.677Z"/><path class="cls-10" d="M206.879,384.951l8.959-48.112c3.389-17.022,12.415-26.802,24.771-26.868,.039,0,.079,0,.118,0,12.365,0,21.916,10.196,24.942,26.642l4.893,32.075-7.835,14.434-17.262-12.422-9.041,13.617-12.58-10.648-16.966,11.284Zm17.399-18.778l10.877,9.207,8.758-13.191,16.791,12.083,3.622-6.675-4.572-29.99c-1.92-10.424-7.938-21.637-19.026-21.637-.029,0-.058,0-.087,0-13.129,.07-17.599,15.411-18.911,22.003l-6.353,34.119,8.901-5.92Z"/></g><g><path class="cls-7" d="M277.449,360.553l1.454,12.518,11.016-11.075,11.987,9.469,4.019-13.438,17.984,11.043-2.978-15.801-4.794-20.039c-2.385-10.844-9.942-20.187-22.074-20.122h0c-12.132,.064-19.164,9.13-21.859,20.355l5.245,27.09Z"/><path class="cls-1" d="M292.926,314.066c-2.467,.336-5.008,1.109-7.577,2.407h0c-10.827,5.472-13.638,15.545-11.74,25.329l6.269,29.629,8.821-11.269,11.283,6.808-9.446-36.033c-1.139-5.873-.579-11.848,2.39-16.871Z"/><path class="cls-10" d="M276.075,379.836l-2.159-18.587-5.348-27.617,.152-.632c3.441-14.333,12.466-22.59,24.761-22.655,.044,0,.088,0,.132,0,12.12,0,21.881,8.809,24.887,22.479l4.812,20.128,4.233,22.458-20.433-12.545-4.166,13.933-13.354-10.55-13.518,13.591Zm-1.366-46.056l5.153,26.663,.736,6.336,8.514-8.56,10.618,8.388,3.871-12.943,15.538,9.541-1.71-9.073-4.777-19.968c-1.903-8.653-7.893-17.821-19.032-17.821-.036,0-.071,0-.107,0-12.355,.065-17.061,10.671-18.804,17.436Z"/></g><polygon class="cls-6" points="240.105 306.297 236.139 239.442 255.38 243.84 259.742 299.593 240.105 306.297"/><g><path class="cls-3" d="M315.2,154.618s-3.643-42.905-51.001-43.715c-63.668-1.088-64.763,52.905-64.763,53.429,0,1.707,8.095,49.382,17.81,71.239,6.023,4.904,13.821,10.399,23.476,15.381,12.896,6.654,24.822,10.184,34,12.143,6.529-3.148,16.562-9.015,25.905-19.429,6.899-7.69,11.158-15.336,13.762-21.048,1.079-22.667,.81-45.334,.81-68.001Z"/><path class="cls-11" d="M206.675,194.074c1.107-.365,3.165,11.839,14.816,19.247,11.179,7.108,25.447,6.148,25.37,7.28-.073,1.059-10.336,6.804-14.75,5.583-.131,3.098,7.3,10.953,10.576,13.896,15.676,14.078,31.842,18.247,31.576,18.922-.34,.863-29.04-.279-49.363-20.709-18.849-18.948-19.77-43.71-18.225-44.219Z"/><path class="cls-11" d="M237.403,140.344c-.767,1.786-2.039,4.278-4.123,6.878-2.855,3.564-5.803,5.547-8,7-2.275,1.504-5.66,3.42-10.123,4.878,.424,.427,5.715,5.571,13.123,4.122,8.179-1.601,10.894-9.665,11-10,2.106-6.637-1.393-12.143-1.877-12.878Z"/><g><path class="cls-8" d="M242.985,195.496c-.895,10.851,4.927,20.188,13.004,20.855s15.352-7.59,16.247-18.441c.016-.191,.014-.377,.025-.566-11.592-1.14-20.881-5.304-27.492-9.411-.937,2.292-1.561,4.846-1.785,7.563Z"/><path class="cls-8" d="M296.562,211.189c6.535-1.132,10.519-9.637,8.897-18.996-.437-2.523-1.246-4.841-2.31-6.873-5.219,4.504-12.211,9.127-21.109,12.151,1.952,8.73,8.266,14.802,14.522,13.718Z"/></g><path class="cls-11" d="M296.394,138.222c.605,1.409,1.609,3.376,3.253,5.428,2.253,2.812,4.579,4.378,6.313,5.524,1.795,1.187,4.467,2.699,7.988,3.85-.335,.337-4.51,4.397-10.356,3.253-6.454-1.263-8.597-7.627-8.681-7.891-1.662-5.238,1.099-9.583,1.482-10.163Z"/><path class="cls-9" d="M274.723,267.096c-.279,0-.559-.029-.835-.088-12.192-2.603-23.968-6.809-34.999-12.501-8.552-4.412-16.683-9.739-24.168-15.834-.487-.396-.875-.902-1.13-1.478-9.886-22.243-18.154-70.487-18.154-72.863,0-.228,.2-22.998,17.491-39.996,12.147-11.942,29.402-17.83,51.34-17.432,50.386,.861,54.879,46.91,54.918,47.375,.01,.113,.015,.226,.015,.339,0,3.772,.008,7.546,.015,11.318,.037,18.624,.075,37.883-.829,56.873-.023,.508-.145,1.007-.355,1.469-3.68,8.071-8.533,15.493-14.425,22.06-7.632,8.507-16.766,15.357-27.146,20.361-.545,.263-1.14,.396-1.737,.396Zm-54.202-34.021c6.851,5.494,14.259,10.31,22.036,14.322,9.994,5.157,20.636,9.021,31.654,11.491,8.93-4.489,16.81-10.504,23.439-17.893,5.181-5.775,9.479-12.28,12.781-19.345,.857-18.543,.819-37.428,.783-55.698-.007-3.715-.015-7.429-.015-11.144-.317-3.08-4.949-39.187-47.069-39.907-24.747-.403-42.438,7.612-52.581,23.882-7.387,11.849-8.057,24.048-8.109,25.454,.444,4.285,8.166,48.04,17.08,68.837Z"/></g><g><polygon class="cls-7" points="321.426 344.505 259.982 348.97 254.982 331.97 246.578 346.97 212.426 346.97 221.426 290.505 273.982 288.97 284.982 303.97 292.667 288.157 312.426 287.505 321.426 344.505"/><polygon class="cls-1" points="223.426 290.505 214.426 344.505 239.426 344.505 248.105 289.692 223.426 290.505"/><path class="cls-10" d="M257.808,352.097l-3.672-12.483-5.779,10.315h-39.425l9.944-62.391,56.614-1.654,8.989,12.258,6.301-12.966,24.217-.798,9.923,62.841-67.112,4.877Zm-1.938-27.852l6.328,21.517,55.776-4.053-8.077-51.159-15.303,.504-9.068,18.661-13.011-17.742-48.497,1.417-8.056,50.539h28.878l11.029-19.685Z"/></g><path class="cls-3" d="M198.733,344.529l-14-5c-19-9-7.247-22.204,.976-39.518l10.659-22.444c9.81-20.83,22.154-37.361,30.685-34.11h0c8.531,3.25,6.713,22.988,.209,45.881l-6.545,23.386c-4.897,17.496-3.984,34.806-21.984,31.806Z"/><g><path class="cls-4" d="M276.266,391.193c-1.571,15.475-2.966,27.871,15.283,29.777l18.578-1.051c23.053-3.386,18.555-17.856,14.886-35.919-13.584,3.973-30.231,7.195-48.747,7.193Z"/><g class="cls-2"><path class="cls-5" d="M316.695,406.317l-18.578,1.051c-12.509-1.307-15.787-7.543-16.106-16.32-2.249,.095-4.53,.145-6.84,.145-1.571,15.475-2.966,27.871,15.283,29.777l18.578-1.051c13.916-2.044,17.786-8.13,17.866-16.604-2.567,1.353-5.905,2.371-10.203,3.002Z"/></g></g></svg>