<?xml version="1.0" encoding="UTF-8"?><svg id="Full" xmlns="http://www.w3.org/2000/svg" viewBox="0 0 512 512"><defs><style>.cls-1{fill:#369;}.cls-2{opacity:.5;}.cls-3{stroke:#996;}.cls-3,.cls-4{stroke-linecap:round;stroke-linejoin:round;stroke-width:8px;}.cls-3,.cls-5{fill:#ffc;}.cls-6{fill:#663;}.cls-4{fill:#993;stroke:#663;}.cls-7{stroke:#336;}.cls-7,.cls-8{fill:#69c;stroke-miterlimit:10;stroke-width:6px;}.cls-9{fill:#c00;}.cls-10{fill:#996;}.cls-11{fill:#036;}.cls-12{fill:#cc9;}.cls-8{stroke:#036;}</style></defs><g id="Idle"><path class="cls-3" d="M375.31,279.53l2.1-14.72c.89-21.01-16.27-16.75-35.42-17.54l-24.83-1.02c-23-1.02-43.38,2.2-44.48,11.27h0c-1.1,9.06,17.22,16.65,40.5,21.55l23.74,5.1c17.76,3.82,32.66,12.69,38.38-4.64Z"/><g><path class="cls-3" d="M257.83,353.43l-82.7-64.6,41.82-33.31c21.79-19.78,44.64-31.12,67.47-13.28h0c22.84,17.84,8.25,38.17-4.08,65.33l-22.52,45.86Z"/><g><path class="cls-3" d="M186.03,402.01l14.24,9.94c21.25,12.29,24.37-5.52,33.55-22.37l11.9-21.84c11.1-20.2,16.68-40.35,7.83-46.3h0c-8.86-5.95-24.67,6.43-39.9,24.76l-15.63,18.64c-11.69,13.94-27.33,22.53-11.99,37.18Z"/><g><path class="cls-3" d="M128.18,353.7l-7.78-19.04c-9.03-27.6,9.53-25.53,28.09-30.53l24.06-6.48c22.26-6.1,43.59-6.05,48.19,5.71h0c4.6,11.76-10.5,25.58-31.53,36.88l-21.41,11.65c-16.02,8.72-27.25,23.53-39.62,1.79Z"/><g><path class="cls-8" d="M146.52,303.25l13.3,8.02-3.97,14.85,15.92,2.32-3.81,20.63,11.99,.67,26-17.51c10.75-7.73,17.67-19.37,12.43-30.31h0c-5.24-10.94-18.08-12.64-31.41-9.31l-40.46,10.65Z"/><path class="cls-1" d="M220.6,310.66c.01-2.61-.54-5.25-1.78-7.84h0c-5.24-10.94-18.08-12.64-31.41-9.31l-40.46,10.65,13.3,8.02-1.6,5.99,40.02-7.86c8-2,15.82-2.18,21.93,.36Z"/><path class="cls-11" d="M139.26,302.6l47.33-12.45c16.84-4.21,29.54-.22,34.88,10.92,.02,.04,.03,.07,.05,.11,5.28,11.18,.14,24.17-13.43,33.93l-26.91,18.13-16.4-.92,3.86-20.91-16.17-2.36,4.25-15.92-17.45-10.52Zm24.41,7.71l-3.68,13.77,15.67,2.28-3.75,20.34,7.58,.42,25.16-16.95c8.6-6.19,16.17-16.42,11.44-26.45-.01-.03-.03-.05-.04-.08-5.67-11.84-21.45-9.33-27.97-7.7l-33.56,8.83,9.16,5.52Z"/></g></g><g><path class="cls-8" d="M210.11,349.13l-6.56,10.76,15.5-1.95,3.62,14.84,11.44-8.12,7.37,19.77,7.38-14.29,8.56-18.74c4.8-10.01,4.59-22.03-5.01-29.45h0c-9.6-7.42-20.72-4.6-29.76,2.58l-12.54,24.58Z"/><path class="cls-1" d="M250.92,322.02c-2.15-1.25-4.63-2.21-7.45-2.77h0c-11.9-2.35-20.32,3.85-24.84,12.73l-13.3,27.21,13.89-3.45,4.7,12.31,14.74-34.21c2.72-5.33,6.84-9.69,12.27-11.82Z"/><path class="cls-11" d="M197.15,363.48l9.74-15.98,12.79-25.06,.51-.4c11.54-9.18,23.73-10.13,33.46-2.61,.03,.03,.07,.05,.1,.08,9.55,7.46,11.82,20.41,5.77,33.03l-8.6,18.82-10.49,20.3-8.38-22.46-11.86,8.42-4.03-16.54-19.02,2.39Zm27.28-37.14l-12.35,24.18-3.32,5.45,11.98-1.5,3.2,13.15,11.02-7.82,6.37,17.08,4.24-8.2,8.53-18.68c3.83-7.99,4.75-18.9-4.03-25.76-.03-.02-.06-.04-.08-.07-9.78-7.55-20.01-2.09-25.55,2.17Z"/></g></g><polygon class="cls-7" points="214.08 283.38 252.11 228.26 264.57 243.57 233.68 290.19 214.08 283.38"/><g><polygon class="cls-8" points="249.86 365.66 201.41 326.73 209.28 310.84 192.86 316.06 167.61 292.61 212.7 257.42 252.59 292.39 250.51 310.93 266.96 304.62 282.01 317.72 249.86 365.66"/><polygon class="cls-1" points="214.18 258.79 170.77 292.17 189.25 309.34 232.97 275.15 214.18 258.79"/><path class="cls-11" d="M197.67,327.53l5.78-11.67-11.29,3.59-29.14-27.07,49.82-38.88,42.97,37.67-1.7,15.15,13.48-5.17,18.44,16.05-35.44,52.85-52.93-42.52Zm17.53-21.74l-9.97,20.11,43.99,35.34,28.85-43.03-11.65-10.14-19.4,7.44,2.46-21.93-36.81-32.27-40.35,31.49,21.35,19.83,21.55-6.85Z"/></g><g><path class="cls-4" d="M190.31,372.55c-10.76,11.23-19.49,20.14-6.29,32.87l15.29,10.61c20.25,11.52,25.61-2.65,33.84-19.14-13.15-5.23-28.25-12.94-42.84-24.34Z"/><g class="cls-2"><path class="cls-6" d="M212.86,409.35l-15.29-10.61c-9.05-8.73-7.8-15.66-2.65-22.78-1.83-1.31-3.66-2.67-5.48-4.1-10.76,11.23-19.49,20.14-6.29,32.87l15.29,10.61c12.22,6.96,19.02,4.54,24.3-2.09-2.86-.51-6.11-1.77-9.89-3.92Z"/></g></g></g><g><g><g><path class="cls-5" d="M239.5,184.22c-5.06-4.25-11.82-10.15-18.79-13.61-5.37,14.01-3.52,20.91-1.73,26.11,3.77,10.98,15,15.74,16.31,16.17"/><g><path class="cls-12" d="M226.84,205.97s.03,.03,.05,.04c-.02-.02-.03-.03-.05-.05,0,0,0,0,0,0Z"/><path class="cls-10" d="M227.46,206.58s0-.05-.01-.08c-.19-.16-.38-.32-.56-.49,.19,.19,.38,.39,.57,.57Z"/><g><path class="cls-12" d="M221.61,188.46c.08-.08,.3-.27,.38-.34,.24-.16,.49-.32,.74-.47,1.9-.95,4.19-.87,6.34-.32-2.98-1.7-6.02-3.3-8.46-4.34-1.75,5.1-1.64,9.6-.86,13.07-.51-2.79-.13-5.6,1.87-7.61Z"/><path class="cls-10" d="M238.58,194.75l.06-.74,.05-.63c-2.26-1.6-5.9-3.9-9.62-6.03-2.15-.55-4.44-.64-6.34,.32-.25,.15-.49,.31-.74,.47-.08,.07-.29,.26-.38,.34-2,2.01-2.37,4.82-1.87,7.61,.41,1.83,2.49,6.08,2.6,6.24,.06,.08,.12,.17,.18,.25,.04,.06,.09,.11,.14,.17-1.02-3.77-1.85-8.97,1.11-11.74,2.18-1.75,5.53-.81,8.15,.19,2.45,.95,4.65,2.4,6.62,4.07l.04-.5Z"/><path class="cls-12" d="M234.27,196.09c1.43,.46,2.78,1.11,4.03,1.89l.24-2.74c-1.97-1.68-4.17-3.12-6.62-4.07-2.61-1-5.96-1.93-8.15-.19-2.96,2.77-2.13,7.97-1.11,11.74,.16,.21,1.19,1.81,3.24,3.92-.46-1.52-.7-3.08-.65-4.64,.19-4.98,3.56-7.59,9.02-5.91Z"/><path class="cls-12" d="M236.74,213.26l1.31-11.96,.04-.59c-1.99-1.06-4.29-1.89-6.19-2.09-2.95-.29-4.1,2.09-4.43,4.47-.24,1.69-.12,3.44,.17,5.19,4.07,3.5,8.35,4.76,9.11,4.98Z"/><path class="cls-10" d="M231.89,198.62c1.91,.2,4.21,1.03,6.19,2.09l.14-1.84,.08-.89c-1.25-.79-2.6-1.44-4.03-1.89-5.46-1.68-8.82,.93-9.02,5.91-.05,1.57,.2,3.13,.65,4.64,.18,.18,.35,.37,.54,.56,.39,.38,.78,.73,1.17,1.07-.29-1.74-.41-3.49-.17-5.19,.34-2.38,1.48-4.76,4.43-4.47Z"/></g></g><path class="cls-10" d="M235.69,216.41c-3.51-1.15-14.39-6.93-18.21-18.04-2.06-6.01-3.8-13.64,1.77-28.16l1.18-3.08,2.95,1.47c6.76,3.36,13.1,8.71,18.2,13l1.19,1-3.86,4.59-1.19-1.01c-4.06-3.42-8.95-7.55-14.02-10.58-3.75,11.47-1.84,17.03-.54,20.81,3.48,10.12,14.3,14.26,14.4,14.29l-1.87,5.7Z"/></g><g><path class="cls-5" d="M348.3,213.58c6.52-1.07,15.34-2.68,23.1-2.09-2.55,14.79-7.67,19.77-11.86,23.32-8.85,7.51-20.93,5.86-22.28,5.56"/><g><path class="cls-12" d="M348.07,238.74s-.04,0-.06,.01c.02,0,.04-.01,.06-.02,0,0,0,0,0,0Z"/><path class="cls-10" d="M347.22,238.95s.03-.04,.05-.06c.24-.05,.49-.08,.73-.13-.26,.07-.52,.14-.78,.2Z"/><g><path class="cls-12" d="M361.51,226.36c-.03-.11-.12-.38-.15-.48-.13-.26-.25-.52-.39-.78-1.15-1.79-3.16-2.89-5.29-3.51,3.43,.06,6.86,.24,9.49,.59-1.1,5.28-3.5,9.09-5.94,11.68,1.86-2.14,2.98-4.74,2.29-7.49Z"/><path class="cls-10" d="M343.71,223.09l.33-.67,.28-.57c2.76-.22,7.07-.34,11.36-.27,2.13,.63,4.14,1.72,5.29,3.51,.14,.25,.26,.52,.39,.78,.03,.1,.12,.38,.15,.48,.69,2.75-.43,5.35-2.29,7.49-1.29,1.36-5.25,3.95-5.43,4.03-.1,.04-.19,.09-.28,.12-.07,.03-.14,.05-.2,.07,2.81-2.71,6.18-6.76,5.05-10.65-.98-2.62-4.34-3.53-7.1-4-2.59-.43-5.22-.32-7.77,.12l.22-.45Z"/><path class="cls-12" d="M346.73,226.45c-1.46-.34-2.95-.47-4.43-.43l1.19-2.47c2.55-.43,5.18-.55,7.77-.12,2.76,.47,6.11,1.39,7.1,4,1.13,3.89-2.24,7.94-5.05,10.65-.24,.09-1.95,.95-4.79,1.72,1.17-1.07,2.18-2.29,2.94-3.66,2.38-4.38,.82-8.34-4.73-9.69Z"/><path class="cls-12" d="M335.83,239.94l4.99-10.94,.26-.53c2.25,.1,4.65,.57,6.39,1.37,2.69,1.26,2.45,3.89,1.52,6.11-.66,1.58-1.66,3.02-2.79,4.37-5.29,.93-9.61-.18-10.38-.38Z"/><path class="cls-10" d="M347.48,229.84c-1.74-.8-4.15-1.27-6.39-1.37l.82-1.65,.39-.81c1.48-.04,2.97,.09,4.43,.43,5.55,1.35,7.11,5.31,4.73,9.69-.76,1.37-1.77,2.59-2.94,3.66-.25,.07-.49,.14-.75,.2-.53,.13-1.05,.23-1.56,.32,1.14-1.35,2.13-2.79,2.79-4.37,.92-2.21,1.16-4.85-1.52-6.11Z"/></g></g><path class="cls-10" d="M335.12,243.19c3.61,.81,15.91,1.4,24.88-6.2,4.85-4.11,10.24-9.78,12.88-25.1l.56-3.25-3.29-.25c-7.53-.57-15.71,.78-22.29,1.87l-1.53,.25,.97,5.92,1.54-.25c5.24-.87,11.55-1.91,17.46-1.93-2.64,11.77-7.13,15.57-10.18,18.16-8.16,6.92-19.57,4.94-19.68,4.92l-1.31,5.86Z"/></g></g><path class="cls-3" d="M354.94,182.68s8.98-42.11-36.1-56.64c-60.61-19.53-77.34,31.81-77.49,32.31-.5,1.63-6.6,49.6-3.65,73.34,4.34,6.44,10.2,13.97,18,21.54,10.41,10.11,20.79,16.95,29.01,21.5,7.16-1.12,18.47-3.82,30.43-11.07,8.84-5.35,15.13-11.43,19.28-16.14,7.62-21.38,13.94-43.14,20.53-64.83Z"/><path class="cls-12" d="M239.63,188.91c1.17-.03-.41,12.25,8.59,22.72,8.63,10.05,22.56,13.27,22.16,14.34-.38,.99-11.87,3.51-15.74,1.06-1.03,2.93,3.8,12.6,6.08,16.37,10.91,18.02,25.17,26.71,24.72,27.28-.58,.73-27.71-8.7-41.22-34.15-12.53-23.61-6.22-47.57-4.6-47.61Z"/><path class="cls-12" d="M284.64,146.42c-1.25,1.49-3.19,3.5-5.94,5.38-3.77,2.58-7.16,3.62-9.69,4.37-2.61,.78-6.41,1.63-11.1,1.73,.28,.53,3.85,6.99,11.36,7.76,8.29,.84,13.23-6.08,13.43-6.37,3.94-5.74,2.19-12.02,1.94-12.87Z"/><g><path class="cls-9" d="M273.96,200.82c-4.01,10.12-1.15,20.75,6.39,23.73s16.89-2.8,20.9-12.93c.07-.18,.12-.36,.19-.53-10.76-4.46-18.44-11.14-23.57-16.99-1.56,1.92-2.9,4.18-3.91,6.72Z"/><path class="cls-9" d="M320.67,231.39c6.58,.81,12.86-6.17,14.03-15.59,.31-2.54,.21-4.99-.21-7.25-6.3,2.79-14.34,5.19-23.73,5.5-.67,8.92,3.61,16.56,9.91,17.34Z"/></g><path class="cls-12" d="M341.7,161.52c.17,1.52,.56,3.7,1.54,6.14,1.34,3.35,3.11,5.52,4.44,7.12,1.37,1.66,3.49,3.88,6.53,6-.42,.23-5.59,2.9-10.85,.1-5.81-3.08-6.01-9.8-6.01-10.07-.07-5.49,3.84-8.85,4.37-9.29Z"/><path class="cls-10" d="M283.53,278.55c-.27-.08-.53-.19-.77-.33-10.91-6.03-20.96-13.48-29.86-22.13-6.9-6.71-13.13-14.17-18.53-22.17-.35-.52-.58-1.12-.65-1.74-3-24.16,3.1-72.72,3.79-75,.07-.22,6.87-21.95,28.35-33.19,15.09-7.9,33.31-8.52,54.19-1.77,47.96,15.46,38.89,60.83,38.79,61.28-.02,.11-.05,.22-.08,.33-1.1,3.61-2.18,7.22-3.27,10.83-5.37,17.83-10.93,36.27-17.31,54.18-.17,.48-.43,.92-.77,1.3-5.87,6.65-12.67,12.35-20.21,16.92-9.77,5.92-20.5,9.83-31.89,11.6-.6,.09-1.21,.05-1.78-.13Zm-41.98-48.3c4.96,7.25,10.65,14.01,16.93,20.11,8.07,7.84,17.13,14.63,26.95,20.19,9.85-1.7,19.14-5.17,27.63-10.31,6.63-4.02,12.64-9,17.85-14.8,6.21-17.49,11.66-35.58,16.93-53.07,1.07-3.56,2.14-7.11,3.22-10.67,.59-3.04,6.65-38.93-33.45-51.86-23.56-7.57-42.82-5.04-57.25,7.58-10.51,9.19-14.69,20.67-15.15,22-.82,4.23-6.14,48.34-3.65,70.83Z"/></g><path class="cls-3" d="M319.42,272.3l-4.81,14.07c-8.74,19.12-22.1,7.55-39.53-.44l-22.59-10.35c-20.96-9.53-37.66-21.64-34.53-30.22h0c3.13-8.57,22.89-7.03,45.87-.84l23.47,6.23c17.56,4.66,34.86,3.51,32.1,21.55Z"/></g></svg>