<svg xmlns="http://www.w3.org/2000/svg" viewBox="0 0 200 200"><defs><style>.cls-1{fill:#3e8758;}.cls-2{fill:#285e3a;opacity:0.7;}.cls-3{fill:#386eb6;}.cls-4{fill:#87c19a;}</style></defs><title>grass</title><g id="grass"><rect class="cls-1" width="200" height="200"/><polygon class="cls-2" points="126.76 181.19 163.58 170.77 187.63 147.45 166.9 148.34 149.58 157.62 136.72 163.97 126.76 181.19"/><polygon class="cls-2" points="85 165.97 82.64 137.65 66.12 131.75 36.62 114.05 56.68 143.55 72.02 150.63 85 165.97"/><polygon class="cls-2" points="67 180.97 63.17 159.29 47.87 151.64 38.95 141.44 9.62 137.61 37.67 165.67 67 180.97"/><polygon class="cls-2" points="118.18 167.84 120.7 137.65 138.31 131.36 157.62 113 148.38 143.94 132.02 151.49 118.18 167.84"/><polygon class="cls-3" points="172.24 31.9 162.24 42.9 172.24 51.9 181.24 39.9 172.24 31.9"/><polygon class="cls-3" points="114.74 81.4 124.74 77.4 132.74 85.4 121.74 92.4 114.74 81.4"/><path class="cls-2" d="M93.45,65.89c0,3.84-6.08,7.08-14.4,8.1-2.93,3.13-10.15,5.34-18.6,5.34s-15.9-2.28-18.74-5.49c-7.73-1.17-13.26-4.29-13.26-8,0-4.66,9-8.43,20-8.43A39.82,39.82,0,0,1,61,59.31a39.82,39.82,0,0,1,12.5-1.85C84.5,57.46,93.45,61.23,93.45,65.89Z"/><ellipse class="cls-4" cx="60.47" cy="37.19" rx="20" ry="16.5"/><ellipse class="cls-4" cx="60.47" cy="53.19" rx="20" ry="16.5"/><ellipse class="cls-3" cx="60.47" cy="47.19" rx="16" ry="8.5"/><ellipse class="cls-4" cx="82.12" cy="49.25" rx="20" ry="8.44" transform="translate(-5.41 88.08) rotate(-54.87)"/><ellipse class="cls-4" cx="40.12" cy="49.25" rx="8.44" ry="20" transform="translate(-21.03 32.06) rotate(-35.13)"/><ellipse class="cls-4" cx="60.36" cy="59.33" rx="20" ry="8.44"/></g></svg>