<?xml version="1.0" encoding="UTF-8"?><svg id="Boar" xmlns="http://www.w3.org/2000/svg" viewBox="0 0 563.5 512"><defs><style>.cls-1,.cls-2,.cls-3{fill:#960;}.cls-4,.cls-5,.cls-6,.cls-2,.cls-7,.cls-3,.cls-8,.cls-9{stroke:#000;}.cls-4,.cls-5,.cls-6,.cls-7,.cls-3,.cls-8,.cls-9{stroke-width:10px;}.cls-4,.cls-6{fill:#fff;}.cls-4,.cls-6,.cls-9{stroke-linejoin:round;}.cls-5{fill:none;}.cls-5,.cls-2,.cls-7,.cls-3,.cls-8{stroke-miterlimit:10;}.cls-6{stroke-linecap:round;}.cls-2{stroke-width:8px;}.cls-7,.cls-10,.cls-9{fill:#630;}.cls-8{fill:#666;}.cls-11{fill:red;}</style></defs><g id="Idle-2"><g><g><path class="cls-7" d="M339.49,288.13c-14.44,.15-28.66,11.08-34.47,27.16,8.93,21.02,23.59,50.31,21.89,76.68,2.32,1.53,4.96,2.88,7.93,3.76,10.62,3.17,20.12-1.03,26.18-4.93l7.5-19.44c-18.14-15.19,5.44-16.35,8.16-37.67,2.45-25.81-17.43-45.77-37.2-45.56Z"/><path class="cls-8" d="M334.84,395.74c-2.97-.89-5.6-2.23-7.93-3.76-.54,8.45-2.76,16.59-7.38,24.07h31.75l9.74-25.24c-6.06,3.9-15.56,8.1-26.18,4.93Z"/></g><g><path class="cls-7" d="M212.92,291.08c-14.44,.15-28.66,11.08-34.47,27.16,8.93,21.02,23.59,50.31,21.89,76.68,2.32,1.53,4.96,2.88,7.93,3.76,10.62,3.17,20.12-1.03,26.18-4.93l7.5-19.44c-18.14-15.19,5.44-16.35,8.16-37.67,2.45-25.81-17.43-45.77-37.2-45.56Z"/><path class="cls-8" d="M208.27,398.69c-2.97-.89-5.6-2.23-7.93-3.76-.54,8.45-2.76,16.59-7.38,24.07h31.75l9.74-25.24c-6.06,3.9-15.56,8.1-26.18,4.93Z"/></g><g><g><polygon class="cls-10" points="431.47 181.91 435 179.29 430.4 171.77 420.4 177.89 409.27 186.75 409.43 166.63 403.79 161.12 393.68 167.8 384.17 173.52 378.35 168.77 375.22 154.85 364.76 165.27 358.8 160.38 351.08 164.21 345.87 147.97 338.13 150.67 330.85 165.9 324.21 166.73 316.04 152.83 307.28 143.85 301.1 152.73 296.74 167.07 285.82 152.62 279.19 156.55 271.75 157.45 268.95 172.44 258.39 163.8 255.43 177.24 246.35 173.3 240.02 177.11 234.39 183.28 227.33 185.57 219.51 185.14 212.76 193.85 205.85 173.15 192.23 191.56 195.77 174.19 180.31 173.43 191.24 162.74 191.57 156.07 194.44 149.73 187.59 140.88 197.44 136.85 186.43 122.8 194.5 117.82 209.88 122.69 204.45 104.89 221.67 118.04 225.32 111.48 226.96 97.64 236.39 102.73 242.04 96.71 250.23 101.06 255.5 89.38 263.33 93.34 270.09 86.39 277.53 87.22 284.74 100.5 291.42 105.65 299.07 94.12 305.73 98.95 313.76 91.98 321.4 90.15 328.46 92.17 333.31 103.98 338.66 111.38 351.5 91.17 356.66 99.71 359.45 113.89 369.95 105.82 376.87 108.12 380.01 118.72 393.92 106.72 395.55 119.5 399.31 127.23 410.33 123.48 417.01 127.02 416.61 139.56 432.74 135.38 437.24 142.82 442.13 149.85 438.09 161.09 430.83 171.81 445.19 175.56 431.47 181.91"/><polygon class="cls-5" points="431.47 181.91 435 179.29 430.4 171.77 420.4 177.89 409.27 186.75 409.43 166.63 403.79 161.12 393.68 167.8 384.17 173.52 378.35 168.77 375.22 154.85 364.76 165.27 358.8 160.38 351.08 164.21 345.87 147.97 338.13 150.67 330.85 165.9 324.21 166.73 316.04 152.83 307.28 143.85 301.1 152.73 296.74 167.07 285.82 152.62 279.19 156.55 271.75 157.45 268.95 172.44 258.39 163.8 255.43 177.24 246.35 173.3 240.02 177.11 234.39 183.28 227.33 185.57 219.51 185.14 212.76 193.85 205.85 173.15 192.23 191.56 195.77 174.19 180.31 173.43 191.24 162.74 191.57 156.07 194.44 149.73 187.59 140.88 197.44 136.85 186.43 122.8 194.5 117.82 209.88 122.69 204.45 104.89 221.67 118.04 225.32 111.48 226.96 97.64 236.39 102.73 242.04 96.71 250.23 101.06 255.5 89.38 263.33 93.34 270.09 86.39 277.53 87.22 284.74 100.5 291.42 105.65 299.07 94.12 305.73 98.95 313.76 91.98 321.4 90.15 328.46 92.17 333.31 103.98 338.66 111.38 351.5 91.17 356.66 99.71 359.45 113.89 369.95 105.82 376.87 108.12 380.01 118.72 393.92 106.72 395.55 119.5 399.31 127.23 410.33 123.48 417.01 127.02 416.61 139.56 432.74 135.38 437.24 142.82 442.13 149.85 438.09 161.09 430.83 171.81 445.19 175.56 431.47 181.91"/></g><g><g><polygon class="cls-10" points="557.26 290.68 547.47 291.19 539.76 290.74 532.54 294.09 525.33 298.12 517.39 293.85 510.08 295.19 505.65 300.93 502.07 306.74 497.08 310.79 490.48 314 492.49 320.53 499.29 322.86 506.51 322.95 512.96 327.98 520.29 327.61 526.93 323.15 533.21 321.35 541.04 321.72 548.57 319.53 551.51 312.03 550.66 304.51 556.41 298.88 557.26 290.68"/><polygon class="cls-5" points="557.26 290.68 547.47 291.19 539.76 290.74 532.54 294.09 525.33 298.12 517.39 293.85 510.08 295.19 505.65 300.93 502.07 306.74 497.08 310.79 490.48 314 492.49 320.53 499.29 322.86 506.51 322.95 512.96 327.98 520.29 327.61 526.93 323.15 533.21 321.35 541.04 321.72 548.57 319.53 551.51 312.03 550.66 304.51 556.41 298.88 557.26 290.68"/></g><path class="cls-2" d="M516.01,311.24c-.23-4.09-33.45,11.26-62.09-6.55-18.03-11.22-23.73-29.05-26.2-27.14-3.18,2.46-.39,36.67,23.44,44.98,29.43,10.26,65.09-6.82,64.84-11.28Z"/></g><g><path class="cls-3" d="M401.59,346.48h0c-53.32,12.63-108.42,15.91-162.86,9.7l-45.76-5.22-70.43-56.57,61.82-116.93,102.24-47.97c61.97-5.55,106.18,15.56,106.18,15.56,62.84,27.88,64.91,106.93,64.91,106.93,4.12,15.06-1.71,45.73-1.71,45.73-8.68,24.43-29.16,42.8-54.39,48.77Z"/><path class="cls-10" d="M410.77,319.81c-59.33,15.48-120.98,21.71-182.22,18.42l-53.29-12.75-51.44-33.56-1.3,2.45,70.43,56.57,45.76,5.22c54.44,6.21,109.54,2.93,162.86-9.7h0c25.23-5.98,45.71-24.34,54.39-48.77,0,0,1.9-10.01,2.76-21.39-11.36,16.01-27.17,38.08-47.96,43.5Z"/><path d="M293.18,363.78c-18.1,0-36.24-1.03-54.35-3.1l-47.06-5.37-74.38-59.74,64.28-121.58,104.34-48.96,.8-.07c61.93-5.56,105.9,14.73,108.48,15.95,26.82,11.92,47.02,34.92,58.39,66.51,7.85,21.79,8.99,40.41,9.14,43.88,4.08,16.03-1.52,45.97-1.76,47.25l-.06,.34-.12,.33c-9.24,25.99-30.78,45.31-57.62,51.67h0c-36.24,8.58-73.08,12.89-110.06,12.89Zm-97.78-17.18l44.46,5.07c54.08,6.17,108.34,2.94,161.3-9.6,23.72-5.62,42.78-22.63,51.05-45.54,.6-3.33,5.3-30.29,1.72-43.36l-.14-.53v-.55c-.02-.19-.64-19.52-8.73-41.85-10.69-29.51-28.69-50.05-53.5-61.06l-.11-.05c-.43-.2-43.55-20.32-103.03-15.2l-100.13,46.99-59.36,112.27,66.49,53.41Z"/></g></g><g><g><path class="cls-1" d="M411.16,290.4c-14.44,.15-28.66,11.08-34.47,27.16,8.93,21.02,23.59,50.31,21.89,76.68,2.32,1.53,4.96,2.88,7.93,3.76,10.62,3.17,20.12-1.03,26.18-4.93l7.5-19.44c-18.14-15.19,5.44-16.35,8.16-37.67,2.45-25.81-17.43-45.77-37.2-45.56Z"/><path d="M437.93,389.29l-8.46-3.27,6.4-16.6c-7.15-7.61-3.93-14.35-1.05-20.36,4.17-8.72,9.89-20.66-4.96-47.88l7.96-4.34c17.07,31.3,9.92,46.25,5.18,56.14-3.06,6.4-3.7,7.73,1.11,11.75l2.49,2.08-8.67,22.47Z"/><path d="M404.11,389.12l-9.05-.58c1.3-20.3-7.95-40.43-16.12-58.19-1.97-4.29-3.83-8.33-5.53-12.32l8.35-3.55c1.64,3.87,3.48,7.86,5.42,12.08,8.62,18.73,18.38,39.97,16.93,62.56Z"/></g><path class="cls-8" d="M407.17,394.59c-2.92-1.03-5.52-2.61-7.8-4.4-.53,9.87-2.71,19.38-7.26,28.12h31.24l9.58-29.48c-5.96,4.56-15.31,9.46-25.76,5.76Z"/></g><g><g><path class="cls-1" d="M267.82,290.4c-14.44,.15-28.66,11.08-34.47,27.16,8.93,21.02,23.59,50.31,21.89,76.68,2.32,1.53,4.96,2.88,7.93,3.76,10.62,3.17,20.12-1.03,26.18-4.93l7.5-19.44c-18.14-15.19,5.44-16.35,8.16-37.67,2.45-25.81-17.43-45.77-37.2-45.56Z"/><path d="M294.59,389.29l-8.46-3.27,6.4-16.6c-7.15-7.61-3.93-14.35-1.05-20.36,4.17-8.72,9.89-20.66-4.96-47.88l7.96-4.34c17.07,31.3,9.92,46.25,5.18,56.14-3.06,6.4-3.7,7.73,1.11,11.75l2.49,2.08-8.67,22.47Z"/><path d="M260.77,389.12l-9.05-.58c1.3-20.3-7.95-40.43-16.12-58.19-1.97-4.29-3.83-8.33-5.53-12.32l8.35-3.55c1.64,3.87,3.48,7.86,5.42,12.08,8.62,18.73,18.38,39.97,16.93,62.56Z"/></g><path class="cls-8" d="M263.83,394.59c-2.92-1.03-5.52-2.61-7.8-4.4-.53,9.87-2.71,19.38-7.26,28.12h31.24l9.58-29.48c-5.96,4.56-15.31,9.46-25.76,5.76Z"/></g></g><g><g><g><polygon class="cls-1" points="245.74 182.5 264.08 225.95 246.99 250.03 228.34 255.47 208.75 225.58 227.68 210.46 245.74 182.5"/><polygon class="cls-10" points="245.03 210.11 256.82 236.42 239.58 253.66 228.7 250.94 221.87 239.02 234.94 229.75 245.03 210.11"/><path d="M226.83,262.95l-23.69-36.15,21.57-17.23,22.32-34.54,22.65,53.67-19.47,27.43-23.38,6.82Zm-11.58-34.22l15.48,23.63,13.91-4.06,14.72-20.74-14.02-33.22-13.81,21.37-16.28,13Z"/></g><g><polygon class="cls-1" points="98.51 184.24 82.69 228.66 104.28 249.37 120.97 240.44 137.91 225.13 118.15 211.12 98.51 184.24"/><polygon class="cls-10" points="100.05 211.76 90.66 238.09 103.47 250.37 113.36 245.08 123.4 236 111.69 227.69 100.05 211.76"/><path d="M102.53,256.95l-26.08-25.02,19.68-55.27,24.25,33.21,23.77,16.86-21.55,19.48-20.08,10.75Zm-15.57-27.51l17.1,16.4,13.29-7.12,12.33-11.14-15.75-11.17-15.01-20.55-11.96,33.58Z"/></g></g><polygon class="cls-3" points="158.39 206.34 213.42 212.83 254.1 348.01 130.01 383.39 62.68 348.01 115.29 237.33 158.39 206.34"/><path class="cls-4" d="M121.5,411l33,4,22-9,9.3-37.78h0c-7.83-19.67-13.2-15.91-24.52-12.56l-7.02,5.75-3.76,30.6-29,19Z"/><path class="cls-6" d="M17.5,399l42.36,3.5,23.14-27.23h0c1.99-21.08-4.51-20.17-16.11-22.35l-8.87,1.92-10.72,22.44-29.81,21.72Z"/><g><path class="cls-9" d="M157.15,365.23c5.31-20.79-11.71-31.93-34.18-51.97-7.92-7.06-19.51-8.08-28.52-2.5-24.82,15.38-41.42,27.2-36.96,50.01,4.88,24.98,31.49,35.32,43.29,14.45,25.4,28.12,50.97,11.15,56.38-9.99Z"/><g><path d="M75.38,367.97c-11.77-7.06-7.26-19.96-2.72-27.22,6.61-10.57,18.65-10.59,23.25-7.47,4.29,2.92,1.91,16.96-5.1,20.45-4.13,2.06-7.46-.75-11.06,1.64-5.89,3.9,.17,15.32-4.36,12.6Z"/><path d="M130.47,368.87c11.77-7.06,7.26-19.96,2.72-27.22-6.61-10.57-18.65-10.59-23.25-7.47-4.29,2.92-1.91,16.96,5.1,20.45,4.13,2.06,7.46-.75,11.06,1.64,5.89,3.9-.17,15.32,4.36,12.6Z"/></g></g><path class="cls-10" d="M204.92,323.25c-7.67-9.42-14.51-18.85-22.38-27.9-7.74-9.16-15.97-17.37-24.17-26.34,22.33,8.5,41.38,30.95,46.55,54.23h0Z"/><g><path class="cls-10" d="M128.22,303.03c-15.27-4.11-28.59-20.03-29.8-35.83,5.06,5.03,10.67,12.26,15.23,17.63,4.47,5.49,10.51,12.28,14.56,18.19h0Z"/><path class="cls-10" d="M128.02,268.52c-3.87,15.69-21.51,30.66-40.1,33.45,5.55-5.57,13.66-11.94,19.64-17.06,6.14-5.02,13.73-11.8,20.46-16.39h0Z"/></g><path class="cls-11" d="M178.23,286.13c-4.8,3.72-9.41,6.56-13.73,8.76,2.33,13.83,13.13,20.11,19.12,20.11,6.74,0,16.17-18.64,16.17-36.36,0-4.63-.65-8.74-1.72-12.29-5.58,6.94-12.19,13.85-19.84,19.77Z"/></g></g></svg>