<?xml version="1.0" encoding="UTF-8"?><svg id="Rabbit" xmlns="http://www.w3.org/2000/svg" viewBox="0 0 512 512"><defs><style>.cls-1{fill:#fff;}.cls-1,.cls-2{stroke-linejoin:round;stroke-width:8px;}.cls-1,.cls-2,.cls-3{stroke:#000;}.cls-2{fill:#966;}.cls-4{fill:#fc6;}.cls-5{fill:#ffc;}.cls-6{fill:#333;}.cls-3{fill:none;stroke-miterlimit:10;stroke-width:10px;}.cls-7{fill:#c96;}.cls-8{fill:#666;}</style></defs><g id="Idle"><g><g><path class="cls-4" d="M222.69,314.38c-3.99,.86-6.73,1.91-8.72,4.09-5.9,6.45-7.43,13.75-6.91,22.2,.46,7.34,1.75,15.43,3.22,23.93,1.31,7.64,4.12,15.71,3.5,24.05-.55,7.49-3.19,15.4-7.28,23.28-2.43,4.68-13.11,15.14-26.38,23.89-8.1,5.34-10.85,14.6-12.8,22.45-2.97,11.94-.93,21.74,3.32,22.75,8.24,1.95,15.54,4.27,22.64,4.03,8.2-.28,16.03-1.21,22.84-4.27,6.9-3.1,13.54-7.64,19.17-13.45,5.02-5.19,7.43-12.95,11.54-20.18,3.75-6.6,7.61-13.8,9.03-22.54,1.26-7.74,3.34-16.13,3.11-24.64s-2.56-16.44-3.88-24.52-3.89-16.38-6.14-23.87c-2.64-8.76-5.85-16.45-9.25-22.71-5.57-10.26-11.12-15.76-17.02-14.49Z"/><path class="cls-3" d="M222.69,314.38c-3.99,.86-6.73,1.91-8.72,4.09-5.9,6.45-7.43,13.75-6.91,22.2,.46,7.34,1.75,15.43,3.22,23.93,1.31,7.64,4.12,15.71,3.5,24.05-.55,7.49-3.19,15.4-7.28,23.28-2.43,4.68-13.11,15.14-26.38,23.89-8.1,5.34-10.85,14.6-12.8,22.45-2.97,11.94-.93,21.74,3.32,22.75,8.24,1.95,15.54,4.27,22.64,4.03,8.2-.28,16.03-1.21,22.84-4.27,6.9-3.1,13.54-7.64,19.17-13.45,5.02-5.19,7.43-12.95,11.54-20.18,3.75-6.6,7.61-13.8,9.03-22.54,1.26-7.74,3.34-16.13,3.11-24.64s-2.56-16.44-3.88-24.52-3.89-16.38-6.14-23.87c-2.64-8.76-5.85-16.45-9.25-22.71-5.57-10.26-11.12-15.76-17.02-14.49Z"/></g><g><g><polygon class="cls-5" points="371.38 254.1 363.62 265.88 355.87 249.47 345.47 237.83 325.49 243.05 317.69 223.79 302.21 227 291.19 239.7 276.77 240.4 262 239.36 246.53 224.32 229.95 245.78 226.62 224.06 242 217.68 245.98 202.28 263.15 204.06 272.12 189.77 286.96 191.28 300.74 181.64 316.33 180.74 327 195.77 337.76 204.2 353.59 206.26 361.34 218.71 383.55 222.03 384.97 239.74 371.38 254.1"/><polygon class="cls-3" points="371.38 254.1 363.62 265.88 355.87 249.47 345.47 237.83 325.49 243.05 317.69 223.79 302.21 227 291.19 239.7 276.77 240.4 262 239.36 246.53 224.32 229.95 245.78 226.62 224.06 242 217.68 245.98 202.28 263.15 204.06 272.12 189.77 286.96 191.28 300.74 181.64 316.33 180.74 327 195.77 337.76 204.2 353.59 206.26 361.34 218.71 383.55 222.03 384.97 239.74 371.38 254.1"/></g><g><path class="cls-4" d="M383.45,434.9c-11.08,13.87-21.84,18.77-34.85,14.16-10.49-3.72-21.31-13.37-34.05-22.43-10.24-7.28-20.99-15.91-33.2-23.14-11.25-6.66-24.14-9.7-37.45-13.78-12.91-.5-23.78-5.95-33.89-9.79-11.84-4.5-22.27-10.11-30.18-17.87-8.76-8.6-17.07-18.25-20.9-28.99-4.04-11.33-4.87-24.39-3.28-35.88,1.61-11.61,7.17-23.12,14.7-32.53,6.66-8.34,18.25-13.64,29.6-20.8,9.66-6.1,18.55-15.82,30.39-20.31,11.09-4.21,23.69-5.53,35.74-7.74s24.13-1.01,36.12-.66c12.3,.36,24.35,.39,35.72,4s20.92,10.84,30.51,18.5c9.59,7.66,18.52,15.29,24.65,25.74s9.46,21.81,12.53,33.72c2.99,11.62,6.41,23.38,6.92,35.52s.39,24.63-1.27,36.38c-1.77,12.54-6.92,23.9-10.73,34.66-4.48,12.64-10.42,22.89-17.08,31.23Z"/><path class="cls-3" d="M383.45,434.9c-11.08,13.87-21.84,18.77-34.85,14.16-10.49-3.72-21.31-13.37-34.05-22.43-10.24-7.28-20.99-15.91-33.2-23.14-11.25-6.66-24.14-9.7-37.45-13.78-12.91-.5-23.78-5.95-33.89-9.79-11.84-4.5-22.27-10.11-30.18-17.87-8.76-8.6-17.07-18.25-20.9-28.99-4.04-11.33-4.87-24.39-3.28-35.88,1.61-11.61,7.17-23.12,14.7-32.53,6.66-8.34,18.25-13.64,29.6-20.8,9.66-6.1,18.55-15.82,30.39-20.31,11.09-4.21,23.69-5.53,35.74-7.74s24.13-1.01,36.12-.66c12.3,.36,24.35,.39,35.72,4s20.92,10.84,30.51,18.5c9.59,7.66,18.52,15.29,24.65,25.74s9.46,21.81,12.53,33.72c2.99,11.62,6.41,23.38,6.92,35.52s.39,24.63-1.27,36.38c-1.77,12.54-6.92,23.9-10.73,34.66-4.48,12.64-10.42,22.89-17.08,31.23Z"/></g><path class="cls-7" d="M254.11,359.22c-13.58,2.11-25.82,.96-36.31-.98-13.33-2.47-22.94-9.89-31.27-17.16-9.38-8.19-18.1-17.21-21.16-28.87-2.99-11.4-2.98-22.67,.06-34.75-5.63,9.57-7.17,18.86-7.55,29.9s.67,22.31,5.21,32.61c4.29,9.73,10.86,19.44,19.43,27.09,7.73,6.9,18.9,9.44,30.03,13.42,9.55,3.41,19.6,7.61,31.6,8.07,13.12,4.02,23.97,11.87,35.06,18.42,12.05,7.12,24.06,13.22,34.16,20.39,12.57,8.91,24.17,15.85,34.52,19.51,12.82,4.54,23.36,2.9,34.29-10.75,5.27-6.59,10.32-14.12,14.25-23.57-10.51-1.32-22.17-6.99-35.56-13.34-10.83-5.14-23.34-9.31-35.31-15.28s-22.32-13.09-34.18-17.59c-12.39-4.69-25.01-5.84-37.27-7.12Z"/><path d="M361.15,453.94c-8.43,0-16.84-4.81-25.72-9.89l-.91-.52c-5.01-2.86-9.93-6.52-15.14-10.39-2.34-1.74-4.76-3.54-7.25-5.3-3.32-2.36-7.26-4.22-11.42-6.2-4.08-1.93-8.29-3.93-12.3-6.57-3.27-2.15-6.27-4.75-9.18-7.26-3.95-3.41-7.68-6.64-12.02-8.85-7.09-3.6-14.85-5.98-23.08-8.5l-1.1-.34c-1.6-.06-3.19-.1-4.77-.15-9.05-.26-17.6-.51-25.36-2.93-9.27-2.89-18.61-7.75-27.76-14.44-7.52-5.5-14.35-13.1-20.87-23.25-4.66-7.25-5.89-15.36-7.08-23.2-.34-2.21-.65-4.3-1.04-6.37-.5-2.66-1.22-5.34-1.97-8.17-1.97-7.38-4-15.01-2.25-22.71,2.37-10.4,9.25-19.64,15.51-27.48,4.15-5.2,9.85-9.05,15.87-13.13,2.02-1.37,4.11-2.78,6.16-4.26,1.84-1.33,3.65-2.73,5.57-4.2,5.27-4.05,10.71-8.25,17.28-11.48,5.39-2.65,11.26-4.19,16.94-5.68,3.11-.82,6.33-1.66,9.42-2.68,2.87-.94,5.68-2.04,8.64-3.21,5.57-2.19,11.33-4.44,17.56-5.58,7.98-1.46,16.03-1.65,23.8-1.84,1.27-.03,2.54-.06,3.81-.1,2.5-.07,5.06-.22,7.54-.37,6.66-.4,13.54-.81,20.35,.27,7.85,1.24,18.05,3.17,27.36,7.02,7.13,2.95,12.99,7.84,18.66,12.57,1.46,1.22,2.97,2.48,4.47,3.68,8.16,6.52,13.98,14.09,18.6,20.63,.78,1.11,1.57,2.21,2.36,3.31,4.5,6.27,9.16,12.76,12.22,20.43,3.4,8.53,5.33,17.58,7.16,26.88,.65,3.28,1.68,6.58,2.78,10.06,1.75,5.53,3.55,11.25,3.8,17.27,.3,7.23-.5,14.48-1.28,21.48-.24,2.18-.48,4.34-.69,6.47-.92,9.66-3.17,19.09-5.15,27.42-1.93,8.08-4.72,16.22-9.07,26.42-3.46,8.12-8.64,14.43-13.2,19.99-.87,1.07-1.73,2.11-2.56,3.15h0c-7.51,9.39-13.99,17.51-23.7,17.97-.34,.02-.68,.02-1.03,.02Zm-50.46-237.74c-3.3,0-6.68,.2-10.17,.41-2.54,.15-5.16,.31-7.78,.38-1.28,.04-2.56,.07-3.85,.1-7.82,.19-15.21,.37-22.6,1.72-5.49,1-10.66,3.03-16.12,5.18-2.94,1.15-5.97,2.34-9.05,3.35-3.31,1.09-6.65,1.96-9.87,2.81-5.56,1.46-10.8,2.84-15.5,5.14-5.88,2.89-11.01,6.84-15.98,10.66-1.88,1.45-3.83,2.95-5.76,4.35-2.15,1.55-4.29,3-6.36,4.4-5.53,3.74-10.75,7.27-14.17,11.55-5.73,7.17-12.01,15.56-14.01,24.37-1.33,5.84,.38,12.24,2.18,19.01,.76,2.84,1.54,5.78,2.1,8.72,.42,2.21,.76,4.47,1.09,6.65,1.12,7.37,2.17,14.32,5.94,20.18,6,9.33,12.19,16.27,18.93,21.19,8.47,6.19,17.05,10.66,25.5,13.3,6.74,2.1,14.78,2.34,23.28,2.58,1.77,.05,3.55,.1,5.34,.17l.5,.02,2.06,.63c8.18,2.5,16.63,5.09,24.32,9,5.18,2.64,9.45,6.32,13.57,9.89,2.84,2.46,5.52,4.77,8.37,6.65,3.56,2.34,7.53,4.22,11.37,6.04,4.29,2.03,8.72,4.13,12.59,6.88,2.55,1.81,5.01,3.64,7.38,5.4,5.02,3.73,9.76,7.25,14.37,9.88l.92,.52c8.24,4.71,16.04,9.17,22.54,8.85,5.92-.28,10.71-5.91,18.03-15.07h0c.85-1.07,1.73-2.14,2.63-3.23,4.44-5.42,9.04-11.02,12.07-18.12,4.17-9.78,6.84-17.54,8.66-25.18,1.93-8.08,4.11-17.23,4.98-26.36,.21-2.19,.46-4.43,.7-6.59,.75-6.72,1.52-13.67,1.24-20.31-.21-4.99-1.78-9.98-3.45-15.27-1.12-3.53-2.27-7.19-3-10.9-1.82-9.27-3.59-17.58-6.75-25.5-2.71-6.8-6.89-12.62-11.32-18.79-.8-1.12-1.6-2.24-2.4-3.36-4.3-6.1-9.7-13.13-17.11-19.05-1.56-1.25-3.1-2.53-4.6-3.78-5.46-4.56-10.62-8.87-16.66-11.36-8.57-3.54-18.2-5.35-25.62-6.53-2.79-.44-5.62-.6-8.52-.6Z"/><g><path class="cls-5" d="M381.15,404.2c-1.21,3.61-3.93,5.47-4,9.13s-4.37,7.71-3.37,11.3c.99,3.55,.03,8.84,1.96,12.07s9.63,2.12,12.31,4.79c2.58,2.57,3.62,6.88,6.86,8.86s7.69,.05,11.31,1.27,5.98,7.36,9.59,7.72,7.01-7.11,10.62-7.61,6.65,.23,10.04-1.14,7.74-.29,10.66-2.52,3.38-6.27,5.57-9.29,4.42-5.05,5.64-8.66,7.64-6.51,7.71-10.17-5.19-7.21-6.19-10.8,1.29-8.9-.64-12.12-5.05-6.32-7.73-8.98-4.73-7.33-7.97-9.31-8.23-1.76-11.85-2.97-8.32,2.5-11.93,2.14-6.61,3.01-10.22,3.51-9.06-6.2-12.46-4.83-8.81,1.7-11.73,3.93,.78,11.32-1.41,14.34-1.56,5.75-2.77,9.36Z"/><path class="cls-3" d="M379.52,403.66c-1.21,3.61-2,6.02-2.07,9.68s-3.37,7.34-2.37,10.93c.99,3.55-2.98,10.23-1.05,13.45s10.05,2.39,12.73,5.06c2.58,2.57,4.95,5.51,8.19,7.49s8.14-1.35,11.76-.14,5.56,8.07,9.17,8.43,6.99-5.91,10.61-6.41,6.84,.41,10.24-.96,8.45,.36,11.38-1.88,1.98-7.85,4.16-10.87,2.29-5.6,3.5-9.21,8.18-5.69,8.26-9.35-4.02-6.93-5.02-10.52,.67-8.25-1.26-11.48-2.96-7.81-5.64-10.48-5.93-5.76-9.17-7.74-7.26-3.87-10.88-5.09-8.74,4-12.35,3.64-6.6,2.42-10.22,2.92-9.33-6.69-12.72-5.32-8.26,2.77-11.18,5,.15,10.72-2.04,13.74-2.82,5.48-4.03,9.08Z"/></g></g><g><path class="cls-4" d="M258.34,321.61c-4.05,.56-6.85,1.4-9,3.42-6.37,5.99-8.45,13.16-8.56,21.62-.1,7.35,.59,15.51,1.4,24.1,.73,7.72,2.89,15.97,1.64,24.24-1.12,7.43-4.33,15.11-9.01,22.66-2.78,4.48-14.2,14.13-28.09,21.85-8.48,4.71-11.95,13.72-14.49,21.4-3.87,11.68-2.56,21.64,1.6,22.96,8.06,2.57,15.18,5.41,22.28,5.71,8.2,.34,16.07,0,23.1-2.55,7.12-2.57,14.08-6.59,20.13-11.96,5.4-4.79,8.42-12.32,13.06-19.22,4.24-6.3,8.61-13.2,10.69-21.81,1.85-7.63,4.53-15.83,4.94-24.33s-1.28-16.58-1.99-24.74c-.73-8.47-2.63-16.63-4.31-24.26-1.97-8.93-4.58-16.85-7.5-23.34-4.78-10.66-9.91-16.57-15.88-15.75Z"/><path class="cls-3" d="M258.34,321.61c-4.05,.56-6.85,1.4-9,3.42-6.37,5.99-8.45,13.16-8.56,21.62-.1,7.35,.59,15.51,1.4,24.1,.73,7.72,2.89,15.97,1.64,24.24-1.12,7.43-4.33,15.11-9.01,22.66-2.78,4.48-14.2,14.13-28.09,21.85-8.48,4.71-11.95,13.72-14.49,21.4-3.87,11.68-2.56,21.64,1.6,22.96,8.06,2.57,15.18,5.41,22.28,5.71,8.2,.34,16.07,0,23.1-2.55,7.12-2.57,14.08-6.59,20.13-11.96,5.4-4.79,8.42-12.32,13.06-19.22,4.24-6.3,8.61-13.2,10.69-21.81,1.85-7.63,4.53-15.83,4.94-24.33s-1.28-16.58-1.99-24.74c-.73-8.47-2.63-16.63-4.31-24.26-1.97-8.93-4.58-16.85-7.5-23.34-4.78-10.66-9.91-16.57-15.88-15.75Z"/></g><g><path class="cls-4" d="M378.18,335.18c-9.52,0-18.8,1.24-27.22,2.83-9.87,1.86-18.43,4.91-24.36,11.17-5.46,5.76-8.83,13.78-8.83,25.2,0,6.93-.89,14.39,.23,21.6s5.01,13.6,7.38,20.3c2.42,6.86,5.07,13.44,9.03,19.24,4.07,5.95,8.72,11.35,14.63,15.46-2.95-.53-22.81-6.83-25.75-7.35-8.25-1.45-15.5-.02-22.12,1.69-8.04,2.08-14.43,5.61-19.47,10.08-7.32,6.49-11.38,13.47-10.71,18.48,.74,5.57,6.33,8.46,16.11,9.63,5.63,.67,12.57,1.68,20.49,1.46,6.23-.17,13.06-1.64,20.42-2.14,7.43-.5,14.27-1.22,20.45-1.27,7.93-.06,14.84,1.83,20.51,1.57,9.67-.44,16.73-2.61,18.92-7.74,.97-2.28,3.88-12.19,8.07-24.39,2.58-7.5,4.52-16.22,6.76-24.7s4.56-17.42,5.24-24.97c.86-9.67,1.94-19.1,1.43-27.7-.63-10.53-2.62-19.95-7.07-26.69-4.78-7.26-12.63-11.75-24.14-11.75Z"/><path class="cls-3" d="M378.18,335.18c-9.52,0-18.8,1.24-27.22,2.83-9.87,1.86-18.43,4.91-24.36,11.17-5.46,5.76-8.83,13.78-8.83,25.2,0,6.93-.89,14.39,.23,21.6s5.01,13.6,7.38,20.3c2.42,6.86,5.07,13.44,9.03,19.24,4.07,5.95,8.72,11.35,14.63,15.46-2.95-.53-22.81-6.83-25.75-7.35-8.25-1.45-15.5-.02-22.12,1.69-8.04,2.08-14.43,5.61-19.47,10.08-7.32,6.49-11.38,13.47-10.71,18.48,.74,5.57,6.33,8.46,16.11,9.63,5.63,.67,12.57,1.68,20.49,1.46,6.23-.17,13.06-1.64,20.42-2.14,7.43-.5,14.27-1.22,20.45-1.27,7.93-.06,14.84,1.83,20.51,1.57,9.67-.44,16.73-2.61,18.92-7.74,.97-2.28,3.88-12.19,8.07-24.39,2.58-7.5,4.52-16.22,6.76-24.7s4.56-17.42,5.24-24.97c.86-9.67,1.94-19.1,1.43-27.7-.63-10.53-2.62-19.95-7.07-26.69-4.78-7.26-12.63-11.75-24.14-11.75Z"/></g><g><g><path class="cls-4" d="M255.97,118.7c-.91,12.55-.49,24.82-2.69,35.72-2.65,13.16-6.97,24.78-10.95,34.17-6.73,15.84-15.48,23.66-23.71,23.07s-10.98-11.47-12.37-29.19c-.8-10.15-2.07-21.9-4.16-34.44-1.83-10.96-2.93-22.68-7.61-33.78s-7.58-22.04-9.17-32.4-.82-21.07,3.36-32.82c3.23-9.07,5.95-20.22,13.9-30.96,5.8-7.84,20.28,3.34,31.94,21.82,6.62,10.49,10.98,24.2,15.14,38.34,3.92,13.32,7.3,26.91,6.32,40.47Z"/><path class="cls-3" d="M255.97,118.7c-.91,12.55-.49,24.82-2.69,35.72-2.65,13.16-6.97,24.78-10.95,34.17-6.73,15.84-15.48,23.66-23.71,23.07s-10.98-11.47-12.37-29.19c-.8-10.15-2.07-21.9-4.16-34.44-1.83-10.96-2.93-22.68-7.61-33.78s-7.58-22.04-9.17-32.4-.82-21.07,3.36-32.82c3.23-9.07,5.95-20.22,13.9-30.96,5.8-7.84,20.28,3.34,31.94,21.82,6.62,10.49,10.98,24.2,15.14,38.34,3.92,13.32,7.3,26.91,6.32,40.47Z"/></g><path class="cls-7" d="M240.39,135.32c-4.88,36.65-16.69,65.32-26.39,64.03-9.7-1.29,9.25-36.5,.54-68.7-6.2-22.93-21.32-43.04-3.41-68.49,7.78-11.05,34.13,36.51,29.26,73.16Z"/><path d="M219.51,217.48c-.29,0-.58-.01-.87-.03-5.87-.42-13.33-5.36-15.48-26.44-.38-3.73-.29-7.72-.19-11.94,.1-4.61,.21-9.38-.27-14.29-.23-2.34-.41-4.67-.6-7.14-.46-6.05-.93-12.31-2.26-18.46-2.14-9.93-4.47-17.72-7.33-24.51-1.4-3.32-3.23-6.49-5.01-9.57-2.57-4.45-5.23-9.05-6.49-14.03-2.31-9.11-1.43-18.18-.59-26.95,.71-7.41,3.99-14.24,7.46-21.48,.52-1.08,1.05-2.18,1.58-3.31,.71-1.51,1.4-3.07,2.13-4.72,2.48-5.62,5.29-11.98,9.95-18.28,2.07-2.8,4.96-4.3,8.36-4.33,8.92-.08,18.04,10.01,22.68,16.03,6.09,7.91,11.9,17.74,16.35,27.7,3.95,8.84,7.19,19.11,9.66,30.53,2.03,9.42,2.59,19.91,1.71,32.09h0c-.26,3.66-.26,7.41-.25,11.04,0,5.37,.02,10.92-.86,16.2-1.35,8.18-3.63,15.92-5.64,22.75-.38,1.28-.75,2.54-1.1,3.77-2.33,8.07-6.08,14.6-9.38,20.37-.9,1.57-1.74,3.04-2.51,4.47-5.38,9.96-11.87,20.52-21.03,20.52Zm-9.5-197.76h-.04c-.96,0-1.61,.36-2.23,1.2-4.15,5.6-6.66,11.3-9.1,16.8-.75,1.7-1.46,3.3-2.21,4.9-.54,1.14-1.07,2.26-1.6,3.35-3.3,6.89-6.16,12.83-6.73,18.88-.78,8.12-1.59,16.51,.39,24.32,1,3.93,3.28,7.88,5.69,12.06,1.9,3.28,3.86,6.67,5.44,10.43,3.05,7.24,5.52,15.47,7.76,25.88,1.43,6.66,1.93,13.19,2.41,19.5,.18,2.42,.36,4.71,.58,6.97,.53,5.38,.41,10.61,.31,15.22-.09,3.97-.17,7.73,.16,10.98,1.2,11.76,4.4,19.24,8.35,19.53,4.83,.35,10.32-8.61,14.56-16.46,.82-1.51,1.69-3.03,2.61-4.64,3.09-5.39,6.59-11.49,8.66-18.67,.36-1.25,.74-2.52,1.11-3.81,2.04-6.94,4.16-14.12,5.43-21.83,.77-4.65,.76-9.64,.75-14.92,0-3.77-.01-7.67,.27-11.61,.83-11.43,.32-21.21-1.56-29.9-2.35-10.9-5.43-20.67-9.16-29.01-4.21-9.42-9.68-18.7-15.41-26.14-7.42-9.62-13.49-13.03-16.45-13.03Z"/></g><g><g><path class="cls-4" d="M136.85,119.78c2.47,12.34,6.05,24.07,6.83,35.15,.95,13.39-.07,25.73-1.41,35.85-2.26,17.06-8.57,27-16.66,28.62s-13.6-8.21-19.66-24.91c-3.48-9.57-7.81-20.57-13.18-32.1-4.69-10.08-8.94-21.04-16.41-30.49-7.71-9.76-13.23-19.2-17.52-28.76s-6.42-20.11-5.52-32.56c.69-9.6,.48-21.04,5.28-33.51,3.5-9.1,20.36-2.22,36.52,12.49,9.17,8.34,17.11,20.35,24.89,32.87,7.32,11.79,14.16,24.03,16.83,37.36Z"/><path class="cls-3" d="M136.85,119.78c2.47,12.34,6.05,24.07,6.83,35.15,.95,13.39-.07,25.73-1.41,35.85-2.26,17.06-8.57,27-16.66,28.62s-13.6-8.21-19.66-24.91c-3.48-9.57-7.81-20.57-13.18-32.1-4.69-10.08-8.94-21.04-16.41-30.49-7.71-9.76-13.23-19.2-17.52-28.76s-6.42-20.11-5.52-32.56c.69-9.6,.48-21.04,5.28-33.51,3.5-9.1,20.36-2.22,36.52,12.49,9.17,8.34,17.11,20.35,24.89,32.87,7.32,11.79,14.16,24.03,16.83,37.36Z"/></g><path class="cls-7" d="M126.24,139.95c5.07,36.62,1.33,67.4-8.36,68.74s-.82-37.65-17.79-66.36c-12.09-20.44-32.02-35.79-21.55-65.1,4.55-12.72,42.63,26.09,47.7,62.71Z"/><path d="M128.02,224.7c-.28,.08-.56,.14-.85,.2-5.77,1.16-14.27-1.61-21.97-21.36-1.36-3.49-2.34-7.36-3.37-11.46-1.13-4.47-2.3-9.09-4.07-13.7-.85-2.19-1.64-4.39-2.48-6.72-2.06-5.71-4.18-11.62-7.1-17.19-4.71-9-9.03-15.89-13.6-21.67-2.23-2.82-4.85-5.4-7.38-7.89-3.67-3.6-7.45-7.33-9.99-11.79-4.65-8.16-6.23-17.14-7.76-25.82-1.29-7.33,.05-14.79,1.46-22.69,.21-1.18,.43-2.38,.64-3.61,.28-1.64,.53-3.33,.79-5.12,.89-6.08,1.91-12.96,4.72-20.27,1.25-3.25,3.64-5.46,6.91-6.4,8.57-2.45,20.05,4.84,26.13,9.41,7.98,6,16.2,13.93,23.14,22.34,6.16,7.46,12.03,16.5,17.45,26.85,4.47,8.54,7.81,18.5,10.21,30.47h0c.72,3.6,1.73,7.21,2.7,10.71,1.44,5.17,2.93,10.52,3.49,15.84,.87,8.24,.74,16.31,.63,23.43-.02,1.33-.04,2.64-.06,3.93-.1,8.4-1.97,15.7-3.61,22.13-.45,1.75-.87,3.4-1.23,4.98-2.53,11.04-5.97,22.94-14.8,25.38ZM66.15,36.64h-.03c-.92,.27-1.45,.78-1.83,1.76-2.51,6.51-3.41,12.66-4.29,18.62-.27,1.84-.53,3.57-.82,5.31-.21,1.24-.43,2.46-.65,3.66-1.35,7.52-2.51,14.01-1.46,19.99,1.41,8.03,2.87,16.34,6.86,23.34,2.01,3.53,5.26,6.72,8.7,10.1,2.7,2.66,5.49,5.4,8.03,8.61,4.87,6.17,9.44,13.44,14.38,22.88,3.16,6.04,5.38,12.2,7.52,18.15,.82,2.29,1.6,4.45,2.42,6.56,1.95,5.04,3.23,10.11,4.36,14.59,.97,3.85,1.89,7.5,3.08,10.54,4.29,11.01,9.37,17.37,13.26,16.59,4.75-.95,7.65-11.05,9.64-19.74,.38-1.67,.82-3.37,1.28-5.17,1.54-6.02,3.29-12.84,3.37-20.31,.02-1.3,.04-2.62,.06-3.97,.12-7.24,.24-14.72-.58-22.49-.5-4.68-1.83-9.49-3.25-14.58-1.01-3.63-2.06-7.39-2.83-11.26-2.25-11.24-5.35-20.53-9.48-28.4-5.17-9.88-10.75-18.47-16.57-25.52-6.56-7.96-14.31-15.44-21.82-21.08-9.71-7.3-16.47-8.96-19.33-8.17Z"/></g><g><g><polygon class="cls-1" points="121.98 311.42 127.86 350.05 139.25 352.01 145.56 315.49 121.98 311.42"/><polygon class="cls-1" points="169.14 319.57 145.56 315.49 139.25 352.01 152.26 354.26 169.14 319.57"/></g><g><path class="cls-4" d="M228.54,257.41c-2.64,9.56-4.89,17.81-8.56,24.46-4.55,8.23-10.36,14.43-16.65,19.86s-13.53,9.72-21.67,14.16c-6.95,3.79-15.37,6.07-23.8,10.38-7.79,3.98-15.28,6.21-22.69,2.98-6.57-2.87-12.74-8.78-18.26-15.62-4.69-5.81-8.58-13.02-12.04-20.63-3.23-7.1-5.85-14.77-7.64-22.6s-3.95-15.89-3.95-23.69,.82-15.25,2.08-22.37c1.33-7.5,4.04-14.64,6.97-21.31s7.29-12.95,12.19-18.64,10.83-9.38,17.44-13.53c5.9-3.7,11.97-7.94,19.55-10.44,6.56-2.16,13.89-4.52,21.82-5.67,8.12,2.14,14.73,6.56,21.01,9.22,7.9,3.34,14.21,6.84,19.54,10.92,6.71,5.14,12.28,9.9,15.6,16.06,3.63,6.73,6.39,13.98,6.93,21.71,.5,7.19-.62,14.92-1.95,22.79-1.21,7.16-3.85,14.39-5.94,21.98Z"/><path class="cls-3" d="M228.54,257.41c-2.64,9.56-4.89,17.81-8.56,24.46-4.55,8.23-10.36,14.43-16.65,19.86s-13.53,9.72-21.67,14.16c-6.95,3.79-15.37,6.07-23.8,10.38-7.79,3.98-15.28,6.21-22.69,2.98-6.57-2.87-12.74-8.78-18.26-15.62-4.69-5.81-8.58-13.02-12.04-20.63-3.23-7.1-5.85-14.77-7.64-22.6s-3.95-15.89-3.95-23.69,.82-15.25,2.08-22.37c1.33-7.5,4.04-14.64,6.97-21.31s7.29-12.95,12.19-18.64,10.83-9.38,17.44-13.53c5.9-3.7,11.97-7.94,19.55-10.44,6.56-2.16,13.89-4.52,21.82-5.67,8.12,2.14,14.73,6.56,21.01,9.22,7.9,3.34,14.21,6.84,19.54,10.92,6.71,5.14,12.28,9.9,15.6,16.06,3.63,6.73,6.39,13.98,6.93,21.71,.5,7.19-.62,14.92-1.95,22.79-1.21,7.16-3.85,14.39-5.94,21.98Z"/></g><path class="cls-2" d="M160.11,301.8c-8.94-1.84-12.39,3.94-15.8,11.3-2.63-5.78-2.6-10.51-13.11-11.3-7.38-.55,2.63-13.41,14.46-13.41,16.03,0,21.71,14.9,14.46,13.41Z"/><g><path class="cls-8" d="M143.9,247.05c0,4.31-1.61,8.47-2.5,12.16-1.06,4.41-3.13,8.05-5.13,11.01-2.71,3.99-5.91,7.21-9.62,7.21s-6.7-3.36-9.41-7.35c-2.01-2.96-3.2-6.71-4.26-11.12-.89-3.7-.64-7.59-.64-11.91s.02-8.14,.91-11.84c1.06-4.41,.79-9.04,2.79-12,2.71-3.99,6.89-7.15,10.61-7.15s8.24,2.93,10.95,6.92c2.01,2.96,3.79,7.25,4.84,11.66,.89,3.7,1.46,8.1,1.46,12.42Z"/><g><path class="cls-5" d="M143.45,243.26c0,3.57,.09,7.27-.69,10.32-.93,3.62-2.45,7.27-4.21,9.68-2.31,3.15-6.31,5.16-9.45,5.16s-5.62-3.13-7.93-6.28c-1.76-2.4-3.41-5.3-4.34-8.92-.78-3.05-.2-6.4-.2-9.97s-1.4-7.13-.62-10.18c.93-3.62,3.16-6.48,4.92-8.88,2.31-3.15,5.03-4.67,8.17-4.67s6.25,1.23,8.55,4.39c1.76,2.4,2.33,5.87,3.26,9.49,.78,3.05,2.54,6.28,2.54,9.85Z"/><polygon class="cls-6" points="126.72 240.33 132.59 237.43 134.31 242.42 132.59 246.5 133.09 251.9 127.61 249.2 124.35 250.4 121.48 248.53 120.77 245.53 116.35 242.66 119.82 239.84 122.93 236 126.72 240.33"/></g></g><g><path class="cls-8" d="M201.33,250.01c.74,4.23,.54,7.9-.26,11.66-.9,4.23-2.06,7.74-4.52,10.67-2.69,3.21-5.61,5.76-9.67,6.47s-7.72-.62-11.34-2.71c-3.32-1.92-6.57-4.28-8.85-7.95-2.03-3.27-3.06-7.17-3.81-11.4s.1-7.99,.9-11.76c.9-4.23,2.48-7.36,4.94-10.29,2.69-3.21,5.03-6.77,9.09-7.48s8.03,.88,11.65,2.98c3.32,1.92,6.99,4.24,9.27,7.91,2.03,3.27,1.84,7.67,2.58,11.9Z"/><g><path class="cls-5" d="M196.34,247.39c0,5.34-2.48,9.94-5.55,13.53-3.28,3.84-7.64,7.32-12.79,7.32s-9.28-3.68-12.57-7.51c-3.07-3.59-6.3-8.01-6.3-13.34s2.91-10.04,5.97-13.62c3.28-3.84,7.75-7.22,12.89-7.22s10.21,2.87,13.5,6.71c3.07,3.59,4.84,8.8,4.84,14.14Z"/><polygon class="cls-6" points="183.01 236.94 185.16 239.7 188.86 241.39 190.14 245.16 190.32 249.26 189.7 253.63 184.57 254.6 181.32 255.19 178.9 254.36 173.77 256.7 172.57 252.5 171.13 248.79 173.19 245.21 176.34 243.03 174.96 237.37 179.2 236.35 183.01 236.94"/></g></g></g></g></g></svg>