<?xml version="1.0" encoding="UTF-8"?><svg id="Rabbit" xmlns="http://www.w3.org/2000/svg" viewBox="0 0 512 512"><defs><style>.cls-1{fill:#fff;}.cls-1,.cls-2{stroke-linejoin:round;stroke-width:8px;}.cls-1,.cls-2,.cls-3{stroke:#000;}.cls-2{fill:#966;}.cls-4{fill:#fc6;}.cls-5{fill:#ffc;}.cls-6{fill:#333;}.cls-3{fill:none;stroke-miterlimit:10;stroke-width:10px;}.cls-7{fill:#c96;}.cls-8{fill:#666;}</style></defs><g id="Jump"><g><g><g><polygon class="cls-5" points="346.43 173.45 344.88 187.07 332.04 174.45 318.83 167.76 302.33 181.86 290.14 163.57 275.99 169.62 266.94 182.28 253.45 185.94 238.22 188.58 217.09 177.3 212.87 206.97 194.62 199 194.24 189.12 187.64 178.14 204.81 174.99 207.49 157.9 222.23 155.07 231.08 140.13 244.61 132.75 261.15 142.73 273.88 144.9 287.25 136.72 299.79 142.28 318.06 127.99 329.45 139.37 340.47 149.03 350.05 159.5 346.43 173.45"/><polygon class="cls-3" points="346.43 173.45 344.88 187.07 332.04 174.45 318.83 167.76 302.33 181.86 290.14 163.57 275.99 169.62 266.94 182.28 253.45 185.94 238.22 188.58 217.09 177.3 212.87 206.97 194.62 199 194.24 189.12 187.64 178.14 204.81 174.99 207.49 157.9 222.23 155.07 231.08 140.13 244.61 132.75 261.15 142.73 273.88 144.9 287.25 136.72 299.79 142.28 318.06 127.99 329.45 139.37 340.47 149.03 350.05 159.5 346.43 173.45"/></g><path class="cls-4" d="M430.63,309.68c-5.41,12.35-12.61,20.78-25.32,21.91-9.88,.88-21.94-2.84-35.25-5.29-10.64-1.96-22.08-5.32-34.42-7.67-11.07-2.11-23.16-.49-35.25-1.74-11.39-1.17-22.97-5.38-35-4.83-12.21,3.02-23.74,5.8-34.7,6.13-12.66,.37-25.07,1.36-35.64-1.2-12.46-3.02-23.87-8.78-32.75-14.79-10.75-7.29-18.52-17.67-22.84-27.45-4.85-10.97-1.46-22.2,3.5-33.53,4.15-9.48,7.62-22.87,18.4-32.81,8.49-7.83,20.48-13.63,31.94-20.65,10.32-6.32,22.67-9.69,34.63-14.61,11.48-4.73,22.69-10.58,35.03-13.39s24.84-1.9,37.33-2.17,25.04-1.52,37.23,1.42c11.26,2.72,20.89,7.8,30.29,12.92,10.01,5.46,20.07,10.3,27.94,17.75,8.24,7.8,15.9,16.21,21.76,25.34,6.18,9.63,8.54,20.89,12.04,31,3.84,11.09,5.33,21.74,5.88,32.1,.65,12.23-.81,22.43-4.81,31.57Z"/><path class="cls-7" d="M266.43,285.55c-12.77,4.82-25.4,6.65-36.76,8.11-13.71,1.76-26-1.76-37.09-4-13.68-2.76-26.75-4.78-35.41-11.98-10.35-8.61-16.13-18.63-17.5-30.73-5.57,10.36-3.74,19.75,2.85,31,5.21,8.9,13.01,18.63,24.23,25.56,9.17,5.66,20.47,10.81,32.8,13.8,10.68,2.59,22.78-.6,35.29-.86,11.04-.23,22.76,1.03,34.87-1.99,5.56-3.79,17.09-.29,32.17,2.14,9.86,1.59,21.44,1.35,33.02,3.68,10.8,2.18,22.13,3.23,32.86,4.79,11.88,1.72,23.06,2.47,32.9,1.85,13.31-.84,23.48-3.73,28.66-12.42,3.72-6.24,6.14-14.59,6.89-22.99-9.59,1.39-21.87,3.54-34.74,2.35-10.57-.98-21.73-5.05-33.62-6.67-11-1.5-22.26-4.45-33.74-5.69s-23.04-.68-34.26-.88-22.56,3.2-33.42,4.95Z"/><path d="M414.74,331.52c-8.86,2.48-19.61,1.19-30.96-.16l-1.17-.14c-6.4-.76-13.02-2.17-20.03-3.66-3.15-.67-6.4-1.36-9.72-2.01-4.42-.87-9.3-1.17-14.47-1.48-5.05-.31-10.28-.63-15.54-1.51-4.29-.72-8.48-1.86-12.52-2.97-5.5-1.5-10.7-2.93-16.14-3.38-8.88-.73-17.99-.31-27.63,.15l-1.29,.06c-1.7,.42-3.39,.86-5.07,1.28-9.62,2.45-18.71,4.77-27.82,5.16-10.89,.47-22.63-.58-34.9-3.11-10.09-2.08-20.28-6.01-31.15-12.02-7.77-4.29-12.27-10.26-16.62-16.04-1.23-1.63-2.39-3.17-3.62-4.67-1.58-1.93-3.39-3.81-5.31-5.8-4.99-5.18-10.14-10.54-11.35-17.07-1.63-8.82,1.95-18.05,5.44-26.01,2.31-5.28,6.77-9.96,11.5-14.91,1.58-1.66,3.22-3.38,4.79-5.14,1.41-1.58,2.76-3.2,4.2-4.92,3.93-4.71,8-9.59,13.63-14.04,4.62-3.65,10.19-6.58,15.57-9.42,2.95-1.55,6-3.16,8.85-4.86,2.65-1.58,5.16-3.26,7.82-5.04,4.99-3.34,10.16-6.8,16.25-9.52,7.82-3.49,16.2-6,24.3-8.43,1.32-.4,2.65-.8,3.97-1.2,2.6-.79,5.23-1.66,7.78-2.51,6.84-2.27,13.92-4.61,21.51-5.77,8.75-1.33,20.23-2.83,31.55-2.56,8.66,.21,16.76,2.3,24.6,4.33,2.02,.52,4.11,1.06,6.15,1.56,11.16,2.69,20.28,6.89,27.72,10.64,1.26,.64,2.53,1.26,3.8,1.89,7.22,3.58,14.68,7.27,20.93,12.36,6.95,5.66,12.56,12.16,18.16,18.88,1.98,2.38,4.37,4.64,6.91,7.04,4.03,3.81,8.19,7.74,10.84,12.37,3.18,5.55,5.2,11.45,7.15,17.15,.61,1.77,1.21,3.53,1.84,5.26,2.85,7.81,4.22,15.84,5.43,22.92,1.17,6.87,1.46,14.06,.92,23.29-.43,7.36-3.37,13.81-5.97,19.49-.5,1.09-.99,2.16-1.45,3.22h0c-4.17,9.54-7.78,17.78-17.81,20.99-.35,.11-.71,.22-1.07,.32Zm-147.15-170.81c-3.47,.97-6.95,2.12-10.53,3.31-2.61,.87-5.31,1.76-8.03,2.59-1.33,.4-2.67,.81-4,1.21-8.15,2.45-15.85,4.76-23.09,7.98-5.37,2.4-10.01,5.5-14.91,8.78-2.63,1.76-5.35,3.58-8.19,5.28-3.05,1.82-6.21,3.49-9.27,5.1-5.27,2.77-10.24,5.39-14.26,8.57-5.04,3.98-8.87,8.58-12.58,13.02-1.4,1.68-2.86,3.43-4.34,5.09-1.64,1.84-3.32,3.6-4.94,5.3-4.33,4.54-8.42,8.83-10.33,13.18-3.19,7.28-6.47,15.68-5.09,23.15,.91,4.95,5.24,9.44,9.81,14.2,1.92,2,3.91,4.06,5.66,6.2,1.31,1.6,2.57,3.26,3.78,4.87,4.09,5.42,7.95,10.55,14.23,14.02,10,5.53,19.26,9.12,28.3,10.98,11.35,2.34,22.15,3.32,32.08,2.89,7.92-.34,16.46-2.52,25.5-4.83,1.88-.48,3.77-.96,5.68-1.44l.54-.13,2.41-.11c9.59-.45,19.5-.91,29.13-.12,6.5,.54,12.44,2.16,18.18,3.73,3.96,1.08,7.7,2.11,11.43,2.73,4.67,.78,9.59,1.08,14.34,1.38,5.31,.33,10.8,.66,15.96,1.67,3.4,.67,6.7,1.37,9.89,2.05,6.75,1.44,13.13,2.79,19.02,3.49l1.17,.14c10.53,1.26,20.49,2.45,27.21,.29,6.12-1.96,8.92-7.76,12.99-17.07h0c.47-1.08,.97-2.18,1.48-3.29,2.53-5.54,5.15-11.26,5.52-17.7,.52-8.86,.25-15.71-.86-22.2-1.17-6.87-2.5-14.66-5.2-22.04-.65-1.77-1.27-3.59-1.88-5.35-1.88-5.47-3.82-11.12-6.73-16.22-2.19-3.84-5.83-7.27-9.67-10.91-2.57-2.43-5.23-4.95-7.46-7.63-5.58-6.7-10.73-12.67-17.19-17.93-5.54-4.51-12.25-7.83-19.34-11.35-1.29-.64-2.57-1.27-3.85-1.92-6.94-3.5-15.4-7.4-25.53-9.85-2.13-.51-4.27-1.07-6.33-1.6-7.55-1.95-14.68-3.8-22.02-3.98-10.41-.25-21.25,1.17-29.53,2.43-3.11,.47-6.15,1.19-9.19,2.04Z"/><g><path class="cls-5" d="M412.34,280.7c.18,3.74-1.58,5.88,.27,9.2,1.73,3.11,.19,8.69,3.14,11.27,2.67,2.34,4.67,7.27,8.14,9.06,3.18,1.64,9.33-3.2,13.04-2.11,3.46,1.02,6.39,4.43,10.2,4.9,3.6,.44,7.28-3.01,11.1-3.11s7.92,5.05,11.44,4.43c3.74-.66,5.17-8.74,8.51-9.92,3.61-1.28,6.78-1.14,9.8-2.94,3.32-1.98,7.69-1.47,10.14-3.95,2.71-2.75,2.37-6.6,3.8-9.82,1.51-3.4,3.02-5.57,2.84-9.3s4.18-9.23,2.34-12.55c-1.73-3.11-8.1-3.36-11.05-5.94-2.67-2.34-3.62-8.06-7.09-9.84-3.18-1.64-7.37-2.71-11.08-3.8-3.46-1.02-7.24-4.26-11.06-4.73-3.6-.44-8.02,1.65-11.84,1.76s-7.04,5.09-10.55,5.71c-3.74,.66-5.89,4.68-9.23,5.87-3.61,1.28-10.07-4.4-13.1-2.6-3.32,1.98-8.48,2.97-10.93,5.46-2.71,2.75,2.48,10.97,1.05,14.19-1.51,3.4-.05,5.05,.14,8.78Z"/><path class="cls-3" d="M410.54,280.79c.18,3.74,.51,5.64,2.35,8.95,1.73,3.11,.85,7.77,3.8,10.35,2.67,2.34,2.77,10.21,6.25,11.99,3.18,1.64,9.74-3.21,13.46-2.12,3.46,1.02,6.94,2.5,10.75,2.97,3.6,.44,7.22-4.56,11.04-4.66s7.82,5.89,11.34,5.26c3.74-.66,5.46-7.51,8.81-8.69,3.61-1.28,6.98-.97,10.01-2.77,3.32-1.98,8.52-.9,10.98-3.38,2.71-2.75,.66-8.01,2.09-11.23,1.51-3.4,.69-5.2,.51-8.93s5.17-8.33,3.32-11.65c-1.73-3.11-6.86-3.69-9.81-6.27-2.67-2.34-3.83-7.15-7.3-8.93-3.18-1.64-6.28-5.19-10-6.28-3.46-1.02-7.64-2.22-11.45-2.69-3.6-.44-7.91-.8-11.73-.7s-6.94,6.72-10.46,7.34c-3.74,.66-6.04,4.08-9.38,5.26-3.61,1.28-10.41-4.87-13.43-3.07-3.32,1.98-7.74,4-10.2,6.48-2.71,2.75,1.72,10.46,.29,13.68-1.51,3.4-1.42,5.33-1.23,9.06Z"/></g></g><g><path class="cls-4" d="M303.32,281.59c1.81-9.23,5.45-16.47,9.5-21.53,5.4-6.75,12.85-9.62,20.85-9,6.63,.51,13.55,4.07,20.96,9.6,5.51,4.11,12.6,8.23,18.11,15.1,5.22,6.51,12.55,10.28,21.75,12.45,8.54,2.01,17.5,4.82,25.69,5.81,11.96,1.45,22.79,1.3,24.41,7.48,4.24,3.54,9.19,7.82,14.22,13.34,4.15,4.56,7.24,10.78,11.67,16.05,6.51,7.72,11.4,15.26,15.7,21.37,7.87,11.17,11.11,17.97,6.52,22.38-4.29,4.12-16.23,7.43-27.87,1.77-7.64-3.71-14.34-11.83-19.4-22.07-4.92-9.96-8.54-21.4-12.34-30.59-1.65,1.84-5.09,4.78-7.11,6.86-6.85,7.01-13.7,12.94-21.08,16.81-8.48,4.43-17.33,7.15-25.83,8.13-9.3,1.07-18.54-.1-26.94-2.23-7.95-2.02-15.11-5.82-21.76-9.9-6.95-4.26-14.22-8.5-18.83-14.99s-6.19-14.43-7.56-22.82c-1.18-7.2-2.38-15.27-.68-23.99Z"/><path class="cls-3" d="M303.32,281.59c1.81-9.23,5.45-16.47,9.5-21.53,5.4-6.75,12.85-9.62,20.85-9,6.63,.51,13.55,4.07,20.96,9.6,5.51,4.11,12.6,8.23,18.11,15.1,5.22,6.51,12.55,10.28,21.75,12.45,8.54,2.01,17.5,4.82,25.69,5.81,11.96,1.45,22.79,1.3,24.41,7.48,4.24,3.54,9.19,7.82,14.22,13.34,4.15,4.56,7.24,10.78,11.67,16.05,6.51,7.72,11.4,15.26,15.7,21.37,7.87,11.17,11.11,17.97,6.52,22.38-4.29,4.12-16.23,7.43-27.87,1.77-7.64-3.71-14.34-11.83-19.4-22.07-4.92-9.96-8.54-21.4-12.34-30.59-1.65,1.84-5.09,4.78-7.11,6.86-6.85,7.01-13.7,12.94-21.08,16.81-8.48,4.43-17.33,7.15-25.83,8.13-9.3,1.07-18.54-.1-26.94-2.23-7.95-2.02-15.11-5.82-21.76-9.9-6.95-4.26-14.22-8.5-18.83-14.99s-6.19-14.43-7.56-22.82c-1.18-7.2-2.38-15.27-.68-23.99Z"/></g><g><path class="cls-4" d="M231.53,295.57c3,4.98-2.39,12.47-12.46,20.46-5.49,4.36-12.69,8.85-20.76,13.8-6.57,4.03-14.09,7.76-21.8,12.06-6.99,3.9-13.54,9.38-21.09,13.41-7.07,3.77-14.14,6.73-20.51,9.98-7.35,3.75-14.92,5.59-21.21,8.43-8.07,3.65-14.47,8.42-20.52,10.17-10.8,3.11-19.64,2.58-22.66-2.44-2.73-4.54-.57-14.16,4.27-24.25,3.09-6.44,8.34-12.79,14.68-19.37,5.25-5.44,11.56-10.35,19.12-14.85,6.57-3.91,13.09-9.57,21.45-12.11s17.14-3.63,25.42-6.05,17.53-3.41,25.53-5.43c9.38-2.37,17.7-5.62,25.16-6.69,12.78-1.83,22.57-1.78,25.37,2.88Z"/><path class="cls-3" d="M231.53,295.57c3,4.98-2.39,12.47-12.46,20.46-5.49,4.36-12.69,8.85-20.76,13.8-6.57,4.03-14.09,7.76-21.8,12.06-6.99,3.9-13.54,9.38-21.09,13.41-7.07,3.77-14.14,6.73-20.51,9.98-7.35,3.75-14.92,5.59-21.21,8.43-8.07,3.65-14.47,8.42-20.52,10.17-10.8,3.11-19.64,2.58-22.66-2.44-2.73-4.54-.57-14.16,4.27-24.25,3.09-6.44,8.34-12.79,14.68-19.37,5.25-5.44,11.56-10.35,19.12-14.85,6.57-3.91,13.09-9.57,21.45-12.11s17.14-3.63,25.42-6.05,17.53-3.41,25.53-5.43c9.38-2.37,17.7-5.62,25.16-6.69,12.78-1.83,22.57-1.78,25.37,2.88Z"/></g><g><path class="cls-4" d="M168.76,260.47c3,4.98-2.39,12.47-12.46,20.46-5.49,4.36-12.69,8.85-20.76,13.8-6.57,4.03-14.09,7.76-21.8,12.06-6.99,3.9-13.54,9.38-21.09,13.41-7.07,3.77-14.14,6.73-20.51,9.98-7.35,3.75-14.92,5.59-21.21,8.43-8.07,3.65-14.47,8.42-20.52,10.17-10.8,3.11-19.64,2.58-22.66-2.44-2.73-4.54-.57-14.16,4.27-24.25,3.09-6.44,8.34-12.79,14.68-19.37,5.25-5.44,11.56-10.35,19.12-14.85,6.57-3.91,13.09-9.57,21.45-12.11s17.14-3.63,25.42-6.05,17.53-3.41,25.53-5.43c9.38-2.37,17.7-5.62,25.16-6.69,12.78-1.83,22.57-1.78,25.37,2.88Z"/><path class="cls-3" d="M168.76,260.47c3,4.98-2.39,12.47-12.46,20.46-5.49,4.36-12.69,8.85-20.76,13.8-6.57,4.03-14.09,7.76-21.8,12.06-6.99,3.9-13.54,9.38-21.09,13.41-7.07,3.77-14.14,6.73-20.51,9.98-7.35,3.75-14.92,5.59-21.21,8.43-8.07,3.65-14.47,8.42-20.52,10.17-10.8,3.11-19.64,2.58-22.66-2.44-2.73-4.54-.57-14.16,4.27-24.25,3.09-6.44,8.34-12.79,14.68-19.37,5.25-5.44,11.56-10.35,19.12-14.85,6.57-3.91,13.09-9.57,21.45-12.11s17.14-3.63,25.42-6.05,17.53-3.41,25.53-5.43c9.38-2.37,17.7-5.62,25.16-6.69,12.78-1.83,22.57-1.78,25.37,2.88Z"/></g><g><g><path class="cls-4" d="M225.18,145.05c-59.06,27.97-117.61,43.25-130.78,34.12s51.3-31.88,83.11-67.16c22.65-25.13,44.25-41.16,107.7-48.6,27.55-3.23-.97,53.67-60.03,81.64Z"/><path class="cls-7" d="M194.21,146.41c-42.51,18.14-82.5,28.39-89.33,22.9-6.83-5.49,46.04-15.91,72.42-38.23,18.78-15.9,27.09-34.61,68.86-40.06,18.14-2.37-9.44,37.25-51.95,55.39Z"/><path d="M90.53,182.18c-.24-.14-.48-.29-.7-.45-4.51-3.13-5.64-9.56,14.64-22.43,3.59-2.28,7.84-4.47,12.34-6.79,4.92-2.53,10-5.15,14.73-8.14,2.26-1.43,4.55-2.82,6.98-4.3,5.95-3.62,12.11-7.36,17.43-11.46,8.6-6.62,14.8-12.13,19.49-17.34,2.29-2.55,4.07-5.23,5.8-7.83,2.49-3.76,5.07-7.65,9.22-11.05,7.6-6.24,17.83-10.89,27.74-15.4,8.36-3.8,18.29-6.02,28.79-8.37,1.57-.35,3.17-.71,4.79-1.08,2.18-.5,4.4-1.03,6.74-1.6,7.98-1.93,17.02-4.11,27.54-5.35,4.68-.55,8.69,.03,11.59,1.69,7.61,4.34,4.73,14.48,2.34,20.14-3.14,7.43-8.55,15.8-15.23,23.57-5.93,6.89-13.95,14.25-23.84,21.86-8.15,6.28-18.67,12.44-32.17,18.83h0c-4.06,1.92-7.98,4.03-11.78,6.06-5.62,3.01-11.42,6.13-17.69,8.65-9.71,3.92-19.74,7.13-28.59,9.97-1.66,.53-3.29,1.05-4.88,1.57-10.42,3.38-20.43,5.19-29.26,6.8-2.4,.44-4.66,.85-6.8,1.27-14.98,2.94-31.51,5.66-39.24,1.15Zm199.14-115.5l-.03-.02c-.82-.47-1.73-.59-3.14-.42-9.37,1.1-17.45,3.05-25.27,4.94-2.41,.58-4.69,1.13-6.99,1.66-1.65,.37-3.27,.74-4.86,1.09-10,2.23-18.64,4.16-25.46,7.27-9.16,4.17-18.64,8.47-25.15,13.82-3.28,2.69-5.49,6.03-7.83,9.56-1.84,2.77-3.74,5.64-6.34,8.52-5.01,5.56-11.55,11.38-20.57,18.32-5.77,4.44-12.19,8.34-18.4,12.11-2.38,1.45-4.64,2.82-6.81,4.19-5.18,3.28-10.76,6.15-15.68,8.68-4.24,2.18-8.24,4.25-11.37,6.23-11.31,7.18-16.44,12.95-13.4,15.05,3.71,2.57,17.73,.25,29.52-2.06,2.27-.45,4.6-.87,7.06-1.32,8.25-1.5,17.6-3.2,26.87-6.2,1.61-.52,3.26-1.05,4.93-1.59,9-2.89,18.3-5.87,27.45-9.56,5.52-2.22,10.74-5.03,16.27-7.99,3.94-2.12,8.02-4.3,12.39-6.37,12.67-6,22.49-11.73,30.01-17.53,9.44-7.27,17.06-14.26,22.66-20.77,6.32-7.35,11.42-15.24,14.38-22.23,3.82-9.04,2.27-13.94-.24-15.4Z"/></g><g><path class="cls-4" d="M289.41,198.9c-64.3,11.7-124.81,11.27-135.15-.96s57.81-17.48,97.68-43.31c28.4-18.4,53.41-28.28,116.62-19.01,27.44,4.02-14.86,51.59-79.15,63.28Z"/><path class="cls-7" d="M259.15,192.18c-45.76,6.5-87.04,6.03-92.21-1.05s48.59-3.42,79.86-18.15c22.26-10.49,35.14-26.4,76.9-20.83,18.13,2.42-18.78,33.53-64.54,40.03Z"/><path d="M149.74,199.84c-.2-.2-.39-.4-.56-.61-3.55-4.19-2.96-10.69,19.96-17.87,4.06-1.27,8.73-2.28,13.68-3.35,5.4-1.17,10.99-2.38,16.34-4.04,2.55-.79,5.13-1.54,7.85-2.34,6.69-1.95,13.6-3.97,19.81-6.54,10.02-4.16,17.44-7.88,23.32-11.69,2.88-1.86,5.29-4,7.63-6.06,3.38-2.98,6.88-6.07,11.77-8.28,8.95-4.06,20.05-5.9,30.78-7.68,9.06-1.5,19.22-1.07,29.98-.61,1.61,.07,3.24,.14,4.91,.2,2.23,.09,4.51,.14,6.93,.21,8.2,.21,17.5,.44,27.99,1.98,4.66,.68,8.38,2.29,10.76,4.64,6.22,6.17,.82,15.21-2.96,20.06-4.96,6.36-12.35,13.04-20.82,18.81-7.51,5.12-17.16,10.14-28.69,14.93-9.5,3.95-21.26,7.17-35.95,9.84h0c-4.41,.8-8.75,1.82-12.95,2.8-6.21,1.45-12.62,2.95-19.33,3.77-10.39,1.26-20.91,1.77-30.2,2.22-1.74,.08-3.45,.17-5.12,.25-10.94,.56-21.08-.28-30.02-1.02-2.43-.2-4.72-.39-6.9-.54-15.23-1.05-31.9-2.71-38.2-9.06Zm222.28-59.9l-.02-.03c-.67-.66-1.52-1.02-2.93-1.23-9.33-1.37-17.65-1.58-25.69-1.78-2.48-.06-4.82-.12-7.18-.21-1.69-.07-3.35-.14-4.98-.21-10.24-.44-19.08-.81-26.47,.42-9.93,1.65-20.2,3.35-27.87,6.83-3.87,1.75-6.86,4.4-10.04,7.2-2.49,2.2-5.07,4.47-8.33,6.59-6.28,4.07-14.1,8-24.62,12.36-6.73,2.79-13.94,4.9-20.91,6.93-2.68,.78-5.21,1.52-7.66,2.28-5.85,1.82-11.99,3.15-17.4,4.32-4.66,1.01-9.06,1.96-12.6,3.07-12.78,4-19.24,8.24-16.85,11.06,2.91,3.45,17.06,4.84,29.05,5.66,2.31,.16,4.67,.35,7.16,.56,8.36,.69,17.83,1.47,27.56,.98,1.69-.09,3.42-.17,5.17-.25,9.44-.45,19.19-.92,28.99-2.12,5.9-.72,11.68-2.07,17.79-3.5,4.36-1.02,8.86-2.07,13.62-2.94,13.79-2.51,24.76-5.5,33.53-9.14,11-4.57,20.18-9.34,27.27-14.18,8.01-5.46,14.98-11.76,19.65-17.74,6.03-7.74,5.8-12.87,3.76-14.93Z"/></g><g><g><polygon class="cls-1" points="70.29 298.04 69.66 336.05 80.27 339.79 92.25 305.78 70.29 298.04"/><polygon class="cls-1" points="114.21 313.52 92.25 305.78 80.27 339.79 92.38 344.06 114.21 313.52"/></g><g><path class="cls-4" d="M181.29,263.53c-4.08,8.74-7.61,16.27-12.21,22.05-5.7,7.15-12.26,12.17-19.18,16.36s-14.55,7.13-23.08,10.07c-7.28,2.51-15.71,3.39-24.49,6.15-8.12,2.55-15.66,3.39-22.25-.92-5.84-3.82-10.8-10.47-14.98-17.93-3.55-6.34-6.13-13.88-8.21-21.74-1.94-7.33-3.21-15.11-3.66-22.92-.45-7.82-1.16-15.88,.1-23.35,1.5-8.84,4.02-17.43,7.18-25.21,3.34-8.24,8.27-15.66,13.76-22.23s12.37-11.85,20.25-16.24c7.07-3.93,15.36-5.93,24.6-7.74,7.8-1.53,16.26-3.41,25.75-3.18,7.44,3.37,14.31,6.34,19.9,9.91,7.04,4.49,11.39,10.61,15.84,15.39,5.6,6.02,9.14,11.81,11.33,18.26,2.39,7.05,4.03,14,3.3,21.5-.69,6.98-1.69,14.45-4.25,21.78-2.33,6.67-6.44,13.04-9.68,19.97Z"/><path class="cls-3" d="M181.29,263.53c-4.08,8.74-7.61,16.27-12.21,22.05-5.7,7.15-12.26,12.17-19.18,16.36s-14.55,7.13-23.08,10.07c-7.28,2.51-15.71,3.39-24.49,6.15-8.12,2.55-15.66,3.39-22.25-.92-5.84-3.82-10.8-10.47-14.98-17.93-3.55-6.34-6.13-13.88-8.21-21.74-1.94-7.33-3.21-15.11-3.66-22.92-.45-7.82-1.16-15.88,.1-23.35,1.5-8.84,4.02-17.43,7.18-25.21,3.34-8.24,8.27-15.66,13.76-22.23s12.37-11.85,20.25-16.24c7.07-3.93,15.36-5.93,24.6-7.74,7.8-1.53,16.26-3.41,25.75-3.18,7.44,3.37,14.31,6.34,19.9,9.91,7.04,4.49,11.39,10.61,15.84,15.39,5.6,6.02,9.14,11.81,11.33,18.26,2.39,7.05,4.03,14,3.3,21.5-.69,6.98-1.69,14.45-4.25,21.78-2.33,6.67-6.44,13.04-9.68,19.97Z"/></g><path class="cls-2" d="M108.43,295c-8.27-3.22-12.52,1.77-16.99,8.28-1.58-5.97-.78-10.51-10.74-12.97-6.99-1.73,4.7-12.43,16.04-10.51,15.38,2.6,18.41,17.81,11.69,15.21Z"/><g><path class="cls-8" d="M101.75,239.85c-.7,4.14-2.91,7.86-4.36,11.26-1.73,4.06-4.3,7.22-6.7,9.73-3.24,3.39-6.84,5.95-10.4,5.34s-5.89-4.3-7.84-8.57c-1.44-3.16-1.98-6.96-2.28-11.36-.25-3.69,.61-7.39,1.31-11.53,.7-4.14,1.35-7.81,2.8-11.21,1.73-4.06,2.24-8.53,4.64-11.04,3.24-3.39,7.76-5.74,11.33-5.13s7.42,4.14,9.37,8.41c1.44,3.16,2.46,7.56,2.75,11.96,.25,3.69,.08,8.01-.62,12.14Z"/><g><path class="cls-5" d="M101.94,236.14c-.9,5.34-2.39,10.65-4.77,14.28-3.33,5.09-8.92,8.65-13.14,7.93s-8.05-5.98-9.52-11.89c-1.05-4.21,.14-9.45,1.04-14.79,.9-5.34,2.42-10.08,4.79-13.72,3.33-5.09,7.35-6.95,11.57-6.24s8.2,3.6,9.66,9.5c1.05,4.21,1.26,9.57,.36,14.92Z"/><polygon class="cls-6" points="86.39 230.59 92.44 228.83 93.3 233.86 91.02 237.49 90.59 242.72 85.79 239.31 82.46 239.91 80 237.66 79.78 234.65 76.07 231.18 79.84 229.03 83.44 225.89 86.39 230.59"/></g></g><g><path class="cls-8" d="M156.37,252.01c.03,4.18-.76,7.66-2.14,11.15-1.55,3.91-3.23,7.09-6.07,9.5-3.1,2.64-6.32,4.61-10.33,4.64s-7.3-1.85-10.44-4.45c-2.87-2.38-5.61-5.16-7.2-9.06-1.42-3.47-1.77-7.38-1.8-11.55s1.4-7.65,2.78-11.13c1.55-3.91,3.57-6.65,6.41-9.07,3.1-2.64,5.92-5.69,9.93-5.71s7.56,2.15,10.69,4.75c2.87,2.38,6.02,5.2,7.62,9.09,1.42,3.47,.51,7.65,.54,11.83Z"/><g><path class="cls-5" d="M152.01,248.69c-.87,5.12-3.99,9.14-7.51,12.08-3.77,3.15-8.52,5.78-13.45,4.95s-8.31-5.03-10.84-9.24c-2.36-3.94-4.74-8.7-3.88-13.82s4.41-9.16,7.94-12.1c3.77-3.15,8.61-5.67,13.54-4.83s9.33,4.41,11.86,8.62c2.36,3.94,3.21,9.23,2.35,14.34Z"/><polygon class="cls-6" points="140.92 236.5 142.56 239.48 145.79 241.73 146.41 245.54 145.91 249.5 144.59 253.57 139.56 253.7 136.35 253.77 134.13 252.59 128.88 253.93 128.39 249.73 127.62 245.94 130.15 242.84 133.49 241.23 133.15 235.64 137.37 235.34 140.92 236.5"/></g></g></g></g></g></g></svg>