<?xml version="1.0" encoding="UTF-8"?><svg id="Rat" xmlns="http://www.w3.org/2000/svg" viewBox="0 0 1024 512"><defs><style>.cls-1,.cls-2{fill:#f99;}.cls-3{fill:#c66;}.cls-2{stroke-width:8px;}.cls-2,.cls-4,.cls-5{stroke:#000;stroke-miterlimit:10;}.cls-4{fill:none;}.cls-4,.cls-5{stroke-width:10px;}.cls-5{fill:#333;}.cls-6{fill:#666;}</style></defs><g><path class="cls-2" d="M60.016,384.431c-12.305,1.357-16.678,7.934-38.014,14.166,11.192-15.321,17.859-34.787,35.952-42.84,21.109-9.396,37.809,4.773,43.198,16.774,5.389,12.002-24.905,22.426-41.136,11.899Z"/><path class="cls-2" d="M78.154,388.178c-11.907,3.388-15.124,10.6-35.124,20.299,8.485-16.971,11.817-37.275,28.316-48.229,19.25-12.78,38.076-1.59,45.388,9.347,7.312,10.937-20.823,26.26-38.58,18.583Z"/><path class="cls-2" d="M104.987,388.178c-11.907,3.388-15.124,10.6-35.124,20.299,8.485-16.971,11.817-37.275,28.316-48.229,19.25-12.78,38.076-1.59,45.388,9.347s-20.823,26.26-38.58,18.583Z"/></g><g><path class="cls-2" d="M562.816,291.184c63.722,29.45,114.904,32.169,151.971,27.88,57.55-6.658,72.645-29.232,143.18-41.269,83.489-14.248,152.209,2.042,152.033,6.081-.166,3.808-61.407-6.834-141.03,17.15-66.577,20.054-82.938,36.492-130.761,48.059-25.002,6.047-98.514,23.588-189.186-24.278"/><g><polygon class="cls-6" points="596.093 290.949 600.518 305.832 593.22 318.895 584.682 330.37 577.547 343.901 562.92 348.41 550.873 356.325 538.392 364.346 524.194 367.757 509.821 369.87 494.802 367.294 481.573 376.338 466.898 374.62 452.364 372.371 438.199 375.753 423.789 372.9 409.49 376.07 395.092 374.431 380.599 376.725 366.114 376.817 351.989 372.254 337.793 369.968 323.22 370.383 309.233 366.866 293.967 368.505 280.472 362.611 267.229 356.524 254.608 349.381 243.479 340.24 230.245 332.86 223.453 319.497 222.499 304.744 216.125 290.949 216.378 276.312 222.772 263.004 228.986 250.223 234.908 237.518 236.217 222.203 246.587 211.77 257.554 202.233 263.552 189.086 271.789 177.428 281.549 167.041 292.597 158.028 304.663 150.425 314.302 139.426 328.13 134.766 341.42 129.881 353.613 122.669 366.423 116.189 380.508 113.821 394.611 112.203 408.765 115.137 423.136 109.943 437.138 113.208 450.78 117.327 464.263 121.747 478.4 125.017 490.93 132.046 502.418 140.642 513.449 149.645 522.994 160.275 535.3 167.735 546.291 176.911 552.129 190.597 560.905 201.544 571.053 211.689 580.128 222.861 585.722 236.052 589.778 249.753 593.911 263.241 595.683 277.176 596.093 290.949"/><polygon class="cls-4" points="596.093 290.949 600.518 305.832 593.22 318.895 584.682 330.37 577.547 343.901 562.92 348.41 550.873 356.325 538.392 364.346 524.194 367.757 509.821 369.87 494.802 367.294 481.573 376.338 466.898 374.62 452.364 372.371 438.199 375.753 423.789 372.9 409.49 376.07 395.092 374.431 380.599 376.725 366.114 376.817 351.989 372.254 337.793 369.968 323.22 370.383 309.233 366.866 293.967 368.505 280.472 362.611 267.229 356.524 254.608 349.381 243.479 340.24 230.245 332.86 223.453 319.497 222.499 304.744 216.125 290.949 216.378 276.312 222.772 263.004 228.986 250.223 234.908 237.518 236.217 222.203 246.587 211.77 257.554 202.233 263.552 189.086 271.789 177.428 281.549 167.041 292.597 158.028 304.663 150.425 314.302 139.426 328.13 134.766 341.42 129.881 353.613 122.669 366.423 116.189 380.508 113.821 394.611 112.203 408.765 115.137 423.136 109.943 437.138 113.208 450.78 117.327 464.263 121.747 478.4 125.017 490.93 132.046 502.418 140.642 513.449 149.645 522.994 160.275 535.3 167.735 546.291 176.911 552.129 190.597 560.905 201.544 571.053 211.689 580.128 222.861 585.722 236.052 589.778 249.753 593.911 263.241 595.683 277.176 596.093 290.949"/></g><g><g><g><path class="cls-1" d="M113.238,232.102c.788-9.924,4.08-19.874,8.781-28.499-2.875-5.232-5.647-9.63-8.049-11.689-4.792,3.833-5.75,4.792-14.375,15.333-2.261-.581-11.353-2.342-12.684-2.635-1.073,4.874-1.768,9.801-1.986,14.706-2.181,49.11,42.436,81.102,47.084,84.327l.596-.824,7.976-11.024c-3.512-2.956-29.997-26.273-27.345-59.694Z"/><path class="cls-1" d="M192.529,220.001c-1.226-43.393-19.403-77.463-41.554-81.526-13.683-2.51-29.071,6.411-41.563,21.021,1.281,1.783,5.498,6.546,6.476,8.459,7.876,.026,10.541,0,10.541,0,1.68,5.223,3.533,13.254,5.212,21.997,8.009-8.797,17.379-13.801,25.507-11.753,13.845,3.489,24.396,27.485,24.085,57.415l10.996-15.198,.3-.415Z"/><path class="cls-3" d="M140.743,291.931l40.489-56.013c.001-.102,0-.202,0-.304l-40.65,56.182c.053,.044,.118,.1,.16,.135Z"/><path class="cls-3" d="M157.148,178.2c-8.129-2.048-17.498,2.956-25.507,11.753,2.932,15.269,5.33,32.72,5.33,41.251-4.306-6.152-9.796-18.222-14.951-27.602-4.701,8.626-7.993,18.575-8.781,28.499-2.653,33.421,23.832,56.738,27.345,59.694l40.65-56.182c.311-29.93-10.239-53.926-24.085-57.415Z"/></g><path d="M129.279,310.455c-5.269-3.656-51.417-37.204-49.14-88.476,.222-4.998,.926-10.221,2.093-15.524l1.03-4.681,4.681,1.032c.406,.089,1.556,.319,3.011,.61,2.518,.504,4.93,.989,6.807,1.385,6.955-8.462,8.408-9.908,13.216-13.755l3.099-2.479,3.013,2.582c2.583,2.214,5.398,6.23,9.129,13.02,1.161,2.113,2.291,4.217,3.395,6.28-.654-5.105-1.532-10.75-2.678-16.719-1.379-7.184-2.794-13.447-4.079-18.098-1.638,.002-3.915-.001-6.985-.012l-2.921-.01-1.329-2.601c-.427-.815-2.572-3.437-3.725-4.847-.985-1.204-1.834-2.243-2.376-2.996l-2.194-3.053,2.443-2.857c14.595-17.07,31.39-25.311,46.069-22.62,25.074,4.599,44.201,40.811,45.48,86.104l-9.579,.27c-.568-20.093-4.97-39.074-12.397-53.447-6.947-13.445-15.908-21.79-25.232-23.501-10.279-1.883-22.956,4.239-34.428,16.484,1.099,1.347,2.025,2.498,2.772,3.498,5.792,.013,7.904-.007,7.928-.007l3.528-.035,1.08,3.359c1.639,5.098,3.541,13.11,5.356,22.561,2.708,14.103,4.457,29.522,4.457,39.28v15.201l-8.717-12.453c-3.298-4.712-6.657-10.997-10.212-17.651-1.311-2.453-2.66-4.978-4.055-7.516-1.676-3.051-3.144-5.481-4.391-7.275-2.192,2.043-4.4,4.649-10.125,11.645l-1.938,2.369-2.964-.762c-1.186-.305-4.815-1.043-7.703-1.622-.523,3.163-.854,6.265-.987,9.265-2.05,46.137,40.204,76.83,45.029,80.179l-5.464,7.872Z"/></g><g><path class="cls-1" d="M235.4,217.4c3.109-43.259,22.743-76.164,45.041-78.858,28.587-3.453,62.41,42.645,62.448,84.801,.045,49.179-45.903,78.38-50.685,81.315"/><path d="M294.705,310.869c5.498-3.374,53.707-34.478,53.659-87.131-.023-25.094-11.424-53.545-29.045-72.483-12.718-13.667-26.722-20.348-39.445-18.813-25.637,3.097-46.647,38.762-49.956,84.802l10.938,1.115c2.814-39.144,20.064-70.49,40.126-72.913,9.454-1.146,20.746,4.511,30.981,15.511,15.425,16.576,25.404,41.225,25.424,62.795,.041,44.9-42.823,72.5-47.711,75.499l5.029,11.618Z"/><path class="cls-3" d="M245.99,233.991c.921-30.056,12.534-53.518,26.56-56.158,17.982-3.385,40.467,27.352,41.509,56.534,1.215,34.044-27.116,55.857-30.067,58.055"/></g><g><polygon class="cls-6" points="309.501 315.508 308.716 324.681 308.274 333.878 303.901 342.086 301.166 350.849 294.167 356.823 288.156 363.594 280.241 367.995 271.906 371.416 263.705 375.309 254.807 377.069 246.211 380.177 237.202 381.34 228.218 382.578 219.297 384.69 210.327 385.67 201.276 385.347 192.226 383.973 183.256 383.018 174.243 385.255 165.306 383.824 156.22 384.277 147.593 381.071 138.226 381.831 129.606 378.803 121.602 374.402 113.269 370.671 106.498 364.491 102.806 356.143 97.841 348.637 97.865 339.619 97.866 330.837 100.074 322.288 101.535 313.552 102.983 304.586 105.517 295.838 112.105 289.132 117.348 281.926 119.659 272.711 126.035 266.253 133.396 260.814 137.369 252.283 143.818 245.972 151.089 240.619 158.874 236.073 166.952 232.199 174.609 227.687 182.016 222.175 191.072 220.887 199.593 217.907 208.583 217.269 217.743 218.928 227.109 215.995 236.383 217.37 245.407 219.985 253.88 224.021 260.604 230.802 268.992 234.844 276.558 240.339 281.28 248.532 285.391 256.799 290.85 264.05 297.002 271.164 299.221 280.212 302.82 288.644 303.281 297.944 307.375 306.43 309.501 315.508"/><polygon class="cls-4" points="309.501 315.508 308.716 324.681 308.274 333.878 303.901 342.086 301.166 350.849 294.167 356.823 288.156 363.594 280.241 367.995 271.906 371.416 263.705 375.309 254.807 377.069 246.211 380.177 237.202 381.34 228.218 382.578 219.297 384.69 210.327 385.67 201.276 385.347 192.226 383.973 183.256 383.018 174.243 385.255 165.306 383.824 156.22 384.277 147.593 381.071 138.226 381.831 129.606 378.803 121.602 374.402 113.269 370.671 106.498 364.491 102.806 356.143 97.841 348.637 97.865 339.619 97.866 330.837 100.074 322.288 101.535 313.552 102.983 304.586 105.517 295.838 112.105 289.132 117.348 281.926 119.659 272.711 126.035 266.253 133.396 260.814 137.369 252.283 143.818 245.972 151.089 240.619 158.874 236.073 166.952 232.199 174.609 227.687 182.016 222.175 191.072 220.887 199.593 217.907 208.583 217.269 217.743 218.928 227.109 215.995 236.383 217.37 245.407 219.985 253.88 224.021 260.604 230.802 268.992 234.844 276.558 240.339 281.28 248.532 285.391 256.799 290.85 264.05 297.002 271.164 299.221 280.212 302.82 288.644 303.281 297.944 307.375 306.43 309.501 315.508"/></g><g><polygon class="cls-6" points="306.626 321.258 305.841 330.431 305.399 339.628 301.026 347.836 298.291 356.599 291.292 362.573 285.281 369.343 277.366 373.745 269.031 377.166 260.83 381.059 251.932 382.818 243.336 385.927 234.327 387.09 225.343 388.328 216.422 390.44 207.453 391.42 198.401 391.097 189.351 389.722 180.381 388.768 171.368 391.005 162.431 389.574 153.345 390.027 144.718 386.821 135.351 387.581 126.731 384.553 118.727 380.152 110.394 376.421 103.623 370.241 99.931 361.893 94.966 354.387 94.99 345.369 94.991 336.587 97.199 328.038 98.66 319.302 100.108 310.336 102.642 301.588 109.23 294.882 114.473 287.676 116.784 278.461 123.16 272.002 130.521 266.564 134.494 258.033 140.943 251.722 148.214 246.369 155.999 241.823 164.077 237.949 171.734 233.437 179.141 227.925 188.197 226.637 196.718 223.657 205.708 223.019 214.868 224.678 224.234 221.745 233.508 223.12 242.533 225.735 251.006 229.771 257.729 236.552 266.117 240.594 273.684 246.089 278.405 254.282 282.516 262.549 287.975 269.8 294.128 276.913 296.347 285.962 299.945 294.393 300.406 303.693 304.5 312.18 306.626 321.258"/><polygon class="cls-4" points="306.626 321.258 305.841 330.431 305.399 339.628 301.026 347.836 298.291 356.599 291.292 362.573 285.281 369.343 277.366 373.745 269.031 377.166 260.83 381.059 251.932 382.818 243.336 385.927 234.327 387.09 225.343 388.328 216.422 390.44 207.453 391.42 198.401 391.097 189.351 389.722 180.381 388.768 171.368 391.005 162.431 389.574 153.345 390.027 144.718 386.821 135.351 387.581 126.731 384.553 118.727 380.152 110.394 376.421 103.623 370.241 99.931 361.893 94.966 354.387 94.99 345.369 94.991 336.587 97.199 328.038 98.66 319.302 100.108 310.336 102.642 301.588 109.23 294.882 114.473 287.676 116.784 278.461 123.16 272.002 130.521 266.564 134.494 258.033 140.943 251.722 148.214 246.369 155.999 241.823 164.077 237.949 171.734 233.437 179.141 227.925 188.197 226.637 196.718 223.657 205.708 223.019 214.868 224.678 224.234 221.745 233.508 223.12 242.533 225.735 251.006 229.771 257.729 236.552 266.117 240.594 273.684 246.089 278.405 254.282 282.516 262.549 287.975 269.8 294.128 276.913 296.347 285.962 299.945 294.393 300.406 303.693 304.5 312.18 306.626 321.258"/></g><path class="cls-5" d="M167.001,336.613c-.064-8.682-2.917-13.051-19.667-12.876-16.749,.175-30.424,2.902-30.36,11.584,.064,8.682,13.752,23.44,30.501,23.265s19.589-13.291,19.526-21.973Z"/><path d="M227.361,288.709c-11.728,5.592-18.379,16.115-14.856,23.503,3.523,7.388,15.886,8.844,27.614,3.252,11.728-5.592,17.954-20.603,20.714-32.376-10.759-2.42-21.745,.028-33.472,5.621Z"/><path d="M159.753,290.044c10.389,4.954,16.281,14.276,13.16,20.82-3.121,6.545-14.073,7.834-24.462,2.88-10.389-4.954-15.905-18.251-18.35-28.68,9.53-2.143,19.262,.025,29.651,4.979Z"/></g></g><g><g><path class="cls-2" d="M310.137,386.348c-12.305,1.357-16.678,7.934-38.014,14.166,11.192-15.321,17.859-34.787,35.952-42.84,21.109-9.396,37.809,4.773,43.198,16.774,5.389,12.002-24.905,22.426-41.136,11.899Z"/><path class="cls-2" d="M328.275,390.094c-11.907,3.388-15.124,10.6-35.124,20.299,8.485-16.971,11.817-37.275,28.316-48.229,19.25-12.78,38.076-1.59,45.388,9.347,7.312,10.937-20.823,26.26-38.58,18.583Z"/><path class="cls-2" d="M355.108,390.094c-11.907,3.388-15.124,10.6-35.124,20.299,8.485-16.971,11.817-37.275,28.316-48.229,19.25-12.78,38.076-1.59,45.388,9.347,7.312,10.937-20.823,26.26-38.58,18.583Z"/></g><g><g><path class="cls-2" d="M488.384,372.931c-12.305,1.357-16.678,7.934-38.014,14.166,11.192-15.321,17.859-34.787,35.952-42.84,21.109-9.396,37.809,4.773,43.198,16.774,5.389,12.002-24.905,22.426-41.136,11.899Z"/><path class="cls-2" d="M506.522,376.678c-11.907,3.388-15.124,10.6-35.124,20.299,8.485-16.971,11.817-37.275,28.316-48.229,19.25-12.78,38.076-1.59,45.388,9.347,7.312,10.937-20.823,26.26-38.58,18.583Z"/></g><path class="cls-2" d="M531.66,376.28c-11.233,5.204-13.284,12.83-31.526,25.531,5.732-18.087,5.855-38.663,20.442-52.057,17.02-15.627,37.362-7.513,46.291,2.149,8.929,9.662-16.469,29.188-35.207,24.376Z"/></g></g></svg>