<?xml version="1.0" encoding="UTF-8"?><svg id="Skiny_2" xmlns="http://www.w3.org/2000/svg" viewBox="0 0 512 512"><defs><style>.cls-1{fill:#369;}.cls-2{opacity:.5;}.cls-3{stroke:#996;}.cls-3,.cls-4,.cls-5{stroke-linecap:round;stroke-linejoin:round;stroke-width:8px;}.cls-3,.cls-5,.cls-6{fill:#ffc;}.cls-7{fill:#663;}.cls-4{fill:#993;stroke:#663;}.cls-5{stroke:#960;}.cls-8{stroke:#336;}.cls-8,.cls-9{fill:#69c;stroke-miterlimit:10;stroke-width:6px;}.cls-10{fill:#996;}.cls-11{fill:#036;}.cls-12{fill:#cc9;}.cls-9{stroke:#036;}.cls-13{fill:#300;}</style></defs><path class="cls-3" d="M276.44,400.31l10.67-.45c14.89-2.72,9.21-18.88,6.75-37.86l-3.19-24.6c-2.9-22.81-8.37-42.31-14.9-41.84h0c-6.54,.47-8.98,19.79-8.77,43.54l.15,24.24c.11,18.13-3.77,34.3,9.29,36.98Z"/><path class="cls-3" d="M226.54,400l-13.14-.23c-18.47-2.41-12.41-18.69-10.48-37.73l2.5-24.68c2.25-22.88,7.85-42.5,15.92-42.17h0c8.07,.33,12.19,19.61,13.29,43.38l1.21,24.25c.91,18.14,6.62,34.24-9.3,37.19Z"/><path class="cls-3" d="M290,327h-84l7-53.5c5-29.84,12.02-53.5,41-53.5h0c28.76,0,24,25,28.84,54.88,.04,.23,.1,.45,.16,.67l7,51.44Z"/><g><path class="cls-9" d="M190.58,363.69l12.93-8.6,11.73,9.93,8.9-13.4,17.03,12.25,5.73-10.55-4.72-30.99c-2.4-13.02-9.96-24.25-22.1-24.18h0c-12.13,.06-19.15,10.94-21.84,24.42l-7.66,41.13Z"/><path class="cls-1" d="M228.93,299.88c-2.36-1.13-4.97-1.76-7.85-1.74h0c-12.13,.06-19.15,10.94-21.84,24.42l-7.66,41.13,12.93-8.6,4.74,4.01,9.99-39.54c1.61-8.09,4.79-15.24,9.69-19.68Z"/><path class="cls-11" d="M186.9,369.98l8.96-48.11c3.39-17.02,12.42-26.8,24.77-26.87,.04,0,.08,0,.12,0,12.37,0,21.92,10.2,24.94,26.64l4.89,32.08-7.83,14.43-17.26-12.42-9.04,13.62-12.58-10.65-16.97,11.28Zm17.4-18.78l10.88,9.21,8.76-13.19,16.79,12.08,3.62-6.67-4.57-29.99c-1.92-10.42-7.94-21.64-19.03-21.64-.03,0-.06,0-.09,0-13.13,.07-17.6,15.41-18.91,22l-6.35,34.12,8.9-5.92Z"/></g><g><path class="cls-9" d="M257.47,345.58l1.45,12.52,11.02-11.08,11.99,9.47,4.02-13.44,17.98,11.04-2.98-15.8-4.79-20.04c-2.39-10.84-9.94-20.19-22.07-20.12h0c-12.13,.06-19.16,9.13-21.86,20.36l5.24,27.09Z"/><path class="cls-1" d="M272.94,299.1c-2.47,.34-5.01,1.11-7.58,2.41h0c-10.83,5.47-13.64,15.54-11.74,25.33l6.27,29.63,8.82-11.27,11.28,6.81-9.45-36.03c-1.14-5.87-.58-11.85,2.39-16.87Z"/><path class="cls-11" d="M256.09,364.87l-2.16-18.59-5.35-27.62,.15-.63c3.44-14.33,12.47-22.59,24.76-22.66,.04,0,.09,0,.13,0,12.12,0,21.88,8.81,24.89,22.48l4.81,20.13,4.23,22.46-20.43-12.55-4.17,13.93-13.35-10.55-13.52,13.59Zm-1.37-46.06l5.15,26.66,.74,6.34,8.51-8.56,10.62,8.39,3.87-12.94,15.54,9.54-1.71-9.07-4.78-19.97c-1.9-8.65-7.89-17.82-19.03-17.82-.04,0-.07,0-.11,0-12.36,.07-17.06,10.67-18.8,17.44Z"/></g><polygon class="cls-8" points="220.12 291.33 216.16 224.47 235.4 228.87 239.76 284.62 220.12 291.33"/><g><polygon class="cls-9" points="301.44 329.54 240 334 235 317 226.6 332 192.44 332 201.44 275.54 254 274 265 289 272.68 273.19 292.44 272.54 301.44 329.54"/><polygon class="cls-1" points="203.44 275.54 194.44 329.54 219.44 329.54 228.12 274.72 203.44 275.54"/><path class="cls-11" d="M237.83,337.13l-3.67-12.48-5.78,10.32h-39.42l9.94-62.39,56.61-1.65,8.99,12.26,6.3-12.97,24.22-.8,9.92,62.84-67.11,4.88Zm-1.94-27.85l6.33,21.52,55.78-4.05-8.08-51.16-15.3,.5-9.07,18.66-13.01-17.74-48.5,1.42-8.06,50.54h28.88l11.03-19.68Z"/></g><g><g><g><path class="cls-6" d="M215.31,173.91c-4.66-4.68-10.87-11.16-17.5-15.23-6.59,13.48-5.36,20.51-4.04,25.85,2.78,11.27,13.54,17.01,14.81,17.55"/><g><path class="cls-12" d="M200.77,194.45s.03,.03,.04,.04c-.01-.02-.03-.03-.04-.05,0,0,0,0,0,0Z"/><path class="cls-10" d="M201.33,195.11s0-.05,0-.08c-.17-.18-.35-.35-.52-.54,.17,.21,.34,.42,.52,.62Z"/><g><path class="cls-12" d="M197.12,176.55c.09-.07,.32-.24,.41-.3,.26-.14,.51-.28,.77-.4,1.98-.78,4.25-.49,6.34,.25-2.82-1.96-5.7-3.82-8.04-5.08-2.2,4.92-2.49,9.42-2.02,12.95-.26-2.82,.36-5.59,2.53-7.41Z"/><path class="cls-10" d="M213.46,184.31l.12-.73,.11-.63c-2.11-1.8-5.53-4.41-9.05-6.86-2.09-.74-4.36-1.03-6.34-.25-.26,.13-.52,.27-.77,.4-.09,.07-.32,.24-.41,.3-2.17,1.82-2.79,4.59-2.53,7.41,.25,1.86,1.94,6.28,2.04,6.45,.05,.09,.11,.18,.16,.26,.04,.06,.08,.12,.12,.18-.69-3.84-1.05-9.1,2.14-11.59,2.33-1.55,5.58-.32,8.1,.91,2.35,1.17,4.42,2.8,6.23,4.65l.08-.49Z"/><path class="cls-12" d="M209.05,185.27c1.38,.58,2.67,1.35,3.84,2.24l.48-2.7c-1.81-1.84-3.88-3.48-6.23-4.65-2.51-1.23-5.77-2.46-8.1-.91-3.19,2.49-2.83,7.75-2.14,11.59,.14,.22,1.03,1.91,2.88,4.19-.32-1.55-.43-3.13-.24-4.68,.64-4.94,4.22-7.24,9.51-5.09Z"/><path class="cls-12" d="M209.98,202.58l2.36-11.79,.1-.58c-1.88-1.23-4.1-2.26-5.98-2.64-2.92-.55-4.27,1.72-4.81,4.06-.39,1.67-.43,3.42-.29,5.18,3.75,3.85,7.89,5.49,8.63,5.77Z"/><path class="cls-10" d="M206.45,187.58c1.88,.37,4.1,1.4,5.98,2.64l.3-1.82,.16-.88c-1.18-.89-2.46-1.66-3.84-2.24-5.29-2.15-8.87,.14-9.51,5.09-.19,1.56-.08,3.13,.24,4.68,.16,.2,.32,.4,.49,.6,.35,.42,.71,.8,1.07,1.17-.13-1.76-.09-3.51,.29-5.18,.55-2.34,1.9-4.61,4.81-4.06Z"/></g></g><path class="cls-10" d="M208.65,205.63c-3.4-1.46-13.72-8.18-16.54-19.59-1.52-6.17-2.57-13.92,4.26-27.89l1.45-2.96,2.81,1.72c6.44,3.94,12.28,9.84,16.97,14.57l1.09,1.1-4.25,4.23-1.1-1.11c-3.74-3.77-8.24-8.31-13.02-11.78-4.75,11.09-3.34,16.8-2.39,20.68,2.56,10.39,12.97,15.47,13.08,15.51l-2.37,5.51Z"/></g><g><path class="cls-6" d="M321.08,212.82c6.59-.48,15.52-1.31,23.2-.03-3.85,14.5-9.39,19.01-13.89,22.18-9.48,6.69-21.37,3.98-22.69,3.56"/><g><path class="cls-12" d="M318.61,237.86s-.04,0-.06,0c.02,0,.04,0,.07-.01,0,0,0,0,0,0Z"/><path class="cls-10" d="M317.75,237.99s.04-.04,.06-.06c.25-.02,.49-.04,.74-.07-.27,.04-.53,.09-.8,.13Z"/><g><path class="cls-12" d="M333.09,226.73c-.02-.11-.08-.39-.11-.5-.1-.27-.21-.55-.32-.81-.98-1.89-2.89-3.16-4.95-3.97,3.42,.36,6.81,.85,9.4,1.43-1.57,5.16-4.29,8.74-6.96,11.1,2.04-1.96,3.39-4.46,2.94-7.26Z"/><path class="cls-10" d="M315.66,221.89l.39-.64,.33-.54c2.77,.02,7.07,.29,11.33,.74,2.06,.81,3.97,2.08,4.95,3.97,.12,.27,.22,.54,.32,.81,.02,.11,.08,.38,.11,.5,.44,2.8-.9,5.29-2.94,7.26-1.4,1.24-5.58,3.47-5.77,3.53-.1,.03-.2,.07-.29,.1-.07,.02-.14,.04-.21,.06,3.04-2.45,6.76-6.19,5.98-10.16-.75-2.69-4.01-3.9-6.71-4.62-2.54-.66-5.17-.78-7.75-.57l.26-.43Z"/><path class="cls-12" d="M318.36,225.5c-1.43-.47-2.9-.73-4.37-.82l1.41-2.36c2.58-.21,5.21-.09,7.75,.57,2.7,.72,5.97,1.92,6.71,4.62,.78,3.98-2.94,7.71-5.98,10.16-.25,.07-2.03,.77-4.92,1.28,1.26-.96,2.37-2.08,3.25-3.38,2.76-4.15,1.56-8.23-3.85-10.07Z"/><path class="cls-12" d="M306.31,237.97l5.94-10.46,.31-.5c2.23,.3,4.58,.98,6.25,1.93,2.56,1.49,2.09,4.1,.98,6.22-.8,1.51-1.92,2.86-3.17,4.11-5.35,.45-9.56-1.03-10.3-1.3Z"/><path class="cls-10" d="M318.81,228.94c-1.67-.95-4.02-1.63-6.25-1.93l.97-1.57,.46-.77c1.48,.1,2.95,.36,4.37,.82,5.41,1.84,6.61,5.92,3.85,10.07-.88,1.3-1.99,2.42-3.25,3.38-.25,.04-.5,.09-.77,.13-.54,.08-1.06,.14-1.58,.18,1.25-1.25,2.37-2.59,3.17-4.11,1.12-2.12,1.59-4.73-.98-6.22Z"/></g></g><path class="cls-10" d="M305.32,241.14c3.52,1.12,15.73,2.81,25.33-3.96,5.19-3.66,11.07-8.83,15.06-23.86l.85-3.19-3.25-.54c-7.45-1.24-15.72-.62-22.36-.11l-1.55,.12,.44,5.98,1.56-.12c5.29-.4,11.67-.88,17.56-.37-3.68,11.49-8.48,14.88-11.75,17.19-8.74,6.17-19.94,3.18-20.04,3.15l-1.83,5.72Z"/></g></g><path class="cls-5" d="M330.7,182.61s12.68-41.15-30.93-59.63c-58.63-24.84-79.86,24.81-80.05,25.3-.64,1.58-10.98,48.82-10.15,72.73,3.75,6.8,8.92,14.82,16.01,23.05,9.47,11,19.2,18.74,26.98,23.99,7.23-.47,18.73-2.16,31.29-8.32,9.28-4.55,16.09-10.04,20.64-14.37,9.49-20.61,17.72-41.73,26.21-62.75Z"/><path class="cls-12" d="M232.6,240.34c.44-.05,.88-.13,1.31-.26,6.91-2.04,8.99-11.83,5.29-24.4-3.58-12.14-15.54-12.98-21.43-17.07-1-7.5-.97-13.55-1.66-13.59-.75-.05-3.04,5.23-4.02,13.35-.66,1.64-.75,4.37-.45,7.6,0,7.17,1.2,15.54,4.8,24.09,10.54,25,35.2,36.12,35.81,35.49,.45-.47-11.01-8.98-19.64-25.2Z"/><path class="cls-12" d="M292.78,238.87c-6.6,8.45-9.3,15.49-6.65,17.56,2.64,2.07,10.14-3.11,16.74-11.56,6.6-8.45,13.96-20.03,7.46-16.22-4.49,2.63-10.94,1.77-17.55,10.22Z"/><path class="cls-12" d="M320.84,152.66c.03,1.53,.23,3.73,.98,6.25,1.04,3.45,2.61,5.77,3.79,7.49,1.22,1.77,3.13,4.17,5.97,6.56-.44,.19-5.83,2.39-10.82-.86-5.51-3.59-5.12-10.29-5.1-10.57,.42-5.48,4.61-8.47,5.18-8.87Z"/><path class="cls-12" d="M265.35,132.54c-1.38,1.37-3.49,3.2-6.4,4.83-3.98,2.24-7.46,2.97-10.04,3.5-2.67,.54-6.53,1.05-11.21,.73,.23,.55,3.21,7.31,10.63,8.73,8.18,1.58,13.72-4.88,13.94-5.16,4.44-5.37,3.25-11.78,3.08-12.64Z"/><path class="cls-10" d="M251.06,271.76c-.26-.1-.51-.24-.74-.39-10.33-6.98-19.68-15.29-27.77-24.69-6.28-7.29-11.83-15.28-16.48-23.73-.3-.55-.47-1.17-.49-1.79-.84-24.33,9.55-72.16,10.44-74.36,.09-.21,8.79-21.25,31.19-30.54,15.73-6.53,33.94-5.5,54.13,3.05,46.4,19.66,33.33,64.04,33.19,64.49-.03,.11-.07,.21-.11,.32-1.41,3.5-2.82,7.01-4.23,10.52-6.93,17.28-14.11,35.14-22.05,52.41-.21,.46-.51,.88-.88,1.23-6.44,6.11-13.71,11.17-21.63,15.06-10.26,5.03-21.29,7.96-32.79,8.72-.6,.04-1.21-.06-1.76-.28Zm-37.53-51.84c4.29,7.66,9.36,14.9,15.07,21.53,7.34,8.52,15.76,16.09,25.05,22.51,9.96-.82,19.52-3.45,28.43-7.82,6.96-3.41,13.38-7.84,19.09-13.15,7.73-16.87,14.77-34.39,21.57-51.34,1.39-3.45,2.77-6.91,4.17-10.36,.86-2.97,10.08-38.19-28.71-54.63-22.81-9.67-42.2-8.83-57.7,2.46-11.28,8.22-16.47,19.28-17.05,20.57-1.19,4.14-10.41,47.61-9.93,70.23Z"/><g><path class="cls-13" d="M246.34,197.6c-2.56,8.89,.47,17.78,7.37,20.56,7.52,3.03,16.76-2.32,20.65-11.95,1.46-3.63,1.96-7.34,1.61-10.73-4.44,1.33-10.08,2.53-16.69,2.81-4.88,.21-9.24-.14-12.94-.69Z"/><path class="cls-13" d="M298.6,213.08c-3.94-4.13-6.87-8.26-9.07-11.9-1.77,1.83-3.29,4.13-4.36,6.8-3.39,8.41-1.16,17.23,4.99,19.72,5.42,2.19,12.06-1.28,15.89-7.88-2.39-1.86-4.92-4.08-7.45-6.73Z"/></g></g><g><path class="cls-4" d="M265.65,379.45c-1.06,11.72-1.99,21.11,10.27,22.55l12.49-.8c15.5-2.56,12.47-13.52,10.01-27.2-9.13,3.01-20.32,5.45-32.76,5.45Z"/><g class="cls-2"><path class="cls-7" d="M292.82,390.9l-12.49,.8c-8.41-.99-10.61-5.71-10.83-12.36-1.51,.07-3.04,.11-4.6,.11-1.06,11.72-1.99,21.11,10.27,22.55l12.49-.8c9.35-1.55,11.95-6.16,12.01-12.57-1.73,1.02-3.97,1.8-6.86,2.27Z"/></g></g><path class="cls-3" d="M272.93,241.3l-6.04,9.07c-7.63,13.36,1.86,14,10.55,18.28l11.26,5.55c10.41,5.19,21.05,7.12,24.68,1.5h0c3.63-5.62-2.34-14.12-11.55-21.86l-9.36-7.96c-7-5.96-10.92-14.6-19.55-4.57Z"/><path class="cls-3" d="M265.81,240.28l3.76,10.23c4.15,14.82-6.47,13.65-17.36,16.27l-14.12,3.39c-13.07,3.2-25.36,3.1-27.56-3.22h0c-2.2-6.32,7.03-13.67,19.59-19.66l12.79-6.17c9.57-4.62,16.6-12.52,22.91-.83Z"/></svg>