<?xml version="1.0" encoding="UTF-8"?><svg id="Skiny_2" xmlns="http://www.w3.org/2000/svg" viewBox="0 0 512 512"><defs><style>.cls-1{fill:#369;}.cls-2{opacity:.5;}.cls-3{stroke:#996;}.cls-3,.cls-4,.cls-5{stroke-linecap:round;stroke-linejoin:round;stroke-width:8px;}.cls-3,.cls-5,.cls-6{fill:#ffc;}.cls-7{fill:#663;}.cls-4{fill:#993;stroke:#663;}.cls-5{stroke:#960;}.cls-8{stroke:#336;}.cls-8,.cls-9{fill:#69c;stroke-miterlimit:10;stroke-width:6px;}.cls-10{fill:#996;}.cls-11{fill:#036;}.cls-12{fill:#cc9;}.cls-9{stroke:#036;}.cls-13{fill:#300;}</style></defs><path class="cls-3" d="M276.44,400.31l10.67-.45c14.89-2.72,9.21-18.88,6.75-37.86l-3.19-24.6c-2.9-22.81-8.37-42.31-14.9-41.84h0c-6.54,.47-8.98,19.79-8.77,43.54l.15,24.24c.11,18.13-3.77,34.3,9.29,36.98Z"/><path class="cls-3" d="M226.54,400l-13.14-.23c-18.47-2.41-12.41-18.69-10.48-37.73l2.5-24.68c2.25-22.88,7.85-42.5,15.92-42.17h0c8.07,.33,12.19,19.61,13.29,43.38l1.21,24.25c.91,18.14,6.62,34.24-9.3,37.19Z"/><path class="cls-3" d="M290,327h-84l7-53.5c5-29.84,12.02-53.5,41-53.5h0c28.76,0,24,25,28.84,54.88,.04,.23,.1,.45,.16,.67l7,51.44Z"/><g><path class="cls-9" d="M190.58,363.69l12.93-8.6,11.73,9.93,8.9-13.4,17.03,12.25,5.73-10.55-4.72-30.99c-2.4-13.02-9.96-24.25-22.1-24.18h0c-12.13,.06-19.15,10.94-21.84,24.42l-7.66,41.13Z"/><path class="cls-1" d="M228.93,299.88c-2.36-1.13-4.97-1.76-7.85-1.74h0c-12.13,.06-19.15,10.94-21.84,24.42l-7.66,41.13,12.93-8.6,4.74,4.01,9.99-39.54c1.61-8.09,4.79-15.24,9.69-19.68Z"/><path class="cls-11" d="M186.9,369.98l8.96-48.11c3.39-17.02,12.42-26.8,24.77-26.87,.04,0,.08,0,.12,0,12.37,0,21.92,10.2,24.94,26.64l4.89,32.08-7.83,14.43-17.26-12.42-9.04,13.62-12.58-10.65-16.97,11.28Zm17.4-18.78l10.88,9.21,8.76-13.19,16.79,12.08,3.62-6.67-4.57-29.99c-1.92-10.42-7.94-21.64-19.03-21.64-.03,0-.06,0-.09,0-13.13,.07-17.6,15.41-18.91,22l-6.35,34.12,8.9-5.92Z"/></g><g><path class="cls-9" d="M257.47,345.58l1.45,12.52,11.02-11.08,11.99,9.47,4.02-13.44,17.98,11.04-2.98-15.8-4.79-20.04c-2.39-10.84-9.94-20.19-22.07-20.12h0c-12.13,.06-19.16,9.13-21.86,20.36l5.24,27.09Z"/><path class="cls-1" d="M272.94,299.1c-2.47,.34-5.01,1.11-7.58,2.41h0c-10.83,5.47-13.64,15.54-11.74,25.33l6.27,29.63,8.82-11.27,11.28,6.81-9.45-36.03c-1.14-5.87-.58-11.85,2.39-16.87Z"/><path class="cls-11" d="M256.09,364.87l-2.16-18.59-5.35-27.62,.15-.63c3.44-14.33,12.47-22.59,24.76-22.66,.04,0,.09,0,.13,0,12.12,0,21.88,8.81,24.89,22.48l4.81,20.13,4.23,22.46-20.43-12.55-4.17,13.93-13.35-10.55-13.52,13.59Zm-1.37-46.06l5.15,26.66,.74,6.34,8.51-8.56,10.62,8.39,3.87-12.94,15.54,9.54-1.71-9.07-4.78-19.97c-1.9-8.65-7.89-17.82-19.03-17.82-.04,0-.07,0-.11,0-12.36,.07-17.06,10.67-18.8,17.44Z"/></g><polygon class="cls-8" points="220.12 291.33 216.16 224.47 235.4 228.87 239.76 284.62 220.12 291.33"/><g><polygon class="cls-9" points="301.44 329.54 240 334 235 317 226.6 332 192.44 332 201.44 275.54 254 274 265 289 272.68 273.19 292.44 272.54 301.44 329.54"/><polygon class="cls-1" points="203.44 275.54 194.44 329.54 219.44 329.54 228.12 274.72 203.44 275.54"/><path class="cls-11" d="M237.83,337.13l-3.67-12.48-5.78,10.32h-39.42l9.94-62.39,56.61-1.65,8.99,12.26,6.3-12.97,24.22-.8,9.92,62.84-67.11,4.88Zm-1.94-27.85l6.33,21.52,55.78-4.05-8.08-51.16-15.3,.5-9.07,18.66-13.01-17.74-48.5,1.42-8.06,50.54h28.88l11.03-19.68Z"/></g><g><g><g><path class="cls-6" d="M206.47,170.29c-5.18-4.11-12.1-9.82-19.16-13.08-4.97,14.16-2.93,21-1,26.15,4.08,10.87,15.43,15.31,16.76,15.7"/><g><path class="cls-12" d="M194.43,192.38s.03,.03,.05,.04c-.02-.02-.03-.03-.05-.05,0,0,0,0,0,0Z"/><path class="cls-10" d="M195.06,192.97s0-.05-.02-.08c-.19-.16-.39-.31-.57-.47,.2,.18,.39,.37,.59,.55Z"/><g><path class="cls-12" d="M188.72,175.03c.08-.08,.29-.27,.37-.35,.24-.16,.48-.34,.72-.49,1.87-1,4.16-.98,6.33-.49-3.03-1.62-6.11-3.13-8.57-4.1-1.61,5.15-1.37,9.64-.49,13.09-.58-2.77-.29-5.59,1.65-7.66Z"/><path class="cls-10" d="M205.85,180.84l.04-.74,.03-.64c-2.31-1.54-6.01-3.74-9.79-5.76-2.16-.49-4.45-.51-6.33,.49-.25,.15-.48,.33-.72,.49-.08,.08-.29,.27-.37,.35-1.94,2.06-2.23,4.88-1.65,7.66,.46,1.82,2.66,6.01,2.78,6.16,.06,.08,.13,.17,.19,.24,.05,.06,.1,.11,.14,.16-1.13-3.74-2.11-8.91,.78-11.76,2.13-1.81,5.51-.97,8.15-.04,2.47,.88,4.72,2.27,6.73,3.89l.02-.5Z"/><path class="cls-12" d="M201.58,182.3c1.44,.42,2.81,1.03,4.08,1.78l.16-2.74c-2.02-1.62-4.26-3-6.73-3.89-2.64-.93-6.01-1.77-8.15,.04-2.88,2.85-1.9,8.03-.78,11.76,.17,.2,1.25,1.78,3.35,3.83-.5-1.5-.79-3.06-.78-4.62,.05-4.98,3.35-7.68,8.85-6.16Z"/><path class="cls-12" d="M204.53,199.39l.97-11.99,.03-.59c-2.01-1.01-4.34-1.77-6.25-1.92-2.96-.21-4.04,2.21-4.31,4.59-.19,1.7-.02,3.44,.31,5.18,4.17,3.39,8.48,4.53,9.25,4.72Z"/><path class="cls-10" d="M199.27,184.9c1.91,.15,4.24,.91,6.25,1.92l.08-1.84,.05-.89c-1.27-.75-2.64-1.36-4.08-1.78-5.5-1.52-8.79,1.18-8.85,6.16,0,1.57,.28,3.12,.78,4.62,.18,.18,.36,.36,.56,.54,.4,.37,.8,.71,1.2,1.04-.34-1.73-.5-3.48-.31-5.18,.27-2.38,1.35-4.8,4.31-4.59Z"/></g></g><path class="cls-10" d="M203.57,202.57c-3.54-1.05-14.58-6.52-18.71-17.52-2.23-5.95-4.18-13.53,.97-28.2l1.09-3.11,2.99,1.38c6.85,3.17,13.34,8.33,18.55,12.49l1.21,.97-3.73,4.7-1.22-.97c-4.15-3.31-9.16-7.29-14.31-10.18-3.42,11.57-1.36,17.07,.05,20.82,3.76,10.01,14.69,13.85,14.8,13.88l-1.71,5.75Z"/></g><g><path class="cls-6" d="M316.06,196.58c6.49-1.25,15.26-3.11,23.04-2.74-2.13,14.85-7.11,19.98-11.2,23.65-8.64,7.75-20.76,6.45-22.12,6.18"/><g><path class="cls-12" d="M316.53,221.73s-.04,0-.06,.01c.02,0,.04-.01,.06-.02,0,0,0,0,0,0Z"/><path class="cls-10" d="M315.7,221.96s.03-.04,.05-.06c.24-.05,.48-.09,.73-.15-.26,.07-.52,.15-.78,.22Z"/><g><path class="cls-12" d="M329.62,208.98c-.03-.11-.13-.38-.16-.48-.13-.26-.27-.52-.41-.77-1.2-1.76-3.24-2.8-5.38-3.36,3.43-.04,6.87,.05,9.5,.32-.95,5.31-3.24,9.18-5.61,11.84,1.8-2.19,2.84-4.82,2.07-7.55Z"/><path class="cls-10" d="M311.74,206.21l.31-.68,.27-.58c2.76-.3,7.05-.54,11.34-.59,2.14,.57,4.18,1.6,5.38,3.36,.15,.25,.28,.51,.41,.77,.04,.1,.13,.37,.16,.48,.77,2.73-.28,5.36-2.07,7.55-1.25,1.4-5.13,4.1-5.31,4.18-.09,.04-.19,.09-.28,.13-.07,.03-.14,.05-.2,.08,2.73-2.79,5.99-6.93,4.75-10.79-1.06-2.59-4.44-3.41-7.21-3.8-2.6-.36-5.23-.17-7.77,.33l.21-.46Z"/><path class="cls-12" d="M314.85,209.48c-1.47-.3-2.96-.38-4.44-.31l1.12-2.51c2.54-.5,5.16-.69,7.77-.33,2.77,.4,6.15,1.21,7.21,3.8,1.24,3.86-2.02,8-4.75,10.79-.24,.1-1.93,1-4.74,1.85,1.14-1.1,2.11-2.35,2.83-3.74,2.25-4.44,.58-8.36-5-9.55Z"/><path class="cls-12" d="M304.34,223.28l4.68-11.08,.25-.53c2.25,.04,4.67,.44,6.43,1.19,2.72,1.18,2.56,3.82,1.7,6.06-.62,1.6-1.57,3.07-2.67,4.45-5.27,1.08-9.61,.09-10.38-.09Z"/><path class="cls-10" d="M315.69,212.85c-1.76-.75-4.18-1.15-6.43-1.19l.78-1.67,.37-.82c1.48-.08,2.97,0,4.44,.31,5.58,1.19,7.25,5.11,5,9.55-.72,1.39-1.69,2.64-2.83,3.74-.25,.07-.48,.15-.75,.22-.52,.15-1.04,.26-1.55,.37,1.1-1.38,2.05-2.85,2.67-4.45,.86-2.24,1.03-4.88-1.7-6.06Z"/></g></g><path class="cls-10" d="M303.72,226.54c3.63,.71,15.95,.95,24.69-6.89,4.73-4.24,9.96-10.06,12.17-25.46l.47-3.27-3.29-.16c-7.54-.36-15.68,1.23-22.22,2.5l-1.52,.3,1.14,5.89,1.53-.3c5.21-1.01,11.49-2.24,17.39-2.42-2.31,11.84-6.69,15.77-9.66,18.44-7.96,7.14-19.43,5.49-19.54,5.47l-1.15,5.89Z"/></g></g><path class="cls-5" d="M322.09,165.45s7.79-42.35-37.68-55.61c-61.13-17.82-76.41,33.97-76.55,34.48-.45,1.65-5.2,49.77-1.59,73.41,4.52,6.32,10.59,13.67,18.6,21.02,10.69,9.82,21.26,16.36,29.6,20.67,7.13-1.32,18.35-4.33,30.11-11.92,8.68-5.6,14.8-11.85,18.82-16.68,7.01-21.58,12.72-43.52,18.7-65.39Z"/><path class="cls-12" d="M231.41,234.24c.43-.1,.86-.23,1.27-.41,6.63-2.83,7.55-12.8,2.4-24.85-4.97-11.63-16.95-11.07-23.28-14.45-1.87-7.33-2.55-13.34-3.23-13.3-.75,.04-2.41,5.54-2.44,13.72-.46,1.71-.23,4.42,.44,7.6,.84,7.12,3,15.3,7.58,23.36,13.39,23.6,39.18,31.76,39.71,31.06,.39-.52-11.98-7.63-22.45-22.73Z"/><path class="cls-12" d="M291,225.75c-5.57,9.16-7.42,16.47-4.56,18.21,2.87,1.74,9.71-4.27,15.28-13.44,5.57-9.16,11.53-21.52,5.51-16.98-4.15,3.14-10.66,3.03-16.23,12.2Z"/><path class="cls-12" d="M308.8,136.85c.21,1.52,.66,3.68,1.71,6.09,1.43,3.31,3.26,5.43,4.63,6.99,1.42,1.62,3.6,3.78,6.69,5.82-.41,.24-5.51,3.05-10.85,.41-5.89-2.92-6.28-9.62-6.29-9.9-.22-5.49,3.58-8.95,4.11-9.41Z"/><path class="cls-12" d="M251.33,123.36c-1.21,1.52-3.09,3.59-5.79,5.55-3.69,2.69-7.06,3.82-9.56,4.65-2.59,.85-6.36,1.81-11.05,2.04,.3,.52,4.05,6.88,11.57,7.43,8.31,.61,13.06-6.45,13.25-6.75,3.78-5.85,1.86-12.08,1.58-12.92Z"/><path class="cls-10" d="M253.41,263.29c-.27-.07-.53-.17-.78-.3-11.08-5.72-21.33-12.88-30.47-21.28-7.09-6.51-13.53-13.79-19.14-21.64-.37-.51-.61-1.1-.7-1.72-3.68-24.06,1.06-72.78,1.68-75.07,.06-.22,6.25-22.13,27.41-33.98,14.86-8.32,33.06-9.43,54.12-3.29,48.38,14.11,40.58,59.71,40.5,60.17-.02,.11-.05,.22-.08,.33-1,3.65-1.98,7.29-2.97,10.94-4.87,17.97-9.9,36.55-15.78,54.63-.16,.48-.4,.93-.73,1.32-5.68,6.82-12.31,12.7-19.73,17.48-9.6,6.19-20.22,10.4-31.55,12.49-.59,.11-1.2,.08-1.78-.08Zm-43.32-47.1c5.16,7.1,11.04,13.7,17.48,19.62,8.28,7.61,17.53,14.14,27.51,19.42,9.8-1.98,18.98-5.7,27.33-11.09,6.52-4.2,12.38-9.35,17.42-15.29,5.71-17.66,10.65-35.88,15.42-53.51,.97-3.59,1.95-7.18,2.93-10.77,.51-3.05,5.55-39.11-34.89-50.9-23.78-6.94-42.94-3.84-57.02,9.19-10.25,9.48-14.11,21.08-14.53,22.42-.7,4.25-4.78,48.5-1.66,70.9Z"/><g><path class="cls-13" d="M240.06,190.19c-1.5,9.13,2.54,17.6,9.72,19.56,7.82,2.14,16.38-4.26,19.11-14.28,1.03-3.77,1.09-7.52,.34-10.84-4.25,1.83-9.71,3.69-16.25,4.74-4.83,.77-9.2,.94-12.93,.83Z"/><path class="cls-13" d="M293.77,199.46c-4.4-3.65-7.79-7.4-10.4-10.76-1.54,2.02-2.78,4.48-3.54,7.26-2.39,8.74,.86,17.25,7.26,19,5.63,1.54,11.83-2.68,14.86-9.68-2.59-1.57-5.36-3.48-8.18-5.82Z"/></g></g><g><path class="cls-4" d="M265.65,379.45c-1.06,11.72-1.99,21.11,10.27,22.55l12.49-.8c15.5-2.56,12.47-13.52,10.01-27.2-9.13,3.01-20.32,5.45-32.76,5.45Z"/><g class="cls-2"><path class="cls-7" d="M292.82,390.9l-12.49,.8c-8.41-.99-10.61-5.71-10.83-12.36-1.51,.07-3.04,.11-4.6,.11-1.06,11.72-1.99,21.11,10.27,22.55l12.49-.8c9.35-1.55,11.95-6.16,12.01-12.57-1.73,1.02-3.97,1.8-6.86,2.27Z"/></g></g><path class="cls-3" d="M281.93,241.3l-6.04,9.07c-7.63,13.36,1.86,14,10.55,18.28l11.26,5.55c10.41,5.19,21.05,7.12,24.68,1.5h0c3.63-5.62-2.34-14.12-11.55-21.86l-9.36-7.96c-7-5.96-10.92-14.6-19.55-4.57Z"/><path class="cls-3" d="M259.81,241.28l3.76,10.23c4.15,14.82-6.47,13.65-17.36,16.27l-14.12,3.39c-13.07,3.2-25.36,3.1-27.56-3.22h0c-2.2-6.32,7.03-13.67,19.59-19.66l12.79-6.17c9.57-4.62,16.6-12.52,22.91-.83Z"/></svg>