<?xml version="1.0" encoding="UTF-8"?><svg id="Skiny_2" xmlns="http://www.w3.org/2000/svg" viewBox="0 0 512 512"><defs><style>.cls-1{fill:#369;}.cls-2{opacity:.5;}.cls-3{stroke:#996;}.cls-3,.cls-4,.cls-5{stroke-linecap:round;stroke-linejoin:round;stroke-width:8px;}.cls-3,.cls-5{fill:#ffc;}.cls-6{fill:#663;}.cls-4{fill:#993;stroke:#663;}.cls-5{stroke:#960;}.cls-7{stroke:#336;}.cls-7,.cls-8{fill:#69c;stroke-miterlimit:10;stroke-width:6px;}.cls-9{fill:#996;}.cls-10{fill:#036;}.cls-11{fill:#cc9;}.cls-8{stroke:#036;}.cls-12{fill:#300;}</style></defs><path class="cls-3" d="M297.444,405.307l10.665-.453c14.89-2.72,9.208-18.877,6.75-37.857l-3.185-24.603c-2.9-22.809-8.367-42.309-14.904-41.84h0c-6.537,.47-8.985,19.787-8.77,43.541l.151,24.235c.113,18.132-3.775,34.302,9.293,36.978Z"/><path class="cls-3" d="M325.401,330.218l10.291-3.587c13.77-7.007,3.584-20.808-4.259-38.267l-10.167-22.631c-9.373-20.997-20.307-38.064-26.56-35.682h0c-6.253,2.382-3.105,21.614,3.916,44.31l7.096,23.176c5.309,17.339,6.147,33.982,19.684,32.682Z"/><path class="cls-3" d="M247.542,405l-13.139-.233c-18.465-2.412-12.408-18.695-10.48-37.734l2.5-24.68c2.252-22.879,7.851-42.502,15.916-42.168h0c8.065,.334,12.186,19.61,13.29,43.378l1.21,24.249c.905,18.142,6.616,34.239-9.297,37.187Z"/><path class="cls-3" d="M311,332h-84l7-53.5c5-29.837,12.023-53.5,41-53.5h0c28.759,0,24,25,28.844,54.883,.037,.227,.103,.449,.156,.675l7,51.442Z"/><g><path class="cls-8" d="M211.58,368.689l12.933-8.602,11.729,9.928,8.9-13.404,17.027,12.253,5.728-10.554-4.725-30.987c-2.397-13.023-9.964-24.248-22.095-24.184h0c-12.132,.064-19.155,10.942-21.837,24.417l-7.659,41.134Z"/><path class="cls-1" d="M249.93,304.878c-2.356-1.129-4.974-1.756-7.853-1.74h0c-12.132,.064-19.155,10.942-21.837,24.417l-7.659,41.134,12.933-8.602,4.736,4.009,9.99-39.541c1.61-8.088,4.786-15.237,9.69-19.677Z"/><path class="cls-10" d="M207.897,374.98l8.959-48.112c3.389-17.022,12.415-26.802,24.771-26.868,.039,0,.079,0,.118,0,12.365,0,21.916,10.196,24.942,26.642l4.893,32.075-7.835,14.434-17.262-12.422-9.041,13.617-12.58-10.648-16.966,11.284Zm17.399-18.778l10.877,9.207,8.758-13.191,16.791,12.083,3.622-6.675-4.572-29.99c-1.92-10.424-7.938-21.637-19.026-21.637-.029,0-.058,0-.087,0-13.129,.07-17.599,15.411-18.911,22.003l-6.353,34.119,8.901-5.92Z"/></g><g><path class="cls-8" d="M278.467,350.583l1.454,12.518,11.016-11.075,11.987,9.469,4.019-13.438,17.984,11.043-2.978-15.801-4.794-20.039c-2.385-10.844-9.942-20.187-22.074-20.122h0c-12.132,.064-19.164,9.13-21.859,20.355l5.245,27.09Z"/><path class="cls-1" d="M293.944,304.096c-2.467,.336-5.008,1.109-7.577,2.407h0c-10.827,5.472-13.638,15.545-11.74,25.329l6.269,29.629,8.821-11.269,11.283,6.808-9.446-36.033c-1.139-5.873-.579-11.848,2.39-16.871Z"/><path class="cls-10" d="M277.092,369.865l-2.159-18.587-5.348-27.617,.152-.632c3.441-14.333,12.466-22.59,24.761-22.655,.044,0,.088,0,.132,0,12.12,0,21.881,8.809,24.887,22.479l4.812,20.128,4.233,22.458-20.433-12.545-4.166,13.933-13.354-10.55-13.518,13.591Zm-1.366-46.056l5.153,26.663,.736,6.336,8.514-8.56,10.618,8.388,3.871-12.943,15.538,9.541-1.71-9.073-4.777-19.968c-1.903-8.653-7.893-17.821-19.032-17.821-.036,0-.071,0-.107,0-12.355,.065-17.061,10.671-18.804,17.436Z"/></g><polygon class="cls-7" points="241.122 296.327 237.156 229.472 256.398 233.87 260.76 289.622 241.122 296.327"/><g><polygon class="cls-8" points="322.444 334.535 261 339 256 322 247.596 337 213.444 337 222.444 280.535 275 279 286 294 293.685 278.187 313.444 277.535 322.444 334.535"/><polygon class="cls-1" points="224.444 280.535 215.444 334.535 240.444 334.535 249.123 279.722 224.444 280.535"/><path class="cls-10" d="M258.826,342.126l-3.672-12.483-5.779,10.315h-39.425l9.944-62.391,56.614-1.654,8.989,12.258,6.301-12.966,24.217-.798,9.923,62.841-67.112,4.877Zm-1.938-27.852l6.328,21.517,55.776-4.053-8.077-51.159-15.303,.504-9.068,18.661-13.011-17.742-48.497,1.417-8.056,50.539h28.878l11.029-19.685Z"/></g><g><path class="cls-5" d="M323.467,147.089s-3.643-42.905-51.001-43.715c-63.668-1.088-64.763,52.905-64.763,53.429,0,1.707,8.095,49.382,17.81,71.239,6.023,4.904,13.821,10.399,23.476,15.381,12.896,6.654,24.822,10.184,34,12.143,6.529-3.148,16.562-9.015,25.905-19.429,6.899-7.69,11.158-15.336,13.762-21.048,1.079-22.667,.81-45.334,.81-68.001Z"/><path class="cls-11" d="M254.114,237.339c.393-.209,.768-.453,1.12-.732,5.648-4.478,3.909-14.338-4.234-24.607-7.861-9.914-19.271-6.213-26.263-7.809-3.732-6.579-5.974-12.197-6.625-11.983-.714,.235-.863,5.984,1.267,13.881,.006,1.766,.942,4.329,2.426,7.219,2.684,6.646,6.927,13.965,13.47,20.541,19.138,19.239,46.165,20.315,46.486,19.501,.238-.606-13.572-4.205-27.646-16.012Z"/><path class="cls-11" d="M309.361,213.448c-2.961,10.307-2.821,17.845,.403,18.771,3.224,.926,8.238-6.678,11.199-16.986,2.961-10.307,5.45-23.796,.844-17.829-3.18,4.12-9.485,5.736-12.446,16.043Z"/><path class="cls-11" d="M303.114,123c.605,1.409,1.609,3.376,3.253,5.428,2.253,2.812,4.579,4.378,6.313,5.524,1.795,1.187,4.467,2.699,7.988,3.85-.335,.337-4.51,4.397-10.356,3.253-6.454-1.263-8.597-7.627-8.681-7.891-1.662-5.238,1.099-9.583,1.482-10.163Z"/><path class="cls-11" d="M244.123,125.122c-.767,1.786-2.039,4.278-4.123,6.878-2.855,3.564-5.803,5.547-8,7-2.275,1.504-5.66,3.42-10.123,4.878,.424,.427,5.715,5.571,13.123,4.122,8.179-1.601,10.894-9.665,11-10,2.106-6.637-1.393-12.143-1.877-12.878Z"/><path class="cls-9" d="M282.99,259.567c-.279,0-.559-.028-.835-.088-12.193-2.602-23.97-6.808-34.999-12.5-8.553-4.413-16.685-9.74-24.168-15.833-.487-.397-.875-.903-1.13-1.478-9.886-22.242-18.154-70.488-18.154-72.864,0-.228,.2-22.998,17.491-39.996,12.147-11.941,29.412-17.807,51.34-17.433,50.387,.861,54.878,46.911,54.917,47.376,.01,.112,.015,.226,.015,.338,0,3.78,.008,7.56,.015,11.339,.037,18.617,.076,37.868-.829,56.852-.023,.508-.145,1.006-.355,1.469-3.681,8.073-8.534,15.495-14.424,22.06-7.632,8.506-16.765,15.356-27.146,20.36-.545,.263-1.14,.396-1.737,.396Zm-54.202-34.02c6.849,5.493,14.258,10.309,22.036,14.323,9.993,5.157,20.635,9.02,31.654,11.491,8.931-4.49,16.811-10.504,23.439-17.894,5.18-5.772,9.477-12.278,12.78-19.344,.857-18.536,.82-37.414,.783-55.678-.007-3.721-.015-7.442-.015-11.163-.317-3.08-4.948-39.188-47.068-39.907-24.771-.43-42.438,7.612-52.581,23.882-7.387,11.848-8.057,24.047-8.109,25.454,.444,4.285,8.166,48.042,17.08,68.836Z"/><g><path class="cls-12" d="M250.854,192.561c.958,9.203,7.09,16.308,14.53,16.308,8.105,0,14.675-8.424,14.675-18.815,0-3.911-.932-7.542-2.525-10.551-3.619,2.89-8.398,6.118-14.428,8.853-4.451,2.019-8.622,3.332-12.253,4.205Z"/><path class="cls-12" d="M305.106,187.357c-5.2-2.358-9.463-5.084-12.865-7.644-.954,2.354-1.501,5.059-1.501,7.94,0,9.065,5.377,16.413,12.009,16.413,5.841,0,10.703-5.701,11.782-13.253-2.914-.833-6.087-1.943-9.425-3.456Z"/></g></g><path class="cls-3" d="M209.947,336.218l-10.291-3.587c-13.77-7.007-3.584-20.808,4.259-38.267l10.167-22.631c9.373-20.997,20.307-38.064,26.56-35.682h0c6.253,2.382,3.105,21.614-3.916,44.31l-7.096,23.176c-5.309,17.339-6.147,33.982-19.684,32.682Z"/><g><path class="cls-4" d="M286.645,384.447c-1.056,11.72-1.993,21.108,10.272,22.552l12.487-.796c15.495-2.564,12.471-13.523,10.006-27.203-9.13,3.009-20.319,5.449-32.764,5.447Z"/><g class="cls-2"><path class="cls-6" d="M313.819,395.902l-12.487,.796c-8.407-.99-10.611-5.712-10.825-12.36-1.512,.072-3.045,.11-4.597,.11-1.056,11.72-1.993,21.108,10.272,22.552l12.487-.796c9.353-1.548,11.954-6.158,12.008-12.575-1.725,1.025-3.969,1.795-6.858,2.273Z"/></g></g></svg>