<?xml version="1.0" encoding="UTF-8"?><svg id="Full" xmlns="http://www.w3.org/2000/svg" viewBox="0 0 512 512"><defs><style>.cls-1{fill:#369;}.cls-2{opacity:.5;}.cls-3{stroke:#996;}.cls-3,.cls-4{stroke-linecap:round;stroke-linejoin:round;stroke-width:8px;}.cls-3,.cls-5{fill:#ffc;}.cls-6{fill:#663;}.cls-4{fill:#993;stroke:#663;}.cls-7{stroke:#336;}.cls-7,.cls-8{fill:#69c;stroke-miterlimit:10;stroke-width:6px;}.cls-9{fill:#c00;}.cls-10{fill:#996;}.cls-11{fill:#036;}.cls-12{fill:#cc9;}.cls-8{stroke:#036;}</style></defs><g id="Idle"><g><path class="cls-3" d="M223.34,407.79l-20.53-1.1c-28.81-3.63-19.01-19.52-15.6-38.44l4.42-24.52c3.99-22.74,13.15-42,25.75-41.13h0c12.6,.87,18.64,20.42,19.88,44.27l1.39,24.34c1.04,18.21,9.64,34.69-15.3,36.59Z"/><path class="cls-3" d="M266.03,408.05l17.35-.93c24.31-3.4,15.81-19.35,12.66-38.28l-4.07-24.54c-3.69-22.75-11.69-42.07-22.33-41.31h0c-10.64,.76-15.48,20.25-16.2,44.07l-.84,24.31c-.63,18.19-7.67,34.58,13.44,36.68Z"/></g><path class="cls-3" d="M289.22,327.53h-99.22l11.77-52c4.73-29,15.15-52,42.55-52h0c27.4,0,28.37,25,34.98,54l9.91,50Z"/><g><path class="cls-8" d="M185.56,369.66l12.93-8.6,11.73,9.93,8.9-13.4,17.03,12.25,5.73-10.55-4.72-30.99c-2.4-13.02-9.96-24.25-22.1-24.18h0c-12.13,.06-19.15,10.94-21.84,24.42l-7.66,41.13Z"/><path class="cls-1" d="M223.91,305.85c-2.36-1.13-4.97-1.76-7.85-1.74h0c-12.13,.06-19.15,10.94-21.84,24.42l-7.66,41.13,12.93-8.6,4.74,4.01,9.99-39.54c1.61-8.09,4.79-15.24,9.69-19.68Z"/><path class="cls-11" d="M181.88,375.95l8.96-48.11c3.39-17.02,12.42-26.8,24.77-26.87,.04,0,.08,0,.12,0,12.37,0,21.92,10.2,24.94,26.64l4.89,32.08-7.83,14.43-17.26-12.42-9.04,13.62-12.58-10.65-16.97,11.28Zm17.4-18.78l10.88,9.21,8.76-13.19,16.79,12.08,3.62-6.67-4.57-29.99c-1.92-10.42-7.94-21.64-19.03-21.64-.03,0-.06,0-.09,0-13.13,.07-17.6,15.41-18.91,22l-6.35,34.12,8.9-5.92Z"/></g><g><path class="cls-8" d="M252.45,351.55l1.45,12.52,11.02-11.08,11.99,9.47,4.02-13.44,17.98,11.04-2.98-15.8-4.79-20.04c-2.39-10.84-9.94-20.19-22.07-20.12h0c-12.13,.06-19.16,9.13-21.86,20.36l5.24,27.09Z"/><path class="cls-1" d="M267.93,305.07c-2.47,.34-5.01,1.11-7.58,2.41h0c-10.83,5.47-13.64,15.54-11.74,25.33l6.27,29.63,8.82-11.27,11.28,6.81-9.45-36.03c-1.14-5.87-.58-11.85,2.39-16.87Z"/><path class="cls-11" d="M251.07,370.84l-2.16-18.59-5.35-27.62,.15-.63c3.44-14.33,12.47-22.59,24.76-22.66,.04,0,.09,0,.13,0,12.12,0,21.88,8.81,24.89,22.48l4.81,20.13,4.23,22.46-20.43-12.55-4.17,13.93-13.35-10.55-13.52,13.59Zm-1.37-46.06l5.15,26.66,.74,6.34,8.51-8.56,10.62,8.39,3.87-12.94,15.54,9.54-1.71-9.07-4.78-19.97c-1.9-8.65-7.89-17.82-19.03-17.82-.04,0-.07,0-.11,0-12.36,.07-17.06,10.67-18.8,17.44Z"/></g><polygon class="cls-7" points="215.1 297.3 211.14 230.44 230.38 234.84 234.74 290.59 215.1 297.3"/><g><g><g><path class="cls-5" d="M208.15,179.78c-4.7-4.65-10.96-11.07-17.63-15.08-6.48,13.53-5.19,20.56-3.83,25.89,2.87,11.24,13.68,16.89,14.95,17.43"/><g><path class="cls-12" d="M193.78,200.43s.03,.03,.04,.04c-.01-.02-.03-.03-.04-.05,0,0,0,0,0,0Z"/><path class="cls-10" d="M194.35,201.09s0-.05,0-.08c-.17-.18-.35-.35-.52-.53,.18,.21,.35,.41,.53,.61Z"/><g><path class="cls-12" d="M189.99,182.56c.09-.07,.32-.24,.4-.31,.25-.14,.51-.28,.77-.41,1.97-.8,4.25-.53,6.34,.2-2.83-1.94-5.73-3.77-8.08-5.01-2.16,4.94-2.41,9.44-1.91,12.96-.28-2.82,.32-5.59,2.47-7.43Z"/><path class="cls-10" d="M206.39,190.19l.12-.74,.1-.63c-2.13-1.78-5.57-4.37-9.11-6.79-2.1-.72-4.37-.99-6.34-.2-.26,.13-.52,.27-.77,.41-.09,.07-.31,.24-.4,.31-2.15,1.84-2.75,4.61-2.47,7.43,.26,1.86,1.99,6.26,2.09,6.43,.05,.09,.11,.18,.16,.26,.04,.06,.08,.12,.12,.18-.72-3.84-1.13-9.09,2.05-11.61,2.32-1.57,5.58-.37,8.1,.84,2.36,1.15,4.44,2.76,6.27,4.59l.08-.5Z"/><path class="cls-12" d="M201.99,191.18c1.39,.57,2.68,1.33,3.86,2.21l.46-2.71c-1.83-1.83-3.91-3.45-6.27-4.59-2.52-1.21-5.79-2.41-8.1-.84-3.17,2.52-2.76,7.77-2.05,11.61,.14,.22,1.05,1.9,2.91,4.17-.33-1.55-.45-3.12-.28-4.68,.59-4.95,4.16-7.27,9.46-5.17Z"/><path class="cls-12" d="M203.06,208.49l2.27-11.81,.09-.58c-1.89-1.22-4.12-2.23-6.01-2.59-2.92-.53-4.25,1.76-4.78,4.1-.37,1.67-.4,3.42-.25,5.18,3.78,3.82,7.94,5.42,8.68,5.7Z"/><path class="cls-10" d="M199.41,193.51c1.88,.36,4.11,1.37,6.01,2.59l.28-1.82,.15-.88c-1.19-.89-2.47-1.64-3.86-2.21-5.31-2.11-8.87,.22-9.46,5.17-.18,1.56-.06,3.13,.28,4.68,.16,.2,.32,.39,.5,.6,.35,.41,.72,.8,1.08,1.16-.15-1.76-.12-3.51,.25-5.18,.53-2.34,1.86-4.63,4.78-4.1Z"/></g></g><path class="cls-10" d="M201.76,211.55c-3.41-1.43-13.79-8.07-16.7-19.45-1.57-6.16-2.69-13.9,4.03-27.92l1.42-2.97,2.83,1.7c6.47,3.89,12.36,9.73,17.09,14.43l1.1,1.09-4.22,4.27-1.11-1.1c-3.77-3.74-8.31-8.24-13.12-11.67-4.66,11.13-3.2,16.83-2.21,20.7,2.65,10.36,13.1,15.36,13.21,15.4l-2.32,5.53Z"/></g><g><path class="cls-5" d="M314.24,217.8c6.59-.54,15.51-1.44,23.2-.23-3.73,14.53-9.23,19.09-13.7,22.29-9.43,6.77-21.34,4.15-22.66,3.75"/><g><path class="cls-12" d="M311.98,242.86s-.04,0-.06,0c.02,0,.04,0,.07-.01,0,0,0,0,0,0Z"/><path class="cls-10" d="M311.12,242.99s.04-.04,.06-.06c.25-.03,.49-.04,.74-.07-.27,.04-.53,.09-.8,.13Z"/><g><path class="cls-12" d="M326.37,231.6c-.02-.11-.09-.39-.11-.5-.11-.27-.21-.54-.33-.81-1-1.88-2.91-3.13-4.99-3.93,3.42,.34,6.82,.79,9.41,1.35-1.52,5.17-4.22,8.78-6.87,11.16,2.03-1.98,3.35-4.49,2.88-7.28Z"/><path class="cls-10" d="M308.9,226.91l.38-.64,.33-.55c2.77,0,7.07,.23,11.34,.65,2.07,.79,3.99,2.05,4.99,3.93,.12,.27,.22,.54,.33,.81,.02,.11,.09,.38,.11,.5,.47,2.8-.86,5.3-2.88,7.28-1.39,1.25-5.55,3.52-5.74,3.58-.1,.03-.2,.07-.29,.1-.07,.02-.14,.04-.21,.06,3.02-2.48,6.7-6.24,5.89-10.21-.77-2.69-4.04-3.87-6.75-4.56-2.55-.64-5.18-.74-7.76-.51l.26-.43Z"/><path class="cls-12" d="M311.63,230.5c-1.43-.46-2.9-.7-4.38-.79l1.39-2.37c2.58-.23,5.21-.13,7.76,.51,2.71,.69,5.98,1.87,6.75,4.56,.81,3.97-2.88,7.73-5.89,10.21-.25,.07-2.02,.79-4.91,1.33,1.25-.97,2.35-2.1,3.22-3.41,2.72-4.17,1.49-8.25-3.93-10.04Z"/><path class="cls-12" d="M299.69,243.07l5.85-10.51,.3-.5c2.23,.28,4.59,.94,6.26,1.88,2.58,1.47,2.13,4.08,1.03,6.21-.79,1.52-1.89,2.88-3.14,4.13-5.35,.5-9.57-.95-10.31-1.21Z"/><path class="cls-10" d="M312.11,233.94c-1.67-.94-4.03-1.59-6.26-1.88l.95-1.58,.45-.77c1.48,.08,2.95,.33,4.38,.79,5.42,1.79,6.66,5.87,3.93,10.04-.87,1.31-1.97,2.44-3.22,3.41-.25,.05-.5,.1-.77,.14-.54,.09-1.06,.15-1.58,.2,1.24-1.26,2.35-2.61,3.14-4.13,1.1-2.13,1.55-4.74-1.03-6.21Z"/></g></g><path class="cls-10" d="M298.72,246.25c3.53,1.09,15.75,2.68,25.29-4.17,5.16-3.71,10.99-8.92,14.86-23.99l.82-3.2-3.26-.51c-7.46-1.18-15.72-.48-22.36,.07l-1.55,.13,.49,5.98,1.56-.13c5.29-.44,11.66-.98,17.55-.52-3.58,11.52-8.36,14.95-11.61,17.28-8.69,6.24-19.91,3.35-20.02,3.32l-1.78,5.73Z"/></g></g><path class="cls-3" d="M323.34,187.53s12.34-41.25-31.43-59.37c-58.84-24.35-79.65,25.48-79.84,25.97-.63,1.59-10.57,48.91-9.54,72.81,3.81,6.77,9.05,14.74,16.2,22.92,9.56,10.92,19.36,18.57,27.18,23.76,7.23-.54,18.71-2.32,31.22-8.58,9.24-4.63,16-10.18,20.52-14.54,9.31-20.69,17.37-41.88,25.68-62.97Z"/><path class="cls-12" d="M207.91,184.46c1.16,.07-1.4,12.18,6.73,23.34,7.8,10.71,21.42,15.05,20.94,16.07-.46,.96-12.11,2.54-15.77-.21-1.26,2.83,2.78,12.87,4.75,16.81,9.42,18.84,22.94,28.65,22.44,29.18-.63,.68-26.92-10.9-38.34-37.36-10.59-24.54-2.37-47.91-.75-47.82Z"/><path class="cls-12" d="M256.19,145.73c-1.37,1.38-3.47,3.23-6.36,4.89-3.96,2.27-7.43,3.03-10.01,3.58-2.67,.57-6.52,1.11-11.21,.83,.24,.55,3.27,7.28,10.7,8.65,8.2,1.51,13.68-5,13.9-5.27,4.39-5.4,3.16-11.81,2.97-12.67Z"/><g><path class="cls-9" d="M241.17,199.09c-4.81,9.77-2.82,20.59,4.45,24.17,7.27,3.58,17.07-1.43,21.88-11.2,.08-.17,.15-.35,.23-.52-10.37-5.31-17.48-12.59-22.13-18.83-1.71,1.79-3.23,3.94-4.43,6.38Z"/><path class="cls-9" d="M285.26,233.33c6.5,1.34,13.32-5.11,15.24-14.41,.52-2.51,.61-4.96,.37-7.24-6.51,2.28-14.71,4.02-24.09,3.57-1.38,8.84,2.26,16.8,8.48,18.09Z"/></g><path class="cls-12" d="M311.85,165.38c.05,1.53,.26,3.73,1.04,6.24,1.07,3.44,2.66,5.75,3.85,7.45,1.24,1.76,3.17,4.15,6.02,6.51-.43,.19-5.81,2.44-10.83-.77-5.54-3.54-5.2-10.25-5.18-10.52,.37-5.48,4.54-8.51,5.1-8.91Z"/><path class="cls-10" d="M244.45,277.34c-.26-.1-.51-.23-.74-.39-10.39-6.89-19.8-15.12-27.98-24.46-6.34-7.24-11.95-15.18-16.68-23.59-.31-.55-.48-1.16-.51-1.79-1.04-24.32,8.95-72.24,9.82-74.45,.08-.21,8.62-21.32,30.93-30.8,15.68-6.66,33.89-5.81,54.16,2.6,46.56,19.27,33.86,63.76,33.73,64.21-.03,.11-.07,.22-.11,.32-1.38,3.51-2.76,7.02-4.14,10.54-6.79,17.34-13.82,35.27-21.62,52.61-.21,.46-.5,.88-.87,1.24-6.38,6.16-13.62,11.29-21.51,15.24-10.22,5.12-21.23,8.14-32.72,8.99-.6,.04-1.21-.05-1.76-.27Zm-37.96-51.52c4.36,7.62,9.49,14.82,15.25,21.4,7.41,8.46,15.89,15.96,25.24,22.29,9.95-.9,19.49-3.61,28.37-8.06,6.94-3.47,13.32-7.95,18.98-13.31,7.59-16.94,14.48-34.52,21.15-51.53,1.36-3.46,2.71-6.92,4.07-10.37,.83-2.98,9.76-38.27-29.16-54.38-22.88-9.45-42.27-8.47-57.68,2.95-11.22,8.32-16.31,19.42-16.88,20.71-1.16,4.15-10.01,47.69-9.34,70.31Z"/></g><g><polygon class="cls-8" points="296.43 335.51 234.98 339.97 229.98 322.97 221.58 337.97 187.43 337.97 196.43 281.51 248.98 279.97 259.98 294.97 267.67 279.16 287.43 278.51 296.43 335.51"/><polygon class="cls-1" points="198.43 281.51 189.43 335.51 214.43 335.51 223.11 280.69 198.43 281.51"/><path class="cls-11" d="M232.81,343.1l-3.67-12.48-5.78,10.32h-39.42l9.94-62.39,56.61-1.65,8.99,12.26,6.3-12.97,24.22-.8,9.92,62.84-67.11,4.88Zm-1.94-27.85l6.33,21.52,55.78-4.05-8.08-51.16-15.3,.5-9.07,18.66-13.01-17.74-48.5,1.42-8.06,50.54h28.88l11.03-19.68Z"/></g><path class="cls-3" d="M261.22,243.89l-6.72,13.26c-8.41,19.22,2.78,17.72,13.18,21.15l13.49,4.44c12.47,4.18,25.07,4.08,29.1-4.11h0c4.03-8.19-3.34-17.76-14.5-25.56l-11.34-8.04c-8.49-6.02-13.46-16.28-23.19-1.13Z"/><path class="cls-3" d="M263.25,240.49l5.88,13.65c7.02,19.78-5.42,18.13-17.61,21.53l-15.8,4.41c-14.62,4.16-28.83,3.93-32.32-4.51h0c-3.49-8.44,6.07-18.16,19.68-26.04l13.85-8.12c10.36-6.08,17.3-16.55,26.34-.93Z"/><g><path class="cls-4" d="M251.27,382.19c-1.57,15.47-2.97,27.87,15.28,29.78l18.58-1.05c23.05-3.39,18.55-17.86,14.89-35.92-13.58,3.97-30.23,7.2-48.75,7.19Z"/><g class="cls-2"><path class="cls-6" d="M291.69,397.32l-18.58,1.05c-12.51-1.31-15.79-7.54-16.11-16.32-2.25,.1-4.53,.15-6.84,.14-1.57,15.47-2.97,27.87,15.28,29.78l18.58-1.05c13.92-2.04,17.79-8.13,17.87-16.6-2.57,1.35-5.9,2.37-10.2,3Z"/></g></g></g></svg>