<svg xmlns="http://www.w3.org/2000/svg" xmlns:xlink="http://www.w3.org/1999/xlink" viewBox="0 0 295 295"><defs><style>.a{fill:none;}.b{clip-path:url(#a);}.c{fill:#666;}.d{fill:url(#b);}</style><clipPath id="a"><rect class="a" width="295" height="295"/></clipPath><linearGradient id="b" x1="-147.56" y1="-193.3" x2="-147.56" y2="590" gradientUnits="userSpaceOnUse"><stop offset="0" stop-color="#666" stop-opacity="0"/><stop offset="1"/></linearGradient></defs><title>env</title><g class="b"><polygon class="c" points="253 92 253 -94.98 241.57 -122 266.13 -180.15 289.37 -122.04 279 -95.07 279 92 253 92"/><path d="M266-167l18,45q-5,13-10,26V87H258V-96l-11-26,19-45m.25-26.3-9.46,22.41-9.5,22.5-9.5,22.5L236.14-122l1.65,3.9,5.5,13L248-94V97h36V-94.14l4.33-11.27,5-13,1.41-3.66-1.46-3.64-18-45-9-22.59Z"/><polygon class="c" points="253 189 253 2.02 241.57 -25 266.13 -83.15 289.37 -25.04 279 1.93 279 189 253 189"/><path d="M266-70l18,45q-5,13-10,26V184H258V1L247-25l19-45m.25-26.3-9.46,22.41-9.5,22.5-9.5,22.5L236.14-25l1.65,3.9,5.5,13L248,3V194h36V2.86l4.33-11.27,5-13,1.41-3.66-1.46-3.64-18-45-9-22.59Z"/><polygon class="c" points="253 286 253 99.02 241.57 72 266.13 13.85 289.37 71.96 279 98.93 279 286 253 286"/><path d="M266,27l18,45q-5,13-10,26V281H258V98L247,72l19-45M266.25.7l-9.46,22.41-9.5,22.5-9.5,22.5L236.14,72l1.65,3.9,5.5,13L248,100V291h36V99.86l4.33-11.27,5-13,1.41-3.66-1.46-3.64-18-45L266.25.7Z"/><polygon class="c" points="253 383 253 196.01 241.57 169 266.13 110.85 289.37 168.96 279 195.93 279 383 253 383"/><path d="M266,124l18,45q-5,13-10,26V378H258V195l-11-26,19-45m.25-26.3-9.46,22.41-9.5,22.5-9.5,22.5L236.14,169l1.65,3.9,5.5,13L248,197V388h36V196.86l4.33-11.27,5-13,1.41-3.66-1.46-3.64-18-45-9-22.59Z"/><polygon class="c" points="253 480 253 293.01 241.57 266 266.13 207.85 289.37 265.96 279 292.93 279 480 253 480"/><path d="M266,221l18,45q-5,13-10,26V475H258V292l-11-26,19-45m.25-26.3-9.46,22.41-9.5,22.5-9.5,22.5L236.14,266l1.65,3.9,5.5,13L248,294V485h36V293.86l4.33-11.27,5-13,1.41-3.66-1.46-3.64-18-45-9-22.59Z"/><path class="d" d="M288.33-8.41l5-13,1.41-3.66-1.46-3.64L284-51.93V-94.14l4.33-11.27,5-13,1.41-3.66-1.46-3.64-18-45-9-22.59-9.46,22.41-9.5,22.5-9.5,22.5L236.14-122l1.65,3.9,5.5,13L248-94v40.89l-.71,1.69-9.5,22.5L236.14-25l1.65,3.9,5.5,13L248,3V43.92l-.71,1.69-9.5,22.5L236.14,72l1.65,3.9,5.5,13L248,100v40.89l-.71,1.69-9.5,22.5L236.14,169l1.65,3.9,5.5,13L248,197v40.89l-.71,1.69-9.5,22.5L236.14,266l1.65,3.9,5.5,13L248,294v48.89l-.71,1.69-9.5,22.5L236.14,371l1.65,3.9,5.5,13L248,399v28H225V398.86l4.33-11.27,5-13,1.41-3.66-1.46-3.64-18-45-9-22.59-9.46,22.41-9.5,22.5-9.5,22.5L177.14,371l1.65,3.9,5.5,13L189,399v28H166V398.86l4.33-11.27,5-13,1.41-3.66-1.46-3.64-18-45-9-22.59-9.46,22.41-9.5,22.5-9.5,22.5L118.14,371l1.65,3.9,5.5,13L130,399v28H107V398.86l4.33-11.27,5-13,1.41-3.66-1.46-3.64-18-45-9-22.59-9.46,22.41-9.5,22.5-9.5,22.5L59.14,371l1.65,3.9,5.5,13L71,399v28H48V398.86l4.33-11.27,5-13,1.41-3.66-1.46-3.64-18-45-9-22.59-9.46,22.41-9.5,22.5-9.5,22.5L.14,371l1.65,3.9,5.5,13L12,399v28H-11V398.86l4.33-11.27,5-13,1.41-3.66-1.46-3.64-18-45-9-22.59-9.46,22.41-9.5,22.5-9.5,22.5L-58.86,371l1.65,3.9,5.5,13L-47,399v28H-70V398.86l4.33-11.27,5-13,1.41-3.66-1.46-3.64-18-45-9-22.59-9.46,22.41-9.5,22.5-9.5,22.5-1.65,3.89,1.65,3.9,5.5,13L-106,399v28h-23V398.86l4.33-11.27,5-13,1.41-3.66-1.46-3.64-18-45-9-22.59-9.46,22.41-9.5,22.5-9.5,22.5-1.65,3.89,1.65,3.9,5.5,13L-165,399v28h-23V398.86l4.33-11.27,5-13,1.41-3.66-1.46-3.64-18-45-9-22.59-9.46,22.41-9.5,22.5-9.5,22.5-1.65,3.89,1.65,3.9,5.5,13L-224,399v28h-23V398.86l4.33-11.27,5-13,1.41-3.66-1.46-3.64-18-45-9-22.59-9.46,22.41-9.5,22.5-9.5,22.5-1.65,3.89,1.65,3.9,5.5,13L-283,399v28h-23V398.86l4.33-11.27,5-13,1.41-3.66-1.46-3.64-18-45-9-22.59-9.46,22.41-9.5,22.5-9.5,22.5-1.65,3.89,1.65,3.9,5.5,13L-342,399v28h-23V398.86l4.33-11.27,5-13,1.41-3.66-1.46-3.64-18-45-9-22.59-9.46,22.41-9.5,22.5-9.5,22.5-1.65,3.89,1.65,3.9,5.5,13L-401,399v28h-23V398.86l4.33-11.27,5-13,1.41-3.66-1.46-3.64-18-45-9-22.59-9.46,22.41-9.5,22.5-9.5,22.5-1.65,3.89,1.65,3.9,5.5,13L-460,399v28h-23V398.86l4.33-11.27,5-13,1.41-3.66-1.46-3.64-18-45-9-22.59-9.46,22.41-9.5,22.5-9.5,22.5-1.65,3.89,1.65,3.9,5.5,13L-519,399v28h-23V398.86l4.33-11.27,5-13,1.41-3.66-1.46-3.64L-542,344.07V293.86l4.33-11.27,5-13,1.41-3.66-1.46-3.64L-542,239.07V196.86l4.33-11.27,5-13,1.41-3.66-1.46-3.64L-542,142.07V99.86l4.33-11.27,5-13,1.41-3.66-1.46-3.64L-542,45.07V2.86l4.33-11.27,5-13,1.41-3.66-1.46-3.64L-542-51.93V-94.14l4.33-11.27,5-13,1.41-3.66-1.46-3.64-18-45-9-22.59-9.46,22.41-9.5,22.5-9.5,22.5-1.65,3.89,1.65,3.9,5.5,13L-578-94v40.89l-.71,1.69-9.5,22.5L-589.86-25l1.65,3.9,5.5,13L-578,3V43.92l-.71,1.69-9.5,22.5L-589.86,72l1.65,3.9,5.5,13L-578,100v40.89l-.71,1.69-9.5,22.5-1.65,3.89,1.65,3.9,5.5,13L-578,197v40.89l-.71,1.69-9.5,22.5-1.65,3.89,1.65,3.9,5.5,13L-578,294v48.89l-.71,1.69-9.5,22.5-1.65,3.89,1.65,3.9,5.5,13L-578,399V590h36V558h23v32h36V558h23v32h36V558h23v32h36V558h23v32h36V558h23v32h36V558h23v32h36V558h23v32h36V558h23v32h36V558h23v32h36V558H12v32H48V558H71v32h36V558h23v32h36V558h23v32h36V558h23v32h36V398.86l4.33-11.27,5-13,1.41-3.66-1.46-3.64L284,344.07V293.86l4.33-11.27,5-13,1.41-3.66-1.46-3.64L284,239.07V196.86l4.33-11.27,5-13,1.41-3.66-1.46-3.64L284,142.07V99.86l4.33-11.27,5-13,1.41-3.66-1.46-3.64L284,45.07V2.86ZM248,485v44H225V456h23v29Zm-790-10V456h23v73h-23V475Zm59-19h23v73h-23Zm59,0h23v73h-23Zm59,0h23v73h-23Zm59,0h23v73h-23Zm59,0h23v73h-23Zm59,0h23v73h-23Zm59,0h23v73h-23Zm59,0h23v73H-70Zm59,0H12v73H-11Zm59,0H71v73H48Zm59,0h23v73H107Zm59,0h23v73H166Z"/></g></svg>