<svg xmlns="http://www.w3.org/2000/svg" xmlns:xlink="http://www.w3.org/1999/xlink" viewBox="0 0 512 512"><defs><style>.cls-1{fill:#033;opacity:0.7;}.cls-2{fill:#605030;}.cls-3,.cls-6,.cls-9{fill:none;stroke-linecap:round;stroke-linejoin:round;}.cls-3{stroke:#352913;}.cls-3,.cls-9{stroke-width:10px;}.cls-4{fill:#887040;}.cls-5{fill:#b28330;}.cls-6{stroke:#755014;stroke-width:13px;}.cls-7{fill:#352913;}.cls-8{fill:#285830;}.cls-9{stroke:#030;}.cls-10{fill:#527c58;}.cls-11{fill:#c33;stroke:#900;stroke-miterlimit:10;stroke-width:6px;}.cls-12{fill:url(#linear-gradient);}</style><linearGradient id="linear-gradient" x1="253.07" y1="91.58" x2="253.07" y2="433.52" gradientUnits="userSpaceOnUse"><stop offset="0.1" stop-color="gray" stop-opacity="0"/><stop offset="1"/></linearGradient></defs><title>env</title><g id="tree"><ellipse class="cls-1" cx="250.04" cy="344.51" rx="143.25" ry="108.51"/><polygon class="cls-2" points="193.12 308.35 174.57 321.14 168.31 334.3 159.88 345.74 184.66 354.21 190.14 365.63 184.51 378.16 178.53 391.1 182 401.73 199.01 398.94 216.97 394.65 226.54 388.65 234.92 401.55 241.44 415.74 249.84 428.52 259.98 414.99 268.89 399.88 278.67 387.07 290.26 395.88 305.57 401.81 322.22 405.26 323.49 390.15 317.35 376.48 306.34 365.33 316.03 358.78 321.73 355.85 340.08 354.75 336.73 340.76 328.24 329.21 316.51 318.63 300.8 311.61 313.61 300.96 323.18 289.45 326.25 275.37 309.69 276.24 293.21 278.02 272 279.03 261.04 261.65 249.43 247.75 233.15 257.21 226.82 277.86 212.13 274.91 197.43 272.58 172.62 269.47 174.42 284.16 184.06 294.79 193.12 308.35"/><polygon class="cls-3" points="193.12 308.35 174.57 321.14 168.31 334.3 159.88 345.74 184.66 354.21 190.14 365.63 184.51 378.16 178.53 391.1 182 401.73 199.01 398.94 216.97 394.65 226.54 388.65 234.92 401.55 241.44 415.74 249.84 428.52 259.98 414.99 268.89 399.88 278.67 387.07 290.26 395.88 305.57 401.81 322.22 405.26 323.49 390.15 317.35 376.48 306.34 365.33 316.03 358.78 321.73 355.85 340.08 354.75 336.73 340.76 328.24 329.21 316.51 318.63 300.8 311.61 313.61 300.96 323.18 289.45 326.25 275.37 309.69 276.24 293.21 278.02 272 279.03 261.04 261.65 249.43 247.75 233.15 257.21 226.82 277.86 212.13 274.91 197.43 272.58 172.62 269.47 174.42 284.16 184.06 294.79 193.12 308.35"/><polygon class="cls-4" points="241.84 403.16 249.01 416 250.87 397.07 261.63 383.21 246.32 376.93 243.84 354.84 237.67 367.27 231.63 380.37 241.84 403.16"/><polygon class="cls-4" points="185.83 390.3 195.85 373.66 206.31 363.17 208.33 348.9 210.28 334.8 211.04 350.94 213.15 366.92 226.69 378.45 205.79 378.51 185.83 390.3"/><polygon class="cls-4" points="286.09 378.81 293.85 368.35 295.49 351.74 297.99 365.69 313.88 380.81 317.8 395.34 305.86 384.19 286.09 378.81"/><polygon class="cls-4" points="277.83 330.23 285.05 352.86 281.73 366.89 278.92 380.74 275.75 367.76 279.27 354.07 277.83 330.23"/><polygon class="cls-4" points="227.78 370.85 224.98 349.48 227.79 342.52 231.63 328.28 234.33 352.9 229.86 356.35 227.78 370.85"/><polygon class="cls-4" points="260.9 375.42 258.94 363.76 264.66 349.48 260.69 328.41 269.82 347.19 267.85 360.95 265.81 373.47 260.9 375.42"/><polygon class="cls-4" points="248.79 329.1 246.54 342.62 249.72 365.54 252.75 350.63 251.75 338.69 248.79 329.1"/><polygon class="cls-4" points="331.04 347.33 324.07 330 311.14 324.09 298.32 318.05 316.04 332.32 311.54 340.23 319.38 335.94 331.04 347.33"/><polygon class="cls-4" points="197.02 318.01 186.98 318.28 179.07 323.9 175.34 332.28 170.32 343 183.61 331.33 197.02 318.01"/><polygon class="cls-4" points="177.14 275.2 197.2 278.57 220.91 280.93 197.06 283.51 203.53 289.19 191.69 285.29 193.81 294.58 177.14 275.2"/><polygon class="cls-4" points="232.09 277.47 237.25 263.84 248.14 253.17 248.13 258.64 249.75 275.43 251.46 258.93 262.75 275.28 262.99 283.34 251.44 285.06 232.09 277.47"/><polygon class="cls-4" points="280.16 285.08 298.33 282.5 296.59 287.42 305.8 282.9 322.37 280.26 310.04 285.75 299.63 297.96 308.16 294.79 294.88 303.25 279.77 298.2 288.95 291.79 280.16 285.08"/><polygon class="cls-5" points="313.53 323.2 301.95 350.89 277.85 367.15 249.75 378.99 221.56 367.35 197.72 350.77 187.02 323.2 194.88 293.56 218.89 273.22 249.75 269.11 280.35 273.77 300.02 296.92 313.53 323.2"/><polygon class="cls-3" points="313.53 323.2 301.95 350.89 277.85 367.15 249.75 378.99 221.56 367.35 197.72 350.77 187.02 323.2 194.88 293.56 218.89 273.22 249.75 269.11 280.35 273.77 300.02 296.92 313.53 323.2"/><polygon class="cls-6" points="303.29 323.2 295.16 340.78 279.54 349.23 266.01 359.14 249.18 355.3 232.81 357.52 219.48 348.26 203.78 340.43 198.7 323.2 206.17 307.41 217.37 295.11 232.37 287.37 249.18 279.92 264.6 292.1 279.25 297.58 291.42 307.87 303.29 323.2"/><polygon class="cls-6" points="283.01 323.2 269.28 341.91 249.18 342.35 230.43 339.97 227.07 323.2 231.39 307.82 249.18 305.24 268.89 305.05 283.01 323.2"/><polygon class="cls-7" points="248.6 306.63 252.6 318.06 269.74 323.2 252.6 324.92 250.68 334.63 247.46 323.2 229.75 324.34 246.32 318.06 248.6 306.63"/><path class="cls-8" d="M413.84,177.12c10.48,27,11.36,58.39,5.56,85.45-5.77,26.88-17.25,56.83-36.37,78.24-17.93,20.08-43.2,41.36-70.58,52s-58.92-2.38-85.7-5.12c-28.56-2.92-58.85-2.76-81.23-18.72C123,352.88,97,331.1,86.51,304.07s6.89-57.88,12.69-84.94C105,192.25,107,162.4,126.1,141c17.93-20.08,48.72-21.86,76.09-32.47s49.65-13.71,76.42-11c28.57,2.91,60.62-5,83,10.93C384.13,124.54,403.36,150.09,413.84,177.12Z"/><path class="cls-9" d="M413.84,177.12c10.48,27,11.36,58.39,5.56,85.45-5.77,26.88-17.25,56.83-36.37,78.24-17.93,20.08-43.2,41.36-70.58,52s-58.92-2.38-85.7-5.12c-28.56-2.92-58.85-2.76-81.23-18.72C123,352.88,97,331.1,86.51,304.07s6.89-57.88,12.69-84.94C105,192.25,107,162.4,126.1,141c17.93-20.08,48.72-21.86,76.09-32.47s49.65-13.71,76.42-11c28.57,2.91,60.62-5,83,10.93C384.13,124.54,403.36,150.09,413.84,177.12Z"/><path class="cls-10" d="M389.5,169.81c8.67,22.37,9.17,48.47,4,70.93-5.07,22.1-14.93,46.82-31.09,64.47-15,16.43-36,33.92-58.76,42.73s-49-1.91-71.14-3.91c-23.84-2.14-49-1.59-67.62-14.49-19-13.11-40.79-31.08-49.46-53.44s6-47.9,11.19-70.36c5.07-22.1,7-46.86,23.18-64.51,15-16.43,40.68-17.65,63.41-26.47s41.26-11.52,63.44-9.53c23.84,2.14,50.37-4.94,69,8C364.64,126.31,380.82,147.44,389.5,169.81Z"/><path class="cls-8" d="M362.78,165c10,25.88,6.27,56.54-6.64,80.55-12.07,22.43-33.44,44.84-60.29,55.25s-59.13,12.21-83.16,3.78c-25.72-9-40.67-35.82-50.71-61.7S148.44,189,161.35,165c12.06-22.42,32.76-46.87,59.61-57.29s55.82,1.68,79.85,10.11C326.53,126.82,352.74,139.08,362.78,165Z"/><path class="cls-10" d="M329.52,153c7.3,18.81,4.56,41.1-4.82,58.55-8.77,16.3-24.31,32.58-43.82,40.15s-43,8.87-60.44,2.75c-18.69-6.56-29.56-26-36.85-44.85s-9.85-39.14-.46-56.59c8.76-16.3,23.81-34.06,43.32-41.63s40.57,1.22,58,7.34C303.18,125.26,322.23,134.18,329.52,153Z"/><circle class="cls-11" cx="322.5" cy="330.5" r="19.5"/><circle class="cls-11" cx="146.5" cy="231.5" r="15.5"/><circle class="cls-11" cx="350" cy="191" r="12"/><circle class="cls-11" cx="170.72" cy="188.16" r="9.28"/><circle class="cls-11" cx="206" cy="345" r="12"/><path class="cls-12" d="M418.5,175.31h0c-10.88-28.05-31.06-54.56-54-70.91-16.72-11.93-38-11.58-58.55-11.25-8.95.15-18.2.3-26.84-.59-27.91-2.85-50.72.42-78.73,11.28-8.24,3.2-17,5.62-25.42,8-19.29,5.35-39.24,10.89-52.6,25.85-16.48,18.45-20.87,42.23-25.11,65.23-.93,5-1.89,10.24-3,15.2-1.57,7.33-4,14.92-6.6,23-6.91,21.5-14,43.73-5.87,64.84C93.27,335.35,122,358.31,142.62,373c9.76,7,20.83,11,32.48,13.58L174,389a5,5,0,0,0-.21,3.65l3.47,10.63a5,5,0,0,0,5.57,3.38l17-2.8.35-.07,18-4.29a4.81,4.81,0,0,0,1.5-.62l5.4-3.39,5.5,8.46,6.37,13.87a4.63,4.63,0,0,0,.36.65l8.4,12.78a5,5,0,0,0,4,2.26h.15a5,5,0,0,0,4-2L264,418a5.27,5.27,0,0,0,.31-.46l8.76-14.85,1.29-1.69a117,117,0,0,0,14.2.94q1.68,0,3.33-.06l11.89,4.6a5.29,5.29,0,0,0,.8.24l16.65,3.44a5,5,0,0,0,6-4.48L328.43,391c26.46-13.82,47.36-34.58,58.33-46.86,23.2-26,33.47-61.6,37.53-80.52C430.73,233.58,428.62,201.4,418.5,175.31Z"/></g></svg>