<svg xmlns="http://www.w3.org/2000/svg" xmlns:xlink="http://www.w3.org/1999/xlink" viewBox="0 0 512 512"><defs><style>.cls-1{fill:#033;opacity:0.7;}.cls-2{fill:#605030;}.cls-3,.cls-6{fill:none;stroke-linecap:round;stroke-linejoin:round;}.cls-3{stroke:#352913;stroke-width:10px;}.cls-4{fill:#887040;}.cls-5{fill:#b28330;}.cls-6{stroke:#755014;stroke-width:13px;}.cls-7{fill:#352913;}.cls-8{fill:url(#linear-gradient);}</style><linearGradient id="linear-gradient" x1="259.34" y1="95.85" x2="259.34" y2="424.04" gradientUnits="userSpaceOnUse"><stop offset="0.1" stop-color="gray" stop-opacity="0"/><stop offset="1"/></linearGradient></defs><title>env</title><g id="tree"><ellipse class="cls-1" cx="261.22" cy="296" rx="188.78" ry="143"/><polygon class="cls-2" points="159.88 207.99 143.33 218.96 129.06 231.94 119.08 245.1 111.4 260.35 99.67 274.38 115.62 278.54 129.39 285.4 145.33 288.5 158.12 307.28 145.57 321.24 138.91 336.63 138.13 353.5 140.56 372.06 154.76 369.93 170.32 367.18 185.36 362.65 198.78 355.19 219.08 347.29 226.17 358.81 229.14 372.28 238.99 388.41 247.63 405.13 259.12 419.04 273.49 404.98 284.13 387.12 294.35 369.12 310.64 350.54 331.99 358.66 347.32 369.5 366.26 372.81 386.91 378.06 390.46 350.72 383.56 333.86 369.49 322.3 358.18 307.58 372.31 292.92 384.97 290.8 400.82 286.87 419.02 290.57 411.06 273.63 406.91 257.55 401.29 241.67 384.39 230.56 368.77 218.67 348.31 214.11 361.83 205.84 366.32 192.44 378.7 178.8 389.83 165.48 391.2 153.5 373.34 151.2 354.58 153.86 335.25 156.57 316.53 151.8 297.95 156.49 289.19 139.74 279.58 125.75 270.8 111.18 258.65 100.85 245.92 109.95 231.68 119.76 226.93 137.53 218.63 155.64 201.47 154.18 184.4 149.2 166.75 149.57 145.07 146.28 122.67 137.88 128.39 156.36 130.57 173.72 142.74 186.44 155.4 193.15 159.88 207.99"/><polygon class="cls-3" points="159.88 207.99 143.33 218.96 129.06 231.94 119.08 245.1 111.4 260.35 99.67 274.38 115.62 278.54 129.39 285.4 145.33 288.5 158.12 307.28 145.57 321.24 138.91 336.63 138.13 353.5 140.56 372.06 154.76 369.93 170.32 367.18 185.36 362.65 198.78 355.19 219.08 347.29 226.17 358.81 229.14 372.28 238.99 388.41 247.63 405.13 259.12 419.04 273.49 404.98 284.13 387.12 294.35 369.12 310.64 350.54 331.99 358.66 347.32 369.5 366.26 372.81 386.91 378.06 390.46 350.72 383.56 333.86 369.49 322.3 358.18 307.58 372.31 292.92 384.97 290.8 400.82 286.87 419.02 290.57 411.06 273.63 406.91 257.55 401.29 241.67 384.39 230.56 368.77 218.67 348.31 214.11 361.83 205.84 366.32 192.44 378.7 178.8 389.83 165.48 391.2 153.5 373.34 151.2 354.58 153.86 335.25 156.57 316.53 151.8 297.95 156.49 289.19 139.74 279.58 125.75 270.8 111.18 258.65 100.85 245.92 109.95 231.68 119.76 226.93 137.53 218.63 155.64 201.47 154.18 184.4 149.2 166.75 149.57 145.07 146.28 122.67 137.88 128.39 156.36 130.57 173.72 142.74 186.44 155.4 193.15 159.88 207.99"/><polygon class="cls-4" points="245.16 373.97 258.37 396.38 260.02 380.05 259.83 362.89 270.01 350.92 279.53 339.11 266.91 332.74 253.8 327.57 250.94 308.52 248.81 289.59 241.4 303.67 234.47 318.7 227.77 334.01 236.78 353.92 245.16 373.97"/><polygon class="cls-4" points="147.02 351.48 153.21 335.68 165.02 322.88 183 303.97 185.8 287.38 188.63 270.79 190.61 253.2 190.9 273.04 192.59 292.01 193.43 311.32 206.46 321.18 218.61 330.7 200.6 330.75 181.87 330.19 164.52 341.36 147.02 351.48"/><polygon class="cls-4" points="322.51 331.1 336.2 313.05 337.55 298.5 338.49 284.42 344.31 307.92 357.32 321.8 370.91 335.17 376.09 347.54 377.87 361.71 367.76 350.84 357.42 340.41 340.26 335.46 322.51 331.1"/><polygon class="cls-4" points="308.17 246.31 314.77 265.8 319.98 286.01 316.5 302.28 313.02 318.58 310.44 334.52 304.96 312 309.32 287.91 309.34 266.99 308.17 246.31"/><polygon class="cls-4" points="221.61 317.47 218.64 298.41 214.55 279.94 220.9 267.93 227.14 243.08 229.69 264.49 231.92 285.96 224.28 292.06 221.61 317.47"/><polygon class="cls-4" points="278.52 325.41 275.09 305 285.11 280 281.74 261.47 278.09 242.96 286.64 259.24 294.13 276 290.69 300.09 287.79 322.31 278.52 325.41"/><polygon class="cls-4" points="257.33 244.32 253.39 268.01 255.91 288.03 259.19 308.12 263.49 281.95 262.71 261.07 257.33 244.32"/><polygon class="cls-4" points="401.31 276.25 395.15 260.94 388.96 246.04 373.99 239.03 358.97 232.06 344.26 224.98 359.3 237.74 374.59 250.12 367.07 263.93 381.01 255.89 390.96 266.04 401.31 276.25"/><polygon class="cls-4" points="166.72 225.15 149.12 225.38 135.28 235.22 128.74 249.89 120.33 268.9 131.71 258.73 143.32 248.34 154.74 236.23 166.72 225.15"/><polygon class="cls-4" points="131.89 149.98 149.52 152.87 167.07 155.49 187.45 158.53 208.47 160 187.59 163.22 166.9 164.92 177.88 173.4 156.82 166.7 161 184.51 146.82 166.72 131.89 149.98"/><polygon class="cls-4" points="228.1 153.97 237.13 130.08 256.19 111.39 256.17 120.99 257.13 135.54 259 150.48 260.77 135.53 262 120.72 272.2 135.37 282.02 149.99 281.78 163.74 262 166.97 244.96 160.62 228.1 153.97"/><polygon class="cls-4" points="312.35 167.03 327.97 164.74 344.31 162.43 341 172.47 356.93 162.8 371.6 161.72 385.45 158.56 365.21 169.31 356.06 179.55 347.33 189.63 360.68 184.53 349.14 190.95 338.02 199.17 325.1 194.2 312.07 190.01 327.35 179 312.35 167.03"/><polygon class="cls-5" points="370.66 234 357.29 271.45 329.64 297.87 299.61 325.24 259 321.84 220.38 319.19 184.42 302.85 155.59 274.14 143.94 234 158.03 195.14 181.82 161.86 221.57 152.43 259 137.25 299.16 144.12 336.19 161.84 364.18 192.92 370.66 234"/><polygon class="cls-3" points="370.66 234 357.29 271.45 329.64 297.87 299.61 325.24 259 321.84 220.38 319.19 184.42 302.85 155.59 274.14 143.94 234 158.03 195.14 181.82 161.86 221.57 152.43 259 137.25 299.16 144.12 336.19 161.84 364.18 192.92 370.66 234"/><polygon class="cls-6" points="348.13 234 342.14 251.54 329.59 264.14 320.84 278.6 303.9 282.93 290.86 293.62 274.23 294.92 258 302.29 240.78 301.13 224.95 294.17 209.42 287.73 195.23 278.51 179.68 268.83 180.9 249.21 177.13 234 178 217.83 186.14 203.67 192.26 186.09 207.99 177.72 226.34 177.94 241.74 172.83 258 161.27 274.04 174.26 290.71 174.82 308.58 176.71 317.03 193.77 333.03 201.47 335.14 218.77 348.13 234"/><polygon class="cls-6" points="312.63 234 304.45 251.75 288.71 260.34 275.02 270.32 258 266.51 241.46 268.7 227.97 259.37 212.13 251.4 207.01 234 214.53 218.04 225.85 205.6 241.02 197.79 258 190.31 273.61 202.52 288.42 208.08 300.71 218.49 312.63 234"/><polygon class="cls-7" points="257 205 264 225 294 234 264 237 260.63 254 255 234 224 236 253 225 257 205"/><path class="cls-8" d="M423.55,288.45l-7.76-16.53-4-15.62a3.38,3.38,0,0,0-.13-.42L406,240a5,5,0,0,0-2-2.51l-16.75-11-14.48-11-2.86-18.08.79-2.35,11.67-12.85.14-.16,11.12-13.32a5,5,0,0,0,1.13-2.64l1.38-12a5,5,0,0,0-4.33-5.53L374,146.24a5,5,0,0,0-1.34,0l-37.1,5.23L317.77,147a4.8,4.8,0,0,0-1.41-.14l-15-7.2a5.08,5.08,0,0,0-1.32-.42l-6-1-.38-.73a5.48,5.48,0,0,0-.31-.52L283.79,123l-8.7-14.44a5.15,5.15,0,0,0-1-1.23L261.89,97a5,5,0,0,0-6.15-.26l-12.65,9-14.25,9.81a5,5,0,0,0-2,2.83l-4.64,17.36-5.81,12.68-5.94,1.41-8.07-.68L185.8,144.4a5.12,5.12,0,0,0-1.5-.2l-17.22.36-20.75-3.14-21.91-8.22a5,5,0,0,0-6.53,6.17l5.6,18,2.12,16.92a4.92,4.92,0,0,0,1.35,2.83l12.17,12.73a4.94,4.94,0,0,0,1.27,1l10.81,5.73.44,1.46-4.48,12.36-6.6,4.38a4.71,4.71,0,0,0-.61.47l-14.27,13a5,5,0,0,0-.62.68l-10,13.16a4.12,4.12,0,0,0-.48.77l-7.43,14.74L95.83,271.17a5,5,0,0,0,2.58,8l15.45,4,13.3,6.62a5.31,5.31,0,0,0,1.27.44L142.35,293l9.43,13.84-9.93,11a4.92,4.92,0,0,0-.86,1.35l-6.67,15.4a5,5,0,0,0-.41,1.75l-.78,16.87a5.14,5.14,0,0,0,0,.88l2.43,18.56a5,5,0,0,0,5.7,4.29l14.21-2.13.12,0,15.56-2.74a5.27,5.27,0,0,0,.57-.14l15-4.53a4.53,4.53,0,0,0,1-.42l13.12-7.3,16.1-6.26,4.46,7.25,2.78,12.64a4.88,4.88,0,0,0,.62,1.53l9.76,16,8.55,16.56a4.91,4.91,0,0,0,.59.89l11.5,13.92a5,5,0,0,0,3.59,1.81h.26a5,5,0,0,0,3.5-1.42L277,408.55a4.87,4.87,0,0,0,.8-1l10.64-17.86.06-.09,10-17.56,13.66-15.58,17.51,6.66,14.81,10.47a5.06,5.06,0,0,0,2,.85l18.76,3.27,20.45,5.21a5,5,0,0,0,6.2-4.2l3.54-27.34a4.9,4.9,0,0,0-.33-2.54L388.19,332a5,5,0,0,0-1.45-2l-13.64-11.2L364.77,308l10-10.37,11-1.85.38-.07L400.93,292,418,295.47a5,5,0,0,0,5.53-7Z"/></g></svg>