<svg xmlns="http://www.w3.org/2000/svg" xmlns:xlink="http://www.w3.org/1999/xlink" viewBox="0 0 512 512"><defs><style>.cls-1{fill:#b2b2b2;}.cls-1,.cls-2{stroke:#000;stroke-miterlimit:10;stroke-width:8px;}.cls-2{fill:gray;}.cls-3{fill:url(#linear-gradient);}</style><linearGradient id="linear-gradient" x1="249.69" y1="108.23" x2="249.69" y2="392.1" gradientUnits="userSpaceOnUse"><stop offset="0.51" stop-opacity="0"/><stop offset="1"/></linearGradient></defs><title>env</title><g id="grave"><path class="cls-1" d="M333,388.1H164.56L142.44,215.82c0-57.21,48-103.59,107.25-103.59h0c59.23,0,107.24,46.38,107.24,103.59Z"/><path class="cls-2" d="M330.15,388.1H167.46L146.09,244.76a96.62,96.62,0,0,1,96.62-96.61h14a96.62,96.62,0,0,1,96.61,96.61Z"/><path class="cls-3" d="M360.93,215.82c0-59.33-49.9-107.59-111.24-107.59S138.44,156.49,138.44,215.82l3.66,28.56c0,.13,0,.25,0,.38l.4,2.67L161,392.1H336.47l18.11-130.32,2.65-16.38,0-.32v-.32q0-1.08,0-2.16l3.65-26.23Z"/><path d="M236.3,275.46a10,10,0,0,1-1.9-.15c-8.09-1-11.26-4.87-14.63-10.55-4.48-7.42-8.75-15.16-13.55-21.87-2.15-3-3.47-3.24-5.84-2-.51.23-1,.45-1.51.69q3,8.64,6,17.29c3.33,9.58,4.27,10.24,9.49,11l1.38,4.8q-9.67.12-19.31.3l-1.63-3c4.41-1.29,4.65-2.21,1.08-10.06l-16.89-37c-3.38-7.56-4.89-8-9.54.56l-1.63-3a87.48,87.48,0,0,1,22.06-30.83c8.39-7.32,14.36-8.81,19.42-6.88s8.88,7.67,10.25,17.09c1.92,13.58-2.39,22.17-7,27.88,2.22,3.71,7.33,12.13,10.76,18.63,4.06,7.73,6.14,11.81,7.91,15.08,2.1,3.91,2.95,5.15,5,6.67Q236.26,272.79,236.3,275.46Zm-37.09-40c3.27-1.92,5.64-4.06,6.77-7.5,1.73-5.07,1.76-11,.1-18.12-3.36-15-10.8-16.43-15.87-11.75-2.43,2.17-3.36,3.81-3.64,5s0,2.91.8,5.28l9.81,28.3C197.85,236.31,198.53,235.9,199.21,235.49Z"/><path d="M239,274.51c-.15-2-.29-3.91-.44-5.87,5-1.21,5.59-2.16,5.21-15.66L242,191.81c-.37-13.39-1.58-15-10.29-14.49-.15-2-.3-3.91-.44-5.87a89.82,89.82,0,0,1,36.76.74q-.25,2.91-.53,5.83c-8.68-.66-9.91.71-10.49,14.06q-1.4,30.48-2.78,61c-.59,13.29,0,14.24,5,15.63l-.54,5.83Q248.81,274.48,239,274.51Z"/><path d="M308.78,194.39a45.76,45.76,0,0,1,12.49,22.39c1.88,8.73,1.23,15.66-1.77,21.13-6.26,10.59-16.56,9.74-24.44,6.66a14.76,14.76,0,0,1-2.12-1.31q-1.85-1.94-3.79-3.89-2.52,8.92-5,17.85c-3.1,11-2.74,11.64,2.56,13.13l-1.52,4.4q-10.05-.13-20.14-.2c.28-1.88.55-3.75.83-5.63,5.18-1.14,5.95-1.47,8.36-13.69q5.46-27.81,10.91-55.61c2.38-12.11,1.75-14.29-6.34-18.27.27-1.87.55-3.75.83-5.62A84.74,84.74,0,0,1,308.78,194.39Zm-18.09,39.47a9.78,9.78,0,0,0,3.73,3.37c3.53,1.69,10,2.19,15.68-11.47,4.89-11.63,1.9-21.9-4-27.28-1.88-1.7-3.2-2-3.94-1.75s-1.43,1.44-2,3.41Z"/></g></svg>