<svg xmlns="http://www.w3.org/2000/svg" xmlns:xlink="http://www.w3.org/1999/xlink" viewBox="0 0 295 295"><defs><style>.a{fill:none;}.b{clip-path:url(#a);}.c,.d{fill:#666;}.c{stroke:#000;stroke-miterlimit:10;stroke-width:10px;}.e{fill:url(#b);}</style><clipPath id="a"><rect class="a" width="295" height="295"/></clipPath><linearGradient id="b" x1="147.44" y1="-488.3" x2="147.44" y2="295" gradientUnits="userSpaceOnUse"><stop offset="0" stop-color="#666" stop-opacity="0"/><stop offset="1"/></linearGradient></defs><title>env</title><g class="b"><rect class="c" x="-273" y="239" width="842" height="19"/><rect class="c" x="-273" y="137" width="842" height="19"/><polygon class="d" points="17 290 17 103.02 5.57 76 30.13 17.85 53.37 75.96 43 102.93 43 290 17 290"/><path d="M30,31,48,76q-5,13-10,26V285H22V102L11,76,30,31m.25-26.3L20.79,27.11l-9.5,22.5-9.5,22.5L.14,76l1.65,3.9,5.5,13L12,104V295H48V103.86l4.33-11.27,5-13,1.41-3.66-1.46-3.64-18-45-9-22.59Z"/><polygon class="d" points="76 290 76 103.02 64.57 76 89.13 17.85 112.37 75.96 102 102.93 102 290 76 290"/><path d="M89,31l18,45q-5,13-10,26V285H81V102L70,76,89,31m.25-26.3L79.79,27.11l-9.5,22.5-9.5,22.5L59.14,76l1.65,3.9,5.5,13L71,104V295h36V103.86l4.33-11.27,5-13,1.41-3.66-1.46-3.64-18-45-9-22.59Z"/><polygon class="d" points="135 290 135 103.02 123.57 76 148.13 17.85 171.37 75.96 161 102.93 161 290 135 290"/><path d="M148,31l18,45q-5,13-10,26V285H140V102L129,76l19-45m.25-26.3-9.46,22.41-9.5,22.5-9.5,22.5L118.14,76l1.65,3.9,5.5,13L130,104V295h36V103.86l4.33-11.27,5-13,1.41-3.66-1.46-3.64-18-45-9-22.59Z"/><polygon class="d" points="194 290 194 103.02 182.57 76 207.13 17.85 230.37 75.96 220 102.93 220 290 194 290"/><path d="M207,31l18,45q-5,13-10,26V285H199V102L188,76l19-45m.25-26.3-9.46,22.41-9.5,22.5-9.5,22.5L177.14,76l1.65,3.9,5.5,13L189,104V295h36V103.86l4.33-11.27,5-13,1.41-3.66-1.46-3.64-18-45-9-22.59Z"/><polygon class="d" points="253 290 253 103.02 241.57 76 266.13 17.85 289.37 75.96 279 102.93 279 290 253 290"/><path d="M266,31l18,45q-5,13-10,26V285H258V102L247,76l19-45m.25-26.3-9.46,22.41-9.5,22.5-9.5,22.5L236.14,76l1.65,3.9,5.5,13L248,104V295h36V103.86l4.33-11.27,5-13,1.41-3.66-1.46-3.64-18-45-9-22.59Z"/><path class="e" d="M583.33-303.41l5-13,1.41-3.66-1.46-3.64L579-346.93v-42.21l4.33-11.27,5-13,1.41-3.66-1.46-3.64-18-45-9-22.59-9.46,22.41-9.5,22.5-9.5,22.5L531.14-417l1.65,3.9,5.5,13L543-389v40.89l-.71,1.69-9.5,22.5L531.14-320l1.65,3.9,5.5,13L543-292v40.89l-.71,1.69-9.5,22.5L531.14-223l1.65,3.9,5.5,13L543-195v40.89l-.71,1.69-9.5,22.5L531.14-126l1.65,3.9,5.5,13L543-98v40.89l-.71,1.69-9.5,22.5L531.14-29l1.65,3.9,5.5,13L543-1V47.92l-.71,1.69-9.5,22.5L531.14,76l1.65,3.9,5.5,13L543,104v28H520V103.86l4.33-11.27,5-13,1.41-3.66-1.46-3.64-18-45-9-22.59-9.46,22.41-9.5,22.5-9.5,22.5L472.14,76l1.65,3.9,5.5,13L484,104v28H461V103.86l4.33-11.27,5-13,1.41-3.66-1.46-3.64-18-45-9-22.59-9.46,22.41-9.5,22.5-9.5,22.5L413.14,76l1.65,3.9,5.5,13L425,104v28H402V103.86l4.33-11.27,5-13,1.41-3.66-1.46-3.64-18-45-9-22.59-9.46,22.41-9.5,22.5-9.5,22.5L354.14,76l1.65,3.9,5.5,13L366,104v28H343V103.86l4.33-11.27,5-13,1.41-3.66-1.46-3.64-18-45-9-22.59-9.46,22.41-9.5,22.5-9.5,22.5L295.14,76l1.65,3.9,5.5,13L307,104v28H284V103.86l4.33-11.27,5-13,1.41-3.66-1.46-3.64-18-45-9-22.59-9.46,22.41-9.5,22.5-9.5,22.5L236.14,76l1.65,3.9,5.5,13L248,104v28H225V103.86l4.33-11.27,5-13,1.41-3.66-1.46-3.64-18-45-9-22.59-9.46,22.41-9.5,22.5-9.5,22.5L177.14,76l1.65,3.9,5.5,13L189,104v28H166V103.86l4.33-11.27,5-13,1.41-3.66-1.46-3.64-18-45-9-22.59-9.46,22.41-9.5,22.5-9.5,22.5L118.14,76l1.65,3.9,5.5,13L130,104v28H107V103.86l4.33-11.27,5-13,1.41-3.66-1.46-3.64-18-45-9-22.59L79.79,27.11l-9.5,22.5-9.5,22.5L59.14,76l1.65,3.9,5.5,13L71,104v28H48V103.86l4.33-11.27,5-13,1.41-3.66-1.46-3.64-18-45-9-22.59L20.79,27.11l-9.5,22.5-9.5,22.5L.14,76l1.65,3.9,5.5,13L12,104v28H-11V103.86l4.33-11.27,5-13,1.41-3.66-1.46-3.64-18-45-9-22.59-9.46,22.41-9.5,22.5-9.5,22.5L-58.86,76l1.65,3.9,5.5,13L-47,104v28H-70V103.86l4.33-11.27,5-13,1.41-3.66-1.46-3.64-18-45-9-22.59-9.46,22.41-9.5,22.5-9.5,22.5L-117.86,76l1.65,3.9,5.5,13L-106,104v28h-23V103.86l4.33-11.27,5-13,1.41-3.66-1.46-3.64-18-45-9-22.59-9.46,22.41-9.5,22.5-9.5,22.5L-176.86,76l1.65,3.9,5.5,13L-165,104v28h-23V103.86l4.33-11.27,5-13,1.41-3.66-1.46-3.64-18-45-9-22.59-9.46,22.41-9.5,22.5-9.5,22.5L-235.86,76l1.65,3.9,5.5,13L-224,104v28h-23V103.86l4.33-11.27,5-13,1.41-3.66-1.46-3.64L-247,49.07V-1.14l4.33-11.27,5-13,1.41-3.66-1.46-3.64L-247-55.93V-98.14l4.33-11.27,5-13,1.41-3.66-1.46-3.64L-247-152.93v-42.21l4.33-11.27,5-13,1.41-3.66-1.46-3.64L-247-249.93v-42.21l4.33-11.27,5-13,1.41-3.66-1.46-3.64L-247-346.93v-42.21l4.33-11.27,5-13,1.41-3.66-1.46-3.64-18-45-9-22.59-9.46,22.41-9.5,22.5-9.5,22.5-1.65,3.89,1.65,3.9,5.5,13L-283-389v40.89l-.71,1.69-9.5,22.5-1.65,3.89,1.65,3.9,5.5,13L-283-292v40.89l-.71,1.69-9.5,22.5-1.65,3.89,1.65,3.9,5.5,13L-283-195v40.89l-.71,1.69-9.5,22.5-1.65,3.89,1.65,3.9,5.5,13L-283-98v40.89l-.71,1.69-9.5,22.5L-294.86-29l1.65,3.9,5.5,13L-283-1V47.92l-.71,1.69-9.5,22.5L-294.86,76l1.65,3.9,5.5,13L-283,104V295h36V263h23v32h36V263h23v32h36V263h23v32h36V263h23v32h36V263H12v32H48V263H71v32h36V263h23v32h36V263h23v32h36V263h23v32h36V263h23v32h36V263h23v32h36V263h23v32h36V263h23v32h36V263h23v32h36V103.86l4.33-11.27,5-13,1.41-3.66-1.46-3.64L579,49.07V-1.14l4.33-11.27,5-13,1.41-3.66-1.46-3.64L579-55.93V-98.14l4.33-11.27,5-13,1.41-3.66-1.46-3.64L579-152.93v-42.21l4.33-11.27,5-13,1.41-3.66-1.46-3.64L579-249.93v-42.21ZM543,190v44H520V161h23v29Zm-790-10V161h23v73h-23V180Zm59-19h23v73h-23Zm59,0h23v73h-23Zm59,0h23v73H-70Zm59,0H12v73H-11Zm59,0H71v73H48Zm59,0h23v73H107Zm59,0h23v73H166Zm59,0h23v73H225Zm59,0h23v73H284Zm59,0h23v73H343Zm59,0h23v73H402Zm59,0h23v73H461Z"/></g></svg>