<svg xmlns="http://www.w3.org/2000/svg" xmlns:xlink="http://www.w3.org/1999/xlink" viewBox="0 0 295 295"><defs><style>.a{fill:none;}.b{clip-path:url(#a);}.c,.d{fill:#666;}.c{stroke:#000;stroke-miterlimit:10;stroke-width:10px;}.e{fill:url(#b);}.f{fill:url(#c);}</style><clipPath id="a"><rect class="a" width="295" height="295"/></clipPath><linearGradient id="b" x1="442.44" y1="4.7" x2="442.44" y2="295" gradientUnits="userSpaceOnUse"><stop offset="0" stop-color="#666" stop-opacity="0"/><stop offset="1"/></linearGradient><linearGradient id="c" x1="442.44" y1="101.7" x2="442.44" y2="885" xlink:href="#b"/></defs><title>env</title><g class="b"><rect class="c" x="22" y="239" width="842" height="19"/><rect class="c" x="22" y="137" width="842" height="19"/><polygon class="d" points="17 290 17 103.02 5.57 76 30.13 17.85 53.37 75.96 43 102.93 43 290 17 290"/><path d="M30,31,48,76q-5,13-10,26V285H22V102L11,76,30,31m.25-26.3L20.79,27.11l-9.5,22.5-9.5,22.5L.14,76l1.65,3.9,5.5,13L12,104V295H48V103.86l4.33-11.27,5-13,1.41-3.66-1.46-3.64-18-45-9-22.59Z"/><polygon class="d" points="76 290 76 103.02 64.57 76 89.13 17.85 112.37 75.96 102 102.93 102 290 76 290"/><path d="M89,31l18,45q-5,13-10,26V285H81V102L70,76,89,31m.25-26.3L79.79,27.11l-9.5,22.5-9.5,22.5L59.14,76l1.65,3.9,5.5,13L71,104V295h36V103.86l4.33-11.27,5-13,1.41-3.66-1.46-3.64-18-45-9-22.59Z"/><polygon class="d" points="135 290 135 103.02 123.57 76 148.13 17.85 171.37 75.96 161 102.93 161 290 135 290"/><path d="M148,31l18,45q-5,13-10,26V285H140V102L129,76l19-45m.25-26.3-9.46,22.41-9.5,22.5-9.5,22.5L118.14,76l1.65,3.9,5.5,13L130,104V295h36V103.86l4.33-11.27,5-13,1.41-3.66-1.46-3.64-18-45-9-22.59Z"/><polygon class="d" points="194 290 194 103.02 182.57 76 207.13 17.85 230.37 75.96 220 102.93 220 290 194 290"/><path d="M207,31l18,45q-5,13-10,26V285H199V102L188,76l19-45m.25-26.3-9.46,22.41-9.5,22.5-9.5,22.5L177.14,76l1.65,3.9,5.5,13L189,104V295h36V103.86l4.33-11.27,5-13,1.41-3.66-1.46-3.64-18-45-9-22.59Z"/><polygon class="d" points="253 290 253 103.02 241.57 76 266.13 17.85 289.37 75.96 279 102.93 279 290 253 290"/><path d="M266,31l18,45q-5,13-10,26V285H258V102L247,76l19-45m.25-26.3-9.46,22.41-9.5,22.5-9.5,22.5L236.14,76l1.65,3.9,5.5,13L248,104V295h36V103.86l4.33-11.27,5-13,1.41-3.66-1.46-3.64-18-45-9-22.59Z"/><path class="e" d="M883.28,72.29l-18-45-9-22.59-9.46,22.41-9.5,22.5-9.5,22.5L826.14,76l1.65,3.9,5.5,13L838,104v28H815V103.86l4.33-11.27,5-13,1.41-3.66-1.46-3.64-18-45-9-22.59-9.46,22.41-9.5,22.5-9.5,22.5L767.14,76l1.65,3.9,5.5,13L779,104v28H756V103.86l4.33-11.27,5-13,1.41-3.66-1.46-3.64-18-45-9-22.59-9.46,22.41-9.5,22.5-9.5,22.5L708.14,76l1.65,3.9,5.5,13L720,104v28H697V103.86l4.33-11.27,5-13,1.41-3.66-1.46-3.64-18-45-9-22.59-9.46,22.41-9.5,22.5-9.5,22.5L649.14,76l1.65,3.9,5.5,13L661,104v28H638V103.86l4.33-11.27,5-13,1.41-3.66-1.46-3.64-18-45-9-22.59-9.46,22.41-9.5,22.5-9.5,22.5L590.14,76l1.65,3.9,5.5,13L602,104v28H579V103.86l4.33-11.27,5-13,1.41-3.66-1.46-3.64-18-45-9-22.59-9.46,22.41-9.5,22.5-9.5,22.5L531.14,76l1.65,3.9,5.5,13L543,104v28H520V103.86l4.33-11.27,5-13,1.41-3.66-1.46-3.64-18-45-9-22.59-9.46,22.41-9.5,22.5-9.5,22.5L472.14,76l1.65,3.9,5.5,13L484,104v28H461V103.86l4.33-11.27,5-13,1.41-3.66-1.46-3.64-18-45-9-22.59-9.46,22.41-9.5,22.5-9.5,22.5L413.14,76l1.65,3.9,5.5,13L425,104v28H402V103.86l4.33-11.27,5-13,1.41-3.66-1.46-3.64-18-45-9-22.59-9.46,22.41-9.5,22.5-9.5,22.5L354.14,76l1.65,3.9,5.5,13L366,104v28H343V103.86l4.33-11.27,5-13,1.41-3.66-1.46-3.64-18-45-9-22.59-9.46,22.41-9.5,22.5-9.5,22.5L295.14,76l1.65,3.9,5.5,13L307,104v28H284V103.86l4.33-11.27,5-13,1.41-3.66-1.46-3.64-18-45-9-22.59-9.46,22.41-9.5,22.5-9.5,22.5L236.14,76l1.65,3.9,5.5,13L248,104v28H225V103.86l4.33-11.27,5-13,1.41-3.66-1.46-3.64-18-45-9-22.59-9.46,22.41-9.5,22.5-9.5,22.5L177.14,76l1.65,3.9,5.5,13L189,104v28H166V103.86l4.33-11.27,5-13,1.41-3.66-1.46-3.64-18-45-9-22.59-9.46,22.41-9.5,22.5-9.5,22.5L118.14,76l1.65,3.9,5.5,13L130,104v28H107V103.86l4.33-11.27,5-13,1.41-3.66-1.46-3.64-18-45-9-22.59L79.79,27.11l-9.5,22.5-9.5,22.5L59.14,76l1.65,3.9,5.5,13L71,104v28H48V103.86l4.33-11.27,5-13,1.41-3.66-1.46-3.64-18-45-9-22.59L20.79,27.11l-9.5,22.5-9.5,22.5L.14,76l1.65,3.9,5.5,13L12,104V295H48V263H71v32h36V263h23v32h36V263h23v32h36V263h23v32h36V263h23v32h36V263h23v32h36V263h23v32h36V263h23v32h36V263h23v32h36V263h23v32h36V263h23v32h36V263h23v32h36V263h23v32h36V263h23v32h36V103.86l4.33-11.27,5-13,1.41-3.66ZM48,161H71v73H48Zm59,0h23v73H107Zm59,0h23v73H166Zm59,0h23v73H225Zm59,0h23v73H284Zm59,0h23v73H343Zm59,0h23v73H402Zm59,0h23v73H461Zm59,0h23v73H520Zm59,0h23v73H579Zm59,0h23v73H638Zm59,0h23v73H697Zm59,0h23v73H756Zm59,0h23v73H815Z"/><polygon class="d" points="17 387 17 200.01 5.57 173 30.13 114.85 53.37 172.96 43 199.93 43 387 17 387"/><path d="M30,128l18,45q-5,13-10,26V382H22V199L11,173l19-45m.25-26.3-9.46,22.41-9.5,22.5-9.5,22.5L.14,173l1.65,3.9,5.5,13L12,201V392H48V200.86l4.33-11.27,5-13,1.41-3.66-1.46-3.64-18-45-9-22.59Z"/><polygon class="d" points="17 484 17 297.01 5.57 270 30.13 211.85 53.37 269.96 43 296.93 43 484 17 484"/><path d="M30,225l18,45q-5,13-10,26V479H22V296L11,270l19-45m.25-26.3-9.46,22.41-9.5,22.5-9.5,22.5L.14,270l1.65,3.9,5.5,13L12,298V489H48V297.86l4.33-11.27,5-13,1.41-3.66-1.46-3.64-18-45-9-22.59Z"/><path class="f" d="M878.33,286.59l5-13,1.41-3.66-1.46-3.64L874,243.07V200.86l4.33-11.27,5-13,1.41-3.66-1.46-3.64-18-45-9-22.59-9.46,22.41-9.5,22.5-9.5,22.5L826.14,173l1.65,3.9,5.5,13L838,201v40.89l-.71,1.69-9.5,22.5L826.14,270l1.65,3.9,5.5,13L838,298v40.89l-.71,1.69-9.5,22.5L826.14,367l1.65,3.9,5.5,13L838,395v40.89l-.71,1.69-9.5,22.5L826.14,464l1.65,3.9,5.5,13L838,492v40.89l-.71,1.69-9.5,22.5L826.14,561l1.65,3.9,5.5,13L838,589v48.89l-.71,1.69-9.5,22.5L826.14,666l1.65,3.9,5.5,13L838,694v28H815V693.86l4.33-11.27,5-13,1.41-3.66-1.46-3.64-18-45-9-22.59-9.46,22.41-9.5,22.5-9.5,22.5L767.14,666l1.65,3.9,5.5,13L779,694v28H756V693.86l4.33-11.27,5-13,1.41-3.66-1.46-3.64-18-45-9-22.59-9.46,22.41-9.5,22.5-9.5,22.5L708.14,666l1.65,3.9,5.5,13L720,694v28H697V693.86l4.33-11.27,5-13,1.41-3.66-1.46-3.64-18-45-9-22.59-9.46,22.41-9.5,22.5-9.5,22.5L649.14,666l1.65,3.9,5.5,13L661,694v28H638V693.86l4.33-11.27,5-13,1.41-3.66-1.46-3.64-18-45-9-22.59-9.46,22.41-9.5,22.5-9.5,22.5L590.14,666l1.65,3.9,5.5,13L602,694v28H579V693.86l4.33-11.27,5-13,1.41-3.66-1.46-3.64-18-45-9-22.59-9.46,22.41-9.5,22.5-9.5,22.5L531.14,666l1.65,3.9,5.5,13L543,694v28H520V693.86l4.33-11.27,5-13,1.41-3.66-1.46-3.64-18-45-9-22.59-9.46,22.41-9.5,22.5-9.5,22.5L472.14,666l1.65,3.9,5.5,13L484,694v28H461V693.86l4.33-11.27,5-13,1.41-3.66-1.46-3.64-18-45-9-22.59-9.46,22.41-9.5,22.5-9.5,22.5L413.14,666l1.65,3.9,5.5,13L425,694v28H402V693.86l4.33-11.27,5-13,1.41-3.66-1.46-3.64-18-45-9-22.59-9.46,22.41-9.5,22.5-9.5,22.5L354.14,666l1.65,3.9,5.5,13L366,694v28H343V693.86l4.33-11.27,5-13,1.41-3.66-1.46-3.64-18-45-9-22.59-9.46,22.41-9.5,22.5-9.5,22.5L295.14,666l1.65,3.9,5.5,13L307,694v28H284V693.86l4.33-11.27,5-13,1.41-3.66-1.46-3.64-18-45-9-22.59-9.46,22.41-9.5,22.5-9.5,22.5L236.14,666l1.65,3.9,5.5,13L248,694v28H225V693.86l4.33-11.27,5-13,1.41-3.66-1.46-3.64-18-45-9-22.59-9.46,22.41-9.5,22.5-9.5,22.5L177.14,666l1.65,3.9,5.5,13L189,694v28H166V693.86l4.33-11.27,5-13,1.41-3.66-1.46-3.64-18-45-9-22.59-9.46,22.41-9.5,22.5-9.5,22.5L118.14,666l1.65,3.9,5.5,13L130,694v28H107V693.86l4.33-11.27,5-13,1.41-3.66-1.46-3.64-18-45-9-22.59-9.46,22.41-9.5,22.5-9.5,22.5L59.14,666l1.65,3.9,5.5,13L71,694v28H48V693.86l4.33-11.27,5-13,1.41-3.66-1.46-3.64L48,639.07V588.86l4.33-11.27,5-13,1.41-3.66-1.46-3.64L48,534.07V491.86l4.33-11.27,5-13,1.41-3.66-1.46-3.64L48,437.07V394.86l4.33-11.27,5-13,1.41-3.66-1.46-3.64L48,340.07V297.86l4.33-11.27,5-13,1.41-3.66-1.46-3.64L48,243.07V200.86l4.33-11.27,5-13,1.41-3.66-1.46-3.64-18-45-9-22.59-9.46,22.41-9.5,22.5-9.5,22.5L.14,173l1.65,3.9,5.5,13L12,201v40.89l-.71,1.69-9.5,22.5L.14,270l1.65,3.9,5.5,13L12,298v40.89l-.71,1.69-9.5,22.5L.14,367l1.65,3.9,5.5,13L12,395v40.89l-.71,1.69-9.5,22.5L.14,464l1.65,3.9,5.5,13L12,492v40.89l-.71,1.69-9.5,22.5L.14,561l1.65,3.9,5.5,13L12,589v48.89l-.71,1.69-9.5,22.5L.14,666l1.65,3.9,5.5,13L12,694V885H48V853H71v32h36V853h23v32h36V853h23v32h36V853h23v32h36V853h23v32h36V853h23v32h36V853h23v32h36V853h23v32h36V853h23v32h36V853h23v32h36V853h23v32h36V853h23v32h36V853h23v32h36V853h23v32h36V693.86l4.33-11.27,5-13,1.41-3.66-1.46-3.64L874,639.07V588.86l4.33-11.27,5-13,1.41-3.66-1.46-3.64L874,534.07V491.86l4.33-11.27,5-13,1.41-3.66-1.46-3.64L874,437.07V394.86l4.33-11.27,5-13,1.41-3.66-1.46-3.64L874,340.07V297.86ZM838,780v44H815V751h23v29ZM48,770V751H71v73H48V770Zm59-19h23v73H107Zm59,0h23v73H166Zm59,0h23v73H225Zm59,0h23v73H284Zm59,0h23v73H343Zm59,0h23v73H402Zm59,0h23v73H461Zm59,0h23v73H520Zm59,0h23v73H579Zm59,0h23v73H638Zm59,0h23v73H697Zm59,0h23v73H756Z"/></g></svg>