<svg xmlns="http://www.w3.org/2000/svg" xmlns:xlink="http://www.w3.org/1999/xlink" viewBox="0 0 295 295"><defs><style>.a{fill:none;}.b{clip-path:url(#a);}.c{fill:#666;}.d{fill:url(#b);}</style><clipPath id="a"><rect class="a" width="295" height="295"/></clipPath><linearGradient id="b" x1="442.44" y1="-193.3" x2="442.44" y2="590" gradientUnits="userSpaceOnUse"><stop offset="0" stop-color="#666" stop-opacity="0"/><stop offset="1"/></linearGradient></defs><title>env</title><g class="b"><polygon class="c" points="17 92 17 -94.98 5.57 -122 30.13 -180.15 53.37 -122.04 43 -95.07 43 92 17 92"/><path d="M30-167l18,45q-5,13-10,26V87H22V-96L11-122l19-45m.25-26.3-9.46,22.41-9.5,22.5-9.5,22.5L.14-122l1.65,3.9,5.5,13L12-94V97H48V-94.14l4.33-11.27,5-13,1.41-3.66-1.46-3.64-18-45-9-22.59Z"/><polygon class="c" points="17 189 17 2.02 5.57 -25 30.13 -83.15 53.37 -25.04 43 1.93 43 189 17 189"/><path d="M30-70,48-25Q43-12,38,1V184H22V1L11-25,30-70m.25-26.3L20.79-73.89l-9.5,22.5-9.5,22.5L.14-25l1.65,3.9,5.5,13L12,3V194H48V2.86L52.33-8.41l5-13,1.41-3.66-1.46-3.64-18-45-9-22.59Z"/><polygon class="c" points="17 286 17 99.02 5.57 72 30.13 13.85 53.37 71.96 43 98.93 43 286 17 286"/><path d="M30,27,48,72Q43,85,38,98V281H22V98L11,72,30,27M30.25.7,20.79,23.11l-9.5,22.5-9.5,22.5L.14,72l1.65,3.9,5.5,13L12,100V291H48V99.86l4.33-11.27,5-13,1.41-3.66-1.46-3.64-18-45L30.25.7Z"/><polygon class="c" points="17 383 17 196.01 5.57 169 30.13 110.85 53.37 168.96 43 195.93 43 383 17 383"/><path d="M30,124l18,45q-5,13-10,26V378H22V195L11,169l19-45m.25-26.3-9.46,22.41-9.5,22.5-9.5,22.5L.14,169l1.65,3.9,5.5,13L12,197V388H48V196.86l4.33-11.27,5-13,1.41-3.66-1.46-3.64-18-45-9-22.59Z"/><polygon class="c" points="17 480 17 293.01 5.57 266 30.13 207.85 53.37 265.96 43 292.93 43 480 17 480"/><path d="M30,221l18,45q-5,13-10,26V475H22V292L11,266l19-45m.25-26.3-9.46,22.41-9.5,22.5-9.5,22.5L.14,266l1.65,3.9,5.5,13L12,294V485H48V293.86l4.33-11.27,5-13,1.41-3.66-1.46-3.64-18-45-9-22.59Z"/><path class="d" d="M878.33-8.41l5-13,1.41-3.66-1.46-3.64L874-51.93V-94.14l4.33-11.27,5-13,1.41-3.66-1.46-3.64-18-45-9-22.59-9.46,22.41-9.5,22.5-9.5,22.5L826.14-122l1.65,3.9,5.5,13L838-94v40.89l-.71,1.69-9.5,22.5L826.14-25l1.65,3.9,5.5,13L838,3V43.92l-.71,1.69-9.5,22.5L826.14,72l1.65,3.9,5.5,13L838,100v40.89l-.71,1.69-9.5,22.5L826.14,169l1.65,3.9,5.5,13L838,197v40.89l-.71,1.69-9.5,22.5L826.14,266l1.65,3.9,5.5,13L838,294v48.89l-.71,1.69-9.5,22.5L826.14,371l1.65,3.9,5.5,13L838,399v28H815V398.86l4.33-11.27,5-13,1.41-3.66-1.46-3.64-18-45-9-22.59-9.46,22.41-9.5,22.5-9.5,22.5L767.14,371l1.65,3.9,5.5,13L779,399v28H756V398.86l4.33-11.27,5-13,1.41-3.66-1.46-3.64-18-45-9-22.59-9.46,22.41-9.5,22.5-9.5,22.5L708.14,371l1.65,3.9,5.5,13L720,399v28H697V398.86l4.33-11.27,5-13,1.41-3.66-1.46-3.64-18-45-9-22.59-9.46,22.41-9.5,22.5-9.5,22.5L649.14,371l1.65,3.9,5.5,13L661,399v28H638V398.86l4.33-11.27,5-13,1.41-3.66-1.46-3.64-18-45-9-22.59-9.46,22.41-9.5,22.5-9.5,22.5L590.14,371l1.65,3.9,5.5,13L602,399v28H579V398.86l4.33-11.27,5-13,1.41-3.66-1.46-3.64-18-45-9-22.59-9.46,22.41-9.5,22.5-9.5,22.5L531.14,371l1.65,3.9,5.5,13L543,399v28H520V398.86l4.33-11.27,5-13,1.41-3.66-1.46-3.64-18-45-9-22.59-9.46,22.41-9.5,22.5-9.5,22.5L472.14,371l1.65,3.9,5.5,13L484,399v28H461V398.86l4.33-11.27,5-13,1.41-3.66-1.46-3.64-18-45-9-22.59-9.46,22.41-9.5,22.5-9.5,22.5L413.14,371l1.65,3.9,5.5,13L425,399v28H402V398.86l4.33-11.27,5-13,1.41-3.66-1.46-3.64-18-45-9-22.59-9.46,22.41-9.5,22.5-9.5,22.5L354.14,371l1.65,3.9,5.5,13L366,399v28H343V398.86l4.33-11.27,5-13,1.41-3.66-1.46-3.64-18-45-9-22.59-9.46,22.41-9.5,22.5-9.5,22.5L295.14,371l1.65,3.9,5.5,13L307,399v28H284V398.86l4.33-11.27,5-13,1.41-3.66-1.46-3.64-18-45-9-22.59-9.46,22.41-9.5,22.5-9.5,22.5L236.14,371l1.65,3.9,5.5,13L248,399v28H225V398.86l4.33-11.27,5-13,1.41-3.66-1.46-3.64-18-45-9-22.59-9.46,22.41-9.5,22.5-9.5,22.5L177.14,371l1.65,3.9,5.5,13L189,399v28H166V398.86l4.33-11.27,5-13,1.41-3.66-1.46-3.64-18-45-9-22.59-9.46,22.41-9.5,22.5-9.5,22.5L118.14,371l1.65,3.9,5.5,13L130,399v28H107V398.86l4.33-11.27,5-13,1.41-3.66-1.46-3.64-18-45-9-22.59-9.46,22.41-9.5,22.5-9.5,22.5L59.14,371l1.65,3.9,5.5,13L71,399v28H48V398.86l4.33-11.27,5-13,1.41-3.66-1.46-3.64L48,344.07V293.86l4.33-11.27,5-13,1.41-3.66-1.46-3.64L48,239.07V196.86l4.33-11.27,5-13,1.41-3.66-1.46-3.64L48,142.07V99.86l4.33-11.27,5-13,1.41-3.66-1.46-3.64L48,45.07V2.86L52.33-8.41l5-13,1.41-3.66-1.46-3.64L48-51.93V-94.14l4.33-11.27,5-13,1.41-3.66-1.46-3.64-18-45-9-22.59-9.46,22.41-9.5,22.5-9.5,22.5L.14-122l1.65,3.9,5.5,13L12-94v40.89l-.71,1.69-9.5,22.5L.14-25l1.65,3.9,5.5,13L12,3V43.92l-.71,1.69-9.5,22.5L.14,72l1.65,3.9,5.5,13L12,100v40.89l-.71,1.69-9.5,22.5L.14,169l1.65,3.9,5.5,13L12,197v40.89l-.71,1.69-9.5,22.5L.14,266l1.65,3.9,5.5,13L12,294v48.89l-.71,1.69-9.5,22.5L.14,371l1.65,3.9,5.5,13L12,399V590H48V558H71v32h36V558h23v32h36V558h23v32h36V558h23v32h36V558h23v32h36V558h23v32h36V558h23v32h36V558h23v32h36V558h23v32h36V558h23v32h36V558h23v32h36V558h23v32h36V558h23v32h36V558h23v32h36V398.86l4.33-11.27,5-13,1.41-3.66-1.46-3.64L874,344.07V293.86l4.33-11.27,5-13,1.41-3.66-1.46-3.64L874,239.07V196.86l4.33-11.27,5-13,1.41-3.66-1.46-3.64L874,142.07V99.86l4.33-11.27,5-13,1.41-3.66-1.46-3.64L874,45.07V2.86ZM838,485v44H815V456h23v29ZM48,475V456H71v73H48V475Zm59-19h23v73H107Zm59,0h23v73H166Zm59,0h23v73H225Zm59,0h23v73H284Zm59,0h23v73H343Zm59,0h23v73H402Zm59,0h23v73H461Zm59,0h23v73H520Zm59,0h23v73H579Zm59,0h23v73H638Zm59,0h23v73H697Zm59,0h23v73H756Z"/></g></svg>