<svg xmlns="http://www.w3.org/2000/svg" xmlns:xlink="http://www.w3.org/1999/xlink" viewBox="0 0 512 512"><defs><style>.cls-1{fill:#9f3c3a;}.cls-2{fill:#fcc;}.cls-3{fill:#300;}.cls-4{fill:url(#linear-gradient);}</style><linearGradient id="linear-gradient" x1="262.68" y1="57.75" x2="262.68" y2="444.63" gradientUnits="userSpaceOnUse"><stop offset="0.2" stop-color="#662d90" stop-opacity="0"/><stop offset="1"/></linearGradient></defs><title>env</title><g id="heart"><path class="cls-1" d="M390.4,180.32c-.49-4.79-5.2-7.5-5.87-7.76-5.73-2.28-13.26,4.35-21,5.31-6.3,2.59-29.28-5.56-22.08-10.21,22.24-11.59.11-26.1,6.17-36.78,7.26-19.58,36.2,11.5,20.3-19.29.51-3.58,2-2.83,4.2-8.55,0-1.65-.09-7.62-4.55-12.23-3.22-3.33-9-6.23-11.6-4.35-2.91,2.09.07,8.64-2.9,10.63-1.77,1.19-4.67.1-7.2-1.3-1.5-.39-5.34-1.74-7.55.67-2.8,3.05,2.49,11.55-3.62,16.78-5.9,13.83-26.61,13.14-27.49-3.17,3.77-9.48,31.57-14.46,20.63-28C319,75.84,307.81,85.86,300,91.6c1.17-16.39-12.56-32.15-19.32-6.11-.07,6.06-21-11.7-26-2.68C240.35,98,317.47,104.57,263.44,134c-8.62,4.44-10.4,9.66-17.63,16.38-1.06,1.49-4.51.29.22-4.21,21.66-19.42,24.8-43.84-9.16-42.53-3.44-.79-3.73-1-5.18-6.61-16.81-63.35-72.94-29.66-37.41,9.46,12.07,65.92-106,132.09-40.88,194-6.55,42.06,38.73,86.17,60.85,107.37C303.78,502,362,370,352.52,291.08c13.26-22.78,11.1-17.46,6.71-39.38l-10-32.65c7.47,8,18.08,10.5,25.63,6.58,8-4.13,12.33-15.28,9.44-19.54-1.32-1.94-3.53-1.78-5-4.2-.95-1.53-1.12-4.09.75-9.17C386.81,190.58,390.9,185.2,390.4,180.32Z"/><path class="cls-2" d="M390.4,180.32c-.49-4.79-5.2-7.5-5.87-7.76-5.73-2.28-13.26,4.35-21,5.31-6.3,2.59-29.28-5.56-22.08-10.21,22.24-11.59.11-26.1,6.17-36.78,7.26-19.58,36.2,11.5,20.3-19.29.51-3.58,2-2.83,4.2-8.55,0-1.65-.09-7.62-4.55-12.23-3.22-3.33-9-6.23-11.6-4.35-2.91,2.09.07,8.64-2.9,10.63-1.77,1.19-4.67.1-7.2-1.3-1.5-.39-5.34-1.74-7.55.67-2.8,3.05,2.49,11.55-3.62,16.78-5.9,13.83-26.61,13.14-27.49-3.17,3.77-9.48,31.57-14.46,20.63-28C319,75.84,307.81,85.86,300,91.6c1.17-16.39-12.56-32.15-19.32-6.11-.07,6.06-21-11.7-26-2.68C240.35,98,317.47,104.57,263.44,134c-8.62,4.44-10.4,9.66-17.63,16.38-1.06,1.49-4.51.29.22-4.21,21.66-19.42,24.8-43.84-9.16-42.53-3.44-.79-3.73-1-5.18-6.61-16.81-63.35-72.94-29.66-37.41,9.46,12.07,65.92-106,132.09-40.88,194,27.92-22.36,36-26.48,37.33-25.07,1.72,1.8-9.34,10.87-14,26.09-9.14,29.76,12.87,60.83,14,60.41.92-.34-12.11-21-6.28-45.91,1.38-5.92,5.38-23,19.81-28.51,8.89-3.39,20-1.71,26.58,3.87,12.31,10.37,12.63,37.17-4.84,63.3,15.38-17.89,18.6-28.88,18.37-35.76-.05-1.32-.34-6.16-.16-13.05.16-6.39.65-11.61,1-15,4.23-2.33,9.51-4.2,14.1-2.34,12.23,4.95,11,33,10.54,42.46-1.22,27.09-10.2,43.87-8.61,44.52,1.79.72,17.84-18.87,18.85-44.46.42-10.77-1.89-21.12,1.93-22.71,4.23-1.77,12.43,8.7,13.53,7.73s-7.46-8-6.77-16.43c.73-8.88,11.17-14.51,10.15-15.95s-11.47,6.65-15,3.87,1.4-15.29,6.77-23.68c5-7.76,13.75-17.32,17.39-15.46,2.33,1.19,1,6.25,1,13.53-.1,14.23,4.75,20.52,9.66,36.24a191.49,191.49,0,0,1,6.77,37.21c3.68,43.95-32.51,79.15-30.93,80.21s36.52-29.94,39.63-76.35a103.46,103.46,0,0,0-3.87-35.27c6.35-.48,13.18-1.49,13.53-3.87.47-3.18-11.39-4.36-18.85-12.73-12.86-14.44-6.1-42.85-2.9-43.05,1.57-.1,1.71,6.61,6.14,16.67,6.17,14,15.88,23.68,24.22,30.15,3.71-4,8.89-10.88,10-20.19.5-4.2-1.13-8.38-3.29-19.19l-10-32.65c7.47,8,18.08,10.5,25.63,6.58,8-4.13,12.33-15.28,9.44-19.54-1.32-1.94-3.53-1.78-5-4.2-.95-1.53-1.12-4.09.75-9.17C386.81,190.58,390.9,185.2,390.4,180.32Z"/><ellipse class="cls-1" cx="199.7" cy="77.55" rx="14.68" ry="11.71" transform="translate(-10.27 120.05) rotate(-32.67)"/><ellipse class="cls-1" cx="246.6" cy="117.14" rx="11.71" ry="14.68" transform="translate(21.85 272.13) rotate(-60)"/><path class="cls-3" d="M394.26,179.26c-9.85-26.75-30.11,5.7-48.38-9.31,24.34-18.75-5.28-28.22,9.2-41.85,2.21-4.32,5.27,2,11.12,2.73,23-2.42,1.63-16.51,8.26-23.1a18.66,18.66,0,0,0,1.94-9.39c0-.81-.73-9.25-8-14-1.62-1.05-5.26-3.46-9.52-2.74-5.65,1-10.38,7.07-11.27,15.14-5.35-6.6-8-7.29-9.35-6.77-3.5,1.32-.11,10.68-5.82,19.64-2.7,4.24-8.65,10.39-14.38,8.84-2.61-.7-5.06-2.76-6.89-6.65A23.44,23.44,0,0,1,317.66,101c6.12-5.59,12.48-4.47,15.14-9.67a10.9,10.9,0,0,0-1.17-11.16c-4.29-5.06-16.34-4.57-28.54,4,1.44-18.46-22.41-23.36-25.73-2-12.77-9.06-34.2-7.77-26.42,11.4,14.51,11.31,46.34,18,12.79,35.7.32-.59,5.79-11.26-.16-21.38a22.14,22.14,0,0,0-23.23-10.15C229.87,67.92,207.43,54,193.72,58.63c-9.35,3.16-17.78,16-16.32,26.89,1.5,11.19,9.81,12,13.87,24.62,5.64,17.51-5.11,36.34-12.78,49.77-6.1,10.67-7.63,9.6-17.4,23.84C152,197,142.45,210.92,136.61,229.82c-4.16,13.45-12.15,39.28,1,59.78a45.74,45.74,0,0,0,11.74,12.32c-3.19,20.51,7.33,44.8,20.89,62.12,148.93,202.48,198.24-35.72,186.28-74.37a35,35,0,0,0,8.5-11.44c6.63-14.59.6-30-2.58-38.11a73.4,73.4,0,0,0-10-17.71c6.93,8.64,18.73,10.71,26.94,5.61,6.72-4.18,10-12.54,8.73-20.12a20.63,20.63,0,0,0-6.47-11.52C387.66,194.7,397.77,188.51,394.26,179.26ZM373.2,194.63c-1.18,5.08,9.06,8.42,9.13,16,0,5.12-4.55,11.44-10.15,12.8-11.53,2.8-19.49-17.3-35.84-15.86a22.62,22.62,0,0,0-9,2.9c-9.25,5.14-12.55,15.16-13.85,18.68C304,254.81,276.15,272,277.71,273.63c1.38,1.45,24.43-10.76,40.37-34.36,7.43-11,9.16-18.32,15-18.8,9.93-.81,19.55,18.89,23.05,29.37.49,1.47.95,3,1.34,4.71a46.48,46.48,0,0,1,1.34,15.68c-.45,4-1.45,12.94-5.52,14.1-4.68,1.32-11.2-8.21-17-16.69-9.85-14.39-13.88-25.55-14.4-25.34s3.14,14.47,12.33,30a120.92,120.92,0,0,0,14.31,19.39A168.68,168.68,0,0,1,346.32,345a161,161,0,0,1-17.64,47.83c-14.89,19.77-30.24,51.63-59.92,43.66-50.06-13.4-119.27-95-111.54-133A141.19,141.19,0,0,0,171.08,292c18.55-17.52,28-36.13,36.72-53.8,5.18-10.44,10.48-22.67,9.59-23.13-1.07-.57-10.17,16.5-26,38.27-17.1,23.5-27.56,37.57-37,35.76-8.36-1.59-14.11-15.18-15.54-26.35-5.4-42.2,46.47-83.59,59.67-126.67a47.48,47.48,0,0,0,1.6-23.91c-2.41-11.63-9.22-19.74-13.55-24.07-3.93-13.38,11.66-30.51,24.38-18.6,7,6.56,11.35,13,13.59,17.79,2.89,6.21,4.49,9.24,4.26,13.35-.44,7.94-6.43,13.36-5.47,14.18.73.63,3.69-3.06,9.34-5.8,2.73-1.32,9.75-4.72,16.43-2.25a16.24,16.24,0,0,1,9.73,10.33c2.7,9.94-8.51,17.08-18.95,34.19-12,19.73-12.46,38.9-11.88,39.07s5.11-20.43,18.52-37.21c0,0,10.85-13.56,22.77-17.34.12,0,.78-.25,1.65-.59a33.16,33.16,0,0,0,6.9-4.07,48.21,48.21,0,0,0,9-9.57c.71-8.82-1.65-13.8-3.81-16.68-7.6-10.09-23.39-9.6-25.37-16.84a4.53,4.53,0,0,1,.48-3.2c10.76.06,17.12,3.18,21,6.23,3.07,2.4,6.58,6.29,7.36,5.69.63-.49-1.46-3.2-1.76-8.39a17.59,17.59,0,0,1,.15-3.85,16.85,16.85,0,0,1,3.92-8.32,4.74,4.74,0,0,1,3.8-.17c3.36,1.7,2.86,9.55,1.62,14.61-1.6,6.55-4.08,7-6.44,13.53-3,8.35-2.39,17.09-1,17.39s2.72-8.93,10.63-20.61c8.39-12.4,15.73-14.87,17.72-15.47a25.16,25.16,0,0,1,8.78-1c1.1.46,2.37,1.2,2.59,2.34.83,4.25-13.27,7-21.68,17.63-8.81,11.08-8.44,27.08-6.44,27.71.9.28,3-2.32,8.05-13.53l5.15,5.79c-4.54,3.64-5.15,5.13-4.83,5.8.84,1.74,8.27-1,17.52-2.72a12.31,12.31,0,0,0,4-1.5,11.84,11.84,0,0,0,2.59-2.11c10.41-11,10.87-10.41,11-25.1,3.93,5.67,6.39,6.65,8,6.3,4.49-1,3.21-13.08,8.7-14.81,3.35-1.06,8.41,2,9.66,5.79,1.7,5.13-4.67,8.16-3.76,14.73.86,6.24,7.33,8.94,6,11.69-.77,1.61-3.68,2.13-5.8,1.69-4.39-.92-5-5.88-7.73-6.52s-6.86,2.67-14.57,17.58c8.15,13.81,7.74,19.81,5.55,22.69-3.12,4.09-9.81,1.78-20,3.86-11.29,2.32-18.8,8.26-25.77,14.18-24.5,20.8-29.59,56-28.67,56.37.72.27,4.84-20.88,23.52-41.55,4.36-4.83,21.47-23.76,35.11-19.65,4.57,1.37,5.48,4.34,12.57,7.4a42.24,42.24,0,0,0,20.64,3l18.42-5.53c2.62,2.28,5.16,5.22,4.59,8C387.2,189.65,374.47,189.13,373.2,194.63ZM246.46,235c-2.13.32,6.84,32.31-6.44,41.88-4.25,3.06-10,3.27-17.72,3.54-12.35.44-20-2.85-20.3-1.93-.35,1.11,10,8.35,22.88,8.38,8.64,0,12.08-3.21,15.78-.65,4.35,3,4,10.54,3.55,19.65-.84,15.39-4.84,25.23-4.19,25.45s9.37-11.47,9.66-27.06c.16-8.59-2.26-16.06,1.61-18.68,1.87-1.27,3.35-.14,8.06-1.29,5.23-1.28,9.64-4.19,9.34-5.16-.49-1.55-12.59,4-17.07-.64-3.17-3.29.29-8.73.64-19.33C252.71,245.57,247.72,234.78,246.46,235Z"/><path class="cls-4" d="M394.26,179.26c-9.85-26.75-30.11,5.7-48.38-9.31,24.34-18.75-5.28-28.22,9.2-41.85,2.21-4.32,5.27,2,11.12,2.73,23-2.42,1.63-16.51,8.26-23.1a18.66,18.66,0,0,0,1.94-9.39c0-.81-.73-9.25-8-14-1.62-1.05-5.26-3.46-9.52-2.74-5.63,1-10.33,7-11.26,15l-.18-.08c-5.23-6.4-7.8-7.08-9.18-6.57-3.5,1.32-.11,10.68-5.82,19.64-2.7,4.24-8.65,10.39-14.38,8.84-2.61-.7-5.06-2.76-6.89-6.65a23.5,23.5,0,0,1,6.35-10.74c2.12-1.31,4.29-2.61,6.22-4,3.88-1.69,7.28-2.36,9.05-5.82a10.9,10.9,0,0,0-1.17-11.16c-4.29-5.06-16.34-4.57-28.54,4,1.44-18.46-22.41-23.36-25.73-2-12.77-9.06-34.2-7.77-26.42,11.4,14.51,11.31,46.34,18,12.79,35.7.32-.59,5.79-11.26-.16-21.38a22.14,22.14,0,0,0-23.23-10.15C229.87,67.92,207.43,54,193.72,58.63c-9.35,3.16-17.78,16-16.32,26.89,1.5,11.19,9.81,12,13.87,24.62,5.64,17.51-5.11,36.34-12.78,49.77-6.1,10.67-7.63,9.6-17.4,23.84C152,197,142.45,210.92,136.61,229.82c-4.16,13.45-12.15,39.28,1,59.78a45.74,45.74,0,0,0,11.74,12.32c-3.19,20.51,7.33,44.8,20.89,62.12,148.93,202.48,198.24-35.72,186.28-74.37a35,35,0,0,0,8.5-11.44c6.63-14.59.6-30-2.58-38.11a73.4,73.4,0,0,0-10-17.71c6.93,8.64,18.73,10.71,26.94,5.61,6.72-4.18,10-12.54,8.73-20.12a20.63,20.63,0,0,0-6.47-11.52C387.66,194.7,397.77,188.51,394.26,179.26Z"/></g></svg>