<?xml version="1.0" encoding="UTF-8"?><svg id="Skiny_2" xmlns="http://www.w3.org/2000/svg" viewBox="0 0 512 512"><defs><style>.cls-1{fill:#369;}.cls-2{opacity:.5;}.cls-3{stroke:#996;}.cls-3,.cls-4,.cls-5{stroke-linecap:round;stroke-linejoin:round;stroke-width:8px;}.cls-3,.cls-5,.cls-6{fill:#ffc;}.cls-7{fill:#663;}.cls-4{fill:#993;stroke:#663;}.cls-5{stroke:#960;}.cls-8{stroke:#336;}.cls-8,.cls-9{fill:#69c;stroke-miterlimit:10;stroke-width:6px;}.cls-10{fill:#996;}.cls-11{fill:#036;}.cls-12{fill:#cc9;}.cls-9{stroke:#036;}.cls-13{fill:#300;}</style></defs><path class="cls-3" d="M374.34,258.06l.51-10.89c-1.37-15.39-17.97-11.09-37.09-10.32l-24.79,.99c-22.98,.87-42.89,4.65-43.01,11.34h0c-.12,6.69,18.9,10.94,42.57,12.89l24.15,2.06c18.07,1.54,33.82,6.97,37.66-6.08Z"/><g><g><path class="cls-3" d="M143.38,370.73l6.88,8.16c11.26,10.12,20.57-4.25,34.09-17.8l17.52-17.56c16.28-16.24,28.37-32.49,24-37.37h0c-4.37-4.89-21.15,4.99-39.82,19.68l-19.09,14.94c-14.28,11.17-29.45,17.98-23.58,29.96Z"/><path class="cls-3" d="M98.53,307.82l-1.42-13.06c.07-18.62,16.98-14.66,36.11-15.15l24.8-.63c22.98-.65,43.15,2.44,43.84,10.48h0c.68,8.04-17.92,14.56-41.36,18.65l-23.9,4.25c-17.88,3.18-33.13,10.88-38.06-4.54Z"/><path class="cls-3" d="M209.68,336.64l-51.35-66.47,46.62-27.17c26.67-14.28,49.69-23.19,67.4-.26h0c17.58,22.76-5.11,34.28-25.8,56.38-.16,.17-.29,.36-.44,.54l-36.43,36.99Z"/><g><path class="cls-9" d="M130.02,267.58l10.16,11.75-8.37,12.89,14.42,7.14-10.01,18.43,11.19,4.35,30.15-8.59c12.62-4.02,22.8-12.94,21.21-24.97h0c-1.59-12.03-13.27-17.62-26.97-18.59l-41.77-2.42Z"/><path class="cls-1" d="M198.15,297.58c.82-2.48,1.12-5.16,.74-8.01h0c-1.59-12.03-13.27-17.62-26.97-18.59l-41.77-2.42,10.16,11.75-3.38,5.2,40.48,4.93c8.23,.58,15.72,2.83,20.74,7.13Z"/><path class="cls-11" d="M123.32,264.71l48.86,2.83c17.31,1.22,28.15,8.94,29.77,21.19,0,.04,.01,.08,.02,.12,1.56,12.27-7.35,23.03-23.29,28.1l-31.2,8.89-15.31-5.95,10.15-18.69-14.65-7.25,8.98-13.82-13.33-15.41Zm20.82,14.9l-7.76,11.95,14.19,7.03-9.87,18.18,7.08,2.75,29.18-8.31c10.1-3.22,20.46-10.6,19.07-21.6,0-.03,0-.06-.01-.09-1.72-13.02-17.5-15.52-24.21-15.99l-34.65-2,6.99,8.08Z"/></g><g><path class="cls-9" d="M175.08,322.26l-9.02,8.8,15.5,1.95-.17,15.27,13.09-5.03,2.26,20.98,10.68-12.02,12.93-16.04c7.12-8.52,9.9-20.21,2.43-29.77h0c-7.47-9.56-18.94-9.58-29.47-4.85l-18.23,20.71Z"/><path class="cls-1" d="M221.33,306.09c-1.77-1.75-3.94-3.29-6.54-4.52h0c-10.95-5.22-20.64-1.29-27.22,6.19l-19.61,23.07,14.31,.09,1.51,13.09,22.74-29.5c3.95-4.49,9.02-7.7,14.81-8.42Z"/><path class="cls-11" d="M158.98,332.96l13.39-13.07,18.59-21.12,.59-.27c13.45-6.04,25.5-3.95,33.07,5.74,.03,.03,.05,.07,.08,.1,7.41,9.59,6.41,22.7-2.57,33.44l-12.99,16.11-15.18,17.08-2.56-23.84-13.57,5.22,.18-17.02-19.02-2.39Zm35.61-29.24l-17.95,20.38-4.56,4.46,11.98,1.5-.15,13.53,12.61-4.85,1.95,18.13,6.13-6.9,12.88-15.99c5.68-6.8,9.28-17.14,2.47-25.96-.02-.03-.04-.06-.07-.08-7.61-9.74-18.87-6.98-25.29-4.22Z"/></g><polygon class="cls-8" points="195.19 259.54 245.67 215.52 253.95 233.44 212.5 270.98 195.19 259.54"/><g><polygon class="cls-9" points="214.67 347.25 173.57 301.35 183.97 287 166.96 289.52 146.08 262.5 196.27 235.1 229.61 275.75 224.47 293.63 241.68 290.04 254.27 305.28 214.67 347.25"/><polygon class="cls-1" points="197.49 236.68 149.25 262.57 164.54 282.36 213.22 255.71 197.49 236.68"/><path class="cls-11" d="M169.77,301.54l7.63-10.54-11.7,1.73-24.1-31.2,55.45-30.27,35.92,43.79-4.21,14.61,14.11-2.94,15.44,18.68-43.66,46.27-44.89-50.13Zm20.86-18.56l-13.16,18.16,37.31,41.66,35.55-37.67-9.75-11.8-20.31,4.23,6.09-21.14-30.77-37.51-44.92,24.52,17.65,22.85,22.32-3.31Z"/></g></g><g><path class="cls-4" d="M153.28,349.43c-9.92,6.33-17.92,11.33-11.57,21.92l8.26,9.39c11.5,10.69,18.33,1.6,27.64-8.71-7.96-5.39-16.73-12.75-24.34-22.6Z"/><g class="cls-2"><path class="cls-7" d="M160.83,377.94l-8.26-9.39c-4.36-7.26-1.97-11.89,3.16-16.12-.98-1.15-1.95-2.34-2.9-3.57-9.92,6.33-17.92,11.33-11.57,21.92l8.26,9.39c6.94,6.46,12.18,5.7,17.29,1.81-1.87-.74-3.85-2.04-5.99-4.04Z"/></g></g></g><g><g><g><path class="cls-6" d="M222.49,169.21c-5.17-4.12-12.08-9.83-19.14-13.11-5,14.15-2.96,21-1.04,26.15,4.06,10.87,15.41,15.33,16.73,15.73"/><g><path class="cls-12" d="M210.41,191.28s.03,.03,.05,.04c-.02-.02-.03-.03-.05-.05,0,0,0,0,0,0Z"/><path class="cls-10" d="M211.05,191.87s0-.05-.02-.08c-.19-.16-.39-.31-.57-.47,.2,.19,.39,.38,.59,.55Z"/><g><path class="cls-12" d="M204.73,173.92c.08-.08,.29-.27,.37-.35,.24-.16,.48-.33,.72-.49,1.88-1,4.16-.98,6.33-.48-3.03-1.62-6.11-3.14-8.57-4.12-1.61,5.14-1.38,9.64-.51,13.09-.58-2.77-.28-5.59,1.66-7.65Z"/><path class="cls-10" d="M221.85,179.75l.04-.74,.03-.64c-2.3-1.54-6-3.75-9.78-5.78-2.16-.49-4.45-.52-6.33,.48-.25,.15-.49,.32-.72,.49-.08,.08-.29,.27-.37,.35-1.94,2.06-2.24,4.88-1.66,7.65,.46,1.82,2.65,6.01,2.77,6.17,.06,.08,.13,.17,.19,.24,.05,.06,.1,.11,.14,.16-1.12-3.74-2.09-8.92,.79-11.76,2.14-1.8,5.51-.96,8.15-.03,2.47,.89,4.71,2.27,6.73,3.9l.03-.5Z"/><path class="cls-12" d="M217.58,181.21c1.44,.42,2.8,1.03,4.08,1.79l.17-2.74c-2.01-1.62-4.25-3.01-6.73-3.9-2.64-.93-6.01-1.78-8.15,.03-2.89,2.84-1.92,8.02-.79,11.76,.17,.2,1.24,1.78,3.34,3.83-.5-1.51-.78-3.06-.78-4.63,.06-4.98,3.36-7.68,8.86-6.15Z"/><path class="cls-12" d="M220.5,198.3l.99-11.99,.03-.59c-2.01-1.01-4.34-1.78-6.25-1.93-2.96-.21-4.04,2.2-4.31,4.59-.19,1.7-.03,3.44,.3,5.18,4.17,3.39,8.47,4.54,9.24,4.74Z"/><path class="cls-10" d="M215.27,183.8c1.91,.15,4.24,.92,6.25,1.93l.09-1.84,.05-.89c-1.27-.75-2.64-1.37-4.08-1.79-5.5-1.53-8.8,1.17-8.86,6.15,0,1.57,.28,3.12,.78,4.63,.18,.18,.36,.36,.56,.54,.4,.37,.8,.71,1.2,1.04-.33-1.74-.5-3.48-.3-5.18,.27-2.38,1.35-4.8,4.31-4.59Z"/></g></g><path class="cls-10" d="M219.54,201.48c-3.54-1.06-14.57-6.55-18.68-17.55-2.22-5.95-4.16-13.53,1.02-28.2l1.1-3.11,2.99,1.39c6.85,3.18,13.33,8.35,18.53,12.52l1.21,.97-3.74,4.69-1.22-.97c-4.15-3.31-9.14-7.31-14.29-10.2-3.44,11.56-1.39,17.07,.01,20.82,3.74,10.02,14.67,13.87,14.78,13.9l-1.71,5.75Z"/></g><g><path class="cls-6" d="M332.04,195.66c6.49-1.24,15.27-3.09,23.04-2.71-2.15,14.85-7.14,19.96-11.24,23.63-8.65,7.74-20.77,6.41-22.12,6.15"/><g><path class="cls-12" d="M332.47,220.82s-.04,0-.06,.01c.02,0,.04-.01,.06-.02,0,0,0,0,0,0Z"/><path class="cls-10" d="M331.63,221.05s.03-.04,.05-.06c.24-.05,.48-.09,.73-.15-.26,.07-.52,.15-.78,.22Z"/><g><path class="cls-12" d="M345.58,208.09c-.03-.11-.13-.38-.16-.48-.13-.26-.27-.52-.41-.77-1.2-1.76-3.23-2.8-5.38-3.37,3.43-.03,6.87,.06,9.5,.34-.96,5.3-3.26,9.18-5.63,11.83,1.8-2.19,2.85-4.82,2.09-7.55Z"/><path class="cls-10" d="M327.7,205.29l.31-.68,.27-.58c2.76-.3,7.05-.53,11.34-.57,2.14,.57,4.18,1.61,5.38,3.37,.15,.25,.28,.51,.41,.77,.04,.1,.13,.37,.16,.48,.76,2.73-.28,5.36-2.09,7.55-1.25,1.4-5.14,4.09-5.32,4.17-.09,.04-.19,.09-.28,.13-.07,.03-.14,.05-.2,.08,2.73-2.79,6-6.92,4.77-10.78-1.05-2.59-4.43-3.41-7.2-3.81-2.6-.36-5.23-.18-7.77,.32l.21-.46Z"/><path class="cls-12" d="M330.8,208.57c-1.47-.3-2.96-.39-4.44-.31l1.13-2.51c2.54-.5,5.16-.69,7.77-.32,2.77,.4,6.15,1.22,7.2,3.81,1.23,3.86-2.03,8-4.77,10.78-.24,.1-1.93,1-4.74,1.84,1.14-1.1,2.12-2.34,2.84-3.74,2.26-4.44,.6-8.36-4.98-9.56Z"/><path class="cls-12" d="M320.27,222.35l4.7-11.07,.25-.53c2.25,.04,4.67,.44,6.43,1.2,2.72,1.19,2.55,3.83,1.69,6.07-.62,1.6-1.58,3.06-2.68,4.44-5.27,1.07-9.61,.08-10.38-.1Z"/><path class="cls-10" d="M331.65,211.94c-1.76-.75-4.18-1.15-6.43-1.2l.78-1.67,.37-.82c1.48-.08,2.97,.01,4.44,.31,5.58,1.2,7.25,5.12,4.98,9.56-.72,1.39-1.7,2.63-2.84,3.74-.25,.07-.48,.15-.75,.22-.52,.14-1.04,.26-1.55,.36,1.1-1.38,2.06-2.85,2.68-4.44,.87-2.24,1.03-4.88-1.69-6.07Z"/></g></g><path class="cls-10" d="M319.65,225.61c3.63,.71,15.95,.98,24.7-6.86,4.74-4.24,9.97-10.05,12.21-25.44l.47-3.26-3.29-.16c-7.54-.37-15.68,1.2-22.23,2.46l-1.52,.29,1.13,5.89,1.53-.29c5.21-1.01,11.49-2.22,17.4-2.39-2.33,11.84-6.71,15.76-9.69,18.43-7.97,7.13-19.44,5.46-19.55,5.44l-1.16,5.89Z"/></g></g><path class="cls-5" d="M338.12,164.55s7.86-42.34-37.6-55.67c-61.1-17.92-76.47,33.85-76.6,34.36-.45,1.65-5.28,49.76-1.7,73.41,4.51,6.32,10.57,13.69,18.56,21.05,10.67,9.83,21.24,16.4,29.57,20.72,7.13-1.31,18.36-4.3,30.13-11.87,8.69-5.59,14.82-11.83,18.85-16.65,7.05-21.57,12.79-43.5,18.8-65.36Z"/><path class="cls-12" d="M247.33,233.2c.43-.1,.86-.23,1.27-.41,6.63-2.82,7.57-12.79,2.44-24.85-4.95-11.64-16.94-11.1-23.26-14.49-1.86-7.33-2.53-13.34-3.21-13.31-.75,.04-2.42,5.54-2.46,13.72-.46,1.7-.24,4.42,.43,7.6,.83,7.12,2.98,15.3,7.55,23.38,13.36,23.62,39.13,31.82,39.66,31.12,.39-.52-11.97-7.65-22.42-22.76Z"/><path class="cls-12" d="M306.93,224.8c-5.59,9.15-7.45,16.46-4.58,18.21,2.86,1.75,9.71-4.26,15.3-13.41,5.59-9.15,11.56-21.5,5.54-16.97-4.16,3.13-10.67,3.02-16.25,12.17Z"/><path class="cls-12" d="M324.87,135.93c.21,1.52,.66,3.68,1.7,6.1,1.43,3.31,3.26,5.43,4.62,7,1.42,1.62,3.59,3.79,6.68,5.83-.41,.24-5.51,3.04-10.85,.39-5.89-2.93-6.27-9.63-6.28-9.91-.21-5.49,3.6-8.95,4.12-9.41Z"/><path class="cls-12" d="M267.43,122.34c-1.21,1.52-3.1,3.58-5.8,5.54-3.7,2.68-7.07,3.81-9.57,4.63-2.59,.85-6.36,1.8-11.05,2.02,.3,.52,4.03,6.89,11.56,7.45,8.31,.62,13.07-6.43,13.26-6.73,3.79-5.84,1.87-12.08,1.6-12.92Z"/><path class="cls-10" d="M269.28,262.28c-.27-.07-.53-.18-.78-.31-11.07-5.74-21.31-12.92-30.44-21.33-7.08-6.52-13.51-13.81-19.11-21.67-.36-.51-.6-1.1-.7-1.72-3.64-24.07,1.17-72.78,1.8-75.07,.06-.22,6.29-22.12,27.46-33.93,14.88-8.3,33.08-9.38,54.12-3.21,48.36,14.18,40.49,59.77,40.4,60.23-.02,.11-.05,.22-.08,.33-1,3.64-2,7.29-2.99,10.94-4.9,17.96-9.96,36.53-15.86,54.6-.16,.48-.41,.93-.73,1.32-5.69,6.81-12.33,12.68-19.75,17.45-9.61,6.18-20.23,10.37-31.57,12.44-.6,.11-1.2,.08-1.78-.08Zm-43.25-47.17c5.15,7.11,11.02,13.72,17.45,19.65,8.27,7.62,17.51,14.16,27.48,19.47,9.8-1.96,18.99-5.67,27.34-11.04,6.52-4.19,12.39-9.33,17.45-15.27,5.74-17.65,10.7-35.86,15.51-53.48,.98-3.59,1.96-7.18,2.94-10.77,.51-3.05,5.61-39.1-34.81-50.95-23.77-6.98-42.94-3.9-57.03,9.1-10.26,9.47-14.14,21.05-14.56,22.4-.71,4.25-4.85,48.49-1.77,70.9Z"/><g><path class="cls-13" d="M256.05,189.15c-1.51,9.13,2.52,17.6,9.69,19.57,7.82,2.15,16.38-4.23,19.14-14.25,1.04-3.77,1.1-7.52,.36-10.84-4.26,1.83-9.72,3.67-16.26,4.71-4.83,.77-9.2,.93-12.93,.81Z"/><path class="cls-13" d="M309.74,198.51c-4.39-3.65-7.78-7.41-10.38-10.78-1.54,2.02-2.79,4.48-3.55,7.26-2.4,8.74,.84,17.25,7.23,19.01,5.63,1.55,11.83-2.66,14.87-9.66-2.59-1.58-5.35-3.49-8.17-5.83Z"/></g></g><path class="cls-3" d="M305.43,256.65l-3.08,10.45c-6.33,14.1-20.61,4.59-38.43-2.39l-23.1-9.05c-21.43-8.34-39.01-18.43-36.93-24.79h0c2.07-6.36,21.44-4.16,44.45,1.75l23.49,5.96c17.58,4.46,34.24,4.48,33.6,18.07Z"/></svg>