<svg xmlns="http://www.w3.org/2000/svg" viewBox="0 0 200 200"><defs><style>.cls-1{fill:#3e8758;}.cls-2{fill:#285e3a;opacity:0.7;}.cls-3{fill:#386eb6;}</style></defs><title>grass</title><g id="grass"><rect class="cls-1" width="200" height="200"/><polygon class="cls-2" points="127.76 85.19 164.58 74.77 188.63 51.45 167.9 52.34 150.58 61.62 137.72 67.97 127.76 85.19"/><polygon class="cls-2" points="86 69.97 83.64 41.65 67.12 35.75 37.62 18.05 57.68 47.55 73.02 54.63 86 69.97"/><polygon class="cls-2" points="68 84.97 64.17 63.29 48.87 55.64 39.95 45.44 10.62 41.61 38.67 69.67 68 84.97"/><polygon class="cls-2" points="119.18 71.84 121.7 41.65 139.31 35.36 158.62 17 149.38 47.94 133.02 55.49 119.18 71.84"/><polygon class="cls-3" points="73.62 104.97 83.62 100.97 91.62 108.97 80.62 115.97 73.62 104.97"/><polygon class="cls-3" points="123.62 101.97 135.62 93.97 143.62 100.97 135.62 105.97 123.62 101.97"/><polygon class="cls-3" points="107.62 160.97 97.62 171.97 107.62 180.97 116.62 168.97 107.62 160.97"/><polygon class="cls-2" points="95.62 134.16 59.86 137.9 57.31 147.86 45.82 161.56 44.54 179 68.8 167.79 85.4 166.54 84.12 152.84 95.62 134.16"/><polygon class="cls-2" points="59.06 108.64 29.18 115.92 26.97 126.36 16.99 136.78 20.91 161.38 34.37 140.32 49.3 136.68 46.47 127.04 59.06 108.64"/><polygon class="cls-2" points="118.96 132.12 149.36 138.81 155.99 152.75 170.53 155.95 173.21 181.49 156.01 165.22 136.48 159.53 129.84 145.6 118.96 132.12"/><polygon class="cls-2" points="142.85 117.97 156.84 129.34 161.94 143.92 170.45 145.85 180.46 160.8 183.23 123.56 169.71 122.55 142.85 117.97"/></g></svg>