<svg xmlns="http://www.w3.org/2000/svg" viewBox="0 0 200 200"><defs><style>.cls-1{fill:#3e8758;}.cls-2{fill:#285e3a;opacity:0.7;}.cls-3{fill:#386eb6;}.cls-4{fill:#87c19a;}</style></defs><title>grass</title><g id="grass"><rect class="cls-1" width="200" height="200"/><polygon class="cls-2" points="129.49 82.21 167.49 77.69 194.9 58.44 174.29 56.05 155.73 62.51 142.03 66.77 129.49 82.21"/><polygon class="cls-2" points="77 156.97 74.64 128.65 58.12 122.75 28.62 105.05 48.68 134.55 64.02 141.63 77 156.97"/><polygon class="cls-2" points="59 171.97 55.17 150.29 39.87 142.64 30.95 132.44 1.62 128.61 29.67 156.67 59 171.97"/><polygon class="cls-2" points="127.18 71.84 129.7 41.65 147.31 35.36 166.62 17 157.38 47.94 141.02 55.49 127.18 71.84"/><polygon class="cls-3" points="76.62 95.97 86.62 91.97 94.62 99.97 83.62 106.97 76.62 95.97"/><polygon class="cls-3" points="91.62 30.97 103.62 22.97 111.62 29.97 103.62 34.97 91.62 30.97"/><polygon class="cls-3" points="106.62 161.97 96.62 172.97 106.62 181.97 115.62 169.97 106.62 161.97"/><path class="cls-2" d="M181,150.2c0,3.84-6.08,7.08-14.4,8.1-2.93,3.13-10.15,5.34-18.6,5.34s-15.9-2.28-18.74-5.49c-7.73-1.17-13.26-4.29-13.26-8,0-4.66,9-8.43,20-8.43a39.82,39.82,0,0,1,12.5,1.85,39.82,39.82,0,0,1,12.5-1.85C172,141.77,181,145.54,181,150.2Z"/><ellipse class="cls-4" cx="148" cy="121.5" rx="20" ry="16.5"/><ellipse class="cls-4" cx="148" cy="137.5" rx="20" ry="16.5" transform="translate(-17.42 21.55) rotate(-7.87)"/><ellipse class="cls-3" cx="148" cy="131.5" rx="16" ry="8.5"/><ellipse class="cls-4" cx="169.65" cy="133.56" rx="20" ry="8.44" transform="translate(-37.2 195.47) rotate(-54.87)"/><ellipse class="cls-4" cx="127.65" cy="133.56" rx="8.44" ry="20" transform="translate(-53.6 97.77) rotate(-35.13)"/><ellipse class="cls-4" cx="147.89" cy="143.65" rx="20" ry="8.44"/><path class="cls-2" d="M78.29,75.64c0,3.84-6.08,7.08-14.4,8.1-2.93,3.13-10.15,5.34-18.6,5.34s-15.9-2.28-18.74-5.49c-7.73-1.17-13.26-4.29-13.26-8,0-4.66,9-8.43,20-8.43a39.82,39.82,0,0,1,12.5,1.85,39.82,39.82,0,0,1,12.5-1.85C69.34,67.21,78.29,71,78.29,75.64Z"/><ellipse class="cls-4" cx="45.31" cy="46.94" rx="20" ry="16.5"/><ellipse class="cls-4" cx="45.31" cy="62.94" rx="20" ry="16.5"/><ellipse class="cls-3" cx="45.31" cy="56.94" rx="16" ry="8.5"/><ellipse class="cls-4" cx="66.96" cy="59" rx="20" ry="8.44" transform="translate(-19.82 79.82) rotate(-54.87)"/><ellipse class="cls-4" cx="24.96" cy="59" rx="8.44" ry="20" transform="translate(-29.4 25.11) rotate(-35.13)"/><ellipse class="cls-4" cx="45.2" cy="69.08" rx="20" ry="8.44"/></g></svg>