<svg xmlns="http://www.w3.org/2000/svg" viewBox="0 0 200 200"><defs><style>.cls-1{fill:#3e8758;}.cls-2{fill:#285e3a;opacity:0.7;}.cls-3{fill:#386eb6;}</style></defs><title>grass</title><g id="grass"><rect class="cls-1" width="200" height="200"/><polygon class="cls-2" points="127.76 85.19 164.58 74.77 188.63 51.45 167.9 52.34 150.58 61.62 137.72 67.97 127.76 85.19"/><polygon class="cls-2" points="86 69.97 83.64 41.65 67.12 35.75 37.62 18.05 57.68 47.55 73.02 54.63 86 69.97"/><polygon class="cls-2" points="68 84.97 64.17 63.29 48.87 55.64 39.95 45.44 10.62 41.61 38.67 69.67 68 84.97"/><polygon class="cls-2" points="119.18 71.84 121.7 41.65 139.31 35.36 158.62 17 149.38 47.94 133.02 55.49 119.18 71.84"/><polygon class="cls-3" points="20.62 121.97 30.62 117.97 38.62 125.97 27.62 132.97 20.62 121.97"/><polygon class="cls-3" points="101.62 126.97 113.62 118.97 121.62 125.97 113.62 130.97 101.62 126.97"/><polygon class="cls-3" points="68.62 160.97 58.62 171.97 68.62 180.97 77.62 168.97 68.62 160.97"/><polygon class="cls-3" points="164.6 155.97 154.6 166.97 164.6 175.97 173.6 163.97 164.6 155.97"/></g></svg>