<?xml version="1.0" encoding="UTF-8"?><svg id="Full" xmlns="http://www.w3.org/2000/svg" viewBox="0 0 512 512"><defs><style>.cls-1{fill:#369;}.cls-2{opacity:.5;}.cls-3{stroke:#996;}.cls-3,.cls-4{stroke-linecap:round;stroke-linejoin:round;stroke-width:8px;}.cls-3,.cls-5{fill:#ffc;}.cls-6{fill:#663;}.cls-4{fill:#993;stroke:#663;}.cls-7{stroke:#336;}.cls-7,.cls-8{fill:#69c;stroke-miterlimit:10;stroke-width:6px;}.cls-9{fill:#c00;}.cls-10{fill:#996;}.cls-11{fill:#036;}.cls-12{fill:#cc9;}.cls-8{stroke:#036;}</style></defs><g id="Idle"><g><path class="cls-3" d="M223.34,407.79l-20.53-1.1c-28.81-3.63-19.01-19.52-15.6-38.44l4.42-24.52c3.99-22.74,13.15-42,25.75-41.13h0c12.6,.87,18.64,20.42,19.88,44.27l1.39,24.34c1.04,18.21,9.64,34.69-15.3,36.59Z"/><path class="cls-3" d="M266.03,408.05l17.35-.93c24.31-3.4,15.81-19.35,12.66-38.28l-4.07-24.54c-3.69-22.75-11.69-42.07-22.33-41.31h0c-10.64,.76-15.48,20.25-16.2,44.07l-.84,24.31c-.63,18.19-7.67,34.58,13.44,36.68Z"/></g><path class="cls-3" d="M289.22,327.53h-99.22l11.77-52c4.73-29,15.15-52,42.55-52h0c27.4,0,28.37,25,34.98,54l9.91,50Z"/><g><path class="cls-8" d="M185.56,369.66l12.93-8.6,11.73,9.93,8.9-13.4,17.03,12.25,5.73-10.55-4.72-30.99c-2.4-13.02-9.96-24.25-22.1-24.18h0c-12.13,.06-19.15,10.94-21.84,24.42l-7.66,41.13Z"/><path class="cls-1" d="M223.91,305.85c-2.36-1.13-4.97-1.76-7.85-1.74h0c-12.13,.06-19.15,10.94-21.84,24.42l-7.66,41.13,12.93-8.6,4.74,4.01,9.99-39.54c1.61-8.09,4.79-15.24,9.69-19.68Z"/><path class="cls-11" d="M181.88,375.95l8.96-48.11c3.39-17.02,12.42-26.8,24.77-26.87,.04,0,.08,0,.12,0,12.37,0,21.92,10.2,24.94,26.64l4.89,32.08-7.83,14.43-17.26-12.42-9.04,13.62-12.58-10.65-16.97,11.28Zm17.4-18.78l10.88,9.21,8.76-13.19,16.79,12.08,3.62-6.67-4.57-29.99c-1.92-10.42-7.94-21.64-19.03-21.64-.03,0-.06,0-.09,0-13.13,.07-17.6,15.41-18.91,22l-6.35,34.12,8.9-5.92Z"/></g><g><path class="cls-8" d="M252.45,351.55l1.45,12.52,11.02-11.08,11.99,9.47,4.02-13.44,17.98,11.04-2.98-15.8-4.79-20.04c-2.39-10.84-9.94-20.19-22.07-20.12h0c-12.13,.06-19.16,9.13-21.86,20.36l5.24,27.09Z"/><path class="cls-1" d="M267.93,305.07c-2.47,.34-5.01,1.11-7.58,2.41h0c-10.83,5.47-13.64,15.54-11.74,25.33l6.27,29.63,8.82-11.27,11.28,6.81-9.45-36.03c-1.14-5.87-.58-11.85,2.39-16.87Z"/><path class="cls-11" d="M251.07,370.84l-2.16-18.59-5.35-27.62,.15-.63c3.44-14.33,12.47-22.59,24.76-22.66,.04,0,.09,0,.13,0,12.12,0,21.88,8.81,24.89,22.48l4.81,20.13,4.23,22.46-20.43-12.55-4.17,13.93-13.35-10.55-13.52,13.59Zm-1.37-46.06l5.15,26.66,.74,6.34,8.51-8.56,10.62,8.39,3.87-12.94,15.54,9.54-1.71-9.07-4.78-19.97c-1.9-8.65-7.89-17.82-19.03-17.82-.04,0-.07,0-.11,0-12.36,.07-17.06,10.67-18.8,17.44Z"/></g><polygon class="cls-7" points="215.1 297.3 211.14 230.44 230.38 234.84 234.74 290.59 215.1 297.3"/><g><g><g><path class="cls-5" d="M197.44,173.91c-5.19-4.09-12.13-9.77-19.21-13.01-4.92,14.17-2.85,21.01-.9,26.15,4.12,10.85,15.49,15.25,16.81,15.64"/><g><path class="cls-12" d="M185.47,196.05s.03,.02,.05,.04c-.02-.02-.03-.03-.05-.04,0,0,0,0,0,0Z"/><path class="cls-10" d="M186.11,196.64s0-.05-.02-.08c-.19-.16-.39-.31-.58-.47,.2,.18,.39,.37,.59,.55Z"/><g><path class="cls-12" d="M179.7,178.72c.08-.08,.29-.28,.37-.35,.24-.17,.48-.34,.72-.49,1.87-1.01,4.16-1,6.32-.52-3.03-1.61-6.12-3.11-8.59-4.07-1.59,5.15-1.33,9.65-.44,13.1-.59-2.77-.31-5.59,1.62-7.66Z"/><path class="cls-10" d="M196.85,184.46l.03-.74,.03-.64c-2.31-1.53-6.02-3.71-9.81-5.72-2.17-.48-4.45-.49-6.32,.52-.24,.16-.48,.33-.72,.49-.08,.08-.29,.27-.37,.35-1.93,2.07-2.22,4.89-1.62,7.66,.47,1.81,2.68,6,2.8,6.15,.06,.08,.13,.17,.19,.24,.05,.06,.1,.11,.14,.16-1.14-3.73-2.14-8.91,.73-11.77,2.13-1.82,5.5-.99,8.15-.07,2.48,.88,4.72,2.25,6.75,3.86l.02-.5Z"/><path class="cls-12" d="M192.59,185.94c1.44,.41,2.81,1.02,4.09,1.76l.15-2.74c-2.02-1.61-4.27-2.99-6.75-3.86-2.64-.92-6.02-1.74-8.15,.07-2.87,2.86-1.88,8.03-.73,11.77,.17,.2,1.25,1.77,3.36,3.82-.5-1.5-.8-3.05-.8-4.62,.04-4.98,3.32-7.7,8.83-6.19Z"/><path class="cls-12" d="M195.6,203.02l.93-11.99,.02-.59c-2.02-1-4.35-1.75-6.26-1.9-2.96-.2-4.03,2.22-4.29,4.61-.18,1.7-.01,3.44,.33,5.18,4.18,3.37,8.5,4.49,9.26,4.69Z"/><path class="cls-10" d="M190.29,188.54c1.91,.14,4.24,.9,6.26,1.9l.08-1.84,.05-.89c-1.28-.75-2.64-1.36-4.09-1.76-5.51-1.5-8.79,1.21-8.83,6.19,0,1.57,.3,3.12,.8,4.62,.18,.18,.36,.35,.56,.54,.4,.37,.8,.71,1.21,1.04-.34-1.73-.52-3.48-.33-5.18,.26-2.39,1.33-4.81,4.29-4.61Z"/></g></g><path class="cls-10" d="M194.65,206.2c-3.55-1.04-14.61-6.47-18.78-17.45-2.25-5.94-4.23-13.51,.87-28.2l1.08-3.12,3,1.37c6.86,3.14,13.37,8.28,18.6,12.42l1.22,.96-3.71,4.71-1.23-.97c-4.16-3.29-9.18-7.26-14.35-10.13-3.38,11.58-1.3,17.08,.12,20.82,3.8,10,14.74,13.79,14.85,13.82l-1.68,5.76Z"/></g><g><path class="cls-5" d="M307.12,199.79c6.48-1.27,15.25-3.17,23.03-2.83-2.08,14.86-7.03,20-11.11,23.69-8.61,7.78-20.74,6.52-22.09,6.26"/><g><path class="cls-12" d="M307.69,224.94s-.04,0-.06,.01c.02,0,.04-.01,.06-.02,0,0,0,0,0,0Z"/><path class="cls-10" d="M306.85,225.18s.03-.04,.05-.06c.24-.05,.48-.1,.73-.16-.26,.07-.52,.15-.78,.22Z"/><g><path class="cls-12" d="M320.72,212.15c-.04-.11-.13-.38-.17-.48-.14-.26-.27-.52-.42-.77-1.2-1.75-3.25-2.78-5.39-3.34,3.43-.05,6.87,.02,9.5,.29-.93,5.31-3.21,9.2-5.57,11.86,1.79-2.2,2.82-4.83,2.05-7.56Z"/><path class="cls-10" d="M302.83,209.44l.31-.68,.26-.58c2.76-.31,7.05-.56,11.34-.63,2.15,.56,4.19,1.59,5.39,3.34,.15,.25,.28,.51,.42,.77,.04,.1,.13,.37,.17,.48,.78,2.73-.26,5.36-2.05,7.56-1.24,1.4-5.12,4.12-5.3,4.2-.09,.05-.19,.09-.28,.13-.07,.03-.14,.05-.2,.08,2.72-2.8,5.96-6.95,4.71-10.81-1.07-2.59-4.45-3.39-7.22-3.78-2.6-.35-5.23-.15-7.76,.36l.21-.46Z"/><path class="cls-12" d="M305.95,212.7c-1.47-.29-2.97-.37-4.44-.29l1.11-2.51c2.53-.51,5.16-.71,7.76-.36,2.77,.39,6.15,1.19,7.22,3.78,1.25,3.85-1.99,8.01-4.71,10.81-.24,.1-1.92,1.01-4.73,1.87,1.13-1.11,2.1-2.35,2.82-3.75,2.24-4.45,.55-8.36-5.04-9.53Z"/><path class="cls-12" d="M295.5,226.54l4.64-11.1,.25-.53c2.25,.03,4.67,.42,6.44,1.16,2.73,1.17,2.57,3.81,1.72,6.06-.61,1.6-1.56,3.07-2.65,4.46-5.26,1.1-9.61,.13-10.38-.05Z"/><path class="cls-10" d="M306.82,216.07c-1.77-.74-4.18-1.13-6.44-1.16l.77-1.68,.36-.82c1.48-.08,2.97,0,4.44,.29,5.59,1.17,7.27,5.08,5.04,9.53-.71,1.4-1.68,2.64-2.82,3.75-.25,.08-.48,.15-.75,.22-.52,.15-1.04,.27-1.55,.37,1.09-1.39,2.04-2.86,2.65-4.46,.85-2.24,1.01-4.88-1.72-6.06Z"/></g></g><path class="cls-10" d="M294.89,229.8c3.63,.69,15.95,.89,24.67-6.99,4.71-4.26,9.92-10.1,12.07-25.5l.46-3.27-3.3-.14c-7.54-.33-15.68,1.28-22.22,2.58l-1.52,.3,1.16,5.89,1.53-.3c5.21-1.03,11.48-2.28,17.39-2.48-2.27,11.85-6.63,15.79-9.59,18.48-7.93,7.17-19.41,5.56-19.52,5.54l-1.12,5.89Z"/></g></g><path class="cls-3" d="M312.77,168.69s7.63-42.38-37.89-55.47c-61.2-17.6-76.29,34.26-76.42,34.76-.44,1.65-5.02,49.79-1.31,73.42,4.54,6.3,10.64,13.63,18.67,20.95,10.72,9.78,21.32,16.28,29.68,20.56,7.12-1.34,18.34-4.4,30.06-12.03,8.66-5.63,14.76-11.91,18.76-16.75,6.93-21.61,12.56-43.57,18.45-65.45Z"/><path class="cls-12" d="M197.72,178.59c1.16-.06-.02,12.26,9.31,22.44,8.95,9.77,22.98,12.55,22.61,13.62-.35,1-11.75,3.88-15.69,1.56-.93,2.96,4.2,12.47,6.6,16.17,11.48,17.67,26.01,25.89,25.57,26.48-.55,.75-27.97-7.82-42.29-32.82-13.28-23.2-7.73-47.35-6.11-47.44Z"/><path class="cls-12" d="M241.35,134.69c-1.2,1.53-3.08,3.6-5.77,5.57-3.68,2.7-7.05,3.85-9.54,4.68-2.59,.86-6.35,1.83-11.04,2.08,.3,.52,4.07,6.87,11.6,7.39,8.31,.58,13.03-6.5,13.22-6.8,3.76-5.86,1.81-12.09,1.53-12.92Z"/><g><path class="cls-9" d="M232.41,189.4c-3.68,10.25-.49,20.77,7.14,23.52s16.8-3.34,20.48-13.59c.06-.18,.11-.36,.17-.54-10.9-4.11-18.79-10.55-24.1-16.23-1.5,1.97-2.77,4.27-3.69,6.84Z"/><path class="cls-9" d="M280.07,218.48c6.6,.6,12.66-6.57,13.53-16.03,.23-2.55,.05-5-.44-7.24-6.21,2.99-14.16,5.64-23.54,6.25-.38,8.94,4.14,16.44,10.46,17.02Z"/></g><path class="cls-12" d="M298.87,147.97c.22,1.52,.68,3.68,1.73,6.09,1.44,3.3,3.28,5.42,4.66,6.97,1.43,1.61,3.61,3.77,6.71,5.79-.41,.24-5.5,3.07-10.85,.45-5.9-2.9-6.32-9.6-6.33-9.88-.24-5.49,3.55-8.97,4.07-9.43Z"/><path class="cls-10" d="M244.45,266.79c-.27-.07-.53-.17-.78-.3-11.1-5.68-21.38-12.8-30.55-21.17-7.11-6.48-13.58-13.74-19.22-21.57-.37-.51-.61-1.1-.71-1.72-3.77-24.05,.79-72.78,1.4-75.08,.06-.22,6.17-22.16,27.28-34.08,14.83-8.38,33.03-9.58,54.11-3.49,48.43,13.93,40.8,59.56,40.72,60.02-.02,.11-.04,.22-.07,.33-.98,3.64-1.95,7.29-2.93,10.93-4.8,17.99-9.77,36.6-15.58,54.7-.15,.48-.4,.93-.72,1.33-5.65,6.84-12.27,12.74-19.66,17.55-9.58,6.23-20.18,10.47-31.5,12.61-.59,.11-1.2,.09-1.78-.07Zm-43.5-46.94c5.19,7.09,11.09,13.66,17.56,19.56,8.31,7.58,17.58,14.07,27.58,19.32,9.79-2.01,18.96-5.77,27.28-11.19,6.5-4.23,12.34-9.4,17.37-15.36,5.65-17.68,10.52-35.93,15.23-53.58,.96-3.59,1.92-7.18,2.88-10.76,.49-3.06,5.4-39.13-35.08-50.77-23.79-6.82-42.96-3.68-56.98,9.4-10.21,9.52-14.03,21.13-14.45,22.47-.68,4.25-4.6,48.51-1.39,70.91Z"/></g><g><polygon class="cls-8" points="296.43 335.51 234.98 339.97 229.98 322.97 221.58 337.97 187.43 337.97 196.43 281.51 248.98 279.97 259.98 294.97 267.67 279.16 287.43 278.51 296.43 335.51"/><polygon class="cls-1" points="198.43 281.51 189.43 335.51 214.43 335.51 223.11 280.69 198.43 281.51"/><path class="cls-11" d="M232.81,343.1l-3.67-12.48-5.78,10.32h-39.42l9.94-62.39,56.61-1.65,8.99,12.26,6.3-12.97,24.22-.8,9.92,62.84-67.11,4.88Zm-1.94-27.85l6.33,21.52,55.78-4.05-8.08-51.16-15.3,.5-9.07,18.66-13.01-17.74-48.5,1.42-8.06,50.54h28.88l11.03-19.68Z"/></g><path class="cls-3" d="M250.93,242.28l5.86,13.66c7.08,19.75-4.73,17.84-16.19,20.95l-14.86,4.02c-13.74,3.8-27.21,3.25-30.7-5.18h0c-3.49-8.44,5.34-17.86,18.05-25.37l12.93-7.74c9.67-5.79,16.01-16.01,24.91-.34Z"/><path class="cls-3" d="M270.22,243.43l-6.72,13.26c-8.42,19.22,2.74,17.7,13.11,21.11l13.44,4.41c12.42,4.16,24.98,4.04,29.01-4.15h0c4.03-8.19-3.31-17.74-14.42-25.52l-11.3-8.02c-8.45-6-13.4-16.25-23.12-1.1Z"/><g><path class="cls-4" d="M251.27,382.19c-1.57,15.47-2.97,27.87,15.28,29.78l18.58-1.05c23.05-3.39,18.55-17.86,14.89-35.92-13.58,3.97-30.23,7.2-48.75,7.19Z"/><g class="cls-2"><path class="cls-6" d="M291.69,397.32l-18.58,1.05c-12.51-1.31-15.79-7.54-16.11-16.32-2.25,.1-4.53,.15-6.84,.14-1.57,15.47-2.97,27.87,15.28,29.78l18.58-1.05c13.92-2.04,17.79-8.13,17.87-16.6-2.57,1.35-5.9,2.37-10.2,3Z"/></g></g></g></svg>