<svg xmlns="http://www.w3.org/2000/svg" xmlns:xlink="http://www.w3.org/1999/xlink" viewBox="0 0 5745 1446"><defs><style>.cls-1,.cls-8{fill:none;}.cls-2{fill:url(#linear-gradient);}.cls-3{fill:#666;}.cls-4{opacity:0.5;}.cls-5{fill:#fff;}.cls-52,.cls-6{fill:#999;}.cls-53,.cls-7{fill:#333;}.cls-11,.cls-12,.cls-52,.cls-53,.cls-8{stroke:#000;}.cls-11,.cls-12,.cls-52,.cls-8{stroke-miterlimit:10;}.cls-8{stroke-width:6px;}.cls-9{fill:url(#radial-gradient);}.cls-10{fill:#ffb93f;}.cls-11,.cls-14{fill:#b2b2b2;}.cls-11,.cls-12{stroke-width:8px;}.cls-12,.cls-15{fill:gray;}.cls-13{fill:url(#linear-gradient-2);}.cls-16{clip-path:url(#clip-path);}.cls-17{fill:#010000;}.cls-18{fill:#010101;}.cls-19{fill:#020202;}.cls-20{fill:#030203;}.cls-21{fill:#040303;}.cls-22{fill:#040404;}.cls-23{fill:#050505;}.cls-24{fill:#060606;}.cls-25{fill:#070607;}.cls-26{fill:#080707;}.cls-27{fill:#090808;}.cls-28{fill:#0a0909;}.cls-29{fill:#0b0a0a;}.cls-30{fill:#0c0b0b;}.cls-31{fill:#0d0c0c;}.cls-32{fill:#0e0d0d;}.cls-33{fill:#0f0e0e;}.cls-34{fill:#100f0f;}.cls-35{fill:#121010;}.cls-36{fill:#131011;}.cls-37{fill:#141112;}.cls-38{fill:#151213;}.cls-39{fill:#161314;}.cls-40{fill:#171415;}.cls-41{fill:#181616;}.cls-42{fill:#191717;}.cls-43{fill:#1b1818;}.cls-44{fill:#1c1919;}.cls-45{fill:#1d1a1a;}.cls-46{fill:#1e1b1c;}.cls-47{fill:#1f1c1d;}.cls-48{fill:#211d1e;}.cls-49{fill:#221e1f;}.cls-50{fill:#231f20;}.cls-51{fill:url(#radial-gradient-2);}.cls-52,.cls-53{stroke-width:10px;}.cls-53{stroke-linejoin:bevel;}.cls-54{fill:url(#linear-gradient-3);}.cls-55{clip-path:url(#clip-path-2);}.cls-56{fill:url(#linear-gradient-4);}.cls-57{clip-path:url(#clip-path-3);}.cls-58{fill:url(#linear-gradient-5);}.cls-59{clip-path:url(#clip-path-4);}.cls-60{fill:url(#linear-gradient-6);}.cls-61{clip-path:url(#clip-path-5);}</style><linearGradient id="linear-gradient" x1="3446.13" y1="1053.18" x2="5533.72" y2="1053.18" gradientUnits="userSpaceOnUse"><stop offset="0"/><stop offset="1" stop-opacity="0"/></linearGradient><radialGradient id="radial-gradient" cx="8457.46" cy="629.55" r="671.87" gradientTransform="matrix(-0.71, -0.71, -0.71, 0.71, 7159.6, 6145.69)" gradientUnits="userSpaceOnUse"><stop offset="0" stop-opacity="0"/><stop offset="0.74" stop-opacity="0.7"/><stop offset="0.79" stop-opacity="0.8"/></radialGradient><linearGradient id="linear-gradient-2" x1="1712.75" y1="944.64" x2="1712.75" y2="1144.79" gradientUnits="userSpaceOnUse"><stop offset="0.51" stop-opacity="0"/><stop offset="1"/></linearGradient><clipPath id="clip-path"><path class="cls-1" d="M1791.19,1020.5c0-41.83-35.19-75.86-78.44-75.86s-78.44,34-78.44,75.86l2.58,20.13v.28l.28,1.88,13.08,102h123.69l12.77-91.89,1.87-11.54,0-.23v-.22c0-.51,0-1,0-1.53l2.57-18.49Z"/></clipPath><radialGradient id="radial-gradient-2" cx="8518.27" cy="565.27" r="92.76" gradientTransform="matrix(-1, 0, 0, 1, 9108.59, 0)" gradientUnits="userSpaceOnUse"><stop offset="0.71" stop-color="#fff" stop-opacity="0.8"/><stop offset="0.81" stop-color="#fff" stop-opacity="0.68"/><stop offset="0.93" stop-color="#fff" stop-opacity="0.55"/><stop offset="1" stop-color="#fff" stop-opacity="0.5"/></radialGradient><linearGradient id="linear-gradient-3" x1="2091.14" y1="944.27" x2="2091.14" y2="1144.43" xlink:href="#linear-gradient-2"/><clipPath id="clip-path-2"><path class="cls-1" d="M2169.58,1020.13c0-41.83-35.19-75.86-78.44-75.86s-78.44,34-78.44,75.86l2.58,20.14v.27l.28,1.88,13.08,102h123.69l12.78-91.89L2167,1041l0-.22v-.23c0-.51,0-1,0-1.53l2.57-18.49Z"/></clipPath><linearGradient id="linear-gradient-4" x1="2458.14" y1="944.27" x2="2458.14" y2="1144.43" xlink:href="#linear-gradient-2"/><clipPath id="clip-path-3"><path class="cls-1" d="M2536.58,1020.13c0-41.83-35.19-75.86-78.44-75.86s-78.44,34-78.44,75.86l2.58,20.14v.27l.28,1.88,13.08,102h123.69l12.78-91.89L2534,1041l0-.22v-.23c0-.51,0-1,0-1.53l2.57-18.49Z"/></clipPath><linearGradient id="linear-gradient-5" x1="2829.14" y1="944.27" x2="2829.14" y2="1144.43" xlink:href="#linear-gradient-2"/><clipPath id="clip-path-4"><path class="cls-1" d="M2907.58,1020.13c0-41.83-35.19-75.86-78.44-75.86s-78.44,34-78.44,75.86l2.58,20.14v.27l.28,1.88,13.08,102h123.69l12.78-91.89L2905,1041l0-.22v-.23c0-.51,0-1,0-1.53l2.57-18.49Z"/></clipPath><linearGradient id="linear-gradient-6" x1="3199.14" y1="944.27" x2="3199.14" y2="1144.43" xlink:href="#linear-gradient-2"/><clipPath id="clip-path-5"><path class="cls-1" d="M3277.58,1020.13c0-41.83-35.19-75.86-78.44-75.86s-78.44,34-78.44,75.86l2.58,20.14v.27l.28,1.88,13.08,102h123.69l12.78-91.89L3275,1041l0-.22v-.23c0-.51,0-1,0-1.53l2.57-18.49Z"/></clipPath></defs><title>env</title><g id="ui"><rect class="cls-2" x="3446.13" y="784.12" width="2087.59" height="538.11"/><path class="cls-3" d="M682.71,1317.23v-10.89l5.23.24c9.31.43,18.61.65,27.65.65v10Z"/><path d="M687.71,1311.57q13.86.65,27.88.66H687.71v-.66m-10-10.47v21.13h37.88v-20c-9,0-18.19-.22-27.42-.64l-10.46-.49Z"/><path class="cls-3" d="M715.59,1317.23v-10a587.09,587.09,0,0,0,583.63-523.61l.48-4.46h206.44v538.07Zm718.23-59.2V838.36h-83.57c-12.72,74.87-45.77,183.73-130.63,285.2a591.12,591.12,0,0,1-161,134.47Z"/><path d="M1501.14,784.16v528.07H715.59c305.36,0,556.71-231.19,588.61-528.07h196.94m-462,478.87h399.65V833.36H1346c-9.24,56.81-36.61,175-130.23,287A590.29,590.29,0,0,1,1039.17,1263m472-488.87H1295.21l-1,8.93a581.48,581.48,0,0,1-578.66,519.14v20h795.55V774.16Zm-156.68,69.2h74.36V1253H1076.91a595,595,0,0,0,146.54-126.26c84-100.46,117.67-208.09,131-283.41Z"/><g class="cls-4"><path class="cls-5" d="M1449.5,823.31H1291.17l-26.42-39.15h226.36Z"/><path class="cls-6" d="M1438.82,1263V833.36l52.29-49.2v528Z"/><path d="M842.26,1273.21h606.59l42.26,38.92H811Z"/></g><path class="cls-3" d="M1289.37,779.16a412.88,412.88,0,0,0,.89-111.36H4518.59a116.35,116.35,0,0,1,116.25,111.36Z"/><path d="M4518.59,672.8a111.37,111.37,0,0,1,110.92,101.36H1295.1a417.57,417.57,0,0,0,.8-101.36H4518.59m0-10h-3234a408.09,408.09,0,0,1-1,121.36H4640A121.34,121.34,0,0,0,4518.59,662.8Z"/><path class="cls-7" d="M1019.05,1268l17.78-9.42A582.33,582.33,0,0,0,1212,1117.15c85-101.65,117.14-210.87,129.13-284.6l.68-4.19h102.06V1268Z"/><path d="M1438.82,833.36V1263H1039.17a590.29,590.29,0,0,0,176.61-142.68c93.62-111.94,121-230.18,130.23-287h92.81m10-10H1337.51l-1.37,8.39c-11.89,73.11-43.75,181.41-128,282.19a577.45,577.45,0,0,1-173.62,140.25L998.93,1273h449.89V823.36Z"/><polygon class="cls-3" points="1353.8 1007.69 1333.73 982.46 1335.51 949.22 1311.46 992.35 1317.06 1034.01 1362.46 1057.48 1326.67 1086.33 1283.55 1055.31 1282.08 1083.69 1293.85 1109.4 1319.69 1127.2 1350.92 1126.05 1383.7 1086.23 1397.65 1116.58 1387.06 1148.58 1349.9 1162.27 1310.23 1151.87 1332.66 1190.53 1303.35 1178.56 1278.29 1159.22 1263.77 1131.34 1259.04 1091.06 1240.93 1116.26 1239.39 1147.04 1256.98 1178.8 1290.17 1193.81 1260.89 1191.24 1233.48 1180.73 1208.77 1160.63 1217.88 1198.63 1233.74 1218.59 1190.55 1206.84 1172.18 1187.96 1148.45 1221.24 1115.72 1235.17 1082.32 1248.36 1118.39 1247.9 1153.66 1245.33 1197.17 1241.49 1241.09 1245.38 1284.32 1249.16 1276.39 1218.37 1310.71 1241.04 1350.95 1251.48 1385.93 1251.87 1418.23 1240.88 1390.71 1235.38 1362.26 1231.03 1326.85 1220.99 1364.33 1202.17 1374.35 1188.63 1408.75 1210.64 1422.09 1183.58 1424.9 1151.92 1424.82 1119.99 1416.66 1070.75 1415.15 1037.44 1383.29 1029.03 1404.22 1011.27 1420.44 989.49 1407.84 956.79 1419.55 918 1383.12 920.24 1413.88 895.01 1420.24 857.91 1390.02 879.89 1369.78 900.4 1379.4 871.07 1396.98 845.86 1398.48 845.32 1357.7 860.17 1347.79 908.17 1363.77 934.91 1385 956.43 1355.51 959.54 1385.76 991.47 1353.8 1007.69"/><polygon class="cls-8" points="1353.8 1007.69 1333.73 982.46 1335.51 949.22 1311.46 992.35 1317.06 1034.01 1362.46 1057.48 1326.67 1086.33 1283.55 1055.31 1282.08 1083.69 1293.85 1109.4 1319.69 1127.2 1350.92 1126.05 1383.7 1086.23 1397.65 1116.58 1387.06 1148.58 1349.9 1162.27 1310.23 1151.87 1332.66 1190.53 1303.35 1178.56 1278.29 1159.22 1263.77 1131.34 1259.04 1091.06 1240.93 1116.26 1239.39 1147.04 1256.98 1178.8 1290.17 1193.81 1260.89 1191.24 1233.48 1180.73 1208.77 1160.63 1217.88 1198.63 1233.74 1218.59 1190.55 1206.84 1172.18 1187.96 1148.45 1221.24 1115.72 1235.17 1082.32 1248.36 1118.39 1247.9 1153.66 1245.33 1197.17 1241.49 1241.09 1245.38 1284.32 1249.16 1276.39 1218.37 1310.71 1241.04 1350.95 1251.48 1385.93 1251.87 1418.23 1240.88 1390.71 1235.38 1362.26 1231.03 1326.85 1220.99 1364.33 1202.17 1374.35 1188.63 1408.75 1210.64 1422.09 1183.58 1424.9 1151.92 1424.82 1119.99 1416.66 1070.75 1415.15 1037.44 1383.29 1029.03 1404.22 1011.27 1420.44 989.49 1407.84 956.79 1419.55 918 1383.12 920.24 1413.88 895.01 1420.24 857.91 1390.02 879.89 1369.78 900.4 1379.4 871.07 1396.98 845.86 1398.48 845.32 1357.7 860.17 1347.79 908.17 1363.77 934.91 1385 956.43 1355.51 959.54 1385.76 991.47 1353.8 1007.69"/><circle class="cls-9" cx="715.59" cy="720.2" r="536.27" transform="translate(-299.67 716.94) rotate(-45)"/><path class="cls-3" d="M715.59,1307.23c-9,0-18.34-.22-27.65-.65-150.92-7-291.72-71.1-396.45-180.5a587,587,0,1,1,1008.4-462.8c1.81,18.86,2.73,38,2.73,56.92a594.8,594.8,0,0,1-3.4,63.42,587.09,587.09,0,0,1-583.63,523.61Zm0-1128.31a539.6,539.6,0,1,0,210.69,42.54A538,538,0,0,0,715.59,178.92Z"/><path d="M715.59,138.16a582.1,582.1,0,0,1,579.32,525.6c1.8,18.7,2.71,37.69,2.71,56.44a590,590,0,0,1-3.37,62.89,581.48,581.48,0,0,1-578.66,519.14c-9,0-18.19-.22-27.42-.64A581.78,581.78,0,0,1,233,394.78,583.83,583.83,0,0,1,489,183.9a578.33,578.33,0,0,1,226.55-45.74m0,1128.31a543.65,543.65,0,0,0,305.43-93.3,547.85,547.85,0,0,0,197.91-240.34,545.57,545.57,0,0,0-50.37-518.07,547.76,547.76,0,0,0-240.33-197.9,545.6,545.6,0,0,0-518.07,50.36A547.85,547.85,0,0,0,212.25,507.56a545.57,545.57,0,0,0,50.37,518.07A547.92,547.92,0,0,0,503,1223.54a542.87,542.87,0,0,0,212.64,42.93m0-1138.31c-327,0-592,265.07-592,592,0,317.62,250.12,576.82,564.15,591.37q13.86.65,27.88.66c305.36,0,556.71-231.19,588.61-528.07a600.51,600.51,0,0,0,3.42-64q0-29.06-2.76-57.4c-28.86-300-281.67-534.64-589.27-534.64Zm0,1128.31c-296.18,0-536.27-240.1-536.27-536.27S419.41,183.92,715.59,183.92,1251.86,424,1251.86,720.2s-240.09,536.27-536.27,536.27Z"/><rect class="cls-7" x="1496.14" y="1258.03" width="1950.6" height="59.2"/><path d="M3441.74,1263v49.2H1501.14V1263h1940.6m10-10H1491.14v69.2h1960.6V1253Z"/><rect class="cls-7" x="1496.14" y="779.16" width="1950.6" height="59.2"/><path d="M3441.74,784.16v49.2H1501.14v-49.2h1940.6m10-10H1491.14v69.2h1960.6v-69.2Z"/><path class="cls-3" d="M1542.74,866.11a35.74,35.74,0,1,1,35.74-35.74A35.78,35.78,0,0,1,1542.74,866.11Z"/><path d="M1542.74,799.63A30.74,30.74,0,1,1,1512,830.37a30.74,30.74,0,0,1,30.74-30.74m0-10a40.74,40.74,0,1,0,40.74,40.74,40.79,40.79,0,0,0-40.74-40.74Z"/><path class="cls-3" d="M1618.87,866.11a35.74,35.74,0,1,1,35.74-35.74A35.78,35.78,0,0,1,1618.87,866.11Z"/><path d="M1618.87,799.63a30.74,30.74,0,1,1-30.74,30.74,30.74,30.74,0,0,1,30.74-30.74m0-10a40.74,40.74,0,1,0,40.74,40.74,40.79,40.79,0,0,0-40.74-40.74Z"/><path class="cls-3" d="M1695,866.11a35.74,35.74,0,1,1,35.75-35.74A35.78,35.78,0,0,1,1695,866.11Z"/><path d="M1695,799.63a30.74,30.74,0,1,1-30.74,30.74A30.74,30.74,0,0,1,1695,799.63m0-10a40.74,40.74,0,1,0,40.74,40.74A40.79,40.79,0,0,0,1695,789.63Z"/><path class="cls-3" d="M1771.13,866.11a35.74,35.74,0,1,1,35.74-35.74A35.78,35.78,0,0,1,1771.13,866.11Z"/><path d="M1771.13,799.63a30.74,30.74,0,1,1-30.74,30.74,30.74,30.74,0,0,1,30.74-30.74m0-10a40.74,40.74,0,1,0,40.74,40.74,40.79,40.79,0,0,0-40.74-40.74Z"/><path class="cls-3" d="M1847.26,866.11A35.74,35.74,0,1,1,1883,830.37,35.78,35.78,0,0,1,1847.26,866.11Z"/><path d="M1847.26,799.63a30.74,30.74,0,1,1-30.74,30.74,30.75,30.75,0,0,1,30.74-30.74m0-10A40.74,40.74,0,1,0,1888,830.37a40.79,40.79,0,0,0-40.75-40.74Z"/><path class="cls-3" d="M1923.39,866.11a35.74,35.74,0,1,1,35.75-35.74A35.78,35.78,0,0,1,1923.39,866.11Z"/><path d="M1923.39,799.63a30.74,30.74,0,1,1-30.74,30.74,30.75,30.75,0,0,1,30.74-30.74m0-10a40.74,40.74,0,1,0,40.75,40.74,40.79,40.79,0,0,0-40.75-40.74Z"/><path class="cls-3" d="M1999.52,866.11a35.74,35.74,0,1,1,35.75-35.74A35.78,35.78,0,0,1,1999.52,866.11Z"/><path d="M1999.52,799.63a30.74,30.74,0,1,1-30.74,30.74,30.75,30.75,0,0,1,30.74-30.74m0-10a40.74,40.74,0,1,0,40.75,40.74,40.79,40.79,0,0,0-40.75-40.74Z"/><path class="cls-3" d="M2075.66,866.11a35.74,35.74,0,1,1,35.74-35.74A35.79,35.79,0,0,1,2075.66,866.11Z"/><path d="M2075.66,799.63a30.74,30.74,0,1,1-30.75,30.74,30.75,30.75,0,0,1,30.75-30.74m0-10a40.74,40.74,0,1,0,40.74,40.74,40.79,40.79,0,0,0-40.74-40.74Z"/><path class="cls-3" d="M2151.79,866.11a35.74,35.74,0,1,1,35.74-35.74A35.79,35.79,0,0,1,2151.79,866.11Z"/><path d="M2151.79,799.63A30.74,30.74,0,1,1,2121,830.37a30.75,30.75,0,0,1,30.75-30.74m0-10a40.74,40.74,0,1,0,40.74,40.74,40.79,40.79,0,0,0-40.74-40.74Z"/><path class="cls-3" d="M2227.92,866.11a35.74,35.74,0,1,1,35.74-35.74A35.79,35.79,0,0,1,2227.92,866.11Z"/><path d="M2227.92,799.63a30.74,30.74,0,1,1-30.75,30.74,30.75,30.75,0,0,1,30.75-30.74m0-10a40.74,40.74,0,1,0,40.74,40.74,40.79,40.79,0,0,0-40.74-40.74Z"/><path class="cls-3" d="M2304.05,866.11a35.74,35.74,0,1,1,35.74-35.74A35.79,35.79,0,0,1,2304.05,866.11Z"/><path d="M2304.05,799.63a30.74,30.74,0,1,1-30.74,30.74,30.75,30.75,0,0,1,30.74-30.74m0-10a40.74,40.74,0,1,0,40.74,40.74,40.78,40.78,0,0,0-40.74-40.74Z"/><path class="cls-3" d="M2380.18,866.11a35.74,35.74,0,1,1,35.74-35.74A35.78,35.78,0,0,1,2380.18,866.11Z"/><path d="M2380.18,799.63a30.74,30.74,0,1,1-30.74,30.74,30.75,30.75,0,0,1,30.74-30.74m0-10a40.74,40.74,0,1,0,40.74,40.74,40.78,40.78,0,0,0-40.74-40.74Z"/><path class="cls-3" d="M2456.31,866.11a35.74,35.74,0,1,1,35.74-35.74A35.78,35.78,0,0,1,2456.31,866.11Z"/><path d="M2456.31,799.63a30.74,30.74,0,1,1-30.74,30.74,30.75,30.75,0,0,1,30.74-30.74m0-10a40.74,40.74,0,1,0,40.74,40.74,40.78,40.78,0,0,0-40.74-40.74Z"/><path class="cls-3" d="M2532.44,866.11a35.74,35.74,0,1,1,35.74-35.74A35.78,35.78,0,0,1,2532.44,866.11Z"/><path d="M2532.44,799.63a30.74,30.74,0,1,1-30.74,30.74,30.75,30.75,0,0,1,30.74-30.74m0-10a40.74,40.74,0,1,0,40.74,40.74,40.78,40.78,0,0,0-40.74-40.74Z"/><path class="cls-3" d="M2608.57,866.11a35.74,35.74,0,1,1,35.74-35.74A35.78,35.78,0,0,1,2608.57,866.11Z"/><path d="M2608.57,799.63a30.74,30.74,0,1,1-30.74,30.74,30.75,30.75,0,0,1,30.74-30.74m0-10a40.74,40.74,0,1,0,40.74,40.74,40.78,40.78,0,0,0-40.74-40.74Z"/><path class="cls-3" d="M2684.7,866.11a35.74,35.74,0,1,1,35.74-35.74A35.78,35.78,0,0,1,2684.7,866.11Z"/><path d="M2684.7,799.63A30.74,30.74,0,1,1,2654,830.37a30.74,30.74,0,0,1,30.74-30.74m0-10a40.74,40.74,0,1,0,40.74,40.74,40.78,40.78,0,0,0-40.74-40.74Z"/><path class="cls-3" d="M2760.83,866.11a35.74,35.74,0,1,1,35.74-35.74A35.78,35.78,0,0,1,2760.83,866.11Z"/><path d="M2760.83,799.63a30.74,30.74,0,1,1-30.74,30.74,30.74,30.74,0,0,1,30.74-30.74m0-10a40.74,40.74,0,1,0,40.74,40.74,40.78,40.78,0,0,0-40.74-40.74Z"/><path class="cls-3" d="M2837,866.11a35.74,35.74,0,1,1,35.74-35.74A35.78,35.78,0,0,1,2837,866.11Z"/><path d="M2837,799.63a30.74,30.74,0,1,1-30.74,30.74A30.74,30.74,0,0,1,2837,799.63m0-10a40.74,40.74,0,1,0,40.74,40.74A40.78,40.78,0,0,0,2837,789.63Z"/><path class="cls-3" d="M2913.09,866.11a35.74,35.74,0,1,1,35.74-35.74A35.78,35.78,0,0,1,2913.09,866.11Z"/><path d="M2913.09,799.63a30.74,30.74,0,1,1-30.74,30.74,30.74,30.74,0,0,1,30.74-30.74m0-10a40.74,40.74,0,1,0,40.74,40.74,40.78,40.78,0,0,0-40.74-40.74Z"/><path class="cls-3" d="M2989.22,866.11A35.74,35.74,0,1,1,3025,830.37,35.78,35.78,0,0,1,2989.22,866.11Z"/><path d="M2989.22,799.63a30.74,30.74,0,1,1-30.74,30.74,30.74,30.74,0,0,1,30.74-30.74m0-10A40.74,40.74,0,1,0,3030,830.37a40.78,40.78,0,0,0-40.74-40.74Z"/><path class="cls-3" d="M3065.35,866.11a35.74,35.74,0,1,1,35.74-35.74A35.78,35.78,0,0,1,3065.35,866.11Z"/><path d="M3065.35,799.63a30.74,30.74,0,1,1-30.74,30.74,30.74,30.74,0,0,1,30.74-30.74m0-10a40.74,40.74,0,1,0,40.74,40.74,40.78,40.78,0,0,0-40.74-40.74Z"/><path class="cls-3" d="M3141.48,866.11a35.74,35.74,0,1,1,35.74-35.74A35.78,35.78,0,0,1,3141.48,866.11Z"/><path d="M3141.48,799.63a30.74,30.74,0,1,1-30.74,30.74,30.74,30.74,0,0,1,30.74-30.74m0-10a40.74,40.74,0,1,0,40.74,40.74,40.78,40.78,0,0,0-40.74-40.74Z"/><path class="cls-3" d="M3217.61,866.11a35.74,35.74,0,1,1,35.74-35.74A35.78,35.78,0,0,1,3217.61,866.11Z"/><path d="M3217.61,799.63a30.74,30.74,0,1,1-30.74,30.74,30.74,30.74,0,0,1,30.74-30.74m0-10a40.74,40.74,0,1,0,40.74,40.74,40.78,40.78,0,0,0-40.74-40.74Z"/><path class="cls-3" d="M3293.74,866.11a35.74,35.74,0,1,1,35.74-35.74A35.78,35.78,0,0,1,3293.74,866.11Z"/><path d="M3293.74,799.63A30.74,30.74,0,1,1,3263,830.37a30.74,30.74,0,0,1,30.74-30.74m0-10a40.74,40.74,0,1,0,40.74,40.74,40.79,40.79,0,0,0-40.74-40.74Z"/><path class="cls-3" d="M3369.87,866.11a35.74,35.74,0,1,1,35.74-35.74A35.78,35.78,0,0,1,3369.87,866.11Z"/><path d="M3369.87,799.63a30.74,30.74,0,1,1-30.74,30.74,30.74,30.74,0,0,1,30.74-30.74m0-10a40.74,40.74,0,1,0,40.74,40.74,40.79,40.79,0,0,0-40.74-40.74Z"/><path class="cls-3" d="M1542.74,1301.77a35.74,35.74,0,1,1,35.74-35.74A35.78,35.78,0,0,1,1542.74,1301.77Z"/><path d="M1542.74,1235.29A30.74,30.74,0,1,1,1512,1266a30.74,30.74,0,0,1,30.74-30.74m0-10a40.74,40.74,0,1,0,40.74,40.74,40.79,40.79,0,0,0-40.74-40.74Z"/><path class="cls-3" d="M1618.87,1301.77a35.74,35.74,0,1,1,35.74-35.74A35.78,35.78,0,0,1,1618.87,1301.77Z"/><path d="M1618.87,1235.29a30.74,30.74,0,1,1-30.74,30.74,30.74,30.74,0,0,1,30.74-30.74m0-10a40.74,40.74,0,1,0,40.74,40.74,40.79,40.79,0,0,0-40.74-40.74Z"/><path class="cls-3" d="M1695,1301.77a35.74,35.74,0,1,1,35.75-35.74A35.78,35.78,0,0,1,1695,1301.77Z"/><path d="M1695,1235.29a30.74,30.74,0,1,1-30.74,30.74,30.74,30.74,0,0,1,30.74-30.74m0-10a40.74,40.74,0,1,0,40.74,40.74,40.79,40.79,0,0,0-40.74-40.74Z"/><path class="cls-3" d="M1771.13,1301.77a35.74,35.74,0,1,1,35.74-35.74A35.78,35.78,0,0,1,1771.13,1301.77Z"/><path d="M1771.13,1235.29a30.74,30.74,0,1,1-30.74,30.74,30.74,30.74,0,0,1,30.74-30.74m0-10a40.74,40.74,0,1,0,40.74,40.74,40.79,40.79,0,0,0-40.74-40.74Z"/><path class="cls-3" d="M1847.26,1301.77A35.74,35.74,0,1,1,1883,1266,35.78,35.78,0,0,1,1847.26,1301.77Z"/><path d="M1847.26,1235.29a30.74,30.74,0,1,1-30.74,30.74,30.74,30.74,0,0,1,30.74-30.74m0-10A40.74,40.74,0,1,0,1888,1266a40.79,40.79,0,0,0-40.75-40.74Z"/><path class="cls-3" d="M1923.39,1301.77a35.74,35.74,0,1,1,35.75-35.74A35.78,35.78,0,0,1,1923.39,1301.77Z"/><path d="M1923.39,1235.29a30.74,30.74,0,1,1-30.74,30.74,30.74,30.74,0,0,1,30.74-30.74m0-10a40.74,40.74,0,1,0,40.75,40.74,40.79,40.79,0,0,0-40.75-40.74Z"/><path class="cls-3" d="M1999.52,1301.77a35.74,35.74,0,1,1,35.75-35.74A35.78,35.78,0,0,1,1999.52,1301.77Z"/><path d="M1999.52,1235.29a30.74,30.74,0,1,1-30.74,30.74,30.74,30.74,0,0,1,30.74-30.74m0-10a40.74,40.74,0,1,0,40.75,40.74,40.79,40.79,0,0,0-40.75-40.74Z"/><path class="cls-3" d="M2075.66,1301.77A35.74,35.74,0,1,1,2111.4,1266,35.79,35.79,0,0,1,2075.66,1301.77Z"/><path d="M2075.66,1235.29a30.74,30.74,0,1,1-30.75,30.74,30.74,30.74,0,0,1,30.75-30.74m0-10A40.74,40.74,0,1,0,2116.4,1266a40.79,40.79,0,0,0-40.74-40.74Z"/><path class="cls-3" d="M2151.79,1301.77a35.74,35.74,0,1,1,35.74-35.74A35.79,35.79,0,0,1,2151.79,1301.77Z"/><path d="M2151.79,1235.29A30.74,30.74,0,1,1,2121,1266a30.74,30.74,0,0,1,30.75-30.74m0-10a40.74,40.74,0,1,0,40.74,40.74,40.79,40.79,0,0,0-40.74-40.74Z"/><path class="cls-3" d="M2227.92,1301.77a35.74,35.74,0,1,1,35.74-35.74A35.79,35.79,0,0,1,2227.92,1301.77Z"/><path d="M2227.92,1235.29a30.74,30.74,0,1,1-30.75,30.74,30.74,30.74,0,0,1,30.75-30.74m0-10a40.74,40.74,0,1,0,40.74,40.74,40.79,40.79,0,0,0-40.74-40.74Z"/><path class="cls-3" d="M2304.05,1301.77a35.74,35.74,0,1,1,35.74-35.74A35.79,35.79,0,0,1,2304.05,1301.77Z"/><path d="M2304.05,1235.29a30.74,30.74,0,1,1-30.74,30.74,30.74,30.74,0,0,1,30.74-30.74m0-10a40.74,40.74,0,1,0,40.74,40.74,40.78,40.78,0,0,0-40.74-40.74Z"/><path class="cls-3" d="M2380.18,1301.77a35.74,35.74,0,1,1,35.74-35.74A35.78,35.78,0,0,1,2380.18,1301.77Z"/><path d="M2380.18,1235.29a30.74,30.74,0,1,1-30.74,30.74,30.74,30.74,0,0,1,30.74-30.74m0-10a40.74,40.74,0,1,0,40.74,40.74,40.78,40.78,0,0,0-40.74-40.74Z"/><path class="cls-3" d="M2456.31,1301.77a35.74,35.74,0,1,1,35.74-35.74A35.78,35.78,0,0,1,2456.31,1301.77Z"/><path d="M2456.31,1235.29a30.74,30.74,0,1,1-30.74,30.74,30.74,30.74,0,0,1,30.74-30.74m0-10a40.74,40.74,0,1,0,40.74,40.74,40.78,40.78,0,0,0-40.74-40.74Z"/><path class="cls-3" d="M2532.44,1301.77a35.74,35.74,0,1,1,35.74-35.74A35.78,35.78,0,0,1,2532.44,1301.77Z"/><path d="M2532.44,1235.29A30.74,30.74,0,1,1,2501.7,1266a30.74,30.74,0,0,1,30.74-30.74m0-10a40.74,40.74,0,1,0,40.74,40.74,40.78,40.78,0,0,0-40.74-40.74Z"/><path class="cls-3" d="M2608.57,1301.77a35.74,35.74,0,1,1,35.74-35.74A35.78,35.78,0,0,1,2608.57,1301.77Z"/><path d="M2608.57,1235.29a30.74,30.74,0,1,1-30.74,30.74,30.74,30.74,0,0,1,30.74-30.74m0-10a40.74,40.74,0,1,0,40.74,40.74,40.78,40.78,0,0,0-40.74-40.74Z"/><path class="cls-3" d="M2684.7,1301.77a35.74,35.74,0,1,1,35.74-35.74A35.78,35.78,0,0,1,2684.7,1301.77Z"/><path d="M2684.7,1235.29A30.74,30.74,0,1,1,2654,1266a30.74,30.74,0,0,1,30.74-30.74m0-10a40.74,40.74,0,1,0,40.74,40.74,40.78,40.78,0,0,0-40.74-40.74Z"/><path class="cls-3" d="M2760.83,1301.77a35.74,35.74,0,1,1,35.74-35.74A35.78,35.78,0,0,1,2760.83,1301.77Z"/><path d="M2760.83,1235.29a30.74,30.74,0,1,1-30.74,30.74,30.74,30.74,0,0,1,30.74-30.74m0-10a40.74,40.74,0,1,0,40.74,40.74,40.78,40.78,0,0,0-40.74-40.74Z"/><path class="cls-3" d="M2837,1301.77A35.74,35.74,0,1,1,2872.7,1266,35.78,35.78,0,0,1,2837,1301.77Z"/><path d="M2837,1235.29a30.74,30.74,0,1,1-30.74,30.74,30.74,30.74,0,0,1,30.74-30.74m0-10A40.74,40.74,0,1,0,2877.7,1266a40.78,40.78,0,0,0-40.74-40.74Z"/><path class="cls-3" d="M2913.09,1301.77a35.74,35.74,0,1,1,35.74-35.74A35.78,35.78,0,0,1,2913.09,1301.77Z"/><path d="M2913.09,1235.29a30.74,30.74,0,1,1-30.74,30.74,30.74,30.74,0,0,1,30.74-30.74m0-10a40.74,40.74,0,1,0,40.74,40.74,40.78,40.78,0,0,0-40.74-40.74Z"/><path class="cls-3" d="M2989.22,1301.77A35.74,35.74,0,1,1,3025,1266,35.78,35.78,0,0,1,2989.22,1301.77Z"/><path d="M2989.22,1235.29a30.74,30.74,0,1,1-30.74,30.74,30.74,30.74,0,0,1,30.74-30.74m0-10A40.74,40.74,0,1,0,3030,1266a40.78,40.78,0,0,0-40.74-40.74Z"/><path class="cls-3" d="M3065.35,1301.77a35.74,35.74,0,1,1,35.74-35.74A35.78,35.78,0,0,1,3065.35,1301.77Z"/><path d="M3065.35,1235.29a30.74,30.74,0,1,1-30.74,30.74,30.74,30.74,0,0,1,30.74-30.74m0-10a40.74,40.74,0,1,0,40.74,40.74,40.78,40.78,0,0,0-40.74-40.74Z"/><path class="cls-3" d="M3141.48,1301.77a35.74,35.74,0,1,1,35.74-35.74A35.78,35.78,0,0,1,3141.48,1301.77Z"/><path d="M3141.48,1235.29a30.74,30.74,0,1,1-30.74,30.74,30.74,30.74,0,0,1,30.74-30.74m0-10a40.74,40.74,0,1,0,40.74,40.74,40.78,40.78,0,0,0-40.74-40.74Z"/><path class="cls-3" d="M3217.61,1301.77a35.74,35.74,0,1,1,35.74-35.74A35.78,35.78,0,0,1,3217.61,1301.77Z"/><path d="M3217.61,1235.29a30.74,30.74,0,1,1-30.74,30.74,30.74,30.74,0,0,1,30.74-30.74m0-10a40.74,40.74,0,1,0,40.74,40.74,40.78,40.78,0,0,0-40.74-40.74Z"/><path class="cls-3" d="M3293.74,1301.77a35.74,35.74,0,1,1,35.74-35.74A35.78,35.78,0,0,1,3293.74,1301.77Z"/><path d="M3293.74,1235.29A30.74,30.74,0,1,1,3263,1266a30.74,30.74,0,0,1,30.74-30.74m0-10a40.74,40.74,0,1,0,40.74,40.74,40.79,40.79,0,0,0-40.74-40.74Z"/><path class="cls-3" d="M3369.87,1301.77a35.74,35.74,0,1,1,35.74-35.74A35.78,35.78,0,0,1,3369.87,1301.77Z"/><path d="M3369.87,1235.29a30.74,30.74,0,1,1-30.74,30.74,30.74,30.74,0,0,1,30.74-30.74m0-10a40.74,40.74,0,1,0,40.74,40.74,40.79,40.79,0,0,0-40.74-40.74Z"/><rect class="cls-3" x="1496.14" y="828.36" width="1950.6" height="439.68"/><path d="M3441.74,833.36V1263H1501.14V833.36h1940.6m10-10H1491.14V1273h1960.6V823.36Z"/><rect class="cls-3" x="3416.74" y="779.16" width="58.79" height="538.07"/><path d="M3470.53,784.16v528.07h-48.79V784.16h48.79m10-10h-68.79v548.07h68.79V774.16Z"/><g class="cls-4"><path class="cls-5" d="M3379.38,867.8H1535.58l-34.44-34.44h1911Z"/><path class="cls-6" d="M3379.38,1228.59V867.8l32.8-34.44V1263Z"/><path d="M1535.58,1228.59h1843.8l32.8,34.44h-1911Z"/></g><path class="cls-10" d="M1530.58,1233.59V862.8h370.8v370.79Zm328-42.8V905.59h-285.2v285.2Z"/><path d="M1896.38,867.8v360.79h-360.8V867.8h360.8m-328,328h295.2V900.59h-295.2v295.2m338-338h-380.8v380.79h380.8V857.8Zm-328,52.79h275.2v275.2h-275.2V910.59Z"/><g class="cls-4"><path class="cls-5" d="M1535.58,867.8h360.8l-32.8,32.8h-295.2Z"/><path class="cls-6" d="M1535.58,1228.59V867.8l32.8,32.79v295.2Z"/><path d="M1896.38,1228.59h-360.8l32.8-32.8h295.2Z"/></g><rect class="cls-7" x="1563.38" y="895.59" width="305.2" height="305.2"/><path d="M1863.58,900.59v295.2h-295.2V900.59h295.2m10-10h-315.2v315.2h315.2V890.59Z"/><path class="cls-11" d="M1771.49,1142H1652.73l-15.6-121.47c0-40.34,33.86-73,75.62-73h0c41.76,0,75.62,32.7,75.62,73Z"/><path class="cls-12" d="M1769.48,1142H1654.77l-15.06-101.06a68.12,68.12,0,0,1,68.12-68.12h9.84a68.12,68.12,0,0,1,68.12,68.12Z"/><path class="cls-13" d="M1791.19,1020.5c0-41.83-35.19-75.86-78.44-75.86s-78.44,34-78.44,75.86l2.58,20.13v.28l.28,1.88,13.08,102h123.69l12.77-91.89,1.87-11.54,0-.23v-.22c0-.51,0-1,0-1.53l2.57-18.49Z"/><path d="M1703.32,1062.55a6.88,6.88,0,0,1-1.35-.11c-5.7-.68-7.93-3.43-10.32-7.43-3.15-5.23-6.16-10.69-9.55-15.43-1.51-2.12-2.45-2.28-4.12-1.4l-1.06.49q2.11,6.09,4.22,12.19c2.35,6.76,3,7.22,6.69,7.76.33,1.13.66,2.25,1,3.38q-6.82.07-13.62.21c-.38-.7-.76-1.41-1.15-2.11,3.11-.91,3.28-1.55.76-7.09q-5.94-13-11.9-26.1c-2.39-5.33-3.45-5.63-6.73.39-.38-.7-.76-1.4-1.15-2.1a61.7,61.7,0,0,1,15.56-21.75c5.91-5.16,10.12-6.21,13.69-4.85s6.26,5.41,7.23,12c1.35,9.58-1.69,15.64-4.94,19.67,1.57,2.61,5.17,8.55,7.59,13.13,2.86,5.45,4.33,8.32,5.58,10.63,1.47,2.76,2.08,3.64,3.54,4.7C1703.28,1060,1703.29,1061.3,1703.32,1062.55Zm-26.16-28.18c2.31-1.35,4-2.87,4.78-5.29,1.21-3.58,1.24-7.75.06-12.77-2.37-10.58-7.61-11.59-11.19-8.29-1.71,1.53-2.37,2.69-2.56,3.55a6.68,6.68,0,0,0,.56,3.72q3.46,10,6.92,20C1676.2,1035,1676.68,1034.65,1677.16,1034.37Z"/><path d="M1705.22,1061.88c-.11-1.38-.21-2.76-.31-4.14,3.51-.85,3.94-1.52,3.67-11q-.63-21.56-1.27-43.13c-.26-9.44-1.11-10.55-7.26-10.22-.1-1.38-.2-2.76-.31-4.13a63.29,63.29,0,0,1,25.93.52c-.13,1.36-.25,2.73-.38,4.1-6.12-.46-7,.5-7.4,9.92l-2,43c-.43,9.38,0,10,3.49,11-.13,1.37-.25,2.74-.38,4.11Q1712.14,1061.86,1705.22,1061.88Z"/><path d="M1754.42,1005.39a32.14,32.14,0,0,1,8.8,15.79c1.33,6.15.87,11-1.24,14.89-4.41,7.47-11.68,6.87-17.24,4.7a11.42,11.42,0,0,1-1.49-.92c-.87-.92-1.76-1.83-2.68-2.74q-1.75,6.29-3.53,12.58c-2.19,7.78-1.93,8.21,1.8,9.26-.36,1-.71,2.06-1.07,3.1q-7.08-.1-14.2-.14c.2-1.32.39-2.65.59-4,3.65-.8,4.19-1,5.89-9.66q3.85-19.6,7.7-39.2c1.67-8.55,1.22-10.08-4.48-12.88.2-1.32.39-2.65.59-4A59.78,59.78,0,0,1,1754.42,1005.39Zm-12.75,27.83a6.94,6.94,0,0,0,2.62,2.38c2.49,1.19,7,1.53,11.06-8.09,3.45-8.21,1.34-15.45-2.83-19.24-1.33-1.2-2.25-1.38-2.78-1.23s-1,1-1.39,2.4Q1745,1021.34,1741.67,1033.22Z"/><g class="cls-4"><path class="cls-14" d="M1771.49,1142H1652.73l-15.6-121.47c0-40.34,33.86-73,75.62-73h0c41.76,0,75.62,32.7,75.62,73Z"/><path d="M1775,1146H1649.21l-16.08-125.47c0-42.48,35.72-77,79.62-77s79.62,34.56,79.62,77l0,.55Zm-118.72-8H1768l16.37-117.74c-.15-38-32.22-68.77-71.62-68.77s-71.48,30.83-71.62,68.79Z"/><path class="cls-15" d="M1769.48,1142H1654.77l-15.06-101.06a68.12,68.12,0,0,1,68.12-68.12h9.84a68.12,68.12,0,0,1,68.12,68.12Z"/><path d="M1772.89,1146H1651.33l-15.62-105.06a72.2,72.2,0,0,1,72.12-72.12h9.84a72.2,72.2,0,0,1,72.12,72.12v.32l0,.31Zm-114.67-8h107.86l15.71-97.38a64.19,64.19,0,0,0-64.12-63.8h-9.84a64.19,64.19,0,0,0-64.12,63.82Z"/><g class="cls-16"><rect x="1634.31" y="944.64" width="156.88" height="101.42"/><rect x="1634.31" y="1046.05" width="156.88" height="2.82"/><rect class="cls-17" x="1634.31" y="1048.87" width="156.88" height="2.82"/><rect class="cls-18" x="1634.31" y="1051.7" width="156.88" height="2.82"/><rect class="cls-19" x="1634.31" y="1054.52" width="156.88" height="2.82"/><rect class="cls-20" x="1634.31" y="1057.34" width="156.88" height="2.82"/><rect class="cls-21" x="1634.31" y="1060.16" width="156.88" height="2.82"/><rect class="cls-22" x="1634.31" y="1062.98" width="156.88" height="2.82"/><rect class="cls-23" x="1634.31" y="1065.8" width="156.88" height="2.82"/><rect class="cls-24" x="1634.31" y="1068.62" width="156.88" height="2.82"/><rect class="cls-25" x="1634.31" y="1071.44" width="156.88" height="2.82"/><rect class="cls-26" x="1634.31" y="1074.26" width="156.88" height="2.82"/><rect class="cls-27" x="1634.31" y="1077.09" width="156.88" height="2.82"/><rect class="cls-28" x="1634.31" y="1079.91" width="156.88" height="2.82"/><rect class="cls-29" x="1634.31" y="1082.73" width="156.88" height="2.82"/><rect class="cls-30" x="1634.31" y="1085.55" width="156.88" height="2.82"/><rect class="cls-31" x="1634.31" y="1088.37" width="156.88" height="2.82"/><rect class="cls-32" x="1634.31" y="1091.19" width="156.88" height="2.82"/><rect class="cls-33" x="1634.31" y="1094.01" width="156.88" height="2.82"/><rect class="cls-34" x="1634.31" y="1096.83" width="156.88" height="2.82"/><rect class="cls-35" x="1634.31" y="1099.65" width="156.88" height="2.82"/><rect class="cls-36" x="1634.31" y="1102.47" width="156.88" height="2.82"/><rect class="cls-37" x="1634.31" y="1105.3" width="156.88" height="2.82"/><rect class="cls-38" x="1634.31" y="1108.12" width="156.88" height="2.82"/><rect class="cls-39" x="1634.31" y="1110.94" width="156.88" height="2.82"/><rect class="cls-40" x="1634.31" y="1113.76" width="156.88" height="2.82"/><rect class="cls-41" x="1634.31" y="1116.58" width="156.88" height="2.82"/><rect class="cls-42" x="1634.31" y="1119.4" width="156.88" height="2.82"/><rect class="cls-43" x="1634.31" y="1122.22" width="156.88" height="2.82"/><rect class="cls-44" x="1634.31" y="1125.04" width="156.88" height="2.82"/><rect class="cls-45" x="1634.31" y="1127.86" width="156.88" height="2.82"/><rect class="cls-46" x="1634.31" y="1130.69" width="156.88" height="2.82"/><rect class="cls-47" x="1634.31" y="1133.51" width="156.88" height="2.82"/><rect class="cls-48" x="1634.31" y="1136.33" width="156.88" height="2.82"/><rect class="cls-49" x="1634.31" y="1139.15" width="156.88" height="2.82"/><rect class="cls-50" x="1634.31" y="1141.97" width="156.88" height="2.82"/></g><path d="M1703.32,1062.55a6.88,6.88,0,0,1-1.35-.11c-5.71-.67-7.93-3.43-10.32-7.43-3.15-5.24-6.16-10.69-9.55-15.43-1.51-2.12-2.44-2.28-4.12-1.4l-1.06.49q2.11,6.09,4.22,12.19c2.35,6.76,3,7.22,6.69,7.76.33,1.13.66,2.25,1,3.38-4.55.06-9.09.12-13.62.21-.38-.7-.76-1.41-1.15-2.11,3.11-.9,3.28-1.55.76-7.09q-5.94-13-11.9-26.1c-2.39-5.33-3.45-5.63-6.73.39-.38-.7-.76-1.4-1.15-2.1a61.7,61.7,0,0,1,15.56-21.75c5.91-5.16,10.12-6.21,13.69-4.85s6.26,5.41,7.23,12c1.35,9.58-1.69,15.64-4.94,19.67,1.57,2.61,5.17,8.55,7.59,13.13,2.86,5.45,4.33,8.32,5.58,10.63,1.47,2.76,2.08,3.63,3.54,4.7C1703.28,1060,1703.3,1061.3,1703.32,1062.55Zm-26.16-28.18c2.31-1.35,4-2.87,4.78-5.29,1.21-3.58,1.24-7.75.06-12.77-2.37-10.58-7.61-11.59-11.19-8.29-1.71,1.53-2.37,2.69-2.56,3.55a6.68,6.68,0,0,0,.56,3.72q3.46,10,6.92,20Z"/><path d="M1705.22,1061.88c-.11-1.38-.21-2.76-.31-4.14,3.51-.85,3.94-1.52,3.67-11q-.63-21.56-1.27-43.13c-.26-9.44-1.11-10.55-7.26-10.22-.1-1.38-.2-2.76-.31-4.13a63.12,63.12,0,0,1,25.93.52c-.13,1.37-.25,2.73-.38,4.1-6.12-.46-7,.51-7.4,9.92l-2,43c-.42,9.37,0,10,3.49,11-.13,1.37-.25,2.74-.38,4.11Q1712.14,1061.86,1705.22,1061.88Z"/><path d="M1754.42,1005.39a32.14,32.14,0,0,1,8.8,15.79c1.33,6.15.88,11-1.24,14.89-4.42,7.47-11.68,6.87-17.24,4.7a11.42,11.42,0,0,1-1.49-.92c-.87-.92-1.76-1.83-2.68-2.74q-1.75,6.29-3.53,12.58c-2.19,7.78-1.93,8.21,1.8,9.26-.36,1-.71,2.06-1.07,3.1q-7.08-.1-14.2-.14c.2-1.32.39-2.65.59-4,3.64-.8,4.19-1,5.89-9.66q3.85-19.6,7.7-39.2c1.67-8.55,1.22-10.08-4.48-12.88.2-1.32.39-2.65.59-4A59.78,59.78,0,0,1,1754.42,1005.39Zm-12.75,27.83a6.94,6.94,0,0,0,2.62,2.38c2.49,1.19,7,1.54,11.06-8.09,3.44-8.21,1.34-15.45-2.83-19.24-1.33-1.2-2.25-1.38-2.78-1.23s-1,1-1.39,2.4Q1745,1021.34,1741.67,1033.22Z"/></g><polygon class="cls-51" points="506.94 565.23 497.44 576.29 506.65 585.42 513.61 593.65 510.94 605.97 522.91 610.53 516.76 628.85 526.68 635.08 541.49 633.43 545.22 647.8 558.93 643.35 570.22 639.58 578.47 648.28 588.56 646.82 599.05 651.68 611.08 656.63 622.17 653.86 629.37 643 637 635.41 646.25 630.35 651.97 621.41 666.6 619.11 666.2 605.98 671.98 596.87 663.95 583.82 674.13 575.62 684.47 565.23 669.54 555.39 678.72 543.01 663.08 536.97 670.9 522.01 653.15 520.65 652.17 508.88 652.78 492.74 637.83 493.84 631.07 484.23 623.19 473.92 610.56 475.96 597.93 488.14 588.56 481.86 578.33 481.06 566.52 475.81 554.03 474.2 548.15 488.25 534.71 487.23 528.28 497.2 520.05 504.54 509.92 510.94 518.93 528.7 503.04 532.8 507.87 545.34 496.17 554.02 506.94 565.23"/><path class="cls-10" d="M1901.58,1233.59V862.8h370.8v370.79Zm328-42.8V905.59h-285.2v285.2Z"/><path d="M2267.38,867.8v360.79h-360.8V867.8h360.8m-328,328h295.2V900.59h-295.2v295.2m338-338h-380.8v380.79h380.8V857.8Zm-328,52.79h275.2v275.2h-275.2V910.59Z"/><g class="cls-4"><path class="cls-5" d="M1906.58,867.8h360.8l-32.8,32.8h-295.2Z"/><path class="cls-6" d="M1906.58,1228.59V867.8l32.8,32.79v295.2Z"/><path d="M2267.38,1228.59h-360.8l32.8-32.8h295.2Z"/></g><rect class="cls-7" x="1934.38" y="895.59" width="305.2" height="305.2"/><path d="M2234.58,900.59v295.2h-295.2V900.59h295.2m10-10h-315.2v315.2h315.2V890.59Z"/><path class="cls-10" d="M2272.58,1233.59V862.8h370.8v370.79Zm328-42.8V905.59h-285.2v285.2Z"/><path d="M2638.38,867.8v360.79h-360.8V867.8h360.8m-328,328h295.2V900.59h-295.2v295.2m338-338h-380.8v380.79h380.8V857.8Zm-328,52.79h275.2v275.2h-275.2V910.59Z"/><g class="cls-4"><path class="cls-5" d="M2277.58,867.8h360.8l-32.8,32.8h-295.2Z"/><path class="cls-6" d="M2277.58,1228.59V867.8l32.8,32.79v295.2Z"/><path d="M2638.38,1228.59h-360.8l32.8-32.8h295.2Z"/></g><rect class="cls-7" x="2305.38" y="895.59" width="305.2" height="305.2"/><path d="M2605.58,900.59v295.2h-295.2V900.59h295.2m10-10h-315.2v315.2h315.2V890.59Z"/><path class="cls-10" d="M2643.58,1233.59V862.8h370.8v370.79Zm328-42.8V905.59h-285.2v285.2Z"/><path d="M3009.38,867.8v360.79h-360.8V867.8h360.8m-328,328h295.2V900.59h-295.2v295.2m338-338h-380.8v380.79h380.8V857.8Zm-328,52.79h275.2v275.2h-275.2V910.59Z"/><g class="cls-4"><path class="cls-5" d="M2648.58,867.8h360.8l-32.8,32.8h-295.2Z"/><path class="cls-6" d="M2648.58,1228.59V867.8l32.8,32.79v295.2Z"/><path d="M3009.38,1228.59h-360.8l32.8-32.8h295.2Z"/></g><rect class="cls-7" x="2676.38" y="895.59" width="305.2" height="305.2"/><path d="M2976.58,900.59v295.2h-295.2V900.59h295.2m10-10h-315.2v315.2h315.2V890.59Z"/><path class="cls-10" d="M3013.58,1233.59V862.8h370.8v370.79Zm328-42.8V905.59h-285.2v285.2Z"/><path d="M3379.38,867.8v360.79h-360.8V867.8h360.8m-328,328h295.2V900.59h-295.2v295.2m338-338h-380.8v380.79h380.8V857.8Zm-328,52.79h275.2v275.2h-275.2V910.59Z"/><g class="cls-4"><path class="cls-5" d="M3018.58,867.8h360.8l-32.8,32.8h-295.2Z"/><path class="cls-6" d="M3018.58,1228.59V867.8l32.8,32.79v295.2Z"/><path d="M3379.38,1228.59h-360.8l32.8-32.8h295.2Z"/></g><rect class="cls-7" x="3046.38" y="895.59" width="305.2" height="305.2"/><path d="M3346.58,900.59v295.2h-295.2V900.59h295.2m10-10h-315.2v315.2h315.2V890.59Z"/><path class="cls-52" d="M776.32,140.71c.42-7.24-43.84-25.81-80.69-9.67-27.43,12-44.43,40.49-40.11,45.91,3.65,4.58,20.83-9.43,61.37-21.75C756.25,143.24,776.05,145.51,776.32,140.71Z"/><path class="cls-52" d="M836.59,150.23c1.17-7.15-40.91-30.25-79.25-18-28.53,9.09-48.41,35.63-44.68,41.47,3.15,4.93,21.7-7.2,63.3-15.21C816.36,150.65,835.81,155,836.59,150.23Z"/><path class="cls-52" d="M895.53,166c1.91-7-37.52-34.36-76.93-26.23-29.32,6-51.87,30.37-48.77,36.57,2.61,5.23,22.34-4.89,64.55-8.52C875.37,164.31,894.26,170.64,895.53,166Z"/><path class="cls-52" d="M952.5,187.85c2.63-6.76-33.73-38.1-73.77-34.13C848.94,156.67,824,178.5,826.4,185c2.06,5.48,22.73-2.53,65.09-1.72C932.63,184.05,950.75,192.33,952.5,187.85Z"/><path class="cls-52" d="M1006.87,215.53c3.32-6.44-29.56-41.41-69.79-41.65-29.94-.18-57.05,18.92-55.31,25.62,1.47,5.67,22.86-.13,64.9,5.1C987.5,209.68,1004.66,219.8,1006.87,215.53Z"/><path class="cls-52" d="M1058.05,248.74c4-6.06-25.07-44.27-65-48.72-29.76-3.3-58.72,12.86-57.69,19.71.87,5.79,22.76,2.25,64,11.85C1039.4,240.9,1055.41,252.76,1058.05,248.74Z"/><path class="cls-52" d="M1105.48,287.12c4.59-5.61-20.3-46.65-59.61-55.25-29.25-6.4-59.73,6.65-59.43,13.57.26,5.84,22.4,4.62,62.43,18.48C1087.75,277.37,1102.43,290.84,1105.48,287.12Z"/><path class="cls-52" d="M1148.64,330.25c5.15-5.1-15.32-48.52-53.51-61.18-28.42-9.42-60.1.37-60.52,7.28-.35,5.84,21.79,6.94,60.16,24.9C1132,318.7,1145.22,333.63,1148.64,330.25Z"/><path class="cls-52" d="M1187.05,377.65c5.66-4.53-10.16-49.85-46.82-66.43-27.28-12.34-59.81-5.92-61,.91-1,5.77,21,9.18,57.22,31.05C1171.74,364.43,1183.3,380.66,1187.05,377.65Z"/><path class="cls-52" d="M1220.3,428.81c6.1-3.91-4.89-50.64-39.62-71-25.84-15.13-58.86-12.14-60.71-5.47-1.56,5.64,19.87,11.32,53.66,36.87C1206.45,414.06,1216.25,431.41,1220.3,428.81Z"/><path class="cls-52" d="M1248,483.17c6.48-3.26.43-50.88-32-74.72-24.11-17.74-57.27-18.23-59.81-11.78-2.14,5.45,18.59,13.33,49.52,42.27C1235.79,467.05,1243.72,485.33,1248,483.17Z"/><path class="cls-52" d="M1269.9,540.12c6.78-2.56,5.74-50.55-24-77.65-22.13-20.17-55.05-24.12-58.25-18-2.7,5.19,17.09,15.2,44.83,47.22C1259.42,522.81,1265.4,541.82,1269.9,540.12Z"/><path class="cls-52" d="M1285.71,599.05c7-1.84,11-49.68-15.75-79.74-19.9-22.37-52.23-29.73-56-23.95-3.23,4.88,15.4,16.9,39.64,51.64C1277.1,580.74,1281.06,600.27,1285.71,599.05Z"/><path class="cls-52" d="M1295.27,659.31c7.17-1.1,16.13-48.26-7.32-80.95-17.46-24.32-48.84-35-53.24-29.68-3.72,4.52,13.55,18.42,34,55.5C1288.62,640.2,1290.52,660,1295.27,659.31Z"/><path class="cls-52" d="M1298.49,720.24c7.24-.35,21.08-46.31,1.17-81.27-14.81-26-44.91-40-49.84-35.09-4.18,4.11,11.55,19.74,28,58.76C1293.87,700.54,1293.69,720.46,1298.49,720.24Z"/><path class="cls-52" d="M1295.31,781.17c7.24.41,25.81-43.85,9.67-80.7-12-27.43-40.49-44.42-45.91-40.11-4.58,3.65,9.43,20.84,21.75,61.37C1292.78,761.1,1290.52,780.89,1295.31,781.17Z"/><path class="cls-52" d="M1285.79,841.43c7.16,1.17,30.25-40.91,18-79.24-9.09-28.54-35.63-48.42-41.47-44.69-4.93,3.15,7.2,21.71,15.22,63.31C1285.37,821.21,1281.05,840.65,1285.79,841.43Z"/><path class="cls-52" d="M1270,900.37c7,1.91,34.36-37.52,26.23-76.92-6-29.33-30.37-51.87-36.56-48.78-5.24,2.62,4.88,22.34,8.51,64.55C1271.71,880.21,1265.38,899.1,1270,900.37Z"/><path class="cls-52" d="M1248.17,957.34c6.76,2.63,38.1-33.72,34.13-73.76-3-29.8-24.78-54.76-31.26-52.33-5.49,2,2.52,22.73,1.71,65.08C1252,937.47,1243.69,955.59,1248.17,957.34Z"/><path class="cls-52" d="M1220.49,1011.71c6.44,3.33,41.41-29.56,41.65-69.79.18-29.94-18.92-57-25.62-55.31-5.67,1.47.14,22.87-5.1,64.91C1226.34,992.35,1216.22,1009.51,1220.49,1011.71Z"/><path class="cls-52" d="M1187.28,1062.89c6.06,4,44.27-25.06,48.72-65.05,3.3-29.76-12.86-58.72-19.7-57.69-5.79.87-2.26,22.76-11.86,64C1195.12,1044.24,1183.26,1060.25,1187.28,1062.89Z"/><path class="cls-52" d="M1148.9,1110.32c5.61,4.59,46.65-20.3,55.25-59.6,6.4-29.25-6.65-59.74-13.56-59.43-5.85.25-4.63,22.39-18.48,62.43C1158.65,1092.6,1145.18,1107.28,1148.9,1110.32Z"/><path class="cls-52" d="M1105.77,1153.48c5.1,5.15,48.52-15.31,61.18-53.51,9.42-28.42-.36-60.1-7.28-60.52-5.84-.35-6.94,21.79-24.9,60.16C1117.32,1136.87,1102.39,1150.06,1105.77,1153.48Z"/><path class="cls-52" d="M1058.37,1191.89c4.53,5.66,49.85-10.16,66.43-46.81,12.34-27.29,5.92-59.82-.91-61-5.77-1-9.17,21-31.05,57.23C1071.59,1176.58,1055.36,1188.14,1058.37,1191.89Z"/><path class="cls-52" d="M1007.21,1225.14c3.91,6.1,50.64-4.89,71-39.62,15.13-25.84,12.14-58.86,5.47-60.71-5.64-1.56-11.32,19.87-36.87,53.66C1022,1211.29,1004.61,1221.09,1007.21,1225.14Z"/><path class="cls-52" d="M952.85,1252.86c3.26,6.47,50.88.43,74.72-32,17.75-24.12,18.23-57.28,11.78-59.81-5.44-2.15-13.33,18.58-42.27,49.51C969,1240.63,950.69,1248.56,952.85,1252.86Z"/><path class="cls-52" d="M895.9,1274.74c2.56,6.78,50.55,5.75,77.65-24,20.17-22.14,24.12-55.06,18-58.25-5.19-2.7-15.2,17.08-47.22,44.82C913.21,1264.26,894.2,1270.24,895.9,1274.74Z"/><path class="cls-52" d="M837,1290.55c1.84,7,49.68,11,79.74-15.74,22.37-19.91,29.73-52.24,24-56.06-4.89-3.23-16.91,15.41-51.65,39.65C855.28,1281.94,835.75,1285.9,837,1290.55Z"/><path class="cls-52" d="M776.71,1300.12c1.1,7.16,48.26,16.13,80.95-7.33,24.33-17.45,35-48.84,29.68-53.24-4.52-3.72-18.42,13.55-55.5,34C795.82,1293.47,776,1295.36,776.71,1300.12Z"/><path class="cls-52" d="M715.79,1303.33c.34,7.24,46.3,21.09,81.26,1.18,26-14.82,40-44.91,35.09-49.85-4.11-4.17-19.74,11.55-58.76,28C735.48,1298.71,715.56,1298.53,715.79,1303.33Z"/><path class="cls-52" d="M654.85,1300.16c-.41,7.24,43.85,25.81,80.7,9.66,27.43-12,44.43-40.49,40.11-45.9-3.65-4.58-20.84,9.42-61.37,21.74C674.93,1297.62,655.13,1295.36,654.85,1300.16Z"/><path class="cls-52" d="M594.59,1290.63c-1.17,7.16,40.91,30.25,79.25,18,28.53-9.08,48.41-35.62,44.68-41.46-3.15-4.94-21.7,7.19-63.3,15.21C614.81,1290.21,595.37,1285.89,594.59,1290.63Z"/><path class="cls-52" d="M535.65,1274.86c-1.91,7,37.52,34.36,76.93,26.23,29.32-6,51.87-30.37,48.77-36.56-2.61-5.24-22.34,4.89-64.55,8.51C555.81,1276.56,536.92,1270.22,535.65,1274.86Z"/><path class="cls-52" d="M478.68,1253c-2.63,6.75,33.73,38.09,73.76,34.12,29.8-3,54.76-24.78,52.33-31.26-2-5.48-22.72,2.52-65.08,1.71C498.55,1256.81,480.43,1248.54,478.68,1253Z"/><path class="cls-52" d="M424.31,1225.33c-3.33,6.45,29.56,41.42,69.79,41.66,29.94.17,57-18.92,55.31-25.63-1.47-5.67-22.87.14-64.91-5.09C443.68,1231.18,426.52,1221.06,424.31,1225.33Z"/><path class="cls-52" d="M373.13,1192.12c-4,6.06,25.07,44.28,65.05,48.72,29.76,3.31,58.72-12.85,57.69-19.7-.87-5.79-22.76-2.26-64-11.86C391.78,1200,375.77,1188.1,373.13,1192.12Z"/><path class="cls-52" d="M325.7,1153.74c-4.59,5.61,20.3,46.65,59.61,55.25,29.25,6.4,59.73-6.64,59.43-13.56-.26-5.85-22.4-4.62-62.43-18.48C343.43,1163.49,328.74,1150,325.7,1153.74Z"/><path class="cls-52" d="M282.54,1110.61c-5.15,5.1,15.32,48.52,53.51,61.18,28.42,9.42,60.1-.36,60.52-7.28.35-5.84-21.79-6.93-60.16-24.9C299.15,1122.16,286,1107.23,282.54,1110.61Z"/><path class="cls-52" d="M244.13,1063.21c-5.66,4.53,10.16,49.85,46.82,66.44,27.28,12.34,59.81,5.92,60.95-.92,1-5.77-20.95-9.17-57.23-31C259.44,1076.43,247.88,1060.2,244.13,1063.21Z"/><path class="cls-52" d="M210.88,1012.05c-6.1,3.92,4.89,50.64,39.62,71,25.84,15.12,58.86,12.14,60.71,5.46,1.56-5.64-19.87-11.31-53.66-36.87C224.73,1026.8,214.93,1009.45,210.88,1012.05Z"/><path class="cls-52" d="M183.17,957.7c-6.48,3.25-.43,50.87,32,74.72,24.12,17.74,57.28,18.22,59.81,11.78,2.15-5.45-18.58-13.33-49.51-42.28C195.39,973.81,187.46,955.54,183.17,957.7Z"/><path class="cls-52" d="M161.28,900.74c-6.78,2.57-5.74,50.56,24,77.66,22.13,20.16,55.05,24.11,58.25,18,2.7-5.19-17.09-15.2-44.83-47.22C171.76,918.05,165.78,899,161.28,900.74Z"/><path class="cls-52" d="M145.47,841.81c-7,1.84-11,49.68,15.75,79.74,19.9,22.37,52.23,29.74,56.05,24,3.23-4.89-15.4-16.9-39.65-51.65C154.08,860.12,150.12,840.6,145.47,841.81Z"/><path class="cls-52" d="M135.91,781.56c-7.17,1.09-16.14,48.25,7.32,80.94,17.46,24.33,48.84,35,53.24,29.69,3.72-4.52-13.55-18.42-34-55.51C142.56,800.66,140.66,780.83,135.91,781.56Z"/><path class="cls-52" d="M132.69,720.63c-7.24.34-21.08,46.3-1.17,81.26,14.81,26,44.91,40,49.84,35.09,4.18-4.1-11.55-19.73-28-58.76C137.31,740.32,137.49,720.4,132.69,720.63Z"/><path class="cls-52" d="M135.86,659.7c-7.23-.42-25.81,43.84-9.66,80.69,12,27.43,40.49,44.43,45.91,40.11,4.58-3.64-9.43-20.83-21.75-61.37C138.4,679.77,140.66,660,135.86,659.7Z"/><path class="cls-52" d="M145.39,599.43c-7.16-1.17-30.25,40.91-18,79.25,9.09,28.53,35.62,48.41,41.46,44.68,4.94-3.14-7.19-21.7-15.21-63.3C145.81,619.66,150.13,600.21,145.39,599.43Z"/><path class="cls-52" d="M161.16,540.49c-7-1.91-34.36,37.52-26.23,76.93,6,29.32,30.37,51.87,36.56,48.77,5.24-2.61-4.88-22.34-8.51-64.55C159.46,560.65,165.8,541.76,161.16,540.49Z"/><path class="cls-52" d="M183,483.52c-6.76-2.63-38.1,33.73-34.13,73.77,3,29.79,24.78,54.76,31.26,52.33,5.49-2.06-2.52-22.73-1.71-65.09C179.21,503.4,187.48,485.27,183,483.52Z"/><path class="cls-52" d="M210.69,429.15c-6.45-3.32-41.42,29.56-41.65,69.79-.18,29.94,18.92,57.05,25.62,55.31,5.67-1.46-.14-22.86,5.1-64.9C204.84,448.52,215,431.36,210.69,429.15Z"/><path class="cls-52" d="M243.9,378c-6.06-4-44.28,25.07-48.72,65.06-3.31,29.75,12.85,58.71,19.7,57.68,5.79-.87,2.26-22.75,11.86-64C236.06,396.62,247.92,380.61,243.9,378Z"/><path class="cls-52" d="M282.28,330.54c-5.61-4.59-46.65,20.3-55.25,59.61-6.4,29.25,6.64,59.73,13.56,59.43,5.85-.26,4.62-22.4,18.48-62.43C272.53,348.27,286,333.59,282.28,330.54Z"/><path class="cls-52" d="M325.41,287.39c-5.1-5.16-48.52,15.31-61.18,53.5-9.42,28.42.36,60.1,7.28,60.52,5.84.36,6.93-21.79,24.9-60.15C313.86,304,328.79,290.8,325.41,287.39Z"/><path class="cls-52" d="M372.81,249c-4.53-5.66-49.85,10.16-66.43,46.82-12.35,27.28-5.93,59.81.91,60.95,5.77,1,9.17-20.95,31-57.22C359.59,264.28,375.82,252.72,372.81,249Z"/><path class="cls-52" d="M424,215.73c-3.92-6.11-50.64,4.89-71,39.61-15.12,25.84-12.14,58.87-5.46,60.71,5.64,1.56,11.32-19.87,36.87-53.66C409.22,229.57,426.57,219.77,424,215.73Z"/><path class="cls-52" d="M478.32,188c-3.25-6.48-50.87-.43-74.71,32-17.75,24.12-18.23,57.27-11.79,59.81,5.45,2.14,13.34-18.58,42.28-49.52C462.21,200.24,480.48,192.3,478.32,188Z"/><path class="cls-52" d="M535.28,166.12c-2.56-6.78-50.55-5.74-77.65,24-20.17,22.13-24.12,55-18,58.25,5.19,2.7,15.2-17.09,47.22-44.83C518,176.6,537,170.62,535.28,166.12Z"/><path class="cls-52" d="M594.21,150.31c-1.84-7-49.68-11-79.74,15.75-22.37,19.9-29.73,52.23-24,56.05,4.89,3.23,16.91-15.4,51.65-39.64C575.9,158.92,595.43,155,594.21,150.31Z"/><path class="cls-52" d="M654.47,140.75c-1.1-7.17-48.26-16.13-81,7.32-24.33,17.46-35,48.84-29.69,53.24,4.52,3.72,18.43-13.55,55.51-34C635.36,147.4,655.19,145.5,654.47,140.75Z"/><path class="cls-52" d="M634.13,136.36c22.59-12.87,49.77-11.64,66.28-7.2-1.61.57-3.2,1.19-4.78,1.88a84.19,84.19,0,0,0-31.14,24.39q-3.24,1.27-6.69,2.73c-39,16.49-54.66,32.22-58.76,28C594.18,181.27,608.11,151.17,634.13,136.36Z"/><path class="cls-3" d="M3988.31,776.91,3475,779.15q-1.86,261.51-3.73,523c1.82-40.78,14.29-219.18,161.13-365.63C3774.68,794.63,3946.16,779.45,3988.31,776.91Z"/><path class="cls-1" d="M3988.31,776.91l-110.93.48v18.17A545.84,545.84,0,0,1,3988.31,776.91Z"/><path class="cls-1" d="M3651.29,778.38l-23.91.1V941.62c1.66-1.69,3.31-3.39,5-5.08q9.36-9.35,18.9-17.95Z"/><path class="cls-1" d="M3851.29,803.36V777.51l-23.91.1v34.1Q3839.58,807.14,3851.29,803.36Z"/><path class="cls-1" d="M3801.29,822.22V777.73l-23.91.1v55.39Q3789.46,827.31,3801.29,822.22Z"/><path class="cls-1" d="M3751.29,846.86V777.94l-23.91.11V861Q3739.37,853.49,3751.29,846.86Z"/><path class="cls-1" d="M3475,779.15q-1.86,261.51-3.73,523c1-21.54,4.9-81.46,30-154.79V779Z"/><path class="cls-1" d="M3701.29,878.4V778.16l-23.91.11V896.4Q3689.29,886.92,3701.29,878.4Z"/><path class="cls-1" d="M3577.38,778.7v222q11.14-15.29,23.91-30.4V778.6Z"/><path class="cls-1" d="M3527.38,778.92V1084c7-14.51,15-29.24,23.91-44V778.82Z"/><path class="cls-7" d="M3501.29,779v368.34a563.65,563.65,0,0,1,26.09-63.38V778.92Z"/><path class="cls-7" d="M3551.29,778.82V1040c7.89-13.07,16.55-26.19,26.09-39.26v-222Z"/><path class="cls-7" d="M3601.29,778.6V970.3q12.26-14.47,26.09-28.68V778.48Z"/><path class="cls-7" d="M3677.38,896.4V778.27l-26.09.11V918.59Q3664.24,906.85,3677.38,896.4Z"/><path class="cls-7" d="M3727.38,861V778.05l-26.09.11V878.4Q3714.33,869.15,3727.38,861Z"/><path class="cls-7" d="M3777.38,833.22V777.83l-26.09.11v68.92Q3764.43,839.54,3777.38,833.22Z"/><path class="cls-7" d="M3827.38,811.71v-34.1l-26.09.12v44.49Q3814.54,816.49,3827.38,811.71Z"/><path class="cls-7" d="M3877.38,795.56V777.39l-26.09.12v25.85C3860.24,800.45,3869,797.86,3877.38,795.56Z"/><path d="M3470,1316.52V774.15h542.37S3870.77,798.23,3805.14,826a534.3,534.3,0,0,0-283.31,283.32C3494.07,1174.93,3470,1316.52,3470,1316.52Zm10-532.37v428a542.47,542.47,0,0,1,428-428Z"/><polygon class="cls-53" points="1327.9 668.4 1427.16 780.01 1526.81 667.98 1327.9 668.4"/><polygon class="cls-53" points="1527.39 668.4 1626.65 780.01 1726.3 667.98 1527.39 668.4"/><polygon class="cls-53" points="1726.88 668.4 1826.15 780.01 1925.79 667.98 1726.88 668.4"/><polygon class="cls-53" points="1926.38 668.4 2025.64 780.01 2125.29 667.98 1926.38 668.4"/><polygon class="cls-53" points="2125.87 668.4 2225.14 780.01 2324.78 667.98 2125.87 668.4"/><polygon class="cls-53" points="2325.36 668.4 2424.63 780.01 2524.27 667.98 2325.36 668.4"/><polygon class="cls-53" points="2524.86 668.4 2624.12 780.01 2723.77 667.98 2524.86 668.4"/><polygon class="cls-53" points="2724.35 668.4 2823.61 780.01 2923.26 667.98 2724.35 668.4"/><polygon class="cls-53" points="2923.84 668.4 3023.11 780.01 3122.75 667.98 2923.84 668.4"/><polygon class="cls-53" points="3123.34 668.4 3222.6 780.01 3322.25 667.98 3123.34 668.4"/><polygon class="cls-53" points="3322.83 668.4 3422.09 780.01 3521.74 667.98 3322.83 668.4"/><polygon class="cls-53" points="3522.32 668.4 3621.59 780.01 3721.23 667.98 3522.32 668.4"/><polygon class="cls-53" points="3721.81 668.4 3821.08 780.01 3920.72 667.98 3721.81 668.4"/><polygon class="cls-53" points="3921.31 668.4 4020.57 780.01 4120.22 667.98 3921.31 668.4"/><polygon class="cls-53" points="4120.8 668.4 4220.07 780.01 4319.71 667.98 4120.8 668.4"/><polygon class="cls-53" points="4320.29 668.4 4419.56 780.01 4519.2 667.98 4320.29 668.4"/><path class="cls-11" d="M2149.88,1141.61H2031.12l-15.6-121.48c0-40.34,33.86-73,75.62-73h0c41.77,0,75.62,32.7,75.62,73Z"/><path class="cls-12" d="M2147.88,1141.61H2033.17l-15.07-101.07a68.12,68.12,0,0,1,68.12-68.12h9.84a68.12,68.12,0,0,1,68.12,68.12Z"/><path class="cls-54" d="M2169.58,1020.13c0-41.83-35.19-75.86-78.44-75.86s-78.44,34-78.44,75.86l2.58,20.14v.27l.28,1.88,13.08,102h123.69l12.78-91.89L2167,1041l0-.22v-.23c0-.51,0-1,0-1.53l2.57-18.49Z"/><path d="M2081.71,1062.19a6.88,6.88,0,0,1-1.35-.11c-5.7-.68-7.93-3.43-10.31-7.44-3.16-5.23-6.17-10.69-9.56-15.42-1.51-2.12-2.44-2.28-4.11-1.4l-1.07.48,4.23,12.2c2.34,6.75,3,7.22,6.69,7.75.32,1.13.65,2.26,1,3.39q-6.82.08-13.61.2c-.39-.7-.77-1.4-1.15-2.1,3.1-.91,3.28-1.56.76-7.09l-11.91-26.11c-2.39-5.33-3.45-5.62-6.73.4l-1.14-2.11a61.51,61.51,0,0,1,15.55-21.74c5.92-5.16,10.12-6.21,13.69-4.85s6.26,5.41,7.23,12c1.35,9.58-1.69,15.64-4.94,19.66,1.57,2.61,5.17,8.55,7.59,13.14,2.86,5.45,4.33,8.32,5.58,10.63,1.48,2.76,2.08,3.63,3.54,4.7C2081.67,1059.68,2081.69,1060.93,2081.71,1062.19ZM2055.56,1034c2.3-1.36,4-2.87,4.77-5.3,1.21-3.57,1.24-7.74.06-12.77-2.36-10.58-7.61-11.58-11.18-8.29-1.72,1.54-2.38,2.69-2.57,3.55a6.7,6.7,0,0,0,.57,3.72l6.91,20C2054.6,1034.58,2055.07,1034.29,2055.56,1034Z"/><path d="M2083.61,1061.52c-.1-1.38-.21-2.76-.31-4.14,3.51-.86,3.94-1.53,3.67-11q-.63-21.57-1.27-43.13c-.26-9.44-1.11-10.55-7.25-10.22-.11-1.38-.21-2.76-.31-4.14a63.42,63.42,0,0,1,25.92.52c-.13,1.37-.25,2.74-.38,4.11-6.12-.46-7,.5-7.4,9.91l-2,43c-.42,9.37,0,10,3.49,11-.12,1.37-.25,2.74-.38,4.11Q2090.52,1061.49,2083.61,1061.52Z"/><path d="M2132.81,1005a32.11,32.11,0,0,1,8.8,15.78c1.33,6.16.88,11-1.24,14.9-4.41,7.47-11.68,6.86-17.24,4.7a11.4,11.4,0,0,1-1.49-.93c-.86-.91-1.76-1.83-2.67-2.74l-3.54,12.59c-2.19,7.78-1.93,8.21,1.8,9.25-.35,1-.71,2.07-1.06,3.1q-7.1-.09-14.21-.14c.2-1.32.39-2.64.59-4,3.65-.81,4.19-1,5.89-9.66q3.86-19.61,7.7-39.21c1.67-8.54,1.23-10.08-4.48-12.88.2-1.32.39-2.64.59-4A59.64,59.64,0,0,1,2132.81,1005Zm-12.75,27.83a6.88,6.88,0,0,0,2.63,2.37c2.48,1.19,7,1.54,11-8.09,3.45-8.2,1.34-15.44-2.83-19.24-1.33-1.19-2.25-1.37-2.77-1.23s-1,1-1.4,2.41Q2123.4,1021,2120.06,1032.86Z"/><g class="cls-4"><path class="cls-14" d="M2149.88,1141.61H2031.12l-15.6-121.48c0-40.34,33.86-73,75.62-73h0c41.77,0,75.62,32.7,75.62,73Z"/><path d="M2153.36,1145.61H2027.6l-16.08-125.48c0-42.48,35.72-77,79.62-77s79.62,34.56,79.62,77l0,.55Zm-118.72-8H2146.4l16.36-117.75c-.15-37.94-32.22-68.77-71.62-68.77s-71.48,30.84-71.62,68.79Z"/><path class="cls-15" d="M2147.88,1141.61H2033.17l-15.07-101.07a68.12,68.12,0,0,1,68.12-68.12h9.84a68.12,68.12,0,0,1,68.12,68.12Z"/><path d="M2151.28,1145.61H2029.72l-15.62-105.07a72.2,72.2,0,0,1,72.12-72.12h9.84a72.2,72.2,0,0,1,72.12,72.12v.32l0,.32Zm-114.67-8h107.86l15.71-97.38a64.2,64.2,0,0,0-64.12-63.81h-9.84a64.2,64.2,0,0,0-64.12,63.83Z"/><g class="cls-55"><rect x="2012.7" y="944.27" width="156.88" height="101.42"/><rect x="2012.7" y="1045.69" width="156.88" height="2.82"/><rect class="cls-17" x="2012.7" y="1048.51" width="156.88" height="2.82"/><rect class="cls-18" x="2012.7" y="1051.33" width="156.88" height="2.82"/><rect class="cls-19" x="2012.7" y="1054.15" width="156.88" height="2.82"/><rect class="cls-20" x="2012.7" y="1056.97" width="156.88" height="2.82"/><rect class="cls-21" x="2012.7" y="1059.79" width="156.88" height="2.82"/><rect class="cls-22" x="2012.7" y="1062.62" width="156.88" height="2.82"/><rect class="cls-23" x="2012.7" y="1065.44" width="156.88" height="2.82"/><rect class="cls-24" x="2012.7" y="1068.26" width="156.88" height="2.82"/><rect class="cls-25" x="2012.7" y="1071.08" width="156.88" height="2.82"/><rect class="cls-26" x="2012.7" y="1073.9" width="156.88" height="2.82"/><rect class="cls-27" x="2012.7" y="1076.72" width="156.88" height="2.82"/><rect class="cls-28" x="2012.7" y="1079.54" width="156.88" height="2.82"/><rect class="cls-29" x="2012.7" y="1082.36" width="156.88" height="2.82"/><rect class="cls-30" x="2012.7" y="1085.18" width="156.88" height="2.82"/><rect class="cls-31" x="2012.7" y="1088" width="156.88" height="2.82"/><rect class="cls-32" x="2012.7" y="1090.83" width="156.88" height="2.82"/><rect class="cls-33" x="2012.7" y="1093.65" width="156.88" height="2.82"/><rect class="cls-34" x="2012.7" y="1096.47" width="156.88" height="2.82"/><rect class="cls-35" x="2012.7" y="1099.29" width="156.88" height="2.82"/><rect class="cls-36" x="2012.7" y="1102.11" width="156.88" height="2.82"/><rect class="cls-37" x="2012.7" y="1104.93" width="156.88" height="2.82"/><rect class="cls-38" x="2012.7" y="1107.75" width="156.88" height="2.82"/><rect class="cls-39" x="2012.7" y="1110.57" width="156.88" height="2.82"/><rect class="cls-40" x="2012.7" y="1113.39" width="156.88" height="2.82"/><rect class="cls-41" x="2012.7" y="1116.22" width="156.88" height="2.82"/><rect class="cls-42" x="2012.7" y="1119.04" width="156.88" height="2.82"/><rect class="cls-43" x="2012.7" y="1121.86" width="156.88" height="2.82"/><rect class="cls-44" x="2012.7" y="1124.68" width="156.88" height="2.82"/><rect class="cls-45" x="2012.7" y="1127.5" width="156.88" height="2.82"/><rect class="cls-46" x="2012.7" y="1130.32" width="156.88" height="2.82"/><rect class="cls-47" x="2012.7" y="1133.14" width="156.88" height="2.82"/><rect class="cls-48" x="2012.7" y="1135.96" width="156.88" height="2.82"/><rect class="cls-49" x="2012.7" y="1138.78" width="156.88" height="2.82"/><rect class="cls-50" x="2012.7" y="1141.61" width="156.88" height="2.82"/></g><path d="M2081.71,1062.19a6.88,6.88,0,0,1-1.35-.11c-5.7-.68-7.93-3.43-10.31-7.44-3.16-5.23-6.17-10.69-9.56-15.42-1.51-2.12-2.44-2.28-4.11-1.4l-1.07.48,4.23,12.2c2.34,6.75,3,7.22,6.69,7.75.32,1.13.65,2.26,1,3.39q-6.82.08-13.61.2c-.39-.7-.77-1.4-1.15-2.1,3.11-.91,3.28-1.56.76-7.09l-11.91-26.11c-2.39-5.33-3.45-5.62-6.73.4l-1.14-2.11a61.51,61.51,0,0,1,15.55-21.74c5.91-5.16,10.13-6.21,13.69-4.85s6.26,5.41,7.23,12c1.35,9.58-1.69,15.63-4.94,19.66,1.57,2.61,5.17,8.55,7.59,13.14,2.86,5.45,4.33,8.32,5.58,10.63,1.47,2.76,2.08,3.63,3.54,4.7C2081.67,1059.68,2081.69,1060.93,2081.71,1062.19ZM2055.56,1034c2.3-1.36,4-2.87,4.77-5.3,1.21-3.57,1.24-7.74.06-12.77-2.36-10.58-7.61-11.58-11.18-8.29-1.72,1.53-2.38,2.69-2.57,3.55a6.7,6.7,0,0,0,.57,3.72l6.91,20C2054.6,1034.58,2055.07,1034.29,2055.56,1034Z"/><path d="M2083.61,1061.52c-.1-1.38-.21-2.76-.31-4.14,3.51-.86,3.94-1.53,3.67-11q-.63-21.57-1.27-43.13c-.26-9.44-1.11-10.55-7.25-10.22-.11-1.38-.21-2.76-.31-4.14a63.42,63.42,0,0,1,25.92.52c-.13,1.37-.25,2.74-.38,4.11-6.12-.46-7,.5-7.4,9.91l-2,43c-.42,9.37,0,10,3.49,11-.12,1.37-.25,2.74-.38,4.11Q2090.52,1061.49,2083.61,1061.52Z"/><path d="M2132.81,1005a32.11,32.11,0,0,1,8.8,15.78c1.33,6.16.88,11-1.24,14.9-4.41,7.47-11.68,6.86-17.24,4.7a11.4,11.4,0,0,1-1.49-.93c-.86-.91-1.76-1.82-2.67-2.74l-3.54,12.59c-2.19,7.78-1.93,8.2,1.8,9.25-.35,1-.71,2.07-1.06,3.1q-7.1-.09-14.21-.14c.2-1.32.39-2.64.59-4,3.65-.81,4.2-1,5.89-9.66q3.86-19.61,7.7-39.21c1.67-8.54,1.22-10.07-4.48-12.88.2-1.32.39-2.64.59-4A59.64,59.64,0,0,1,2132.81,1005Zm-12.75,27.83a6.88,6.88,0,0,0,2.63,2.37c2.48,1.19,7,1.54,11-8.09,3.45-8.2,1.34-15.44-2.83-19.24-1.32-1.19-2.25-1.37-2.77-1.23s-1,1-1.4,2.41Q2123.4,1021,2120.06,1032.86Z"/></g><path class="cls-11" d="M2516.88,1141.61H2398.12l-15.6-121.48c0-40.34,33.86-73,75.62-73h0c41.77,0,75.62,32.7,75.62,73Z"/><path class="cls-12" d="M2514.88,1141.61H2400.17l-15.07-101.07a68.12,68.12,0,0,1,68.12-68.12h9.84a68.12,68.12,0,0,1,68.12,68.12Z"/><path class="cls-56" d="M2536.58,1020.13c0-41.83-35.19-75.86-78.44-75.86s-78.44,34-78.44,75.86l2.58,20.14v.27l.28,1.88,13.08,102h123.69l12.78-91.89L2534,1041l0-.22v-.23c0-.51,0-1,0-1.53l2.57-18.49Z"/><path d="M2448.71,1062.19a6.88,6.88,0,0,1-1.35-.11c-5.7-.68-7.93-3.43-10.31-7.44-3.16-5.23-6.17-10.69-9.56-15.42-1.51-2.12-2.44-2.28-4.11-1.4l-1.07.48,4.23,12.2c2.34,6.75,3,7.22,6.69,7.75.32,1.13.65,2.26,1,3.39q-6.82.08-13.61.2c-.39-.7-.77-1.4-1.15-2.1,3.11-.91,3.28-1.56.76-7.09l-11.91-26.11c-2.39-5.33-3.45-5.62-6.73.4l-1.14-2.11a61.51,61.51,0,0,1,15.55-21.74c5.92-5.16,10.12-6.21,13.69-4.85s6.26,5.41,7.23,12c1.35,9.58-1.69,15.64-4.94,19.66,1.57,2.61,5.17,8.55,7.59,13.14,2.86,5.45,4.33,8.32,5.58,10.63,1.48,2.76,2.08,3.63,3.54,4.7C2448.67,1059.68,2448.69,1060.93,2448.71,1062.19ZM2422.56,1034c2.3-1.36,4-2.87,4.77-5.3,1.21-3.57,1.24-7.74.06-12.77-2.36-10.58-7.61-11.58-11.18-8.29-1.72,1.54-2.38,2.69-2.57,3.55a6.7,6.7,0,0,0,.57,3.72l6.91,20C2421.6,1034.58,2422.07,1034.29,2422.56,1034Z"/><path d="M2450.61,1061.52c-.1-1.38-.21-2.76-.31-4.14,3.51-.86,3.94-1.53,3.67-11q-.63-21.57-1.27-43.13c-.26-9.44-1.11-10.55-7.25-10.22-.11-1.38-.21-2.76-.31-4.14a63.42,63.42,0,0,1,25.92.52c-.13,1.37-.25,2.74-.38,4.11-6.12-.46-7,.5-7.4,9.91l-2,43c-.42,9.37,0,10,3.49,11-.12,1.37-.25,2.74-.38,4.11Q2457.52,1061.49,2450.61,1061.52Z"/><path d="M2499.81,1005a32.11,32.11,0,0,1,8.8,15.78c1.33,6.16.88,11-1.24,14.9-4.41,7.47-11.68,6.86-17.24,4.7a11.4,11.4,0,0,1-1.49-.93c-.86-.91-1.76-1.83-2.67-2.74l-3.54,12.59c-2.18,7.78-1.93,8.21,1.8,9.25-.35,1-.71,2.07-1.06,3.1q-7.1-.09-14.21-.14c.2-1.32.39-2.64.59-4,3.65-.81,4.2-1,5.89-9.66q3.86-19.61,7.7-39.21c1.67-8.54,1.23-10.08-4.48-12.88.2-1.32.39-2.64.59-4A59.64,59.64,0,0,1,2499.81,1005Zm-12.75,27.83a6.88,6.88,0,0,0,2.63,2.37c2.48,1.19,7,1.54,11-8.09,3.45-8.2,1.34-15.44-2.83-19.24-1.33-1.19-2.25-1.37-2.77-1.23s-1,1-1.4,2.41Q2490.4,1021,2487.06,1032.86Z"/><g class="cls-4"><path class="cls-14" d="M2516.88,1141.61H2398.12l-15.6-121.48c0-40.34,33.86-73,75.62-73h0c41.77,0,75.62,32.7,75.62,73Z"/><path d="M2520.36,1145.61H2394.6l-16.08-125.48c0-42.48,35.72-77,79.62-77s79.62,34.56,79.62,77l0,.55Zm-118.72-8H2513.4l16.36-117.75c-.15-37.94-32.22-68.77-71.62-68.77s-71.48,30.84-71.62,68.79Z"/><path class="cls-15" d="M2514.88,1141.61H2400.17l-15.07-101.07a68.12,68.12,0,0,1,68.12-68.12h9.84a68.12,68.12,0,0,1,68.12,68.12Z"/><path d="M2518.28,1145.61H2396.72l-15.62-105.07a72.2,72.2,0,0,1,72.12-72.12h9.84a72.2,72.2,0,0,1,72.12,72.12v.32l0,.32Zm-114.67-8h107.86l15.71-97.38a64.2,64.2,0,0,0-64.12-63.81h-9.84a64.2,64.2,0,0,0-64.12,63.83Z"/><g class="cls-57"><rect x="2379.7" y="944.27" width="156.88" height="101.42"/><rect x="2379.7" y="1045.69" width="156.88" height="2.82"/><rect class="cls-17" x="2379.7" y="1048.51" width="156.88" height="2.82"/><rect class="cls-18" x="2379.7" y="1051.33" width="156.88" height="2.82"/><rect class="cls-19" x="2379.7" y="1054.15" width="156.88" height="2.82"/><rect class="cls-20" x="2379.7" y="1056.97" width="156.88" height="2.82"/><rect class="cls-21" x="2379.7" y="1059.79" width="156.88" height="2.82"/><rect class="cls-22" x="2379.7" y="1062.62" width="156.88" height="2.82"/><rect class="cls-23" x="2379.7" y="1065.44" width="156.88" height="2.82"/><rect class="cls-24" x="2379.7" y="1068.26" width="156.88" height="2.82"/><rect class="cls-25" x="2379.7" y="1071.08" width="156.88" height="2.82"/><rect class="cls-26" x="2379.7" y="1073.9" width="156.88" height="2.82"/><rect class="cls-27" x="2379.7" y="1076.72" width="156.88" height="2.82"/><rect class="cls-28" x="2379.7" y="1079.54" width="156.88" height="2.82"/><rect class="cls-29" x="2379.7" y="1082.36" width="156.88" height="2.82"/><rect class="cls-30" x="2379.7" y="1085.18" width="156.88" height="2.82"/><rect class="cls-31" x="2379.7" y="1088" width="156.88" height="2.82"/><rect class="cls-32" x="2379.7" y="1090.83" width="156.88" height="2.82"/><rect class="cls-33" x="2379.7" y="1093.65" width="156.88" height="2.82"/><rect class="cls-34" x="2379.7" y="1096.47" width="156.88" height="2.82"/><rect class="cls-35" x="2379.7" y="1099.29" width="156.88" height="2.82"/><rect class="cls-36" x="2379.7" y="1102.11" width="156.88" height="2.82"/><rect class="cls-37" x="2379.7" y="1104.93" width="156.88" height="2.82"/><rect class="cls-38" x="2379.7" y="1107.75" width="156.88" height="2.82"/><rect class="cls-39" x="2379.7" y="1110.57" width="156.88" height="2.82"/><rect class="cls-40" x="2379.7" y="1113.39" width="156.88" height="2.82"/><rect class="cls-41" x="2379.7" y="1116.22" width="156.88" height="2.82"/><rect class="cls-42" x="2379.7" y="1119.04" width="156.88" height="2.82"/><rect class="cls-43" x="2379.7" y="1121.86" width="156.88" height="2.82"/><rect class="cls-44" x="2379.7" y="1124.68" width="156.88" height="2.82"/><rect class="cls-45" x="2379.7" y="1127.5" width="156.88" height="2.82"/><rect class="cls-46" x="2379.7" y="1130.32" width="156.88" height="2.82"/><rect class="cls-47" x="2379.7" y="1133.14" width="156.88" height="2.82"/><rect class="cls-48" x="2379.7" y="1135.96" width="156.88" height="2.82"/><rect class="cls-49" x="2379.7" y="1138.78" width="156.88" height="2.82"/><rect class="cls-50" x="2379.7" y="1141.61" width="156.88" height="2.82"/></g><path d="M2448.71,1062.19a6.88,6.88,0,0,1-1.35-.11c-5.7-.68-7.93-3.43-10.31-7.44-3.16-5.23-6.17-10.69-9.56-15.42-1.51-2.12-2.44-2.28-4.11-1.4l-1.07.48,4.23,12.2c2.34,6.75,3,7.22,6.69,7.75.32,1.13.65,2.26,1,3.39q-6.82.08-13.61.2c-.39-.7-.77-1.4-1.15-2.1,3.11-.91,3.28-1.56.76-7.09l-11.91-26.11c-2.39-5.33-3.45-5.62-6.73.4l-1.14-2.11a61.51,61.51,0,0,1,15.55-21.74c5.91-5.16,10.13-6.21,13.69-4.85s6.26,5.41,7.23,12c1.35,9.58-1.69,15.63-4.94,19.66,1.57,2.61,5.17,8.55,7.59,13.14,2.86,5.45,4.33,8.32,5.58,10.63,1.47,2.76,2.08,3.63,3.54,4.7C2448.67,1059.68,2448.69,1060.93,2448.71,1062.19ZM2422.56,1034c2.3-1.36,4-2.87,4.77-5.3,1.21-3.57,1.24-7.74.06-12.77-2.36-10.58-7.61-11.58-11.18-8.29-1.72,1.53-2.38,2.69-2.57,3.55a6.7,6.7,0,0,0,.57,3.72l6.91,20C2421.6,1034.58,2422.07,1034.29,2422.56,1034Z"/><path d="M2450.61,1061.52c-.1-1.38-.21-2.76-.31-4.14,3.51-.86,3.94-1.53,3.67-11q-.63-21.57-1.27-43.13c-.26-9.44-1.11-10.55-7.25-10.22-.11-1.38-.21-2.76-.31-4.14a63.42,63.42,0,0,1,25.92.52c-.13,1.37-.25,2.74-.38,4.11-6.12-.46-7,.5-7.4,9.91l-2,43c-.42,9.37,0,10,3.49,11-.12,1.37-.25,2.74-.38,4.11Q2457.52,1061.49,2450.61,1061.52Z"/><path d="M2499.81,1005a32.11,32.11,0,0,1,8.8,15.78c1.33,6.16.88,11-1.24,14.9-4.41,7.47-11.68,6.86-17.24,4.7a11.4,11.4,0,0,1-1.49-.93c-.86-.91-1.76-1.82-2.67-2.74l-3.54,12.59c-2.19,7.78-1.93,8.2,1.8,9.25-.35,1-.71,2.07-1.06,3.1q-7.1-.09-14.21-.14c.2-1.32.39-2.64.59-4,3.65-.81,4.2-1,5.89-9.66q3.86-19.61,7.7-39.21c1.67-8.54,1.22-10.07-4.48-12.88.2-1.32.39-2.64.59-4A59.64,59.64,0,0,1,2499.81,1005Zm-12.75,27.83a6.88,6.88,0,0,0,2.63,2.37c2.48,1.19,7,1.54,11-8.09,3.45-8.2,1.34-15.44-2.83-19.24-1.32-1.19-2.25-1.37-2.77-1.23s-1,1-1.4,2.41Q2490.4,1021,2487.06,1032.86Z"/></g><path class="cls-11" d="M2887.88,1141.61H2769.12l-15.6-121.48c0-40.34,33.86-73,75.62-73h0c41.77,0,75.62,32.7,75.62,73Z"/><path class="cls-12" d="M2885.88,1141.61H2771.17l-15.07-101.07a68.12,68.12,0,0,1,68.12-68.12h9.84a68.12,68.12,0,0,1,68.12,68.12Z"/><path class="cls-58" d="M2907.58,1020.13c0-41.83-35.19-75.86-78.44-75.86s-78.44,34-78.44,75.86l2.58,20.14v.27l.28,1.88,13.08,102h123.69l12.78-91.89L2905,1041l0-.22v-.23c0-.51,0-1,0-1.53l2.57-18.49Z"/><path d="M2819.71,1062.19a6.88,6.88,0,0,1-1.35-.11c-5.7-.68-7.93-3.43-10.31-7.44-3.16-5.23-6.17-10.69-9.56-15.42-1.51-2.12-2.44-2.28-4.11-1.4l-1.07.48,4.23,12.2c2.34,6.75,3,7.22,6.69,7.75.32,1.13.65,2.26,1,3.39q-6.82.08-13.61.2c-.39-.7-.77-1.4-1.15-2.1,3.1-.91,3.28-1.56.76-7.09l-11.91-26.11c-2.39-5.33-3.45-5.62-6.73.4l-1.14-2.11a61.51,61.51,0,0,1,15.55-21.74c5.92-5.16,10.12-6.21,13.69-4.85s6.26,5.41,7.23,12c1.35,9.58-1.69,15.64-4.94,19.66,1.57,2.61,5.17,8.55,7.59,13.14,2.86,5.45,4.33,8.32,5.58,10.63,1.48,2.76,2.08,3.63,3.54,4.7C2819.67,1059.68,2819.69,1060.93,2819.71,1062.19ZM2793.56,1034c2.3-1.36,4-2.87,4.77-5.3,1.21-3.57,1.24-7.74.06-12.77-2.36-10.58-7.61-11.58-11.18-8.29-1.72,1.54-2.38,2.69-2.57,3.55a6.7,6.7,0,0,0,.57,3.72l6.91,20C2792.6,1034.58,2793.07,1034.29,2793.56,1034Z"/><path d="M2821.61,1061.52c-.1-1.38-.21-2.76-.31-4.14,3.51-.86,3.94-1.53,3.67-11q-.63-21.57-1.27-43.13c-.26-9.44-1.11-10.55-7.25-10.22-.11-1.38-.21-2.76-.31-4.14a63.42,63.42,0,0,1,25.92.52c-.13,1.37-.25,2.74-.38,4.11-6.12-.46-7,.5-7.4,9.91l-2,43c-.42,9.37,0,10,3.49,11-.12,1.37-.25,2.74-.38,4.11Q2828.52,1061.49,2821.61,1061.52Z"/><path d="M2870.81,1005a32.11,32.11,0,0,1,8.8,15.78c1.33,6.16.88,11-1.24,14.9-4.41,7.47-11.68,6.86-17.24,4.7a11.4,11.4,0,0,1-1.49-.93c-.86-.91-1.76-1.83-2.67-2.74l-3.54,12.59c-2.19,7.78-1.93,8.21,1.8,9.25-.35,1-.71,2.07-1.06,3.1q-7.1-.09-14.21-.14c.2-1.32.39-2.64.59-4,3.65-.81,4.19-1,5.89-9.66q3.86-19.61,7.7-39.21c1.67-8.54,1.23-10.08-4.48-12.88.2-1.32.39-2.64.59-4A59.64,59.64,0,0,1,2870.81,1005Zm-12.75,27.83a6.88,6.88,0,0,0,2.63,2.37c2.48,1.19,7,1.54,11-8.09,3.45-8.2,1.34-15.44-2.83-19.24-1.33-1.19-2.25-1.37-2.77-1.23s-1,1-1.4,2.41Q2861.4,1021,2858.06,1032.86Z"/><g class="cls-4"><path class="cls-14" d="M2887.88,1141.61H2769.12l-15.6-121.48c0-40.34,33.86-73,75.62-73h0c41.77,0,75.62,32.7,75.62,73Z"/><path d="M2891.36,1145.61H2765.6l-16.08-125.48c0-42.48,35.72-77,79.62-77s79.62,34.56,79.62,77l0,.55Zm-118.72-8H2884.4l16.36-117.75c-.15-37.94-32.22-68.77-71.62-68.77s-71.48,30.84-71.62,68.79Z"/><path class="cls-15" d="M2885.88,1141.61H2771.17l-15.07-101.07a68.12,68.12,0,0,1,68.12-68.12h9.84a68.12,68.12,0,0,1,68.12,68.12Z"/><path d="M2889.28,1145.61H2767.72l-15.62-105.07a72.2,72.2,0,0,1,72.12-72.12h9.84a72.2,72.2,0,0,1,72.12,72.12v.32l0,.32Zm-114.67-8h107.86l15.71-97.38a64.2,64.2,0,0,0-64.12-63.81h-9.84a64.2,64.2,0,0,0-64.12,63.83Z"/><g class="cls-59"><rect x="2750.7" y="944.27" width="156.88" height="101.42"/><rect x="2750.7" y="1045.69" width="156.88" height="2.82"/><rect class="cls-17" x="2750.7" y="1048.51" width="156.88" height="2.82"/><rect class="cls-18" x="2750.7" y="1051.33" width="156.88" height="2.82"/><rect class="cls-19" x="2750.7" y="1054.15" width="156.88" height="2.82"/><rect class="cls-20" x="2750.7" y="1056.97" width="156.88" height="2.82"/><rect class="cls-21" x="2750.7" y="1059.79" width="156.88" height="2.82"/><rect class="cls-22" x="2750.7" y="1062.62" width="156.88" height="2.82"/><rect class="cls-23" x="2750.7" y="1065.44" width="156.88" height="2.82"/><rect class="cls-24" x="2750.7" y="1068.26" width="156.88" height="2.82"/><rect class="cls-25" x="2750.7" y="1071.08" width="156.88" height="2.82"/><rect class="cls-26" x="2750.7" y="1073.9" width="156.88" height="2.82"/><rect class="cls-27" x="2750.7" y="1076.72" width="156.88" height="2.82"/><rect class="cls-28" x="2750.7" y="1079.54" width="156.88" height="2.82"/><rect class="cls-29" x="2750.7" y="1082.36" width="156.88" height="2.82"/><rect class="cls-30" x="2750.7" y="1085.18" width="156.88" height="2.82"/><rect class="cls-31" x="2750.7" y="1088" width="156.88" height="2.82"/><rect class="cls-32" x="2750.7" y="1090.83" width="156.88" height="2.82"/><rect class="cls-33" x="2750.7" y="1093.65" width="156.88" height="2.82"/><rect class="cls-34" x="2750.7" y="1096.47" width="156.88" height="2.82"/><rect class="cls-35" x="2750.7" y="1099.29" width="156.88" height="2.82"/><rect class="cls-36" x="2750.7" y="1102.11" width="156.88" height="2.82"/><rect class="cls-37" x="2750.7" y="1104.93" width="156.88" height="2.82"/><rect class="cls-38" x="2750.7" y="1107.75" width="156.88" height="2.82"/><rect class="cls-39" x="2750.7" y="1110.57" width="156.88" height="2.82"/><rect class="cls-40" x="2750.7" y="1113.39" width="156.88" height="2.82"/><rect class="cls-41" x="2750.7" y="1116.22" width="156.88" height="2.82"/><rect class="cls-42" x="2750.7" y="1119.04" width="156.88" height="2.82"/><rect class="cls-43" x="2750.7" y="1121.86" width="156.88" height="2.82"/><rect class="cls-44" x="2750.7" y="1124.68" width="156.88" height="2.82"/><rect class="cls-45" x="2750.7" y="1127.5" width="156.88" height="2.82"/><rect class="cls-46" x="2750.7" y="1130.32" width="156.88" height="2.82"/><rect class="cls-47" x="2750.7" y="1133.14" width="156.88" height="2.82"/><rect class="cls-48" x="2750.7" y="1135.96" width="156.88" height="2.82"/><rect class="cls-49" x="2750.7" y="1138.78" width="156.88" height="2.82"/><rect class="cls-50" x="2750.7" y="1141.61" width="156.88" height="2.82"/></g><path d="M2819.71,1062.19a6.88,6.88,0,0,1-1.35-.11c-5.7-.68-7.93-3.43-10.31-7.44-3.16-5.23-6.17-10.69-9.56-15.42-1.51-2.12-2.44-2.28-4.11-1.4l-1.07.48,4.23,12.2c2.34,6.75,3,7.22,6.69,7.75.32,1.13.65,2.26,1,3.39q-6.82.08-13.61.2c-.39-.7-.77-1.4-1.15-2.1,3.11-.91,3.28-1.56.76-7.09l-11.91-26.11c-2.39-5.33-3.45-5.62-6.73.4l-1.14-2.11a61.51,61.51,0,0,1,15.55-21.74c5.91-5.16,10.13-6.21,13.69-4.85s6.26,5.41,7.23,12c1.35,9.58-1.69,15.63-4.94,19.66,1.57,2.61,5.17,8.55,7.59,13.14,2.86,5.45,4.33,8.32,5.58,10.63,1.47,2.76,2.08,3.63,3.54,4.7C2819.67,1059.68,2819.69,1060.93,2819.71,1062.19ZM2793.56,1034c2.3-1.36,4-2.87,4.77-5.3,1.21-3.57,1.24-7.74.06-12.77-2.36-10.58-7.61-11.58-11.18-8.29-1.72,1.53-2.38,2.69-2.57,3.55a6.7,6.7,0,0,0,.57,3.72l6.91,20C2792.6,1034.58,2793.07,1034.29,2793.56,1034Z"/><path d="M2821.61,1061.52c-.1-1.38-.21-2.76-.31-4.14,3.51-.86,3.94-1.53,3.67-11q-.63-21.57-1.27-43.13c-.26-9.44-1.11-10.55-7.25-10.22-.11-1.38-.21-2.76-.31-4.14a63.42,63.42,0,0,1,25.92.52c-.13,1.37-.25,2.74-.38,4.11-6.12-.46-7,.5-7.4,9.91l-2,43c-.42,9.37,0,10,3.49,11-.12,1.37-.25,2.74-.38,4.11Q2828.52,1061.49,2821.61,1061.52Z"/><path d="M2870.81,1005a32.11,32.11,0,0,1,8.8,15.78c1.33,6.16.88,11-1.24,14.9-4.41,7.47-11.68,6.86-17.24,4.7a11.4,11.4,0,0,1-1.49-.93c-.86-.91-1.76-1.82-2.67-2.74l-3.54,12.59c-2.19,7.78-1.93,8.2,1.8,9.25-.35,1-.71,2.07-1.06,3.1q-7.1-.09-14.21-.14c.2-1.32.39-2.64.59-4,3.65-.81,4.2-1,5.89-9.66q3.86-19.61,7.7-39.21c1.67-8.54,1.22-10.07-4.48-12.88.2-1.32.39-2.64.59-4A59.64,59.64,0,0,1,2870.81,1005Zm-12.75,27.83a6.88,6.88,0,0,0,2.63,2.37c2.48,1.19,7,1.54,11-8.09,3.45-8.2,1.34-15.44-2.83-19.24-1.32-1.19-2.25-1.37-2.77-1.23s-1,1-1.4,2.41Q2861.4,1021,2858.06,1032.86Z"/></g><path class="cls-11" d="M3257.88,1141.61H3139.12l-15.6-121.48c0-40.34,33.86-73,75.62-73h0c41.77,0,75.62,32.7,75.62,73Z"/><path class="cls-12" d="M3255.88,1141.61H3141.17l-15.07-101.07a68.12,68.12,0,0,1,68.12-68.12h9.84a68.12,68.12,0,0,1,68.12,68.12Z"/><path class="cls-60" d="M3277.58,1020.13c0-41.83-35.19-75.86-78.44-75.86s-78.44,34-78.44,75.86l2.58,20.14v.27l.28,1.88,13.08,102h123.69l12.78-91.89L3275,1041l0-.22v-.23c0-.51,0-1,0-1.53l2.57-18.49Z"/><path d="M3189.71,1062.19a6.88,6.88,0,0,1-1.35-.11c-5.7-.68-7.93-3.43-10.31-7.44-3.16-5.23-6.17-10.69-9.56-15.42-1.51-2.12-2.44-2.28-4.11-1.4l-1.07.48,4.23,12.2c2.34,6.75,3,7.22,6.69,7.75.32,1.13.65,2.26,1,3.39q-6.82.08-13.61.2c-.39-.7-.77-1.4-1.15-2.1,3.1-.91,3.28-1.56.76-7.09l-11.91-26.11c-2.39-5.33-3.45-5.62-6.73.4l-1.14-2.11a61.51,61.51,0,0,1,15.55-21.74c5.91-5.16,10.13-6.21,13.69-4.85s6.26,5.41,7.23,12c1.36,9.58-1.69,15.63-4.94,19.66,1.57,2.62,5.17,8.55,7.59,13.14,2.86,5.45,4.33,8.32,5.58,10.63,1.48,2.76,2.08,3.63,3.54,4.7C3189.67,1059.68,3189.69,1060.93,3189.71,1062.19ZM3163.56,1034c2.3-1.36,4-2.87,4.77-5.3,1.21-3.57,1.24-7.74.06-12.77-2.36-10.58-7.61-11.58-11.18-8.29a7.4,7.4,0,0,0-2.57,3.55,6.7,6.7,0,0,0,.57,3.72l6.91,20C3162.6,1034.58,3163.07,1034.29,3163.56,1034Z"/><path d="M3191.61,1061.52c-.1-1.38-.21-2.76-.31-4.14,3.51-.86,3.94-1.53,3.67-11q-.63-21.57-1.27-43.13c-.26-9.44-1.11-10.55-7.25-10.22-.11-1.38-.21-2.76-.31-4.14a63.42,63.42,0,0,1,25.92.52c-.13,1.37-.25,2.74-.38,4.11-6.12-.46-7,.5-7.4,9.91l-2,43c-.42,9.37,0,10,3.49,11-.12,1.37-.25,2.74-.38,4.11Q3198.52,1061.49,3191.61,1061.52Z"/><path d="M3240.81,1005a32.11,32.11,0,0,1,8.8,15.78c1.33,6.16.88,11-1.24,14.9-4.41,7.47-11.68,6.86-17.24,4.7a11.4,11.4,0,0,1-1.49-.93c-.86-.91-1.76-1.82-2.67-2.74l-3.54,12.59c-2.18,7.78-1.93,8.21,1.8,9.25-.35,1-.71,2.07-1.06,3.1q-7.1-.09-14.21-.14c.2-1.32.39-2.64.59-4,3.65-.81,4.2-1,5.89-9.66q3.86-19.61,7.7-39.21c1.67-8.54,1.23-10.08-4.48-12.88.2-1.32.39-2.64.59-4A59.64,59.64,0,0,1,3240.81,1005Zm-12.75,27.83a6.88,6.88,0,0,0,2.63,2.37c2.48,1.19,7,1.54,11-8.09,3.45-8.2,1.34-15.44-2.83-19.24-1.33-1.2-2.25-1.37-2.77-1.23s-1,1-1.4,2.41Q3231.4,1021,3228.06,1032.86Z"/><g class="cls-4"><path class="cls-14" d="M3257.88,1141.61H3139.12l-15.6-121.48c0-40.34,33.86-73,75.62-73h0c41.77,0,75.62,32.7,75.62,73Z"/><path d="M3261.36,1145.61H3135.6l-16.08-125.48c0-42.48,35.72-77,79.62-77s79.62,34.56,79.62,77l0,.55Zm-118.72-8H3254.4l16.36-117.75c-.15-37.94-32.22-68.77-71.62-68.77s-71.48,30.84-71.62,68.79Z"/><path class="cls-15" d="M3255.88,1141.61H3141.17l-15.07-101.07a68.12,68.12,0,0,1,68.12-68.12h9.84a68.12,68.12,0,0,1,68.12,68.12Z"/><path d="M3259.28,1145.61H3137.72l-15.62-105.07a72.2,72.2,0,0,1,72.12-72.12h9.84a72.2,72.2,0,0,1,72.12,72.12v.32l0,.32Zm-114.67-8h107.86l15.71-97.38a64.2,64.2,0,0,0-64.12-63.81h-9.84a64.2,64.2,0,0,0-64.12,63.83Z"/><g class="cls-61"><rect x="3120.7" y="944.27" width="156.88" height="101.42"/><rect x="3120.7" y="1045.69" width="156.88" height="2.82"/><rect class="cls-17" x="3120.7" y="1048.51" width="156.88" height="2.82"/><rect class="cls-18" x="3120.7" y="1051.33" width="156.88" height="2.82"/><rect class="cls-19" x="3120.7" y="1054.15" width="156.88" height="2.82"/><rect class="cls-20" x="3120.7" y="1056.97" width="156.88" height="2.82"/><rect class="cls-21" x="3120.7" y="1059.79" width="156.88" height="2.82"/><rect class="cls-22" x="3120.7" y="1062.62" width="156.88" height="2.82"/><rect class="cls-23" x="3120.7" y="1065.44" width="156.88" height="2.82"/><rect class="cls-24" x="3120.7" y="1068.26" width="156.88" height="2.82"/><rect class="cls-25" x="3120.7" y="1071.08" width="156.88" height="2.82"/><rect class="cls-26" x="3120.7" y="1073.9" width="156.88" height="2.82"/><rect class="cls-27" x="3120.7" y="1076.72" width="156.88" height="2.82"/><rect class="cls-28" x="3120.7" y="1079.54" width="156.88" height="2.82"/><rect class="cls-29" x="3120.7" y="1082.36" width="156.88" height="2.82"/><rect class="cls-30" x="3120.7" y="1085.18" width="156.88" height="2.82"/><rect class="cls-31" x="3120.7" y="1088" width="156.88" height="2.82"/><rect class="cls-32" x="3120.7" y="1090.83" width="156.88" height="2.82"/><rect class="cls-33" x="3120.7" y="1093.65" width="156.88" height="2.82"/><rect class="cls-34" x="3120.7" y="1096.47" width="156.88" height="2.82"/><rect class="cls-35" x="3120.7" y="1099.29" width="156.88" height="2.82"/><rect class="cls-36" x="3120.7" y="1102.11" width="156.88" height="2.82"/><rect class="cls-37" x="3120.7" y="1104.93" width="156.88" height="2.82"/><rect class="cls-38" x="3120.7" y="1107.75" width="156.88" height="2.82"/><rect class="cls-39" x="3120.7" y="1110.57" width="156.88" height="2.82"/><rect class="cls-40" x="3120.7" y="1113.39" width="156.88" height="2.82"/><rect class="cls-41" x="3120.7" y="1116.22" width="156.88" height="2.82"/><rect class="cls-42" x="3120.7" y="1119.04" width="156.88" height="2.82"/><rect class="cls-43" x="3120.7" y="1121.86" width="156.88" height="2.82"/><rect class="cls-44" x="3120.7" y="1124.68" width="156.88" height="2.82"/><rect class="cls-45" x="3120.7" y="1127.5" width="156.88" height="2.82"/><rect class="cls-46" x="3120.7" y="1130.32" width="156.88" height="2.82"/><rect class="cls-47" x="3120.7" y="1133.14" width="156.88" height="2.82"/><rect class="cls-48" x="3120.7" y="1135.96" width="156.88" height="2.82"/><rect class="cls-49" x="3120.7" y="1138.78" width="156.88" height="2.82"/><rect class="cls-50" x="3120.7" y="1141.61" width="156.88" height="2.82"/></g><path d="M3189.71,1062.19a6.88,6.88,0,0,1-1.35-.11c-5.7-.68-7.93-3.43-10.31-7.44-3.16-5.23-6.17-10.69-9.56-15.42-1.51-2.12-2.44-2.28-4.11-1.4l-1.07.48,4.23,12.2c2.34,6.75,3,7.22,6.69,7.75.32,1.13.65,2.26,1,3.39q-6.82.08-13.61.2c-.39-.7-.77-1.4-1.15-2.1,3.11-.91,3.28-1.56.76-7.09l-11.91-26.11c-2.39-5.33-3.45-5.62-6.73.4l-1.14-2.11a61.51,61.51,0,0,1,15.55-21.74c5.91-5.16,10.13-6.21,13.69-4.85s6.26,5.41,7.23,12c1.35,9.58-1.69,15.63-4.94,19.66,1.57,2.61,5.17,8.55,7.59,13.14,2.86,5.45,4.33,8.32,5.58,10.63,1.47,2.76,2.08,3.63,3.54,4.7C3189.67,1059.68,3189.69,1060.93,3189.71,1062.19ZM3163.56,1034c2.3-1.36,4-2.87,4.77-5.3,1.21-3.57,1.24-7.74.06-12.77-2.36-10.58-7.61-11.58-11.18-8.29-1.72,1.53-2.38,2.69-2.57,3.55a6.7,6.7,0,0,0,.57,3.72l6.91,20C3162.6,1034.58,3163.07,1034.29,3163.56,1034Z"/><path d="M3191.61,1061.52c-.1-1.38-.21-2.76-.31-4.14,3.51-.86,3.94-1.53,3.67-11q-.63-21.57-1.27-43.13c-.26-9.44-1.11-10.55-7.25-10.22-.11-1.38-.21-2.76-.31-4.14a63.42,63.42,0,0,1,25.92.52c-.13,1.37-.25,2.74-.38,4.11-6.12-.46-7,.5-7.4,9.91l-2,43c-.42,9.37,0,10,3.49,11-.12,1.37-.25,2.74-.38,4.11Q3198.52,1061.49,3191.61,1061.52Z"/><path d="M3240.81,1005a32.11,32.11,0,0,1,8.8,15.78c1.33,6.16.88,11-1.24,14.9-4.41,7.47-11.68,6.86-17.24,4.7a11.4,11.4,0,0,1-1.49-.93c-.86-.91-1.76-1.82-2.67-2.74l-3.54,12.59c-2.19,7.78-1.93,8.2,1.8,9.25-.35,1-.71,2.07-1.06,3.1q-7.1-.09-14.21-.14c.2-1.32.39-2.64.59-4,3.65-.81,4.2-1,5.89-9.66q3.86-19.61,7.7-39.21c1.67-8.54,1.22-10.07-4.48-12.88.2-1.32.39-2.64.59-4A59.64,59.64,0,0,1,3240.81,1005Zm-12.75,27.83a6.88,6.88,0,0,0,2.63,2.37c2.48,1.19,7,1.54,11-8.09,3.45-8.2,1.34-15.44-2.83-19.24-1.32-1.19-2.25-1.37-2.77-1.23s-1,1-1.4,2.41Q3231.4,1021,3228.06,1032.86Z"/></g></g></svg>