<svg xmlns="http://www.w3.org/2000/svg" xmlns:xlink="http://www.w3.org/1999/xlink" viewBox="0 0 315 316"><defs><style>.cls-1{fill:#666;}.cls-2{fill:url(#radial-gradient);}.cls-3{fill:#b2b2b2;}.cls-3,.cls-4{stroke:#000;stroke-miterlimit:10;stroke-width:8px;}.cls-4{fill:gray;}.cls-5{fill:url(#linear-gradient);}</style><radialGradient id="radial-gradient" cx="670.88" cy="91.25" r="132.64" gradientTransform="translate(-588.51 56.03) scale(1.11 1.11)" gradientUnits="userSpaceOnUse"><stop offset="0" stop-color="#fff"/><stop offset="0.28" stop-color="#fff" stop-opacity="0.67"/><stop offset="0.54" stop-color="#fff" stop-opacity="0.38"/><stop offset="0.75" stop-color="#fff" stop-opacity="0.17"/><stop offset="0.91" stop-color="#fff" stop-opacity="0.05"/><stop offset="1" stop-color="#fff" stop-opacity="0"/></radialGradient><linearGradient id="linear-gradient" x1="162.14" y1="56.85" x2="162.14" y2="257" gradientUnits="userSpaceOnUse"><stop offset="0.51" stop-opacity="0"/><stop offset="1"/></linearGradient></defs><title>env</title><g id="ui"><rect class="cls-1" x="4.97" y="5.39" width="305.2" height="305.2"/><path d="M305.16,10.39V305.58H10V10.39H305.16m10-10H0V315.58H315.16V.39Z"/><circle class="cls-2" cx="157.5" cy="157.5" r="147.5"/><path class="cls-3" d="M220.83,255H102.07L86.47,133.53c0-40.34,33.86-73,75.62-73h0c41.77,0,75.62,32.7,75.62,73Z"/><path class="cls-4" d="M218.76,255H104.18L89.13,154.05A68.05,68.05,0,0,1,157.18,86H167a68.05,68.05,0,0,1,68.05,68.05Z"/><path class="cls-5" d="M240.58,132.71c0-41.83-35.19-75.86-78.44-75.86s-78.44,34-78.44,75.86l2.58,20.13c0,.09,0,.18,0,.28l.28,1.88L99.63,257h123.7l12.77-91.89L238,153.57l0-.23v-.22c0-.51,0-1,0-1.53l2.57-18.49Z"/><path d="M153,175.34a7.24,7.24,0,0,1-1.39-.11c-5.88-.68-8.14-3.45-10.53-7.49-3.18-5.28-6.2-10.79-9.63-15.57-1.52-2.14-2.48-2.3-4.22-1.4l-1.11.49,4.17,12.29c2.31,6.82,3,7.29,6.78,7.82l1,3.42q-7.06.08-14.07.21l-1.14-2.11c3.22-.92,3.4-1.57.9-7.13l-11.82-26.23c-2.36-5.35-3.46-5.65-6.84.58L103.89,138a61.11,61.11,0,0,1,16.21-22.27c6.19-5.21,10.57-6.2,14.24-4.79s6.4,5.53,7.28,12.21c1.24,9.63-2,15.66-5.44,19.7,1.58,2.64,5.21,8.64,7.63,13.27,2.87,5.5,4.34,8.39,5.59,10.71,1.48,2.78,2.09,3.66,3.58,4.73C153,172.82,153,174.08,153,175.34Zm-26.47-28c2.31-1.32,4-2.8,4.8-5.22,1.23-3.56,1.28-7.73.14-12.78-2.31-10.62-7.55-11.73-11.16-8.51-1.72,1.49-2.39,2.63-2.58,3.49s0,2.05.54,3.73q3.41,10.06,6.82,20.13Q125.77,147.77,126.5,147.37Z"/><path d="M154.49,174.67c-.09-1.38-.19-2.76-.28-4.13,3.64-.85,4.09-1.52,3.93-11q-.4-21.53-.8-43c-.16-9.42-1-10.56-7.39-10.34l-.27-4.14a63,63,0,0,1,26.49,1.29c-.14,1.35-.29,2.71-.43,4.06-6.29-.72-7.2.24-7.72,9.58q-1.22,21.36-2.45,42.71c-.53,9.31-.09,10,3.5,11-.14,1.35-.29,2.71-.43,4.06Q161.56,174.65,154.49,174.67Z"/><path d="M203.59,119.29a30.59,30.59,0,0,1,8,15.09c1.16,5.9.65,10.63-1.45,14.49-4.39,7.52-11.28,7.18-16.43,5.1a10.34,10.34,0,0,1-1.38-.89c-.79-.89-1.6-1.78-2.44-2.67l-3.6,12.33c-2.22,7.63-2,8,1.47,9.06l-1.08,3q-7-.1-14.11-.15c.2-1.31.4-2.62.61-3.93,3.77-.78,4.33-1,6.08-9.51q4-19.35,7.94-38.69c1.73-8.43,1.28-10-4.57-13,.2-1.31.4-2.62.61-3.93A59.22,59.22,0,0,1,203.59,119.29Zm-12.51,27.05a7.2,7.2,0,0,0,2.6,2.42c2.46,1.25,6.94,1.76,11-7.53,3.45-7.93,1.45-15.23-2.63-19.18-1.3-1.25-2.22-1.46-2.74-1.34s-1,1-1.4,2.33Z"/></g></svg>