<?xml version="1.0" encoding="UTF-8"?><svg id="Demon_Lord" xmlns="http://www.w3.org/2000/svg" viewBox="0 0 512 512"><defs><style>.cls-1{fill:#9c0;stroke:#360;stroke-width:7px;}.cls-1,.cls-2,.cls-3,.cls-4,.cls-5{stroke-linejoin:round;}.cls-1,.cls-2,.cls-3,.cls-5{stroke-linecap:round;}.cls-2{stroke:#000;}.cls-2,.cls-3,.cls-4,.cls-5{stroke-width:8px;}.cls-2,.cls-6{fill:#333;}.cls-3{fill:#ffc;stroke:#996;}.cls-6{opacity:.5;}.cls-7{fill:#cf0;}.cls-4{stroke:#300;}.cls-4,.cls-8{fill:#c00;}.cls-9{fill:#003;}.cls-10{fill:#996;}.cls-11{fill:#cc9;}.cls-5{fill:#62737a;stroke:#003;}</style></defs><g><path class="cls-5" d="M339.323,417.097c-25.275,5.321-98.559,8.37-120.898,8.37-23.25,0-53.009-.93-84.629-1.86,14.88-12.09,43.137-31.664,55.443-54.965,3.521-6.666,5.551-12.377,7.796-19.434,6.51-20.46,10.23-42.779,12.09-63.704,0-4.119,.411-26.028,18.114-43.73,11.192-11.192,23.863-18.114,40.94-18.114h7.44c34.155,0,61.844,27.688,61.844,61.844l1.86,131.593Z"/><path class="cls-9" d="M293.842,281.911c5.335,16.762,9.154,34.192,10.05,51.845,.464,8.841,.351,17.677-.175,26.498-1.21,20.519-5.036,41.109-12.833,60.168,3.954-28.801,6.196-57.435,5.972-86.438-.014-17.453-2.135-34.504-3.014-52.074h0Z"/><path class="cls-6" d="M239.814,238.54c11.507,2.941,6.873,55.57,2.79,81.839-4.986,32.078-8.604,53.384-26.04,68.819-12.797,11.329-28.019,15.053-26.97,20.46,.684,3.522,7.798,5.325,27.9,7.44,34.256,3.604,59.496,3.195,59.519,3.72,.016,.374-12.734,1.793-69.749,3.72-54.621,1.846-69.795,1.453-70.679-2.79-.84-4.032,12.167-7.014,26.97-18.6,24.199-18.941,33.258-45.271,37.199-56.729,12.757-37.08,.187-60.153,17.67-92.069,2.543-4.643,13.798-17.75,21.39-15.81Z"/><path class="cls-9" d="M218.424,429.187c-21.693,0-49.138-.81-78.193-1.668l-6.545-.193c-1.554-.045-2.915-1.053-3.414-2.525-.499-1.473-.029-3.101,1.177-4.08,2.334-1.896,5.004-3.983,7.83-6.192,15.464-12.086,36.642-28.638,46.669-47.623,3.264-6.182,5.237-11.583,7.541-18.825,5.822-18.299,9.831-39.408,11.915-62.745,.025-6.586,1.539-28.527,19.203-46.192,13.102-13.101,26.946-19.203,43.571-19.203h7.44c36.152,0,65.564,29.412,65.564,65.564l1.86,131.54c.025,1.779-1.212,3.327-2.953,3.693-26.336,5.544-100.712,8.45-121.665,8.45Zm-74.307-8.997c27.637,.815,53.635,1.557,74.307,1.557,23.046,0,90.548-2.974,117.135-7.711l-1.816-128.479c0-32.103-26.075-58.177-58.125-58.177h-7.44c-14.721,0-26.536,5.251-38.31,17.024-15.797,15.797-17.024,35.452-17.024,41.1,0,.11-.005,.22-.015,.33-2.128,23.942-6.25,45.644-12.251,64.502-2.431,7.642-4.528,13.371-8.052,20.044-10.713,20.283-32.44,37.328-48.411,49.811Z"/></g><path class="cls-4" d="M295.213,278.296c17.714-4.078,37.792-11.513,55.269-16.507,6.51-1.86,22.32-5.58,43.518-1.371-7.248-13.509-18.454-21.843-28.638-28.388-6.643-4.269-15.81-7.44-22.772-8.707-15.792,18.324-31.585,36.649-47.377,54.973Z"/><g><g><path class="cls-3" d="M336.703,149.2s-3.868-45.561-54.158-46.421c-67.609-1.156-68.771,56.179-68.771,56.736,0,1.813,8.596,52.438,18.912,75.649,6.396,5.208,14.677,11.043,24.93,16.333,13.694,7.066,26.358,10.815,36.105,12.895,6.933-3.342,17.588-9.573,27.509-20.631,7.326-8.166,11.848-16.285,14.614-22.351,1.146-24.07,.86-48.14,.86-72.21Z"/><path class="cls-8" d="M273.787,187.8c-8.733-4.164-11.656-6.971-15.297-9.311-1.807,3.961-2.866,8.682-2.866,13.764,0,13.938,7.9,25.237,17.644,25.237s17.644-6.845,17.644-20.784c0-1.326-.093-2.618-.231-3.888-5.972-.998-10.667-2.05-16.895-5.019Z"/><path class="cls-8" d="M314.871,188.818c6.834-3.766,9.074-6.21,11.903-8.286,1.576,3.259,2.58,7.179,2.75,11.435,.467,11.672-5.462,21.387-13.243,21.698s-14.319-5.169-14.786-16.841c-.044-1.11-.014-2.195,.054-3.263,4.735-1.026,8.45-2.058,13.323-4.743Z"/><path class="cls-11" d="M224.826,197.112c1.107-.365,3.165,11.839,14.816,19.247,11.179,7.108,25.447,6.148,25.37,7.28-.073,1.059-10.336,6.804-14.75,5.583-.131,3.098,7.3,10.953,10.576,13.896,15.676,14.078,31.842,18.247,31.576,18.922-.34,.863-29.04-.279-49.363-20.709-18.849-18.948-19.77-43.71-18.225-44.219Z"/><path class="cls-10" d="M293.722,268.112c-.26,0-.52-.027-.777-.082-12.902-2.755-25.362-7.205-37.034-13.227-9.053-4.672-17.657-10.309-25.573-16.755-.453-.369-.813-.839-1.05-1.373-10.473-23.564-19.233-74.645-19.233-77.16,0-.24,.211-24.198,18.416-42.095,12.795-12.579,31.008-18.754,54.139-18.36,27.639,.473,41.913,14.002,49.02,25.268,7.649,12.125,8.738,24.056,8.781,24.558,.009,.104,.013,.21,.013,.315,0,4.009,.008,8.018,.016,12.028,.039,19.768,.08,40.209-.88,60.359-.023,.472-.135,.935-.331,1.366-3.885,8.522-9.009,16.358-15.229,23.292-8.055,8.978-17.698,16.211-28.662,21.498-.507,.245-1.059,.37-1.616,.37Zm-57.991-35.27c7.326,5.889,15.259,11.05,23.592,15.35,10.707,5.525,22.113,9.656,33.924,12.29,9.614-4.809,18.092-11.266,25.215-19.205,5.559-6.197,10.166-13.181,13.701-20.767,.916-19.734,.876-39.828,.837-59.268-.008-3.956-.015-7.911-.016-11.866-.319-3.16-5.192-42.103-50.501-42.877-20.896-.363-37.217,5.014-48.526,15.964-15.348,14.86-16.398,35.261-16.458,36.973,.427,4.384,8.581,51.008,18.233,73.406Z"/></g><path class="cls-2" d="M284.453,103.692c6.51-10.159,24.301-14.902,42.779-12.069,36.269,5.56,50.979,59.337,46.499,56.89-5.58-3.048-12.326-10.063-13.02-9.143-.44,.583,5.878,4.824,9.3,18.286,1.463,5.755-.398,14.682-1.86,15.238-2.373,.903-6.51-12.191-13.95-18.286-2.841-2.328-7.136-4.975-6.51-4.064,2.79,4.064,4.65,7.111,6.51,14.223,2.466,9.427-2.647,21.465-5.58,22.35-4.53,1.367-9.08-24.928-23.25-28.445-11.104-2.756-20.46,1.016-30.69,16.254-7.44-10.159-19.159-14.092-31.62-11.175-13.02,3.048-18.6,12.191-23.25,32.509-9.677,4.482-29.76,3.048-35.339,1.016,.93-13.207,1.86-25.397,8.37-29.461-3.72-2.032-8.018,2.536-13.95,11.175-5.58,8.127-8.606,22.236-10.23,22.35-1.673,.117-4.81-14.019-1.86-25.397,5.49-21.176,12.884-22.017,12.09-24.382-.636-1.892-7.44,1.016-14.88,10.159-4.314,5.302-8.37,11.175-11.16,16.254-.915,1.666-.93-30.957,17.67-59.402,12.049-18.428,31.523-25.04,53.939-26.949,11.16-.95,29.76,.895,39.989,12.069Z"/></g><path class="cls-4" d="M292.865,277.937c-22.97-3.019-47.751-13.129-70.721-16.147-20.147-2.648-42.162,10.088-62.309,7.44,7.44-13.02,24.18-27.9,34.409-33.479,7.487-4.084,18.6-7.44,28.857-10.293,23.254,17.493,46.509,34.987,69.763,52.48Z"/><g><polygon class="cls-4" points="260.145 329.966 282.877 342.146 290.657 271.743 260.145 329.966"/><polygon class="cls-4" points="334.366 329.036 311.634 341.216 303.854 270.813 334.366 329.036"/><circle class="cls-1" cx="297.938" cy="283.644" r="19.065"/><circle class="cls-7" cx="302.123" cy="280.389" r="11.16"/></g></svg>