<svg xmlns="http://www.w3.org/2000/svg" xmlns:xlink="http://www.w3.org/1999/xlink" viewBox="0 0 512 512"><defs><style>.cls-1{fill:#7a4d2f;stroke:#63402e;stroke-miterlimit:10;stroke-width:8px;}.cls-2{fill:#a97850;}.cls-3{fill:#63402e;}.cls-4{fill:url(#linear-gradient);}</style><linearGradient id="linear-gradient" x1="252.32" y1="149.92" x2="252.32" y2="396.88" gradientUnits="userSpaceOnUse"><stop offset="0.14" stop-color="#666" stop-opacity="0"/><stop offset="1"/></linearGradient></defs><title>env</title><g id="grave"><path class="cls-1" d="M373.69,264.57a16.59,16.59,0,0,0,3.56-2.94c9.94-10.89,5.29-33.77-10.25-51.95,6.19-5,9.91-11.4,9.91-18.39,0-15.93-19.32-28.84-43.16-28.84-16.41,0-30.68,6.11-38,15.12C285,166,271,162.45,264.29,169.75a14.64,14.64,0,0,0-3.45,9.84c-1.62-.16-3.27-.25-5-.25a47.53,47.53,0,0,0-13.59,1.94c-1.4-9.52-13.23-17-27.62-17-10.3,0-19.28,3.81-24.07,9.47,0-5.47-1.45-10.31-4.63-13.79-8.71-9.54-26.76-5.24-40.32,9.6-12.49,13.68-16.79,31.52-10.58,41.71-7.84,9.21-13,24.61-13,42.06,0,20.1,6.82,37.48,16.74,45.81-1.44,6.81-.27,15.15,3.21,23.64-9.29,1.79-16.13,7.76-16.13,14.87,0,8.52,9.81,15.42,21.91,15.42a28,28,0,0,0,13.81-3.45c13.19,11.34,28.07,15.5,37.86,10.68a20.22,20.22,0,0,0-.19,2.71c0,15.92,19.32,28.84,43.16,28.84,20.2,0,37.15-9.28,41.86-21.8A47.32,47.32,0,0,0,297.87,372c12.15,0,22.83-4.39,29-11a27.46,27.46,0,0,0,14.8,4.07c12.1,0,21.91-6.91,21.91-15.43,0-6.63-5.95-12.26-14.28-14.44.92-.91,1.83-1.84,2.72-2.82,8.8-9.63,14.3-20.93,16-31.21,8.06-5,13.14-12.32,13.14-20.47C381.17,274.66,378.39,269.09,373.69,264.57Z"/><path class="cls-2" d="M341.12,225.13c0,2.8-2.84,4.81-4.4,7.24-1.42,2.2-2.16,5.17-4.6,6.91-2.15,1.53-4.39,3.73-7.16,4.79-2.49,1-5.71.19-8.59.69-2.66.46-5.4,2.39-8.29,2.39s-5.33-3.67-8-4.13c-2.87-.5-5.39-.61-7.88-1.57-2.76-1.07-6.21-.39-8.35-1.91-2.44-1.75-2.74-5.14-4.15-7.34-1.57-2.43-4.26-4.27-4.26-7.07s-.3-6.56,1.27-9c1.41-2.2,4.8-3.52,7.24-5.26a34,34,0,0,1,7.35-4.39c2.49-1,5.58-.6,8.46-1.1,2.66-.46,5.42.8,8.31.8a45.23,45.23,0,0,1,8,.82c2.88.5,5.77-.24,8.27.72,2.76,1.06,5.48,1.9,7.62,3.43a21.91,21.91,0,0,1,5.58,6.19C339.14,219.78,341.12,222.33,341.12,225.13Z"/><path class="cls-2" d="M208.22,216.08a16.1,16.1,0,0,1-2.3,8.57c-1.57,2.42-4.28,4-6.93,5.42s-5.33,1.22-8.39,1.22a16.41,16.41,0,0,1-8-2c-2.65-1.38-5.17-2.61-6.73-5a13.92,13.92,0,0,1-.08-16.42,16.92,16.92,0,0,1,6.28-6c2.5-1.3,5.45-.89,8.52-.89s5.86-.11,8.36,1.19a16.41,16.41,0,0,1,6.22,5.84C206.74,210.4,208.22,213,208.22,216.08Z"/><path class="cls-2" d="M234.07,181.09c0,3.19-2.27,5.7-4.19,8.21-1.82,2.36-3.67,4.95-6.67,6.27-2.71,1.19-5.89,2.43-9.17,2.43s-6.3-1.63-9-2.82c-3-1.32-6.26-2.58-8.07-4.94s-1.11-6-1.11-9.15a12.12,12.12,0,0,1,2.5-8.09c1.81-2.36,3.43-5.25,6.43-6.57,2.71-1.19,6-.55,9.26-.55s6.5-.56,9.21.63c3,1.32,6.37,2.81,8.19,5.18S234.07,177.9,234.07,181.09Z"/><path class="cls-2" d="M283.33,198.9c-2.91,1.38-6.18-.44-9.23-3.05-2.28-2-4.87-4.33-6.27-7.87s-2.39-7.36-2.11-10.55a10.51,10.51,0,0,1,5.66-8.68,9,9,0,0,1,9.78,1.53c2.28,2,2.95,5.72,4.35,9.25a21.8,21.8,0,0,1,1.86,10C287,193.69,286.22,197.53,283.33,198.9Z"/><path class="cls-2" d="M270.6,204.66c-1,2.58-3.6,3.77-6.06,5-2.23,1.1-4.64,2.38-7.52,2.23a22.39,22.39,0,0,1-8-1.51c-2.66-1.19-4.58-3.54-6.46-5.41-2.09-2.08-4.43-4.12-5.29-6.57-1-2.76.62-5.44,1.58-8a8.75,8.75,0,0,1,4.65-5.39c2.22-1.1,4.56-2.7,7.44-2.55,2.5.13,4.79,1.85,7.39,3s5.5,1.87,7.38,3.74c2.09,2.08,4.44,4.32,5.31,6.78A13.32,13.32,0,0,1,270.6,204.66Z"/><path class="cls-2" d="M142.3,323.76c3.31,0,6,1.93,8.2,3.92s4.18,4.65,4.18,7.88a11.68,11.68,0,0,1-3.55,8.57c-2.2,2-5.52,2.73-8.83,2.73s-6.65-.72-8.85-2.7-2.59-5.38-2.59-8.6a9.77,9.77,0,0,1,3.33-7.79C136.39,325.79,139,323.76,142.3,323.76Z"/><path class="cls-2" d="M151,166.42c2.47-2,5.92-2.26,8.47-3.59,2.88-1.51,5.25-3.7,8-4.33,3.26-.75,6.59-1.55,9.27-1,3.17.65,5.37,3.31,7.07,5.84s3.54,5.65,3.17,9.14c-.3,2.88-3.76,5.14-5.3,8.26a38.37,38.37,0,0,1-4.72,7.93c-2,2.36-3,5.79-5.57,7.87s-5.92,2.21-8.47,3.54c-2.88,1.51-5.1,4-7.84,4.67-3.26.75-6.74,2-9.42,1.45-3.17-.64-5.8-3.51-7.5-6.05a14.59,14.59,0,0,1-2.32-9.47c.3-2.88,2.15-5.82,3.7-8.94,1.33-2.68,4-4.61,6.12-7.19C147.57,172.18,148.38,168.5,151,166.42Z"/><path class="cls-2" d="M338.68,165.4c3.06.36,5.55,3.29,8.34,4,3,.78,6.37.06,9,1.19,2.92,1.27,6.21,2,8.47,3.58,2.68,1.91,3.71,5.38,5.23,7.61,1.83,2.69,4.53,5.48,4.25,8.35s-4.82,3.62-7.14,5.84c-1.93,1.83-3.5,3.51-6.52,4.76-2.53,1-4.6,4.22-7.71,4.78-2.76.5-5.89-1.67-9-1.61-2.86.06-5.86,2.23-8.89,1.87s-6.51.68-9.31,0c-3-.78-5.52-3.42-8.14-4.55-2.92-1.27-5.94-2.4-8.2-4-2.68-1.91-4-5-5.54-7.25-1.84-2.7-1-5.23-.74-8.1s1.23-4.15,3.55-6.37c1.92-1.83,3.19-4.52,6.2-5.77,2.54-1.05,5.2-2.45,8.32-3a57.46,57.46,0,0,1,8.85-.44C332.56,166.19,335.65,165.05,338.68,165.4Z"/><path class="cls-2" d="M269,355c0,2.93-2.8,5.13-4.23,7.7-1.34,2.41-1.95,5.5-4.31,7.43-2.13,1.73-4.35,4.12-7.13,5.33-2.55,1.12-5.9.49-8.85,1.07-2.75.54-5.58,2.51-8.57,2.51s-5.47-3.71-8.22-4.24c-3-.58-5.51-.8-8.06-1.92-2.78-1.21-6.33-.77-8.46-2.51-2.37-1.93-2.5-5.41-3.84-7.82-1.43-2.57-4.1-4.62-4.1-7.55s-.45-6.71,1-9.28c1.35-2.41,4.7-4,7.07-6a32.71,32.71,0,0,1,7.35-4.94c2.54-1.12,5.75-.9,8.7-1.48,2.74-.54,5.59.69,8.58.69a41,41,0,0,1,8.27.93c3,.58,5.94,0,8.49,1.07,2.78,1.22,5.53,2.25,7.67,4a22.93,22.93,0,0,1,5.33,6.78C267.09,349.39,269,352.08,269,355Z"/><path class="cls-2" d="M378.5,276.46c0,2.57-2.15,4.48-4.14,6.44-1.69,1.67-3.45,3.69-6.13,4.6a24.66,24.66,0,0,1-7.74,1.72c-2.76,0-5.3-1.3-7.62-2.09-2.68-.9-5.55-1.56-7.24-3.24-2-2-1.49-4.86-1.49-7.43a7.88,7.88,0,0,1,2.6-6.32c1.69-1.67,3.27-4,5.95-4.89,2.32-.78,5,0,7.8,0s5.45-.68,7.77.11c2.68.9,5.65,1.75,7.35,3.43A11.27,11.27,0,0,1,378.5,276.46Z"/><path class="cls-2" d="M214.47,321.12c-1.12,3-4.91,3.77-7.77,5.48-2.48,1.47-4.77,4-8.2,4.5-2.9.4-6.29,1.44-9.65,1.1-3-.3-5.86-2.66-9.06-3.56-2.92-.82-6.62-.17-9.62-1.51s-4.08-6.3-6.76-8c-2.88-1.85-5.6-3.15-7.92-5.26-2.58-2.34-6.57-3.09-8.34-5.6-2.07-2.91-1.28-6.77-2.08-9.66-.95-3.41-3.16-6.45-2-9.42s2.64-7.05,5.5-8.75c2.48-1.47,6.59-1.08,10-1.56a40.69,40.69,0,0,1,9.64-.59c3,.3,5.93,2.19,9.13,3.09,2.92.82,5.19,3.42,8.18,4.76a61,61,0,0,1,8.31,4.67c2.88,1.84,6.34,2.41,8.66,4.52,2.57,2.34,5.21,4.39,7,6.89a28.19,28.19,0,0,1,4,8.94C214.37,314.55,215.58,318.15,214.47,321.12Z"/><path class="cls-2" d="M359.83,345.8c0,2.21-2.49,3.62-5.13,5.21-1.87,1.13-3.86,2.85-6.6,3.44a35.66,35.66,0,0,1-7.51,1.29c-2.66,0-5.14-1.2-7.43-1.69-2.74-.59-5.59-.63-7.46-1.76-2.63-1.59-2.58-4.28-2.58-6.49s.82-3.46,3.45-5.05c1.87-1.13,3.72-3.19,6.46-3.78,2.29-.49,4.9.51,7.56.51s5.24-.92,7.53-.43c2.74.59,5.69.79,7.56,1.92A8.71,8.71,0,0,1,359.83,345.8Z"/><path class="cls-3" d="M242.45,396.88c-24.92,0-44.81-12.89-47.43-30-10.08,1.7-22.57-2.43-34-11.46a33,33,0,0,1-13.24,2.67c-14.84,0-26.47-9-26.47-20.42,0-8,5.67-14.95,14.57-18.3a45.23,45.23,0,0,1-2-18.23c-10.14-10.1-16.35-28.05-16.35-47.79,0-16.51,4.46-32.16,12-42.7-5-12.51,0-30.56,12.86-44.6,7.16-7.85,15.77-13.28,24.23-15.29,9.18-2.19,17.19-.17,22.54,5.69a22,22,0,0,1,4.69,8.31,40.06,40.06,0,0,1,20.78-5.46c14.38,0,26.35,6.52,30.64,16.08a52.1,52.1,0,0,1,11.59-1,18,18,0,0,1,4.16-8.14c7.79-8.53,22.39-6.39,34.59,4.53,8.88-8.29,23-13.3,38.1-13.3,26.76,0,47.72,14.86,47.72,33.84,0,6.82-2.8,13.39-8,18.91,14.93,19.8,18.08,42.78,7,54.94a26,26,0,0,1,5.24,15.55c0,9.06-4.94,17.57-13.63,23.62a67.56,67.56,0,0,1-14.49,28.91c6.59,3.74,10.57,9.7,10.57,16.41,0,11.46-11.63,20.43-26.48,20.43a32.89,32.89,0,0,1-14.12-3.1c-7.37,6.35-18.2,10.07-29.71,10.07a52,52,0,0,1-11.15-1.19C279.58,388.41,262.12,396.88,242.45,396.88Zm-10-66.51a27.67,27.67,0,0,0-21.3,10.25c-.42.51-9.86,12.46-6.67,25.16,4.11,16.39,26,21.21,38,21.11,20.3-.16,34-14.61,37.64-18.7l1.53-4.08,3.89,1.16A43.2,43.2,0,0,0,297.87,367c10.56,0,20.22-3.6,25.84-9.62a9,9,0,0,1-4.35-4.18c-3.15-6.69,4.15-15.47,4.95-15.08.63.3-3.06,6-1,11.92,1.47,4.11,5,6.22,7,7.39a20.36,20.36,0,0,0,11.33,2.6c7.34-.45,17.35-4.9,17.35-10.44,0-4-4.43-7.92-10.78-9.59l-8.48-2.22,6.5-6.36c.85-.83,1.7-1.7,2.54-2.62a75.25,75.25,0,0,0,15.29-26.12A22.7,22.7,0,0,1,351.31,300c-12.14-6.76-13.78-22.7-13.91-24.13,1.32,3.63,6,15.17,16.8,19.76,2.62,1.11,6.83,2.83,11.58,1.19a17,17,0,0,0,10.83-16.13,16.42,16.42,0,0,0-5.93-12.37c-2.59-2-5.15-2.43-8.08-2.86a29.65,29.65,0,0,0-14.6,1.66c7.47-5,12.89-5.82,16.54-5.57,1.49.1,4.36.5,6.91-1.33a11.59,11.59,0,0,0,3.69-5.92c1.84-6.19-2.45-22-11.47-41.21A47.91,47.91,0,0,1,347,216.74a47.42,47.42,0,0,1-16.14-2.24,114.92,114.92,0,0,0,22.2-3.79c6.24-1.72,8.85-3,11.24-5.06.33-.27,8.1-7,8.06-14.36-.07-11.94-20.82-23.85-38.6-23.85-14.6,0-27.84,5.15-34.57,13.45L296,184.81l-3.42-3.67c-9.74-10.46-20.83-12.51-25.07-7.86a9.48,9.48,0,0,0-2.11,6.41l-.1,5.37-4.88-.5a43.74,43.74,0,0,0-16.92,1.54l-4.9,1.47-.81-5.49c-.9-6.14-10-12.77-23.12-12.77-8.67,0-16.61,3-20.73,7.87l-8,9.44.09-12.87c0-3-.53-7.19-3.29-10.21-6.78-7.42-24.29-1.26-33.88,9.59-9,10.25-13.59,27.55-8.11,33.56,2.13,2.33,5.24,2.39,10.47,2.41a47,47,0,0,0,22.22-5.63c-1.46,2.09-8.8,12.14-21.3,13.48a27.09,27.09,0,0,1-13.75-2.24,69.47,69.47,0,0,0-.1,77.2c8.84-14.11,11.31-17,11.78-16.64.74.48-3.69,8.5-6.2,21.86a40.28,40.28,0,0,0-.76,12.71,35.92,35.92,0,0,0,3.07,10.93l2.4,5.86-5.77,1.11c-7,1.35-12.36,5.63-12.36,9.95,0,4.93,7.12,10.43,17.35,10.43a23.92,23.92,0,0,0,11.7-2.89l2.61-1.49,2.32,2c11.67,10,25,14.08,33.17,10a32.92,32.92,0,0,1,6.88-15.56C214.84,327.76,230.81,330.1,232.4,330.37Z"/><path class="cls-2" d="M232.32,237.81A11.18,11.18,0,0,1,227,243.9c-2.23,1.1-5.13,1-8,.9-2.49-.13-4.77-1.46-7.37-2.63a21.33,21.33,0,0,1-6.53-4.55c-2.1-2.08-4.15-3.84-5-6.3a11.86,11.86,0,0,1-.38-8.13,10.49,10.49,0,0,1,5.45-5.61,15.64,15.64,0,0,1,7.75-1.71c2.49.13,4.72,1.8,7.32,3s5.25,2,7.13,3.91a18.11,18.11,0,0,1,4.3,6.92C232.6,232.43,233.29,235.24,232.32,237.81Z"/><path class="cls-2" d="M315.4,338.08c0,2.83-2.62,4.87-4.54,7.22-1.65,2-3,4.73-5.77,6.17-2.38,1.25-5,3-8,3.63-2.67.59-5.75-.37-8.74-.37s-6.08,1-8.75.44c-3-.66-4.63-4.24-7-5.49-2.75-1.44-4.85-2.51-6.51-4.55-1.91-2.35-4.53-4.22-4.53-7.05s2.61-4.72,4.52-7.06c1.66-2,2.77-5,5.52-6.46,2.37-1.25,4.93-3.46,7.89-4.11,2.67-.6,5.89.28,8.87.28a41.56,41.56,0,0,1,8.69.57c3,.66,5.42,2.56,7.8,3.81,2.74,1.44,4,4,5.68,6C312.46,333.46,315.4,335.24,315.4,338.08Z"/><path class="cls-2" d="M285.71,264.38c0,2.57-2,4.22-4,6.18-1.69,1.68-3.33,3.59-6,4.49a23.86,23.86,0,0,1-7.62,1c-2.76,0-5.67.86-8,.08-2.68-.91-4.65-3.21-6.34-4.88-2-2-2-4.33-2-6.9s-.35-5.33,1.64-7.29c1.69-1.67,4.6-1.91,7.28-2.82,2.32-.78,4.67-2.71,7.43-2.71s5.1,1.94,7.42,2.73c2.68.9,5.84.87,7.54,2.55C285,258.79,285.71,261.8,285.71,264.38Z"/><path class="cls-2" d="M251.15,264.3c0,2.83-2.61,4.71-4.52,7.06-1.66,2-2.76,5-5.51,6.46-2.37,1.24-4.94,3.46-7.9,4.11-2.67.59-5.89-.29-8.87-.29a41.5,41.5,0,0,1-8.68-.57c-3-.65-5.43-2.55-7.8-3.8-2.75-1.44-4-4-5.68-6a9.72,9.72,0,0,1-2.56-7c0-2.84-.21-5.31,1.7-7.66a20.74,20.74,0,0,1,6.39-5.59,33.15,33.15,0,0,1,8.15-2.61,39,39,0,0,1,8.48-1.3c3,0,5.51,2.05,8.18,2.64,3,.65,5.88.39,8.25,1.64a20.24,20.24,0,0,1,6.4,5.37C249.09,259.14,251.15,261.46,251.15,264.3Z"/><path class="cls-2" d="M324.07,289.7c0,2.15-3,3.37-6.26,4.86-2.12,1-4.41,2.7-7.42,3.2-2.5.41-5.27,1.23-8.14,1.23s-5.56-1.28-8.06-1.69c-3-.5-6.07-.23-8.2-1.2-3.3-1.49-3.54-4.25-3.54-6.4s1-3.17,4.33-4.66c2.13-1,4.29-3.11,7.3-3.6,2.5-.42,5.3.81,8.17.81s5.66-1.13,8.16-.72c3,.5,6.16.39,8.28,1.36C322,284.38,324.07,287.55,324.07,289.7Z"/><path class="cls-2" d="M263.74,290.8c0,3.31-2.92,5.76-6.33,7.73-2.71,1.56-5.9,3.19-9.71,3.19s-7.6-.58-10.31-2.15a10.12,10.12,0,0,1,0-17.57c2.71-1.56,6.52-.92,10.33-.92s6.92.57,9.63,2.14C260.74,285.19,263.74,287.49,263.74,290.8Z"/><path class="cls-2" d="M197.8,247.36c0,2.79-2.29,4.86-4.38,7-1.81,1.84-3.69,4-6.55,5a26,26,0,0,1-8.34,1.88c-3,0-5.7-1.41-8.2-2.27-2.86-1-5.94-1.75-7.75-3.59-2.09-2.13-1.53-5.25-1.53-8a8.71,8.71,0,0,1,2.73-6.85c1.81-1.84,3.49-4.34,6.36-5.33,2.49-.87,5.42-.09,8.39-.09s5.88-.7,8.37.16c2.87,1,6.06,2,7.86,3.8A12.28,12.28,0,0,1,197.8,247.36Z"/><path class="cls-2" d="M252.68,219.32c0,2.85-2.23,5-4.78,6.76A13.9,13.9,0,0,1,240,229a15.24,15.24,0,0,1-8.41-2.13,9.5,9.5,0,0,1,0-15.11c2.17-1.49,5.31-1.16,8.43-1.16a13.25,13.25,0,0,1,7.8,2.07C250.37,214.41,252.68,216.47,252.68,219.32Z"/><path class="cls-3" d="M273.74,226.27c1-3.39,4.06-12.74,12.67-19.5,8.38-6.58,17-6.8,21.67-6.84,12.22-.12,32.81,5.16,34.62,18.3,1.26,9.16-7.24,17.62-10,20.19,4.35-9.7,2.84-15.69,2-18-4.85-13.85-27.95-18.29-43.89-10.66C281.64,214.18,276.3,221.89,273.74,226.27Z"/><path class="cls-4" d="M373.49,210.2c5.18-5.52,8-12.09,8-18.91,0-19-21-33.84-47.72-33.84-15.1,0-29.22,5-38.1,13.3-12.2-10.92-26.8-13.06-34.59-4.53a18,18,0,0,0-4.16,8.14,52.1,52.1,0,0,0-11.59,1c-4.29-9.56-16.26-16.08-30.64-16.08a40,40,0,0,0-20.78,5.47,21.93,21.93,0,0,0-4.69-8.32c-5.35-5.86-13.36-7.88-22.54-5.69-8.46,2-17.07,7.44-24.23,15.29-12.82,14-17.85,32.09-12.86,44.6-7.59,10.54-12,26.19-12,42.7,0,19.74,6.21,37.69,16.35,47.79a45.23,45.23,0,0,0,2,18.23c-8.9,3.35-14.57,10.26-14.57,18.3,0,11.45,11.63,20.42,26.47,20.42a33,33,0,0,0,13.24-2.67c11.4,9,23.89,13.16,34,11.46,2.62,17.09,22.51,30,47.43,30,19.67,0,37.13-8.47,44.27-21A52,52,0,0,0,297.87,377c11.51,0,22.34-3.72,29.71-10.07a32.89,32.89,0,0,0,14.12,3.1c14.85,0,26.48-9,26.48-20.43,0-6.71-4-12.67-10.57-16.41a67.56,67.56,0,0,0,14.49-28.91c8.69-6.05,13.63-14.56,13.63-23.62a26,26,0,0,0-5.24-15.55C391.57,253,388.42,230,373.49,210.2Z"/></g></svg>