<svg xmlns="http://www.w3.org/2000/svg" xmlns:xlink="http://www.w3.org/1999/xlink" viewBox="0 0 512 512"><defs><style>.cls-1{fill:#b2b2b2;}.cls-1,.cls-2{stroke:#000;}.cls-1,.cls-2,.cls-4{stroke-miterlimit:10;stroke-width:8px;}.cls-2{fill:gray;}.cls-3{fill:url(#linear-gradient);}.cls-4{fill:#7a4d2f;stroke:#63402e;}.cls-5{fill:#a97850;}.cls-6{fill:#63402e;}.cls-7{fill:url(#linear-gradient-2);}</style><linearGradient id="linear-gradient" x1="243.19" y1="24.28" x2="243.19" y2="308.15" gradientUnits="userSpaceOnUse"><stop offset="0.51" stop-opacity="0"/><stop offset="1"/></linearGradient><linearGradient id="linear-gradient-2" x1="240.4" y1="241.7" x2="240.4" y2="488.66" gradientUnits="userSpaceOnUse"><stop offset="0.14" stop-color="#666" stop-opacity="0"/><stop offset="1"/></linearGradient></defs><title>env</title><g id="grave"><path class="cls-1" d="M326.49,304.15H158.06L135.94,131.87c0-57.21,48-103.59,107.24-103.59h0c59.23,0,107.24,46.38,107.24,103.59Z"/><path class="cls-2" d="M323.65,304.15H161L139.59,160.82A96.61,96.61,0,0,1,236.2,64.21h14a96.61,96.61,0,0,1,96.61,96.61Z"/><path class="cls-3" d="M354.43,131.87c0-59.32-49.9-107.59-111.25-107.59S131.94,72.55,131.94,131.87l3.66,28.56c0,.13,0,.26,0,.39l.4,2.67,18.55,144.66H330l18.11-130.32,2.65-16.37,0-.32v-.32c0-.73,0-1.45,0-2.17l3.65-26.22Z"/><path class="cls-4" d="M361.78,356.35a16.78,16.78,0,0,0,3.56-2.94c9.94-10.89,5.29-33.76-10.26-52,6.19-5,9.92-11.4,9.92-18.39,0-15.93-19.33-28.84-43.16-28.84-16.41,0-30.68,6.12-38,15.13-10.8-11.6-24.83-15.12-31.49-7.83a14.71,14.71,0,0,0-3.44,9.85,48.09,48.09,0,0,0-18.55,1.69c-1.4-9.53-13.23-17-27.62-17-10.3,0-19.28,3.81-24.07,9.47,0-5.46-1.46-10.3-4.63-13.78-8.72-9.54-26.77-5.25-40.32,9.6-12.49,13.67-16.8,31.51-10.59,41.7-7.84,9.21-13,24.61-13,42.07,0,20.1,6.82,37.48,16.73,45.81-1.44,6.8-.26,15.14,3.21,23.63-9.29,1.79-16.13,7.76-16.13,14.87,0,8.52,9.81,15.43,21.92,15.43a28,28,0,0,0,13.81-3.46c13.18,11.35,28.07,15.51,37.86,10.68a18.8,18.8,0,0,0-.2,2.71c0,15.93,19.33,28.84,43.16,28.84,20.2,0,37.16-9.27,41.86-21.8A47.33,47.33,0,0,0,286,463.82c12.14,0,22.82-4.4,29-11.05a27.49,27.49,0,0,0,14.8,4.07c12.11,0,21.92-6.9,21.92-15.42,0-6.63-5.95-12.27-14.29-14.45.92-.9,1.83-1.84,2.73-2.81,8.79-9.63,14.29-20.94,16-31.21,8.05-5,13.14-12.32,13.14-20.48C369.26,366.44,366.48,360.87,361.78,356.35Z"/><path class="cls-5" d="M329.2,316.92c0,2.8-2.83,4.8-4.4,7.24-1.41,2.2-2.16,5.16-4.6,6.9-2.14,1.53-4.39,3.73-7.15,4.79-2.5,1-5.72.2-8.59.69-2.66.47-5.4,2.39-8.29,2.39s-5.33-3.66-8-4.13c-2.88-.49-5.39-.61-7.89-1.57-2.76-1.06-6.2-.38-8.34-1.91-2.44-1.74-2.75-5.13-4.16-7.33-1.56-2.44-4.25-4.27-4.25-7.07s-.31-6.57,1.26-9c1.41-2.2,4.81-3.53,7.25-5.27a33.88,33.88,0,0,1,7.34-4.38c2.5-1,5.59-.61,8.46-1.1,2.67-.47,5.43.79,8.32.79a45.33,45.33,0,0,1,8,.82c2.87.5,5.77-.23,8.26.73,2.76,1.06,5.48,1.89,7.63,3.42a21.71,21.71,0,0,1,5.57,6.19C327.23,311.56,329.2,314.12,329.2,316.92Z"/><path class="cls-5" d="M196.31,307.86a16.08,16.08,0,0,1-2.31,8.57c-1.56,2.42-4.27,4.05-6.93,5.43-2.5,1.3-5.32,1.21-8.39,1.21a16.37,16.37,0,0,1-8-2c-2.66-1.38-5.17-2.6-6.73-5a13.86,13.86,0,0,1-.08-16.41,16.91,16.91,0,0,1,6.27-6c2.5-1.3,5.45-.89,8.52-.89s5.86-.11,8.36,1.19a16.34,16.34,0,0,1,6.22,5.84C194.83,302.19,196.31,304.83,196.31,307.86Z"/><path class="cls-5" d="M222.15,272.87c0,3.19-2.27,5.71-4.19,8.21s-3.67,5-6.66,6.27c-2.72,1.19-5.9,2.43-9.18,2.43s-6.29-1.63-9-2.82c-3-1.31-6.25-2.57-8.06-4.93s-1.11-6-1.11-9.16a12.1,12.1,0,0,1,2.5-8.08c1.81-2.36,3.43-5.26,6.42-6.57,2.72-1.19,6-.56,9.26-.56s6.51-.55,9.22.64c3,1.31,6.37,2.81,8.18,5.17S222.15,269.69,222.15,272.87Z"/><path class="cls-5" d="M271.42,290.68c-2.92,1.38-6.19-.43-9.23-3.05-2.28-1.95-4.88-4.33-6.28-7.86s-2.38-7.36-2.1-10.56a10.5,10.5,0,0,1,5.66-8.68,9,9,0,0,1,9.77,1.54c2.28,1.95,2.95,5.71,4.35,9.25a21.76,21.76,0,0,1,1.86,10C275.09,285.47,274.31,289.31,271.42,290.68Z"/><path class="cls-5" d="M258.69,296.45c-1,2.57-3.61,3.76-6.07,5-2.22,1.1-4.63,2.38-7.51,2.23a22.19,22.19,0,0,1-8-1.51c-2.65-1.19-4.57-3.54-6.45-5.41-2.1-2.08-4.44-4.11-5.3-6.57-1-2.76.62-5.44,1.59-8a8.74,8.74,0,0,1,4.64-5.39c2.23-1.11,4.57-2.7,7.45-2.55,2.49.13,4.78,1.84,7.39,3s5.49,1.88,7.37,3.74c2.1,2.09,4.45,4.33,5.31,6.78A13.42,13.42,0,0,1,258.69,296.45Z"/><path class="cls-5" d="M130.38,415.55c3.31,0,6,1.93,8.2,3.91s4.19,4.65,4.19,7.88a11.65,11.65,0,0,1-3.56,8.58c-2.2,2-5.52,2.72-8.83,2.72s-6.64-.71-8.85-2.7-2.58-5.37-2.58-8.6a9.77,9.77,0,0,1,3.32-7.78C124.48,417.57,127.08,415.55,130.38,415.55Z"/><path class="cls-5" d="M139,258.21c2.48-2,5.93-2.27,8.48-3.6,2.88-1.51,5.24-3.69,8-4.32,3.27-.76,6.6-1.55,9.28-1,3.17.64,5.36,3.3,7.07,5.84s3.53,5.65,3.17,9.13c-.31,2.89-3.76,5.15-5.31,8.26a38.11,38.11,0,0,1-4.72,7.93c-2,2.36-3,5.8-5.57,7.87s-5.91,2.21-8.46,3.55c-2.88,1.5-5.11,4-7.84,4.66-3.27.75-6.75,2-9.43,1.46-3.17-.64-5.79-3.52-7.49-6.05a14.62,14.62,0,0,1-2.33-9.47c.31-2.89,2.15-5.83,3.7-8.94,1.34-2.69,4-4.61,6.13-7.2C135.66,264,136.46,260.28,139,258.21Z"/><path class="cls-5" d="M326.77,257.19c3.06.36,5.54,3.28,8.34,4,3,.78,6.37.06,9,1.2,2.93,1.27,6.21,2,8.47,3.57,2.69,1.91,3.71,5.38,5.23,7.61,1.84,2.7,4.53,5.48,4.25,8.36s-4.82,3.62-7.14,5.83c-1.92,1.84-3.5,3.51-6.52,4.77-2.53,1.05-4.59,4.21-7.7,4.78-2.77.49-5.89-1.67-9-1.61-2.85.05-5.85,2.22-8.89,1.87s-6.5.68-9.3,0c-3-.79-5.53-3.43-8.14-4.56-2.93-1.27-5.95-2.39-8.21-4-2.68-1.91-4-5-5.54-7.25-1.83-2.69-1-5.23-.73-8.1s1.22-4.15,3.54-6.36c1.93-1.84,3.19-4.53,6.21-5.78,2.53-1.05,5.2-2.44,8.31-3a57.59,57.59,0,0,1,8.86-.44C320.65,258,323.73,256.83,326.77,257.19Z"/><path class="cls-5" d="M257.08,446.8c0,2.92-2.8,5.12-4.23,7.69s-1.95,5.5-4.32,7.43c-2.13,1.74-4.35,4.12-7.13,5.34-2.55,1.11-5.9.49-8.85,1.06-2.74.54-5.57,2.51-8.56,2.51s-5.48-3.7-8.22-4.24c-3-.58-5.52-.8-8.06-1.91-2.79-1.22-6.34-.78-8.47-2.52-2.36-1.92-2.5-5.41-3.84-7.82-1.43-2.57-4.09-4.62-4.09-7.54s-.45-6.71,1-9.28c1.34-2.41,4.7-4,7.06-6a33.05,33.05,0,0,1,7.35-4.94c2.55-1.11,5.75-.89,8.7-1.47,2.75-.54,5.6.68,8.59.68a41.07,41.07,0,0,1,8.27.93c3,.58,5.94,0,8.48,1.08,2.78,1.22,5.54,2.25,7.67,4a22.6,22.6,0,0,1,5.33,6.77C255.17,441.17,257.08,443.87,257.08,446.8Z"/><path class="cls-5" d="M366.58,368.24c0,2.57-2.15,4.48-4.13,6.44-1.7,1.67-3.46,3.7-6.13,4.6a24.66,24.66,0,0,1-7.75,1.72c-2.75,0-5.3-1.3-7.62-2.08-2.68-.91-5.54-1.57-7.24-3.24-2-2-1.48-4.87-1.48-7.44a7.87,7.87,0,0,1,2.59-6.31c1.7-1.68,3.28-4,5.95-4.89,2.32-.79,5.05,0,7.8,0s5.45-.67,7.77.11c2.68.9,5.65,1.76,7.35,3.43A11.24,11.24,0,0,1,366.58,368.24Z"/><path class="cls-5" d="M202.55,412.9c-1.11,3-4.91,3.78-7.77,5.48-2.48,1.47-4.76,4-8.19,4.51-2.91.4-6.29,1.43-9.66,1.1-3-.3-5.86-2.67-9.05-3.57-2.93-.82-6.63-.17-9.62-1.51s-4.09-6.3-6.77-8c-2.87-1.84-5.6-3.15-7.92-5.26-2.57-2.34-6.56-3.09-8.34-5.59-2.06-2.92-1.28-6.78-2.08-9.67-.94-3.4-3.15-6.45-2-9.42s2.63-7.05,5.49-8.75c2.48-1.47,6.59-1.08,10-1.55a40.2,40.2,0,0,1,9.65-.6c3,.3,5.93,2.19,9.12,3.09,2.93.82,5.19,3.42,8.18,4.76a61.72,61.72,0,0,1,8.32,4.67c2.87,1.84,6.33,2.42,8.65,4.53,2.58,2.34,5.22,4.38,7,6.89a27.83,27.83,0,0,1,4,8.93C202.46,406.33,203.66,409.93,202.55,412.9Z"/><path class="cls-5" d="M347.92,437.58c0,2.21-2.5,3.63-5.14,5.22-1.86,1.12-3.85,2.84-6.59,3.43a35.65,35.65,0,0,1-7.52,1.29c-2.65,0-5.14-1.2-7.43-1.69-2.74-.59-5.58-.63-7.45-1.75-2.64-1.59-2.58-4.29-2.58-6.5s.81-3.46,3.45-5.05c1.87-1.12,3.72-3.19,6.46-3.78,2.29-.49,4.9.52,7.55.52s5.25-.93,7.54-.44c2.74.59,5.68.79,7.55,1.92A8.71,8.71,0,0,1,347.92,437.58Z"/><path class="cls-6" d="M230.53,488.66c-24.91,0-44.8-12.88-47.42-30-10.08,1.7-22.58-2.44-34-11.47a33,33,0,0,1-13.23,2.67c-14.85,0-26.48-9-26.48-20.42,0-8,5.67-15,14.57-18.29a45.27,45.27,0,0,1-2-18.24c-10.15-10.09-16.35-28.05-16.35-47.78,0-16.52,4.46-32.17,12-42.71-5-12.5,0-30.56,12.85-44.59,7.17-7.85,15.77-13.28,24.23-15.3,9.19-2.18,17.19-.16,22.54,5.7a21.91,21.91,0,0,1,4.7,8.31,40,40,0,0,1,20.78-5.46c14.38,0,26.35,6.51,30.63,16.08a52.24,52.24,0,0,1,11.6-1.05,18,18,0,0,1,4.16-8.14c7.78-8.53,22.39-6.39,34.58,4.53,8.89-8.29,23-13.29,38.1-13.29,26.76,0,47.73,14.86,47.73,33.83,0,6.82-2.81,13.39-8,18.91,14.94,19.8,18.08,42.79,7,54.94a26.1,26.1,0,0,1,5.24,15.55c0,9.06-4.94,17.57-13.64,23.63A67.76,67.76,0,0,1,345.7,425c6.59,3.74,10.56,9.7,10.56,16.41,0,11.45-11.63,20.42-26.48,20.42a33,33,0,0,1-14.11-3.09c-7.38,6.35-18.21,10.06-29.71,10.06a52.19,52.19,0,0,1-11.16-1.19C267.67,480.19,250.21,488.66,230.53,488.66Zm-10.05-66.51a27.65,27.65,0,0,0-21.3,10.26c-.41.51-9.85,12.46-6.67,25.15,4.12,16.39,26,21.21,38,21.12,20.3-.16,34-14.61,37.65-18.71l1.53-4.08,3.89,1.17A43.09,43.09,0,0,0,286,458.82c10.56,0,20.22-3.59,25.83-9.62a9,9,0,0,1-4.35-4.17c-3.15-6.69,4.15-15.47,5-15.09.63.31-3.07,6-1,11.92,1.48,4.12,5.06,6.23,7,7.39a20.19,20.19,0,0,0,11.32,2.6c7.35-.44,17.36-4.9,17.36-10.43,0-4-4.44-7.93-10.79-9.59l-8.48-2.22,6.5-6.36c.85-.83,1.7-1.71,2.54-2.62A75.28,75.28,0,0,0,352.2,394.5a22.63,22.63,0,0,1-12.81-2.72c-12.14-6.76-13.78-22.7-13.91-24.13,1.33,3.63,6,15.17,16.81,19.76,2.61,1.11,6.82,2.83,11.58,1.19,5.79-2,11-8.47,10.83-16.13a16.47,16.47,0,0,0-5.93-12.36c-2.6-2-5.15-2.44-8.08-2.87a29.76,29.76,0,0,0-14.6,1.66c7.47-5,12.88-5.82,16.53-5.57,1.5.11,4.37.51,6.91-1.32a11.65,11.65,0,0,0,3.69-5.93c1.85-6.18-2.45-21.95-11.47-41.21a47.31,47.31,0,0,1-32.82,1.41,114.27,114.27,0,0,0,22.21-3.79c6.24-1.71,8.84-3,11.24-5.05.32-.28,8.1-7,8.06-14.37-.07-11.93-20.82-23.85-38.61-23.85-14.59,0-27.84,5.16-34.56,13.45l-3.18,3.93-3.42-3.68c-9.75-10.46-20.83-12.5-25.07-7.86a9.51,9.51,0,0,0-2.11,6.42l-.1,5.36-4.88-.49a43.6,43.6,0,0,0-16.93,1.53l-4.9,1.47-.8-5.49c-.91-6.14-10-12.76-23.12-12.76-8.68,0-16.62,3-20.73,7.87l-8,9.43.08-12.86c0-3-.53-7.2-3.29-10.22-6.78-7.42-24.28-1.26-33.87,9.6-9.05,10.24-13.6,27.55-8.11,33.55,2.12,2.33,5.23,2.39,10.46,2.42a47.19,47.19,0,0,0,22.22-5.63c-1.45,2.08-8.8,12.13-21.3,13.47a27.07,27.07,0,0,1-13.74-2.23,69.48,69.48,0,0,0-.11,77.19c8.85-14.1,11.31-16.95,11.79-16.64.73.49-3.69,8.51-6.2,21.87a40,40,0,0,0-.77,12.7,36,36,0,0,0,3.08,10.94l2.4,5.85-5.78,1.11c-7,1.36-12.36,5.63-12.36,10,0,4.93,7.13,10.43,17.36,10.43A23.87,23.87,0,0,0,147.59,437l2.62-1.5,2.31,2c11.67,10,25,14.08,33.18,10.06A32.84,32.84,0,0,1,192.57,432C202.92,419.54,218.89,421.89,220.48,422.15Z"/><path class="cls-5" d="M220.41,329.6a11.21,11.21,0,0,1-5.35,6.08c-2.22,1.11-5.12,1.06-8,.91-2.5-.13-4.77-1.47-7.38-2.64a21.31,21.31,0,0,1-6.53-4.54c-2.09-2.08-4.14-3.85-5-6.31a11.86,11.86,0,0,1-.38-8.13,10.52,10.52,0,0,1,5.45-5.61,15.66,15.66,0,0,1,7.75-1.7c2.5.13,4.72,1.8,7.33,3s5.24,2.05,7.12,3.91a18.13,18.13,0,0,1,4.3,6.92C220.68,324.21,221.37,327,220.41,329.6Z"/><path class="cls-5" d="M303.49,429.86c0,2.84-2.63,4.88-4.54,7.22-1.66,2-3,4.73-5.78,6.17-2.37,1.25-5,3-8,3.63-2.67.59-5.76-.37-8.74-.37s-6.08,1-8.75.44c-3-.65-4.64-4.24-7-5.49-2.74-1.44-4.84-2.51-6.5-4.54-1.91-2.35-4.53-4.22-4.53-7.06s2.61-4.71,4.52-7.06c1.66-2,2.76-5,5.51-6.46,2.37-1.24,4.94-3.46,7.9-4.11,2.67-.59,5.89.29,8.87.29a41.5,41.5,0,0,1,8.68.57c3,.65,5.43,2.55,7.8,3.8,2.75,1.44,4,4,5.68,6C300.54,425.24,303.49,427,303.49,429.86Z"/><path class="cls-5" d="M273.79,356.16c0,2.57-2,4.23-4,6.19-1.7,1.67-3.33,3.58-6,4.48a23.54,23.54,0,0,1-7.62,1c-2.75,0-5.67.85-8,.07-2.68-.91-4.64-3.21-6.34-4.88-2-2-2-4.33-2-6.9s-.35-5.33,1.63-7.28c1.7-1.68,4.61-1.92,7.28-2.83,2.32-.78,4.68-2.71,7.43-2.71s5.1,2,7.42,2.73c2.68.9,5.85.88,7.54,2.55C273.09,350.58,273.79,353.59,273.79,356.16Z"/><path class="cls-5" d="M239.24,356.08c0,2.84-2.61,4.72-4.52,7.06-1.66,2-2.77,5-5.52,6.46-2.37,1.25-4.93,3.46-7.89,4.11-2.67.59-5.89-.28-8.88-.28a41.5,41.5,0,0,1-8.68-.57c-3-.66-5.42-2.56-7.8-3.81-2.74-1.44-4-4-5.68-6a9.73,9.73,0,0,1-2.56-7c0-2.83-.2-5.31,1.71-7.66a20.87,20.87,0,0,1,6.39-5.59,32.65,32.65,0,0,1,8.14-2.6,39.13,39.13,0,0,1,8.48-1.31c3,0,5.52,2.05,8.19,2.64,3,.66,5.87.39,8.25,1.64a20.35,20.35,0,0,1,6.39,5.38C237.17,350.92,239.24,353.25,239.24,356.08Z"/><path class="cls-5" d="M312.15,381.48c0,2.15-2.95,3.37-6.25,4.87-2.13,1-4.42,2.69-7.43,3.19-2.49.41-5.27,1.24-8.13,1.24s-5.57-1.29-8.06-1.7c-3-.49-6.08-.23-8.2-1.19-3.3-1.49-3.54-4.26-3.54-6.41s1-3.17,4.33-4.66c2.12-1,4.28-3.1,7.3-3.6,2.49-.41,5.3.82,8.17.82s5.66-1.14,8.15-.73c3,.5,6.16.4,8.29,1.36C310.08,376.16,312.15,379.34,312.15,381.48Z"/><path class="cls-5" d="M251.82,382.59c0,3.31-2.92,5.75-6.33,7.72-2.71,1.57-5.9,3.2-9.71,3.2s-7.6-.59-10.31-2.16a10.12,10.12,0,0,1,0-17.56c2.71-1.57,6.53-.92,10.33-.92s6.92.57,9.63,2.13C248.82,377,251.82,379.28,251.82,382.59Z"/><path class="cls-5" d="M185.88,339.15c0,2.78-2.28,4.86-4.38,7-1.81,1.83-3.68,4-6.55,5a25.7,25.7,0,0,1-8.33,1.89c-3,0-5.71-1.41-8.2-2.28-2.87-1-5.94-1.75-7.75-3.58-2.1-2.13-1.54-5.26-1.54-8a8.7,8.7,0,0,1,2.74-6.86c1.81-1.83,3.48-4.34,6.35-5.33,2.49-.87,5.43-.08,8.4-.08s5.87-.71,8.36.16c2.87,1,6.06,1.95,7.87,3.79A12.35,12.35,0,0,1,185.88,339.15Z"/><path class="cls-5" d="M240.76,311.1c0,2.85-2.23,5-4.78,6.76a13.88,13.88,0,0,1-7.87,2.92,15.26,15.26,0,0,1-8.4-2.13,9.51,9.51,0,0,1,0-15.12c2.16-1.48,5.3-1.15,8.42-1.15a13.18,13.18,0,0,1,7.8,2.07C238.46,306.2,240.76,308.26,240.76,311.1Z"/><path class="cls-6" d="M261.83,318.06c1-3.39,4.05-12.74,12.67-19.51,8.37-6.58,17-6.79,21.67-6.84,12.21-.11,32.8,5.16,34.61,18.3,1.26,9.17-7.24,17.63-10,20.2,4.35-9.71,2.84-15.7,2-18-4.85-13.86-27.95-18.3-43.89-10.66C269.72,306,264.38,313.67,261.83,318.06Z"/><path class="cls-7" d="M361.57,302c5.18-5.52,8-12.09,8-18.91,0-19-21-33.83-47.73-33.83-15.1,0-29.21,5-38.1,13.29-12.19-10.92-26.8-13.06-34.58-4.53a18,18,0,0,0-4.16,8.14,52.24,52.24,0,0,0-11.6,1.05c-4.28-9.57-16.25-16.08-30.63-16.08A40,40,0,0,0,182,256.57a21.91,21.91,0,0,0-4.7-8.31c-5.35-5.86-13.35-7.88-22.54-5.7-8.46,2-17.06,7.45-24.23,15.29-12.82,14-17.84,32.1-12.85,44.6-7.59,10.54-12,26.19-12,42.71,0,19.73,6.2,37.69,16.35,47.79a45.24,45.24,0,0,0,2,18.23c-8.9,3.34-14.57,10.25-14.57,18.29,0,11.45,11.63,20.42,26.48,20.42a33,33,0,0,0,13.23-2.67c11.4,9,23.9,13.17,34,11.47,2.62,17.09,22.51,30,47.42,30,19.68,0,37.14-8.47,44.27-21A52.19,52.19,0,0,0,286,468.81c11.5,0,22.33-3.71,29.71-10.06a33,33,0,0,0,14.11,3.09c14.85,0,26.48-9,26.48-20.42,0-6.71-4-12.67-10.56-16.41a67.76,67.76,0,0,0,14.48-28.91c8.7-6.06,13.64-14.57,13.64-23.63a26.1,26.1,0,0,0-5.24-15.55C379.65,344.77,376.51,321.78,361.57,302Z"/><path d="M229.8,191.52a10.21,10.21,0,0,1-1.9-.16c-8.1-1-11.26-4.86-14.63-10.54-4.48-7.42-8.75-15.17-13.55-21.88-2.15-3-3.47-3.24-5.84-2l-1.52.68,6,17.3c3.33,9.58,4.27,10.24,9.49,11l1.38,4.8q-9.67.1-19.31.29l-1.63-3c4.41-1.28,4.65-2.2,1.08-10.06l-16.89-37c-3.38-7.57-4.89-8-9.54.56-.54-1-1.08-2-1.63-3a87.61,87.61,0,0,1,22.06-30.84c8.39-7.32,14.36-8.81,19.42-6.88s8.88,7.67,10.25,17.09c1.92,13.59-2.39,22.18-7,27.89,2.22,3.7,7.33,12.12,10.76,18.63,4.06,7.73,6.14,11.8,7.91,15.08,2.1,3.91,2.95,5.14,5,6.66C229.75,188,229.77,189.74,229.8,191.52Zm-37.09-40c3.27-1.92,5.64-4.07,6.77-7.51,1.72-5.07,1.76-11,.09-18.11-3.35-15-10.79-16.43-15.86-11.76-2.43,2.18-3.37,3.82-3.64,5s0,2.91.8,5.27l9.81,28.31C191.35,152.36,192,152,192.71,151.55Z"/><path d="M232.5,190.56c-.15-1.95-.29-3.91-.44-5.86,5-1.22,5.59-2.17,5.21-15.66l-1.8-61.17c-.37-13.39-1.58-15-10.29-14.5-.15-2-.3-3.91-.44-5.86a89.64,89.64,0,0,1,36.76.74q-.25,2.91-.53,5.82c-8.68-.65-9.91.71-10.49,14.06q-1.39,30.5-2.78,61c-.6,13.29,0,14.25,5,15.64l-.54,5.82Q242.31,190.54,232.5,190.56Z"/><path d="M302.28,110.45a45.72,45.72,0,0,1,12.49,22.39C316.65,141.57,316,148.5,313,154c-6.26,10.6-16.56,9.74-24.44,6.67a15.69,15.69,0,0,1-2.12-1.32c-1.23-1.29-2.49-2.59-3.79-3.88q-2.52,8.92-5,17.85c-3.1,11-2.74,11.64,2.56,13.12-.51,1.47-1,2.94-1.52,4.4q-10.05-.13-20.14-.2c.28-1.87.55-3.75.83-5.62,5.18-1.14,5.95-1.47,8.36-13.7q5.46-27.79,10.91-55.61c2.38-12.11,1.75-14.29-6.34-18.26.27-1.88.55-3.75.83-5.63A84.62,84.62,0,0,1,302.28,110.45Zm-18.09,39.47a9.94,9.94,0,0,0,3.73,3.37c3.53,1.69,10,2.18,15.68-11.47,4.89-11.64,1.9-21.91-4-27.29-1.88-1.7-3.2-2-3.94-1.74s-1.43,1.44-2,3.4Z"/></g></svg>