<?xml version="1.0" encoding="UTF-8"?><svg id="Layer_2" xmlns="http://www.w3.org/2000/svg" xmlns:xlink="http://www.w3.org/1999/xlink" viewBox="0 0 534.5 672.5"><defs><style>.cls-1{fill:#330;}.cls-2{stroke:#000;}.cls-2,.cls-3,.cls-4{fill:none;stroke-miterlimit:10;stroke-width:10px;}.cls-5{fill:#996;}.cls-3{stroke:#330;}.cls-4{stroke:#660;}.cls-6{fill:#605030;}.cls-7{fill:#887040;}.cls-8{fill:url(#linear-gradient);}.cls-9{fill:#033;isolation:isolate;opacity:.7;}</style><linearGradient id="linear-gradient" x1="266.9" y1="13.25" x2="266.9" y2="566.98" gradientUnits="userSpaceOnUse"><stop offset="0" stop-color="#000" stop-opacity="0"/><stop offset=".86" stop-color="#000" stop-opacity=".61"/><stop offset="1" stop-color="#000"/></linearGradient></defs><g id="Layer_4"><g><ellipse class="cls-9" cx="268.46" cy="503.16" rx="219.3" ry="166.12"/><g><g><path class="cls-7" d="M112.35,490.68c34.02,17.42,37.91,0,76.12,0s38.22-.05,76.43-.05,38.22,.29,76.44,.29,42.68,18.31,76.67,.82c19.18-9.87,25.06-32.53,6.42-43.38-34.47-20.06-40.05-.21-79.93-.21s-39.89-.31-79.77-.31-39.89,1.2-79.77,1.2-42.14-13.62-79.78-.42c-21.92,7.69-12.04,32.23,7.18,42.07Z"/><path class="cls-4" d="M112.35,490.68c34.02,17.42,37.91,0,76.12,0s38.22-.05,76.43-.05,38.22,.29,76.44,.29,42.68,18.31,76.67,.82c19.18-9.87,25.06-32.53,6.42-43.38-34.47-20.06-40.05-.21-79.93-.21s-39.89-.31-79.77-.31-39.89,1.2-79.77,1.2-42.14-13.62-79.78-.42c-21.92,7.69-12.04,32.23,7.18,42.07Z"/></g><g><path class="cls-7" d="M118.23,527.42c33.38,15.43,36.5,.9,73.28,.9s36.78-1.17,73.56-1.17,36.78,1.14,73.56,1.14,39.96,14.7,73.32-.78c16.85-7.82,22.44-27.92,5.95-36.47-33.93-17.59-38.34-.24-76.56-.24q-38.22,0-76.43-.02c-38.22,0-38.22,1.01-76.44,1.01s-40.31-12.98-76.65-1.17c-19.09,6.21-10.48,29,6.4,36.8Z"/><path class="cls-4" d="M118.23,527.42c33.38,15.43,36.5,.9,73.28,.9s36.78-1.17,73.56-1.17,36.78,1.14,73.56,1.14,39.96,14.7,73.32-.78c16.85-7.82,22.44-27.92,5.95-36.47-33.93-17.59-38.34-.24-76.56-.24q-38.22,0-76.43-.02c-38.22,0-38.22,1.01-76.44,1.01s-40.31-12.98-76.65-1.17c-19.09,6.21-10.48,29,6.4,36.8Z"/></g><g><path class="cls-7" d="M105.71,447.81c33.24,22.05,39.34,.24,79.22,.24s39.89,.72,79.77,.72,39.89,.38,79.77,.38,46.23,21.07,79.41-1.07c24.92-16.63,29.96-36.91,8.91-58.23-23.73-24.02-33.29-1.34-67.06-1.34s-33.76,.43-67.53,.43q-33.76,0-67.53,.08c-33.77,0-33.77-.38-67.53-.38s-37.77-15.22-67.88,.06c-28.35,14.38-14.57,42.52,10.44,59.11Z"/><path class="cls-4" d="M105.71,447.81c33.24,22.05,39.34,.24,79.22,.24s39.89,.72,79.77,.72,39.89,.38,79.77,.38,46.23,21.07,79.41-1.07c24.92-16.63,29.96-36.91,8.91-58.23-23.73-24.02-33.29-1.34-67.06-1.34s-33.76,.43-67.53,.43q-33.76,0-67.53,.08c-33.77,0-33.77-.38-67.53-.38s-37.77-15.22-67.88,.06c-28.35,14.38-14.57,42.52,10.44,59.11Z"/></g><g><path class="cls-7" d="M122.74,554.97c33.51,12.28,35.38,.78,71.07,.78s35.69,.82,71.38,.82,35.69-.75,71.38-.75,37.56,11.41,71.06-.91c13.19-4.85,17.55-21.54,4.5-26.77-34.14-13.68-36.72-.53-73.5-.53-36.78,0-36.78,.55-73.56,.55s-36.78-.84-73.56-.84-37.85-8.15-73.36,1.43c-14.65,3.95-8.63,21.38,4.58,26.23Z"/><path class="cls-4" d="M122.74,554.97c33.51,12.28,35.38,.78,71.07,.78s35.69,.82,71.38,.82,35.69-.75,71.38-.75,37.56,11.41,71.06-.91c13.19-4.85,17.55-21.54,4.5-26.77-34.14-13.68-36.72-.53-73.5-.53-36.78,0-36.78,.55-73.56,.55s-36.78-.84-73.56-.84-37.85-8.15-73.36,1.43c-14.65,3.95-8.63,21.38,4.58,26.23Z"/></g><g><path class="cls-7" d="M87.98,339.13c-20,16.3-13.98,36.18,7.42,50.59,28.01,18.84,33.98-.84,67.74-.84s33.76,1.41,67.53,1.41,33.76-.57,67.53-.57,33.77,.02,67.53,.02,40.04,19.27,68,.35c21.34-14.44,27.88-36.14,7.85-52.35-27.49-22.24-35.93,.07-71.29,.07-35.36,0-35.36,.89-70.72,.89-35.36,0-35.36,.41-70.72,.41s-35.93,5.69-70.67-.94c-36.28-6.92-42.8-21.37-70.22,.97Z"/><path class="cls-4" d="M87.98,339.13c-20,16.3-13.98,36.18,7.42,50.59,28.01,18.84,33.98-.84,67.74-.84s33.76,1.41,67.53,1.41,33.76-.57,67.53-.57,33.77,.02,67.53,.02,40.04,19.27,68,.35c21.34-14.44,27.88-36.14,7.85-52.35-27.49-22.24-35.93,.07-71.29,.07-35.36,0-35.36,.89-70.72,.89-35.36,0-35.36,.41-70.72,.41s-35.93,5.69-70.67-.94c-36.28-6.92-42.8-21.37-70.22,.97Z"/></g><g><path class="cls-7" d="M441.69,332.17c-15.06-17.43-11.33-25.12-33.41-31.67-34.51-10.23-36-.34-72-.34-35.99,0-35.99-.52-71.99-.52-36,0-36,.31-71.99,.31s-37.61-10.1-72.13,.11c-22.15,6.56-18.08,14.88-33.22,32.33-2.18,2.51-2.91,6.51,.4,6.81,35.21,3.22,35.43,.22,70.78,.22s35.36-1.82,70.72-1.82,35.36,.62,70.72,.62,35.36,.06,70.72,.06,35.44,2.61,70.76,.8c3.4-.17,2.81-4.4,.64-6.92Z"/><path class="cls-4" d="M441.69,332.17c-15.06-17.43-11.33-25.12-33.41-31.67-34.51-10.23-36-.34-72-.34-35.99,0-35.99-.52-71.99-.52-36,0-36,.31-71.99,.31s-37.61-10.1-72.13,.11c-22.15,6.56-18.08,14.88-33.22,32.33-2.18,2.51-2.91,6.51,.4,6.81,35.21,3.22,35.43,.22,70.78,.22s35.36-1.82,70.72-1.82,35.36,.62,70.72,.62,35.36,.06,70.72,.06,35.44,2.61,70.76,.8c3.4-.17,2.81-4.4,.64-6.92Z"/></g><g><path class="cls-7" d="M268.28,167.14c-34.66,0-26.2,22.77-51.89,46.03-25.7,23.26-62.01,14.23-50.15,46.81,11.69,32.1,33.42,.91,67.59,.91s34.17-.23,68.34-.23,57.07,31.85,68.94-.19c12-32.41-31.13-18.99-51.44-46.94-21.56-29.67-16.82-46.39-51.37-46.39Z"/><path class="cls-4" d="M268.28,167.14c-34.66,0-26.2,22.77-51.89,46.03-25.7,23.26-62.01,14.23-50.15,46.81,11.69,32.1,33.42,.91,67.59,.91s34.17-.23,68.34-.23,57.07,31.85,68.94-.19c12-32.41-31.13-18.99-51.44-46.94-21.56-29.67-16.82-46.39-51.37-46.39Z"/></g><g><path class="cls-7" d="M370.55,260.1c-32.17-11.51-34.22-.04-68.39-.04-34.17,0-34.17,.7-68.34,.7s-36.16-12.01-68.34-.52c-28.26,10.09-61.48,15.55-43.97,39.92,21.42,29.82,36.2,1.01,72.91,1.01s36.72-.3,73.44-.3,36.72,.02,73.44,.02,41.21,17.25,73.68,.09c27.01-14.28-16.26-30.8-44.43-40.88Z"/><path class="cls-4" d="M370.55,260.1c-32.17-11.51-34.22-.04-68.39-.04-34.17,0-34.17,.7-68.34,.7s-36.16-12.01-68.34-.52c-28.26,10.09-61.48,15.55-43.97,39.92,21.42,29.82,36.2,1.01,72.91,1.01s36.72-.3,73.44-.3,36.72,.02,73.44,.02,41.21,17.25,73.68,.09c27.01-14.28-16.26-30.8-44.43-40.88Z"/></g></g><g><polygon class="cls-1" points="297.06 417.18 268.43 417.18 234.8 417.18 210.03 417.18 234.55 555.8 250.96 555.8 265.63 555.8 282.72 555.8 298.94 555.8 319.38 417.18 297.06 417.18"/><polygon class="cls-2" points="297.06 417.18 268.43 417.18 234.8 417.18 210.03 417.18 234.55 555.8 250.96 555.8 265.63 555.8 282.72 555.8 298.94 555.8 319.38 417.18 297.06 417.18"/></g><g><g><path class="cls-1" d="M315.08,327.7c.13-1.35,.21-2.72,.21-4.11,0-24.71-21.69-44.76-48.54-45.01v49.12h48.33Z"/><path class="cls-2" d="M315.08,327.7c.13-1.35,.21-2.72,.21-4.11,0-24.71-21.69-44.76-48.54-45.01v49.12h48.33Z"/></g><g><path class="cls-1" d="M266.75,278.58c-.17,0-.34-.01-.51-.01-27.09,0-49.06,20.16-49.06,45.02,0,1.39,.08,2.75,.21,4.11h49.35v-49.12Z"/><path class="cls-2" d="M266.75,278.58c-.17,0-.34-.01-.51-.01-27.09,0-49.06,20.16-49.06,45.02,0,1.39,.08,2.75,.21,4.11h49.35v-49.12Z"/></g><g><path class="cls-1" d="M217.39,327.7c2.26,22.94,23.26,40.91,48.84,40.91,.17,0,.34-.01,.51-.01v-40.9h-49.35Z"/><path class="cls-2" d="M217.39,327.7c2.26,22.94,23.26,40.91,48.84,40.91,.17,0,.34-.01,.51-.01v-40.9h-49.35Z"/></g><g><path class="cls-1" d="M315.08,327.7h-48.33v40.9c25.35-.24,46.08-18.12,48.33-40.9Z"/><path class="cls-2" d="M315.08,327.7h-48.33v40.9c25.35-.24,46.08-18.12,48.33-40.9Z"/></g></g><g><g><g><path class="cls-6" d="M142.01,533.29c0,12.43-11.21,22.88-24.47,22.88s-24.45-10.45-24.45-22.88,11.19-22.49,24.45-22.49,24.47,10.05,24.47,22.49Z"/><path class="cls-3" d="M142.01,533.29c0,12.43-11.21,22.88-24.47,22.88s-24.45-10.45-24.45-22.88,11.19-22.49,24.45-22.49,24.47,10.05,24.47,22.49Z"/></g><g><path class="cls-6" d="M137.62,503.67c0,12.43-10.91,22.77-24.17,22.77s-24.01-10.34-24.01-22.77,10.74-22.98,24.01-22.98,24.17,10.55,24.17,22.98Z"/><path class="cls-3" d="M137.62,503.67c0,12.43-10.91,22.77-24.17,22.77s-24.01-10.34-24.01-22.77,10.74-22.98,24.01-22.98,24.17,10.55,24.17,22.98Z"/></g><g><path class="cls-6" d="M134.77,472.87c0,12.43-11.13,22.4-24.39,22.4s-23.13-9.96-23.13-22.4,9.86-22.34,23.13-22.34,24.39,9.9,24.39,22.34Z"/><path class="cls-3" d="M134.77,472.87c0,12.43-11.13,22.4-24.39,22.4s-23.13-9.96-23.13-22.4,9.86-22.34,23.13-22.34,24.39,9.9,24.39,22.34Z"/></g><g><path class="cls-6" d="M131.1,442.06c0,12.43-10.52,22.23-23.78,22.23s-24.33-9.8-24.33-22.23,11.06-21.78,24.33-21.78,23.78,9.35,23.78,21.78Z"/><path class="cls-3" d="M131.1,442.06c0,12.43-10.52,22.23-23.78,22.23s-24.33-9.8-24.33-22.23,11.06-21.78,24.33-21.78,23.78,9.35,23.78,21.78Z"/></g><g><path class="cls-6" d="M127.32,411.26c0,12.43-9.8,22.34-23.06,22.34s-24.64-9.9-24.64-22.34,11.37-21.72,24.64-21.72,23.06,9.29,23.06,21.72Z"/><path class="cls-3" d="M127.32,411.26c0,12.43-9.8,22.34-23.06,22.34s-24.64-9.9-24.64-22.34,11.37-21.72,24.64-21.72,23.06,9.29,23.06,21.72Z"/></g><g><path class="cls-6" d="M125.02,380.46c0,12.43-10.57,23.02-23.83,23.02s-23.38-10.59-23.38-23.02,10.12-21.99,23.38-21.99,23.83,9.56,23.83,21.99Z"/><path class="cls-3" d="M125.02,380.46c0,12.43-10.57,23.02-23.83,23.02s-23.38-10.59-23.38-23.02,10.12-21.99,23.38-21.99,23.83,9.56,23.83,21.99Z"/></g><g><path class="cls-6" d="M121.55,349.65c0,12.43-10.17,23.34-23.43,23.34s-23.97-10.91-23.97-23.34,10.7-21.6,23.97-21.6,23.43,9.17,23.43,21.6Z"/><path class="cls-3" d="M121.55,349.65c0,12.43-10.17,23.34-23.43,23.34s-23.97-10.91-23.97-23.34,10.7-21.6,23.97-21.6,23.43,9.17,23.43,21.6Z"/></g></g><g><g><path class="cls-6" d="M386.7,534.47c0,12.43,10.89,23.1,24.15,23.1s23.76-10.67,23.76-23.1c0-12.43-10.5-22.91-23.76-22.91-13.26,0-24.15,10.48-24.15,22.91Z"/><path class="cls-3" d="M386.7,534.47c0,12.43,10.89,23.1,24.15,23.1s23.76-10.67,23.76-23.1c0-12.43-10.5-22.91-23.76-22.91-13.26,0-24.15,10.48-24.15,22.91Z"/></g><g><path class="cls-6" d="M390.76,504.86c0,12.43,10.91,22.85,24.18,22.85s24.55-10.42,24.55-22.85c0-12.43-11.28-22.4-24.55-22.4-13.26,0-24.18,9.96-24.18,22.4Z"/><path class="cls-3" d="M390.76,504.86c0,12.43,10.91,22.85,24.18,22.85s24.55-10.42,24.55-22.85c0-12.43-11.28-22.4-24.55-22.4-13.26,0-24.18,9.96-24.18,22.4Z"/></g><g><path class="cls-6" d="M393.08,474.05c0,12.43,11.65,21.55,24.92,21.55,13.26,0,23.41-9.12,23.41-21.55,0-12.43-10.15-22.78-23.41-22.78s-24.92,10.35-24.92,22.78Z"/><path class="cls-3" d="M393.08,474.05c0,12.43,11.65,21.55,24.92,21.55,13.26,0,23.41-9.12,23.41-21.55,0-12.43-10.15-22.78-23.41-22.78s-24.92,10.35-24.92,22.78Z"/></g><g><path class="cls-6" d="M396.79,443.25c0,12.43,11.01,21.73,24.27,21.73,13.26,0,23.94-9.3,23.94-21.73,0-12.43-10.67-23.42-23.94-23.42-13.26,0-24.27,10.99-24.27,23.42Z"/><path class="cls-3" d="M396.79,443.25c0,12.43,11.01,21.73,24.27,21.73,13.26,0,23.94-9.3,23.94-21.73,0-12.43-10.67-23.42-23.94-23.42-13.26,0-24.27,10.99-24.27,23.42Z"/></g><g><path class="cls-6" d="M399.33,412.44c0,12.43,11.54,21.6,24.81,21.6s24.82-9.17,24.82-21.6c0-12.43-11.55-22.87-24.82-22.87-13.26,0-24.81,10.44-24.81,22.87Z"/><path class="cls-3" d="M399.33,412.44c0,12.43,11.54,21.6,24.81,21.6s24.82-9.17,24.82-21.6c0-12.43-11.55-22.87-24.82-22.87-13.26,0-24.81,10.44-24.81,22.87Z"/></g><g><path class="cls-6" d="M402.84,381.64c0,12.43,11.1,22.05,24.36,22.05,13.26,0,23.74-9.62,23.74-22.05,0-12.43-10.48-22.44-23.74-22.44-13.26,0-24.36,10.01-24.36,22.44Z"/><path class="cls-3" d="M402.84,381.64c0,12.43,11.1,22.05,24.36,22.05,13.26,0,23.74-9.62,23.74-22.05,0-12.43-10.48-22.44-23.74-22.44-13.26,0-24.36,10.01-24.36,22.44Z"/></g><g><path class="cls-6" d="M406.03,350.84c0,12.43,10.97,22.88,24.24,22.88,13.26,0,23.11-10.44,23.11-22.88,0-12.43-9.84-22.67-23.11-22.67-13.26,0-24.24,10.24-24.24,22.67Z"/><path class="cls-3" d="M406.03,350.84c0,12.43,10.97,22.88,24.24,22.88,13.26,0,23.11-10.44,23.11-22.88,0-12.43-9.84-22.67-23.11-22.67-13.26,0-24.24,10.24-24.24,22.67Z"/></g></g></g><g><g><g><path class="cls-6" d="M273.67,77.67c-24.28,21.37-19.32,27-43.6,48.36-24.28,21.37-25.78,19.65-50.06,41.02-24.28,21.37-26.05,19.36-50.33,40.73-24.28,21.37-20.45,25.72-44.73,47.09-9.67,8.51-30.15,5.71-37.49-5.49-1.48-2.25,5.21-6.63,3.73-8.88-7.34-11.2-5.05-21.76,4.61-30.27,24.28-21.37,21.75-24.23,46.03-45.6,24.28-21.37,23.82-21.89,48.09-43.26,24.28-21.37,21.78-24.21,46.06-45.58,24.28-21.37,24.47-21.15,48.75-42.52,9.67-8.51,21.84-1.47,29.18,9.74,1.48,2.25,8.64-2.44,10.12-.19,7.34,11.2-.71,26.34-10.38,34.84Z"/><path class="cls-3" d="M273.67,77.67c-24.28,21.37-19.32,27-43.6,48.36-24.28,21.37-25.78,19.65-50.06,41.02-24.28,21.37-26.05,19.36-50.33,40.73-24.28,21.37-20.45,25.72-44.73,47.09-9.67,8.51-30.15,5.71-37.49-5.49-1.48-2.25,5.21-6.63,3.73-8.88-7.34-11.2-5.05-21.76,4.61-30.27,24.28-21.37,21.75-24.23,46.03-45.6,24.28-21.37,23.82-21.89,48.09-43.26,24.28-21.37,21.78-24.21,46.06-45.58,24.28-21.37,24.47-21.15,48.75-42.52,9.67-8.51,21.84-1.47,29.18,9.74,1.48,2.25,8.64-2.44,10.12-.19,7.34,11.2-.71,26.34-10.38,34.84Z"/></g><g><path class="cls-6" d="M279.87,127.85c-24.28,21.37-22.58,23.3-46.86,44.66s-23.24,22.54-47.52,43.91c-24.28,21.37-25.12,20.42-49.4,41.79s-22.72,23.14-47,44.51c-9.67,8.51-29.77,4.77-37.11-6.44-1.48-2.25,2.65-4.95,1.17-7.21-7.34-11.2-8.15-28.5,1.52-37,24.28-21.37,23.25-22.54,47.52-43.91s29.96-14.91,54.24-36.27c24.28-21.37,18.74-27.67,43.02-49.04,24.28-21.37,27.03-18.24,51.31-39.61,9.67-8.51,19.86-4.22,27.19,6.99,1.48,2.25,7.75-1.86,9.23,.4,7.34,11.2,2.35,28.72-7.32,37.22Z"/><path class="cls-3" d="M279.87,127.85c-24.28,21.37-22.58,23.3-46.86,44.66s-23.24,22.54-47.52,43.91c-24.28,21.37-25.12,20.42-49.4,41.79s-22.72,23.14-47,44.51c-9.67,8.51-29.77,4.77-37.11-6.44-1.48-2.25,2.65-4.95,1.17-7.21-7.34-11.2-8.15-28.5,1.52-37,24.28-21.37,23.25-22.54,47.52-43.91s29.96-14.91,54.24-36.27c24.28-21.37,18.74-27.67,43.02-49.04,24.28-21.37,27.03-18.24,51.31-39.61,9.67-8.51,19.86-4.22,27.19,6.99,1.48,2.25,7.75-1.86,9.23,.4,7.34,11.2,2.35,28.72-7.32,37.22Z"/></g><g><path class="cls-6" d="M285.9,177.84c-24.28,21.37-29.22,15.75-53.5,37.12-24.28,21.37-19.39,26.92-43.66,48.29s-23.42,22.34-47.7,43.71-30.19,14.65-54.47,36.02c-9.67,8.51-20.63,10.03-27.96-1.17-1.48-2.25-3.79-.74-5.26-2.99-7.34-11.2-3.08-29.14,6.58-37.65,24.28-21.37,21.62-24.38,45.9-45.75s26.07-19.33,50.35-40.69,27.31-17.93,51.59-39.3,23.09-22.72,47.37-44.09c9.67-8.51,22.35-6.94,29.69,4.26,1.48,2.25,3.63,.85,5.1,3.1,7.34,11.2,5.65,30.63-4.01,39.14Z"/><path class="cls-3" d="M285.9,177.84c-24.28,21.37-29.22,15.75-53.5,37.12-24.28,21.37-19.39,26.92-43.66,48.29s-23.42,22.34-47.7,43.71-30.19,14.65-54.47,36.02c-9.67,8.51-20.63,10.03-27.96-1.17-1.48-2.25-3.79-.74-5.26-2.99-7.34-11.2-3.08-29.14,6.58-37.65,24.28-21.37,21.62-24.38,45.9-45.75s26.07-19.33,50.35-40.69,27.31-17.93,51.59-39.3,23.09-22.72,47.37-44.09c9.67-8.51,22.35-6.94,29.69,4.26,1.48,2.25,3.63,.85,5.1,3.1,7.34,11.2,5.65,30.63-4.01,39.14Z"/></g></g><g><g><path class="cls-6" d="M257.54,75.86c24.28,21.37,25.98,19.44,50.25,40.8,24.28,21.37,19.57,26.71,43.85,48.08,24.28,21.37,28.47,16.6,52.75,37.97,24.28,21.37,25.65,19.81,49.93,41.18,9.67,8.51,24.12,11.6,31.45,.4,1.48-2.25-5.38-6.74-3.9-9,7.34-11.2,11.9-28.27,2.23-36.78-24.28-21.37-30.09-14.77-54.36-36.14-24.28-21.37-22.39-23.51-46.66-44.88-24.28-21.37-26.39-18.97-50.67-40.34-24.28-21.37-19.45-26.85-43.73-48.22-9.67-8.51-21.26-1.72-28.6,9.48-1.48,2.25-6.65-1.13-8.12,1.12-7.34,11.2-4.09,27.81,5.58,36.32Z"/><path class="cls-3" d="M257.54,75.86c24.28,21.37,25.98,19.44,50.25,40.8,24.28,21.37,19.57,26.71,43.85,48.08,24.28,21.37,28.47,16.6,52.75,37.97,24.28,21.37,25.65,19.81,49.93,41.18,9.67,8.51,24.12,11.6,31.45,.4,1.48-2.25-5.38-6.74-3.9-9,7.34-11.2,11.9-28.27,2.23-36.78-24.28-21.37-30.09-14.77-54.36-36.14-24.28-21.37-22.39-23.51-46.66-44.88-24.28-21.37-26.39-18.97-50.67-40.34-24.28-21.37-19.45-26.85-43.73-48.22-9.67-8.51-21.26-1.72-28.6,9.48-1.48,2.25-6.65-1.13-8.12,1.12-7.34,11.2-4.09,27.81,5.58,36.32Z"/></g><g><path class="cls-6" d="M253.24,123.88c24.28,21.37,27.72,17.46,52,38.82s23.95,21.74,48.23,43.11c24.28,21.37,20.34,25.84,44.62,47.21,24.28,21.37,23.56,22.19,47.84,43.56,9.67,8.51,26.17,4.61,33.5-6.59,1.48-2.25-2.52-4.87-1.04-7.12,7.34-11.2,6.09-22.13-3.58-30.64-24.28-21.37-22.99-22.83-47.27-44.2-24.28-21.37-22.08-23.86-46.36-45.23-24.28-21.37-26.23-19.15-50.51-40.52-24.28-21.37-20.74-25.39-45.03-46.76-9.67-8.51-25.75-3.38-33.08,7.83-1.48,2.25,.67,3.66-.8,5.92-7.34,11.2-8.19,26.11,1.47,34.62Z"/><path class="cls-3" d="M253.24,123.88c24.28,21.37,27.72,17.46,52,38.82s23.95,21.74,48.23,43.11c24.28,21.37,20.34,25.84,44.62,47.21,24.28,21.37,23.56,22.19,47.84,43.56,9.67,8.51,26.17,4.61,33.5-6.59,1.48-2.25-2.52-4.87-1.04-7.12,7.34-11.2,6.09-22.13-3.58-30.64-24.28-21.37-22.99-22.83-47.27-44.2-24.28-21.37-22.08-23.86-46.36-45.23-24.28-21.37-26.23-19.15-50.51-40.52-24.28-21.37-20.74-25.39-45.03-46.76-9.67-8.51-25.75-3.38-33.08,7.83-1.48,2.25,.67,3.66-.8,5.92-7.34,11.2-8.19,26.11,1.47,34.62Z"/></g><g><path class="cls-6" d="M249.48,171.29c24.28,21.37,23.81,21.9,48.09,43.27,24.28,21.37,22.58,23.3,46.85,44.66,24.28,21.37,24.63,20.97,48.91,42.34,24.28,21.37,25.15,20.38,49.43,41.75,9.67,8.51,24.51,4.58,31.84-6.63,1.48-2.25,3.1-1.19,4.57-3.44,7.34-11.2,4.09-28.01-5.57-36.51-24.28-21.37-22.97-22.85-47.25-44.22-24.28-21.37-26.42-18.93-50.7-40.3-24.28-21.37-25.28-20.23-49.56-41.6-24.28-21.37-23.9-21.8-48.18-43.17-9.67-8.51-22.46-8.35-29.8,2.85-1.48,2.25,2.88,5.11,1.41,7.36-7.34,11.2-9.71,25.13-.05,33.64Z"/><path class="cls-3" d="M249.48,171.29c24.28,21.37,23.81,21.9,48.09,43.27,24.28,21.37,22.58,23.3,46.85,44.66,24.28,21.37,24.63,20.97,48.91,42.34,24.28,21.37,25.15,20.38,49.43,41.75,9.67,8.51,24.51,4.58,31.84-6.63,1.48-2.25,3.1-1.19,4.57-3.44,7.34-11.2,4.09-28.01-5.57-36.51-24.28-21.37-22.97-22.85-47.25-44.22-24.28-21.37-26.42-18.93-50.7-40.3-24.28-21.37-25.28-20.23-49.56-41.6-24.28-21.37-23.9-21.8-48.18-43.17-9.67-8.51-22.46-8.35-29.8,2.85-1.48,2.25,2.88,5.11,1.41,7.36-7.34,11.2-9.71,25.13-.05,33.64Z"/></g></g><g><path class="cls-6" d="M246.86,31.75c0,30.84-1,30.84-1,61.68,0,30.84-4.66,30.84-4.66,61.68s3.56,30.84,3.56,61.68c0,11.87,7.17,17.56,19.04,17.56,2.91,0,2.91,8.14,5.83,8.14,11.87,0,17.76-13.82,17.76-25.7,0-30.84,3.94-30.84,3.94-61.68,0-30.84,3.7-30.84,3.7-61.68s-7.09-30.84-7.09-61.68c0-11.87-6.43-20.47-18.31-20.47-2.91,0-2.91-2.53-5.83-2.53-11.87,0-16.95,11.12-16.95,22.99Z"/><path class="cls-3" d="M246.86,31.75c0,30.84-1,30.84-1,61.68,0,30.84-4.66,30.84-4.66,61.68s3.56,30.84,3.56,61.68c0,11.87,7.17,17.56,19.04,17.56,2.91,0,2.91,8.14,5.83,8.14,11.87,0,17.76-13.82,17.76-25.7,0-30.84,3.94-30.84,3.94-61.68,0-30.84,3.7-30.84,3.7-61.68s-7.09-30.84-7.09-61.68c0-11.87-6.43-20.47-18.31-20.47-2.91,0-2.91-2.53-5.83-2.53-11.87,0-16.95,11.12-16.95,22.99Z"/></g><g><path class="cls-6" d="M290.83,215.77c0,12.43-10.82,22.12-24.08,22.12s-23.85-9.69-23.85-22.12,10.58-21.71,23.85-21.71,24.08,9.28,24.08,21.71Z"/><path class="cls-3" d="M290.83,215.77c0,12.43-10.82,22.12-24.08,22.12s-23.85-9.69-23.85-22.12,10.58-21.71,23.85-21.71,24.08,9.28,24.08,21.71Z"/></g><path class="cls-5" d="M267.72,31.58c-14.54-19.38-7.26,22.12-10.06,46.18-3.03,26.1-1.67,26.45,1.08,52.58s-15.04,54.46,11.54,52.37c26.98-2.13,4.61-26.96,5.53-54.01,.56-16.4-5.24-16.02-3.22-32.3,4.17-33.56,14.94-38.38-4.88-64.81Z"/></g><g><polygon class="cls-5" points="214.37 203.91 162.09 226.86 110.44 261.26 69.25 309.25 126.39 280.82 153.69 253.14 214.37 203.91"/><polygon class="cls-5" points="214.37 154 162.09 176.95 110.44 211.35 69.25 259.34 126.39 230.91 153.69 203.23 214.37 154"/><polygon class="cls-5" points="217.47 82.37 167.31 109.65 118.75 148.29 81.76 199.59 136.3 166.44 161.16 136.55 217.47 82.37"/></g><g><polygon class="cls-5" points="308.8 188.57 364.2 214.98 418.34 253.17 460.5 304.87 400.13 272.55 371.98 242.55 308.8 188.57"/><polygon class="cls-5" points="321.6 137.93 374.78 168.55 425.8 210.83 463.82 265.63 406.14 228.73 380.4 196.64 321.6 137.93"/><polygon class="cls-5" points="319.68 88.09 373.32 117.89 424.99 159.38 463.85 213.59 405.61 177.59 379.38 145.89 319.68 88.09"/></g></g><g id="Layer_5"><path class="cls-8" d="M478.66,296.06l2.95-4.56c7.34-11.35,5.45-27.53-4.21-36.15l-1.01-.9c2.27-1.63,4.32-3.76,6.02-6.4l2.95-4.56c7.34-11.35,5.45-27.53-4.21-36.15L291.13,37.97v-2.94c0-12.03-9.63-21.78-21.5-21.78h-5.83c-11.87,0-21.5,9.75-21.5,21.78v8.05L52.64,212.14c-9.67,8.62-11.55,24.8-4.21,36.15l2.95,4.56c1.7,2.63,3.76,4.77,6.02,6.4l-1.01,.9c-9.67,8.62-11.55,24.8-4.21,36.15l2.95,4.56c1.7,2.63,3.76,4.77,6.02,6.4l-1.01,.9c-9.67,8.62-11.55,24.8-4.21,36.15l2.95,4.56c3.84,5.94,9.45,9.37,15.31,10.06,.54,6.05,3.56,11.42,8.09,15.2-3.2,3.87-5.12,8.75-5.12,14.06,0,6.83,3.17,12.96,8.19,17.14-3.2,3.87-5.12,8.75-5.12,14.06,0,6.83,3.17,12.96,8.19,17.14-3.2,3.87-5.12,8.75-5.12,14.06,0,6.83,3.17,12.96,8.19,17.14-3.2,3.87-5.12,8.75-5.12,14.06,0,6.83,3.17,12.96,8.19,17.14-3.2,3.87-5.12,8.75-5.12,14.06,0,6.86,3.19,13,8.24,17.18-2.62,3.65-4.15,8.06-4.15,12.82,0,12.59,10.75,22.8,24.02,22.8,1.65,0,3.26-.16,4.82-.46l.07,.46H403.16c2.41,.77,5,1.2,7.69,1.2,13.26,0,24.02-10.21,24.02-22.8,0-4.75-1.53-9.16-4.15-12.82,5.05-4.18,8.24-10.32,8.24-17.18,0-5.31-1.92-10.19-5.12-14.06,5.02-4.18,8.19-10.3,8.19-17.14,0-5.31-1.92-10.19-5.12-14.06,5.02-4.18,8.19-10.3,8.19-17.14,0-5.31-1.92-10.19-5.12-14.06,5.02-4.18,8.19-10.3,8.19-17.14,0-5.31-1.92-10.19-5.12-14.06,5.02-4.18,8.19-10.3,8.19-17.14,0-5.31-1.92-10.19-5.12-14.06,5.02-4.18,8.19-10.3,8.19-17.14,0-1.46-.15-2.88-.43-4.27,7.77,1.48,15.96-1.99,21.05-9.86l2.95-4.56c7.34-11.35,5.45-27.53-4.21-36.15l-1.01-.9c2.27-1.63,4.32-3.76,6.02-6.4Z"/></g></g></svg>